<mxfile host="Electron" agent="Mozilla/5.0 (Windows NT 10.0; Win64; x64) AppleWebKit/537.36 (KHTML, like Gecko) draw.io/24.7.5 Chrome/126.0.6478.183 Electron/31.3.0 Safari/537.36" version="24.7.5">
  <diagram name="Page-1" id="MBNOfd6OtYcJmXM9TG5Z">
    <mxGraphModel dx="-224" dy="830" grid="1" gridSize="10" guides="1" tooltips="1" connect="1" arrows="1" fold="1" page="1" pageScale="1" pageWidth="827" pageHeight="1169" math="0" shadow="0">
      <root>
        <mxCell id="0" />
        <mxCell id="1" parent="0" />
        <mxCell id="tR3VETBykpzzzQw2HGaD-22" value="Display/Gas" style="swimlane;whiteSpace=wrap;html=1;" vertex="1" parent="1">
          <mxGeometry x="1720" y="90" width="520" height="250" as="geometry" />
        </mxCell>
        <mxCell id="tR3VETBykpzzzQw2HGaD-23" value="" style="shape=image;verticalLabelPosition=bottom;labelBackgroundColor=default;verticalAlign=top;aspect=fixed;imageAspect=0;image=data:image/png,iVBORw0KGgoAAAANSUhEUgAAAgAAAAIACAYAAAD0eNT6AAAAAXNSR0IArs4c6QAAAARnQU1BAACxjwv8YQUAAAAJcEhZcwAADsIAAA7CARUoSoAAAP+lSURBVHhe7P0HoC1ZVS0MV+1wwj3n3Nw5R2KDQKMkQdHf9AxPRVFEwQA0IFkEmpwziAG6SfLMGT+zz6egopJj54bOufvGE3ao9I8x5lxVtfc5twPQ9O1719h71lw5VdWcc61KSURERERERERERERERERERERERERERERERERERERERERERERERERERERERERERERERERERERERERERERERERERERERERERERERERERERERERERERERERERERERERERERERERERERERERERMThihnnEREREXcZqfOIiIiDF3NLS0vfW1XV98B9epqmJ8B9Avh28H0Iuw10CegTCPv48vLyJ+GOiIiIuF1EAyAi4iDF4uLiY8BeAqX+v8Dvyrn672VZvnd1dfXP3B8RERGxDtEAiIg4yLCwsHBkp9N5D5w/YyFfH6qqeufKysqvuTciIiJiAl3nERERBwE2b958Nmb8H4PzURby9QPlPGpmZmZxPB7/iwdFRERE1IgGQETEQYR+v/8CKO4fcO80bgB9BvQPmN3/f+DXgQZIfwL4hqARMDs7+1kYAZd7UERERIQQLwFERBxEWFpa+gDYr5ivxodAHzzQzX3IcwaX+6Hsf8SDpvEx5H28uyMiIiKEjvOIiIiDD++DYj8CyvtXbu/OfsRdvrKy8qNwvtVC1uG7N2/efJq7IyIiIoRoAEREHFy4DPT/yrJ8PBT7s6DY+YjfnQLSvwwGwxXunQDK+153RkRERAjxHoCIiIMI4/H4v0G/n2XZVR50lzA7O9sH+z7zTeBSlPt/3R0RERERVwAiIg4lpGl6gTuncazziIiICCEaABERhxCyLNvQAIBhsN+dEREREUI0ACIiDiF0Op37uHMalzqPiIiIEKIBEBFxCAEz/bPdOQ3eXBgRERFRIxoAERGHEGAAPNydE0A4PxYUERERUSMaABERhwgWFxd/AuwJ5mtQVdUf7N+//2vujYiIiBCiARARcQhg06ZNx2CWf557J9DpdH7LnRERERE1ogEQEXEvB2b+P9Xtdv8VziMsZAIfwOz/0+6OiIiIqBG/BRARcS/E5s2bT6+qit8AeBZm/j/swdN47fLy8mvcHRERETGBaABERBykWFhY+G4o9zfC2bMQYQvCzgC/vXP3AhgGv72ysnK++yMiIiLWIRoAEREHKRYXF/8Iyv5n3XuHgNL/Y7D3QvF/wkIiIiIiDoz4LYCIiIMUMzMzT4UBcKZ77xBIexboUbOzs8f3+/0qy7IrPSoiIiJiHeJNgBERBymgzL/izruC+4Je2ul0/nVxcfEfl5aW7rQBERERcXghXgKIiDiIsbCw8DNQ5jPuFaqqOh7GwYngJ4KfhKD7W8yGyMuyfP7q6urvuD8iIiJCiAZARMS9HD7LfxHo6QrYADAUfm7//v1/5N6IiIiIaABERBwqgCFwn6qqXgFl/2QPauOGmZmZ++7atWvZ/REREYc54k2AERGHCMbj8S7QR2dnZ/nY4GMttMZSURTbEf937o+IiDjMEVcAIiIOQSwtLf0n2GPM1yBN0x379+/f7d6IiIjDGPEpgIiIQxBVVf2BOyeA8AO9NTAiIuIwQzQAIiIOQXS73X9x5wRgAJzizoiIiMMc0QCIiDgEsW/fvg1fApSm6THujIiIOMwRDYCIiEMQO3bsWHTnBKqqutqdERERhzmiARARcQhiNBo92J0T6HQ617gzIiLiMEc0ACIiDkFgpr+hAZDn+QXujIiIOMwRHwOMiDj0ML+4uHhhmqbTN/xdu7y8fKK7IyIiDnPEFYCIiIMES0tLvw36PGijN/ndaSD/ezZQ/kR8CVBERESNaABERBwkqKrqdLCHgH7fDYGnHHHEERvezLcRtm3bdiLynA/n0yykAcreDaPgFe6NiIiIiJcAIiIOFiwuLv4PlPQj3BtQgv4SCvyGbrf7+3BfsW/fvj2KAebn549D+OnI9/3wvsxC1wP5n7WysvI+90ZEREREAyAi4mABZu9/AvZE8x0YPpu/FvwM8E0efEAg3Suh/N/g3oiIiAghfgwoIuIgwezs7BjsZ813YEDpz4MdDd63kNvFi6H83+LuiIiIiBrRAIiIOEgwHo8vhRHwz3BuB91PgV8//rXT6Txh//79f+X+iIiIiAnESwAREQchlpaW7gP2VNCjnPiJ3zvCTaCPV1X1Xsz6+TXAiIiIiAMiGgAREQc/OouLizQCjgYdAToStAW0B7N83hC4B0r/08vLy5fDHREREREREREREREREREREREREREREREREREREREREREREREREREREREREREREREREREREREREREREREREREREREREREREREREREREREREREREREREREREREREREREREREREREREREREREREREREREREREREREREREREREREREREREREREREREREREREREREREREREREREREREREREREREREREREREREREREREREREREB/MGbnpH+Psi9ERGHFOKBHRERcdDjn97zXMmqKqnIqx983m9V9H+z8YdvOcdkYmWysarqaqonn3v+3VJnRMQ9hWgAREREHBA3fv6PICOq5JiH/tzdrvz+32+/MA0Kl7yksjd/LadgAIhhW/3QN2AE/NFbnpumHRZcpSwEBaIO1FjRwGDpVrS3R0lI0QiIOJQQDYCIiIgat1z4F2mVF9CFpnyhEhEKIoPnmId/cw2Bj533YtSD4qF4y5IKOIFCLmkIUDYFTqghMADUkhKO//X8O28AfOS1z0y7vU6SdjppJ00T/hWRqvxOqMcUfqma6A0BXnH18y+PBkDEoYNwckVERBxG2HfNP9vsGpq0LIqkKstUvCjSCsoffilBaj7qQTogLKqjz/45RNx1/MeHX6b6KsttbhRJ/ar63K+qJg0AZQDooN5nCbwEMNGOj7792WmWV0mWl0mGfozgLpCC2r7X7ZCSLpV/J00QhNm/iz4zAGpDw+pjNaqXXPXBWz55Svl/5A3n0IxAPhSC7VPOfd9EfETEwY6O84iIiEMYKzf+e7r/+o+l+679t86+a/8fF7957huladfd4GmPHHqtC23GMNeUXx/+4/+8Iv2Pj5yLOrwu1SHqsQ4UXtcNf0gT6qRCJVEJixBRdaGu4a7x52/71bQo047amyZod6tvXjaoh/guSrP67Bo/SFVRgRdgOSyQHGFOCbnqdftA+OM3PSP9yOvP6aIVLAvWRMU6IiLudWiO6oiIiEMC471f4TI6Z/XQaZhNl3laljlm+jnDoD4L6DnGcT7NeEtb5Zj9awWAS/GY+pbQe5z7IiVnwkWeV8d/xy/Uyvfyj52XFphtF2WRZKMsWd67L1lbXVP+fr+X9Ho9zrVN0bIYTaw1y0cY/PxrTq9wVUKUaBv9BP1kTtTc1ff5tf8Pv/H5aQ/Kt9cpO9DsHeREe8pqDMryCt1BRaieKwDdHqjToZWRdDodKHwMkbcMWxAbpv7K97Mvfa/q+KM3PyvtwbT46ZfY7P7drzon3dRNOlpQkPKX8VAadapfeJnli4i4NyAaABERhxCo/MGoDKHIyhTKFKqJSr1IZASAoKDdAHBFC0VfUvHrEkAJL+IY5gYAtFzZ63arnQ/6KSm3v3vfC9MTTzwxnZ2b4XX7NM/zJBuPk9FgmI6Go6TIi6TD6TwULvKajGFF/EPZmyq3MFf+ROCEJwdpa4CyT/5/z22u+3/wDS+A8q+6fTYvKaGPywRKv8qKssxy9NQvW3ShqtH+pAvtz+v/nQ6sBhgA4TIAC4S3+pkX3/49Be945TPT1SxJt81W3bkuikQfqfhRcQFJWjz15edh4CIi7j2IBkBExCGC8d4LqO+gj3RNHcTZPvSTZvhS/vDyej+IK+pIBC0PJ+NhIED5uxGgcM7kaQLMzM5WOx7wE1KOv/uGp6SnnnJyZ+uWLZ1+v8+l75QrAPk4q0ajUTIejaoi4+q5Lr9LQwKmWGVPUOMrxLY++/eNpWS9IOb87uf+BkM2xPte/6LOfLfo9dIS6h39RNlsugwAUA5CM6ouFH2/C0sBZgKsEuXtI+xnX/pb1V+843myUX7yRVbPR3/jhTBqMBYwjn7qResNguc//1npiZur7qYeiqORYwYAVwCKp7z8vOoDr7fHCNltZn7aK847YPsjIu5p6GCNiIi4d2O090LoHE14zQAgabmfK9tQ6hWmxo0RQEWMZIakYBw0J5S/jADqYhkFMgCSbdu2JbMnfV/1yY++Nd23Z2+6tLjQmZ+b6/Z6vS5n+VTWeZ6X2XhUjUfjEsYAy5YWpHJ1XUhNzzKp+k0pommPe9qb1ynIT/wOlbDVzR+n1car5Pue+9t1+t9+/YvTxW4ORVykMAC4qmEGACkv4GZfkupZb/zQujoC/vpdL+CygNrKfpO4akJDhfl/5sW/sy7v219xTro0k6Q9jDTNiS6a9xQoeip/ZFdp3mkVySF91muiIRBx8AGHaURExL0d4/0XUYPxEjnOaSl+qB8pc3+8Lodmg/KXIUCDQAmooKul477nTiunv3z3MztHHX10Z9OmTTQAoP9ZJW2HvMqyrBwPxzAExtJ+vsTOpQgIGlWHxpn70b/4ljtd54Hwqd98Snrp6tY0g+6fSYqklxRU/smooE1DI6RIznnDR1TPe170lBT2SjI/30t+6TXvv0t1/807n5HCzEm7MKs29ZPqcc/54Ib5z3+dZv89dE83B4KYDq1JinNeHS8PRBx8iAZARMQhgPHyxZjpcxZMA4AzWc3wxTW7p+LnDe7wSxkjFZepeW28v+PRUmjl3k+mZZ4nvZ2P2VDBEe8453vSsx/5iHRhaanTn5mx6/wIpwHAmwSzcVY+4omvrP79916j5+65+kBKVS+rRdG0PaCoSTJDQI9++tuwvX38y3ueR3OjO9Mp0k3drJrp5uWeUbd87HM/sGHe8172C3r8j6814FUJ3rk3P99PZvqd5Ml34pG9P3/7r0KRlzOdtILpwKl9VcCmyXudNP+B569X6Oe/9hwuCPApij6IRgDrGGOc86e/6jy0IiLi4ALPyYiIiEMAwz0X6Lq7gNkqwefee0sPuENldyDsv+ZvU+jbNIVtwVfnZWmnuvWWW5O9N9+UllmW9Pp93lWfwHCAfZEnD3vCuV93XcR//uYLYFHAiEmrDsyWDqbPHZgJrlSrGXDo36rqd6rxTLdam+tVwwf9iinXP3/Ls1PaFU982fpl+43A6/3Q0qxNjxDCEOELgbowmvqgWdA8/PMY0S4Mlxz1rsKxv58maz/0wvMylvHmlz0jPX4pSX7+3POr82AAIC3alyCJDADeG5CRfukVjcHwO686J3326+IlgYh7HtEAiIi4FyJfuTgdDUZJBiW8trqWrOxbTc48+4cmlEox+ppefKNH2TXrxix89j53qHhu/vJfpHPz/fCcezcp9fRc2u32yrnFxay7dVu+fOst5eYTv1dlfenv35kOl5eTfDSWQVDmgyQbLmv1Ie1tSh77y+++wzr/630vYn09ZILyrWaogNHqORgBm5B5Hh2YhyEwi6RsywiT+b1d2CK9TrL7kef8zoBl/PGbfpXGQjWDNjzhxQe+eZD4s7c/rwdNPQPjZQZScJaE+qnwF1D3oqgkr+ZYEAyAVQzlLZ2kug4NuBWWyOoP/pop8Y+84Rkd3oI4zqH9YUz0OxgqcLSxQp5itpsU/xtp3/GyZ6YwWnhlhOYZ81bPeX00BCLuOUQDICLiXoRLP/0v6dKW+bQ/Qz2Y8Ln3JBtnyWB1rVpZXisf+vgn3GmFUq19EnPTIq3yKs0LvQ+gWxV5t8izmSLP58ocs+CyIkGv8XG67mhmbm55dvPmlWTb9lGanrluGfxA+MKHfi3Ne/1UD8vzCYWi7KBcEAwMKH0kmQWfQxiUfjlflhWV75YyqbahQ1sQvwjlDr3L5xqT/ZhV39hJkqvBr16Yy3c9/FfO06MHbbznRU/szM3MdjfNzHRnZ3q9CnUXfI9Q2umjL3PdTnceBtKmNE03VWkCxZ9sRp3bofxJ20BL8M+g3gwaew+KvBqGwKWgK1D3LT/5kvOHVlOD33vjMzpz/SRdmEmTxX5SHb2UVPf5hfOqN/3qc9L5pbzT7WIsdYug7m3kykUZjYCIewrRAIiIuBfgkk//K59gw9QS09bZbof330Fx8W71NM+KajgclqPBCPZAWj74sT96QIVS7f2PtOrNdzGz7qZQ+KSyLPtlUc6Az1RQ/FD+C2Weby6KYrHKy000AJAzx2x5L2b4N8/Mzd7cm5nd3T36sVoGX/3a/00XTvu+A9b56T98Ra8sCqjDlIoes3vM5FmXjAsq/mQO5W9COGfgm6j80ZYtcO9AoTtB26GEl8DZjjGE1m0o5xrkuwQjcFGnW139+Gf/zl5VBrz1OT/dmel3+zO97ly/11vEUG2Cwt+Eqfds2u3MYAxn6e92OgudtLMpSdMFSEIaHFtRzw7wI9wIYFgXNEZdu2CgXIHiv4I2XABj4WswTm598rnvH1utht97wzkp36V45EKSfP9zGsX+umf8arp5e9FDW2dhAPBeASp/jl8WDYCIewrRAIiIOIhw/cX/g3OSC9k4N6EW+Dx6nvMNdwXDtaTf73c6Xd2ATwOgYlzJx+8Ga2v58p6bykf+8DkIHqVFfgtMhiztlEUHnk6C2X1VFlC8oKrgde4ZTKihgEvMvMtNUNILVPpllm+FAbC9LPJtMAwWOFNHgwZQlDdBaV4J5fnVXq9/zabTf3C/N1v4s5f9cOfIE0/tLB15bHdmYalX5lkvG6zM5OMRjYs5lDGPDm0CByU0LBbczdk3DQAS61tEv7fCSMEsXEbAFowILwV0aQCgKijj5GrkuRBhX0K6S0d5etOu/eVgeTCCnZTPddJqoddJtkDZb8c4be2mnaVOt7MJNI+wecz+N2EAF2AUaAUAZUJlV5tRz1bUCSq5GgCDRE9S5KhrGfwapIPyr75UlMnFeZlcNy7TPeMkHZTdJOvOF/nzXtzckPiaXz8nfc3bTLm/8peek24/Mu93exMGAPsSDYCIewzRAIiIOEhw/SWfhNLXe+Wl2KF0qHxSPptf+Ct7U94G37MP3ECZ8fxFcFGNx1m5sndv8aDHPQH6cIDw/f2qHEO5Z3NQ/nNJmc8mRTEHJQ9ln4OKWRgBICrgkrSIejDrz7cWGZR/nu+oigJGAA0AKcH92FyHgjHrTr+Spp2Lkm7nxssu+Up23WUX8VJCZ+v2I2Y2LW7e1J+bW+j0elLurA9GxTzKAEnhg5JFcSh6V/4LUvClVgCUDp3g8vtmcC79zyFND5xjQ2W5gs31ZZVcAvpyXiSXjPPkprVRsTIY5xivfBMGawtGZyfGayfspG0wApZgvMAAwMwfBgBMKBgA6Tz6MQcpOAdTivcYzLPNVl/FFQreEIgK8asSPkN5G/hXUefFhfFriiq9uUyS28oOjJJete85575/De0T3v3Kc7CTqur5rz2/evGTnpceffy415+pZvwSAC9ZkAoaAL9x7jO5nsNswvPeGI2CiLsf0QCIiDgIcO3F/w1dBdVg75YxA4AcWobP8dMIgDKiUqg63TThI3ZQZHrWnhPUPM+qGy5dKY/c8mPJqY/f10+S1aWkzLZC8W/DzH8bCtgChb4IY2EefBZGgAwAXm+nAQAFvVgVmHUXxbYi1wrAZk+PtKi7rFbAb0C7LoX7i2jTl0bDwTXLe/esrOzbW+VZxuvqi71efwuU7La009kGvQkFrrJ5TZ8KnwbAIvJL6aMrCEsw+6biT6hw7QbAskK7ePOdOC8ZmDGkH6GR2Iuwq6GAL4EBcEVWVLfCBhpkecEVkU1IsQ3pdmB0tkOzbsbILsgA6HTnYDjNQjPPwgDoI64PKdjDSPdRdh9F91Af71NgLSCr1epPRqj3FhDGIbkRiv9GNO0GhF+LvXYV6rgWu/DmZ77ivFU1s4WXPumF6RHHDTv92ZL3ABBcAZDyf8/Ln4UQPr6pfU+wm+Xz3hi/Lhhx9yIaABERBwGuvfC/+Ew9z0eRlB4c0HR00wCAHqUBgIhuQuVf9Xq9pNuH3kp3I8e+5OhTnliN91ad3pa9i5gkH50W2fFQ/icg87GY8R8B2gwFTwOgDwOgV4K0ClD6JYCyhNKXEbCAWXQPRkAXafkioQ7ic1S/G/wKtOUiGBwXjYfDq4drq3tHwyGyFLNoOBXtDsyqoXiTbWg2Z/A0ADi7J2kFAP2Bgk5geCS8LMA7+03pWl9RHxVw0oH65aOAjQKecOsFO7uKMr0mL6ub8qLaD8rRDt7TAIODN/CVm5F8CaO5CZPuOd4DgDGegfLv6QYKbTDe+KEs3ZyI9FYHf6zPK8OWxCYOwEHpKjhvDLwJROV/GXbCxSjrqzACbjjnFe+bMAJ+6yXPTYs0Tzq8FdFm+vUTAGYA6P0BwQCAbQHrIylgBNy1lxZFRNwV8MCLiIg4CHDL5Z9N8yKXwpcyAsg1EYVWBGmeyFfSYTabzM4tJUee9uAJBVHwEflk946kXDk1KbL7JUVxXyj+U0FHYza/GbwP5Z5WRd6BTgcVXObuoWzMvKGopfz5SmBQzi8IFlBF9m5+GAfjoixuLvPiKsz4r8zG4xuy8WgZbkTrmfktaOl2aErM/qvN6AaX8nmZgU8SkKjweVc9wzDb12N/0qwk2jcIT6T06RdnCH/0Kw2jaCAwDV/6txu20f6CLwFEArSjV6Av4DRsZpGTNxlips9ZfkrFDxZIQ6YxVS0qlH+rT1uGhS3EpWwE5Uv5ZqMRHHvhvgFlXQ5+AdJ9BYm/hkQ3V0W6OsIOHVdZ9dK3fIgz/g0BA4CKnwYAH7tk6TQAcrDieW8836qOiLgb4KdARETEwQKuBphyosIBw4ZeKS0uEpAQ3pvlJLqXHHXKA6pPfvCX0+Of+MHkmMVkrlPefHSSr90fs/yzQQ+D4j4Tiv9IKHrMjHWNHF59HhjGBdxlobcIQmli9owZdG0A8MNA4Kb8yZGvWC3yfFeeZzcXWb4nz/MRwmBIwHiw5f0ltJfP0XPGPwN93QXn7FqP/aHhmmmTqNBrHYsNFTCqMq5wC2O0/PjLSMBQWLyaNAaZ8kcdCHBiPaXN6jWQIA6q/eVkuSLVQyvL6gIzo4A+D0Jmy4WdoH0Tykr5koV0H0KuBb8UqS9C/svRj+tBtxZVuRe0vJYVa696+4f0qOJvacafJs95o72w6DfOfTYNACr/XsrXErHWpMraBsB7ztUqAZAmz3vTnXvRUUTEHcEPqoiIiHsCV37+39LVtZXkgY858KN7dwVVtbxQjXedlOTjh0LZPwrK8NuhNU+H5t4CQrwUP1/dKx6Is3zEQ8+78ufMX5zhJZ/blyFQEHkxRJ5lcbs20UMcr9XzOX7O9PkiHyp+m8W3uCnbmsjA2XBypIPTlDvjxWEshDAUwRDzK9zarbJgFNAiILkyD6SB4SY43cP0To0BYLGWwpoDogEA6MELLiLQp41zJudKwPVoy1Uo5hrQDWgK75m4HnQDSr0ZPdn3wjdMPjZIvPNlz0m7KT8qmHQbA4D3CJQlbwZ05e9kV4aiERDxzQAPqoiIiG8xrvziv1GBYTZepMPRMNm/f2+1Z8+u6n896fm1YF+76dI0y8ZUukmO2fiRpz/sDoX+ePmSrVWRnwFt9h1QPI+GgnwolNuJ4LzzHyqFCj+TAYCZPPyZDICg9BHPWb4UKxSpnjyg8q8NACrYooDeLzCxpfKn8tQHh+pZflD0plyZD34nU7YkV8AIIIfKM83GZOTYWBJLqyLll5sOXhrhEgln+ooQ9zo8jcbEtvRbmKcF87RohOVRXMjJZuhGPSpdaP0uVD8vIWCWzqcxecsm9TFSkOuO/nQFhexGM3ajrN0ogwbAlYj7Ksr8KtJeg51+63PfcP66ywHvftmvorj6/gCiet4b3yvPb577TBgHVgk41zKq5/rqQUTEN4JoAERE3I246L/+Rkq0rKhcIbuhOrq9Hl+rKz2CJFDyWTJYW6kGgzVo1rL8rv/9tAMK99UbPp+OxlUny6t0PMySlf1rycVfuqpMOqP0rIedOr956+KRM3P9+3a7nYej6G+HHjkLyu5otKHHGb4uAeQwAEhuCMAAoCHihgCNAmurK1TqSnA4dJmACpPKl3FUvK58pbXJXZEyObiRK2YnpPdZvdyKo1ZjCYr2ougQsyRKrkQ0FvxGQXhoAKA8wcuyhEos2KUUxYtklKD53C/4kdPPOPvR/KCXSr2A6pUBAOrDCJjxlQAzAFB2UM1ID8spGSPnCJnXUOVuBF6LqEsQewHiLkLXr6ryzp4uDItOv25s9atvPvAd/795ru4RIKE6WQhlNAAivhngdaeIiIi7AZd+6h9shprYbBVb6AxexU+70Bs499Iu4npQPbxuTaUGRdMpP/xHf+0lTGL3lZ/tQ/HPYd6tO+oxEd9U5MXswtLM/JbtC5u7ve6RKPdEKLnToNBOLcriJEzUj+Kb/aDoO5zx5zA2MvAsG9Pw4ApDyjAji88Rz1UHlO0TfQANxAYGgu7ST8PMHn9wU65yV6ZsEURNhXSprtczXIQGkjgFps0gTUt93iLpd6Qh1/d5kg6ydlEMuD5swDgaTynG1rWwOLUyhxe8gwk7X53Y4cv3MdzGSSUimE2E5rm7AycIcbLLuGvotvAE+4V6v4uiSahL1Vu1rN76zcb20F0+2cB3CvBNgotw0480/HEloYIhwZv+0h79qDz5oceeXf3jf34WWdfjB7/z4RxLGgB6TIR1/uN/fmbDtBERdwU6niIiIr4+7L3mC3pRD9Qjl8H5DLqW1qlEoUxTcIVxVk0lSeENxQR9wlfScyKZMr4aj/gq3wGyjIvH/tivVNXg5s5oeV93PB51oaj7KJsvp7GX5lQVH3Pj+/qhyEkZDIhiHnpue6/fPbbX65zS6XZORVWnQi0dD82zpPp1fd+u/xc5Ly1kCGov/yueM2IoKv41CwZBH1N3UcHxtcDgHm9EDW9/BpN0Pd7ioeThMWOBs22byrNQjw/JBLrFMVIKtMUCEBS/0soHRVvxC718TS8SiBSpzNLJtp4Oa0BFcdwViSRmvGifOVfbGEWysqw0OmCrUEWjgJTf+tHTBPAwkMYIyxRxTJDXysHGuL3t72bEXw7io4JXwn8DSrgVZfAxwn1ItheW0L7nvfW9+rbAe17xrPR5b7Dlf+I95z6LEzUaAOwZi6X9VD3/zU2aiIivB3EFICLi68S+a78oVQNRHwS0FBOUGxSlXxOHUpAy1BSRubANykkf2dWyMQV6sXvXbdXjf/Kcqtp7bbfIsjko9i0wDo6AkjoO5WBmn5wCfiroJCia46G0jkPtx6OckzBpPQ2T1DNRzulKUyK+KHdC2S/CCOnmY83yK3DO+iuUXWHGX2V5Dp2f8wF6Emf5JCpq2gFGqJg6Hg7OcPWZXvjZLyNM1xUvCrP8sI7OhQ2f6VM/Imlrpq+hAUcK+fGHHpV+NZIblhJYlw4EYTqvWTi59LIRZvUdJucMHrP8brfsdHplp9uraup0yTmRx7y7q88YdzvwdzEp57uVxWmecfWgC5d5nHj9X8sAqA9dSXl5IENjQbRnaIxo/7NDIt/f/GpTH26uAiwhzzbwHWj6dvDNIIZz/w9+4BEPH//Tf3+m+sHvenj6T//+GQQlybtf+mweXxwgdDAMGI2Yqvq///VZpYmI+HqBYzMiIuKuYv91X4LG0mzRl+9tGZ+zfSjcBAqcPCjWqiKZ8C65kAudQv0F7ZkkWzZvT2Y3bUp2nv4QqYy1my6bQdxWKOmjoayPhUoGlUchLz9UswXuORAf2UP9+pjPLDgfveNrcxehefiqXRAfzeMz8UUHWh1NyMtKM/y8KuzxPySz2XBlZVGTgUFloyV0YsMm0UlZwRk3Z96NomPSOhXTUZGbX15pemhIFFwrLxVPtwq2xEpPUJsDMAWwldKziBCsTIq34uh15l6MHT86SAXP5XxobVuqN2sB/UAq2DVqB9wwZkoZMmwsx4HjgTjzs1QbFPVDBIUNlsHN6/1wl1T+XPKHolceQo1mq1kpfnw/8xp8ywjahzbyg0bXIvxy8AtBF4OuR+MGz/X7Ad78vKek3X4/oS0CL1de2E6C9RcvfWfz3YGIiK8HdlZFRETcJey/FgYAn2mHQoHC4DRXioPL+VD+lYwAMwBkCJiylQKpHvTYn1gnuFduuDRdPNa+1b//uovmcWoel+fZ6VDa90G5mNWXxyPrTtAC/KbU/Zl3xM1BJ/A5fL74xp+752N4fCseFBqUfoGGoCzM73Ne1KfeotGC81/50XblQe1qI4i6kVrY/GDkVLpUhK5EESaNVCcHYxJmUhZFuOIPs1cnFc2E5JzhKj29ADcgxJIrwkQV8nFr/8CUjF52wFdXMFGHAaDFA0zbEayrLXIxFzNho77QDSMAXuzH+mkHGkM0CMxP4vgorZS+3j3ANyDxzkoaRnq5kZep1gSw5TA+ONgM5GyfXzTkuwP4bQUq/s+jYZ+HufDVXq+361mv/U29L+ANz/k5vvM56fVmuOKhtyViDGm58C2I+Sve/eG6kg+/8cUydJ567lubiiMi7gC0LCMiIu4iOnwPPxQNnCRqTlKBsAIRBRRP0e31yzO//QeL+z/qR8r+3Gw1uzBfK/+rvvhv6eWf++f0kk//Q3rNV/4j3b9/D/WE0MWMj0v3kPPHQMFQ+d8fwv8BIBoDp4JOdDoBcSdAIxwDxcDVgUWoJt4fMAtt38vzIuWNfbpPQPcl6HFCGCcwUnKb5cJe4Zo8lD81dwqeQpk1hCRtP+OZDsqRRP2foEp/UtDdKI/v6RW3dLZm7nm5Vg+5I+2su/OkpUkhXERdzXve6HSqL4Obn7N8X5UnIai1nN8RaRk/xYA6EN0D9Tu9Xh+7B7w/k/YbSnozLeqR+qAe9HAP+xyE5oKwm9lGvb2P3xDgjX9S/E60RKz7DXE1g5eKZkCLcB8Bfhz4ieAnIPsxKHQblDiMP8MrfusPq35/ToOMfaViSVxy4PsaAn7z5b+aDoajZG2gWwgiIu40aqETERFx57F20wWpZokgzvIppDnr23nqw+HYGFd++d9Ma1JJUKhDTZCgllIqmpMf/N00IpL911+8ZTwanAUlzhf5PBLpHwg6BnKfH9WBwuakU2/uYzlQroXKodqh1iUxjs/880ZBW/5XHqCAEuEEkjNvzP7rGTg5Zq+0Z2pFxtZM+o0L5KxGTnVLiSFT5IACDzN7cGylIFG5pTLZo3hBCWvWwD0hjGWYoxFdCFF1LA5KFIYAF/vNKMBWfnE6UK2SCqEsNt72BcbXx86IL0MKL0cK+9vHE06MPN3hEpAsIw0Iu5mjGs76WR3vA+ANhPgb3Hjcj4BrQF+C/9No7xdhpFw1Nzu/+9gTThlWM3PV1y78crq6utJBLbAwUTLKhnFYveY3f0+Nf9fLns39RmNEhXOIX/jWeHNgxJ1DfUBGRETcedx25WekYHactP7lPMNbLk7H4zFm3VlCfsyZj7rTAnnf3r3p2i2XHQOF8hDI+sdAoD8aQv9+IM7wTelTGWDKXSskC4PWsXmnhUlpwUgx5UVlhTKpP5AWJLVZK3zJAUSK4JImMXcrXLz2CyoSQW4AwMWZMOUKZ/vKbkqedSmvwmpMeKfi5XS/sVAJwSrA6FfruSogA0B6HlsofjcAQIEzsXEmF2Op2GDMULiNHUI4pj6OUPLOG78Uv3HuBzfGwhhX/HTwGMXSAKDV0XeiWz3wNvC+gJvBL4b/86CvdNLOVZ1u95Zur7+/6nRG+TgrsuGoHI7Hxd7BsHzreb9fj8DbXvwMdobKv8vxBWfduofz3HfF+wMi7hg6CiMiItbjy5/5+3SmO5vMzcwk/W5Hy+hra8NkBKVO1fnQx/zYhJCthtelxdpASj+zRwCrcXbnDYBP/P1Hett3Hr00MztzUrfTeTBOz0fgBD0beol39m8BTRoArpCktDjphBsbzkYZzpmpKzEjKX4pCilw1NhwOMSoBOVQGIMtjdKRM0Z+cSIkUxw2QdEHA8DCCQtvwcSPBTGSvBFJ8jLYM1ntAUjHpOwOuS4H0O0KX0aAhRkxmbmV2wIcdX9M8dMY8JUAjTXHVeNNZV8bAFN+jTENAN4fkGN3yABA4XoKANP0GfBgAHgrEq7Z7wJdAf+FCL0MLb4W7b4FKXfDmtmPw2wZBQ/yvBi/4K3v1QpRwFt+7ekshpchwpcEUbWMD1L18nd/qD1gERHr4MdhREREG5//5N+mWpqHJunzzX1wQ9BjZo9ZfZZV2XhcDoaD8rt+6OfvlJC96iv/zpvs/M11IH9qIC+yzng05Et5ep20u6nfn93Z7fdPxizwAZi10gi4P7IfD920iDxdW6bGFkqHCoptkqKqFTzjudxPFRDCpMxcIW9kANAJDqKfvwDFh3A6GWdBFmY/Oq38Os5IEoacQNXmbIud4FbJAJQ088pNsHSyEO9xysaNKXduTKmDQ83yhrhG+Yc6GG3p22GE6mBdWsowA8DGjpd3NOZaSZkwACaMAdsvSBsMAD4lwEbzuj8NAF4C0PsTasvI3hGwB77rwK9E/DVo2U1o2y3w34ZG0n0zDsE93U46eNZr3jNtANT3IYBYDwtmvRmGpXzZO+IqQMTtY/IsiIg4DHHd1z6L88C0E4R8tX9lf5KXBdewdbtXj4+Ed7q64x6Kmnf1l1mW56PhsPjOH3jShFDeCNdf+J8zeVHMQm3zu/vzkP98qc8sdEWvKPmGvgxU9hG2iNnfkajsxLTTPQ0K4HScoiehiJ1QKPNQLzQcqHjATCEF5QRuYabwAWgwKjTqIC6/c82CS/O+AhCo1kXidXoF1fEMa6U1bn5Oci1PCGcVip4IU0AtbsB1YQDKOPhZnvttNVsOZ85VBjnBMjy3aXTxevm/RZZWScXkVHgbTV0NYddyPH1cNb5S+uAYe3M3BoBfkuHOoRGAncOfrs/zs8dQ0OiYdosRtlDWyX54bkN6Xgq4FS2+FW27Fe6bQFfDjrkC1ueN6NfKcGVUjAZZMjs3k7zknedXb3kRDAB+5pgGBt+LgMMXlGNPZy992/ubuwQjIg6A6bMgIuKwwk1XfxGKkY/UUUHqOf6KS/x8RS6EvBQm1D9XAGzGzkf79PKcIh+srhXf+UM/h2w3p7AK0nI47ObjvFvmeQf2gd7gl4+zOaSfQ/J5lMdH+DZD8C9B4C8g4xzCulDoPXAYBBXCkx04LY/CmXk0+NHw89E/vlK2zzayfSiD2t6UvSkdFGWK3wwA6hb8xaj8qW6hfCouE4MLFj+pbEOYAsCDmzC3R7kfFMLrtJMGwKSICW7wdQbAeoRyfKM6xIPydi4lD5LCbxkAKl9czjaTA7HuIbxsb7j1h+5g4HCc/bKAxhxKH5zKn8YAVwP8vgwk14YGAMvi7X58AsDeFOj5VaatEgxAq8izitTLSMevCtIA4KrAZWjiRTQCcPjd9oLX/c4IYTXe/OKnd1A2Fb8eS0Ba7E0+hcJmlGU2zBIYk+xmGAa16Nx4aSDCwYMnIuKwxC3XfklKUcKZz89zhq3v1ZemNKkdtUEqzN0gRfXGPshWzPCK8hHf+8Rq9bab036v7EH6b4Jg3wIlsBMK4RgkOh7pTgA/EcmPRxz9fE//idAOJ4PzrX4no75TUAf8yalODD8BaY9GOdthaGyC8dDPYWDkeVZlWQ77IqsQxjf4IYluRquJFgBATgWTgvGSg2b/LQ4FRt1kJLXQAuONPABQWjnkrf3icnCoNFJ1OnEMnG3JQdREVND+s3i4GNamOlxb+ehhXOBt4k1+4UY/EjbM4Yx+eQNb73fQ3w7zYsA5kSdHAEiGRtvvYdC3qVHXLiF1wfloIgKdqJSZly9M5BDBWc3AwUcDNyNkCZyPAnJmz/cBDLEvVrFPV/7lE5+bMAC+9zsfisz+3gO9/AjUIcfRmPOJVBkFLAcGAusx/Osnv2C7JuKwR31QREQcTrjt2i9SOVLR2/V4vQxHy+tc4udNfBVf5ENlyjvjIECrudn56vQHfdeE8ByXVa+f3baQ5IPtZTY+CvmOKrLiSCjo7XAv5Fk2C+qhzD4U9BxoEcVthlBfgsbkm/ow8+eLfUrO8MF5aaDUN/VhOPRhQHT9+jJsCxC1vCaYAooImtcUOxDaxzAYNGi5zfoDFyypJaIeajplLrRLaUI6L1uQG8QQbut0TmSCarMaTP+AFBaYewC2cgJ1ISwbHsazq4qAh37PBEVXU11QHScmR3AKIZkxB8u2ius+qmMGuknYDeDaJ052P0YIt7z6TkAYcDZcBpjdvEljLS9gydFoYz6+zZGPETLvGGw/8tyEUi5DEV9E4BcRfimS3wTTc9AvO8XLfvsD9aWnt7/8GWmZs/edpNfD4VzkyXiU0dij8ifRNmJ6GrD5ue/+ULw8ECFMHv8REYcJbr7689AImLJBRptQJ2kpV2/x4x3/ENAUzpzsJ2d9+w82msCxDIGOqdpsd3zbzmq8dkqRjU+Hsj8F+U+AYD8C7kUYAV1wGhW8fDCDcL6oZxOyz6NevtJ3BkrDFIAeJ9Od/h0oCr5nQK8WdoIdIBtAgFLgXzcVoiyex4EEOKgR6YKRE/RQW5l5Ym4UjI1Hk3FMSPSJeaQHMVQhSqcIi2S8VYZt0L5SvnR7kzwFYeFytFkD1uWB1g7CK7H+gQXOIG6YJnCGaeteD/e4ptBJHvo+ES8v+yibUApfStsNgKD88WdtYWYOD10IYPqi5PEF4zIr/bjo5AVf1ezGhPLz0kDCVwZfgxovgP/LMAgvwbFxDdqwG6Xu7+bdwdYrNmfP+Me3qYFvesmvpJ28m7z0nefL/8YX/DKNDr50iMQVAL6git8tyM599wejARAhhNMgIuKww+6bLkz5XXwK3qNOfKgE5+3hKt4sCG108un27P8alC8MgIVkdMsJxXD1LBgA3waBfj/QiVDXO8D5QR9+brcS5Tlm8wW/7AelX/Gmv54pDjM+pACCIgDnC4aQnpyP9GltH+ANZtQSmlWiGTQAghFASBOaZ/r0RjZxhNtfSs1gisucTEe/p1d1inGOjf4W7qmUnuPDZRWVL80rh7jpQltKDwgtnWIbgsWqfisOxNz2Mz+D6LC4ECxvcHl4jdAxK92d6lkrjmjFwemK2kiKu6j9qg0qX08i6F0ENDSRlek08c+h/PVBJq40dWFs4jjU/vfHPFVODrYL/EoYFpcj4Ar4+ZTAjSj9FhgBu0B7OlVn9cXvea9eHdzGG1/wKzg+Ks7++V0JXgrgJQIaFvm577LVgzc896kaDDUZ9Mrf/l3vZMThgvapEBERsQGuuPx/0nw0Tro9ftQtTf/oVS+uXvVnn6iG1bg3m+Rb8rVdZxSDtW8vsuw7INwfCKV9fFEWC3lWcPbPR/yg/DO9lQ9kM30uB1PY6wpDS/mDqPTpN+VvlyUUD20AZUAW9BHPX1Gt4AQqIOMNGtneuCZzqdwprqrkN3cINy7GGHkYbiV6qWoV3ORksFMaBW0sIISH6ANBVzuYxtPVPbAKmnD3W3nejlZ4gPqijtSd0Sb0eR28n4r1vOS8+ZJEqDbo/C5fG5zaVwcJpOPjm5z5l9kYlI35WCmPkQ6OG+5vHRNGTF0NwPbAcwsy86kAUHojOnEDargOjbgSBtc1L333eXtVgeMNLzgnhf2Q9HhroCwuGgBajdBXElf37E56/R7CzTAh1AV05dW/85ENOh1xqKJ1KkREHLq45uJPphCrkKVFMhoOkvs97PvWCbp9uy5OR6NRcuSx33anhCAEdGc0uP7ofHXlgeV4/GhM7R6JmfoDIMCPgjDvUqhDuCcQ9gkNAAl5u6xgZApBbhoC9Z3kLQNAHAYDkkrR4E/1FOoXd9WmLbmUnLu1XXeWh+4xwmeAptLoqMut63PO+EkuJ31KE/yhQrZDP3KGSQ+xRm2mwDTM494DQIserTTm9Iz0eJzKwaYpr9WOFth2tdmVt3Ws1Z9peLjGxP1c+pf2ZByKZ/+o9GUAiMzwQbwZAFoBkBHAN0by0VIZijo+/BjAfqepx0s+fFJgDRXwksAyCtoLuhHVfBUNuAA1XoDqr8URtJr2y/zlb/vguoaf//aXp+PBOHnOq96uuNc9++fRnLSHcvwmcB1eBTpTvOq3/8+6/BGHLibX4yIiDiFcd+H/pNdeBLr4f3Cc61o5BV4PArr7X//wh513Pv+Xam1QVbdIN3DCdMPVn5vUEgfAjVd/sbP35psWVvfv3z4cDLaPxuPNEOhz42zcxewOit8ohzsntzcE8kVCIsRxdUDENwbSUGA8lEHFJWLd7c8bEXX13579p7KhtG4TFIVmn+Zv0mAjTuUUFJSRomo/XKYD6zAucTuxbJDCnU/7xUHWDg9TWSwZsIFVPYYQiXT6hTAGNWFtkmIXTcZwi942P5brbnGVZ2hizEUKxdoWYSqfXvhbxFiS9cPDvQ+67MGfVtrJG+JTeCK6U32XKO11e2m/10/5kaHwsaFeHxzU5QeHuvxUNHJASYPmUNIWBBwFOhWVPwg1PwycjwA8GPyBaPPpnbQ6KsmrxTe98Cn9Nz/3CRNyfXV5f638CbZMXddjoTon0HDvRMRhhbjDIw5J3HDxpyDKeSu2FL8e74Nbz/bzLX57b9tVfO3CC4snveB19d3Ubey+7vOdvKw6eVFyJp8Ox+NqNBwlo9E4ve6Gm6t9e/el9z395G1blhbPmOn1Hgoh/+2Qnw+CwuEjfEush8q7MIUe3h+gGZ7f1Q+lyZkj3VSeUJ3kpuhBdk1ZyhbtgRv9oFahmgJnaC3SGzBGp7WS0qOAadaChUhxurKUkz/6Wb/Cm/rML4f8ivJoleYbKkQqv6AMSdYuS2K5sWU44NmYs/E4PInnMQS3qXGWY3mVlu5QLuukO3CGaetAVvVfN8pbqaFrAbylnqiD4a/HLBDDWQ1+4XE/fjWS9wLQAFA27Gbu4NzuBaDBxxWATp7laaZjREZfwsf42pcEuB9a4OOA9p6AqroYNV8KfjX4zahhDxq7jCpXe9v74xe/7P0TGYk3/OpTaanAyki4CsDlCXac9xHkr/iNDyv9K572M4jpJK8//4/W5Y84dBDfAxBxSOHmyz+X/tpz+I503nhtih/BPM6NoEgpWMfDUTlYXS7/9G//dZ2A23fLxb28LOcw716Cst6C9JtJEMybsyzfMtPv74DmP7bb7ZyC8k+HgD4dApt3//MxwM1Q+DP6HgBn+OORze5zW+KVcJeSr5f7tc5Lxc+JvoNaAsSNKR1vpPplTrrXw2K5segmNdXSnQV61VL8+knJeWzt9gDAlHColdXBpb8p3UYJewJkVW75adJ4WUhj4ZZwIo9g6bgNdbI9IQ3b2sZk3eB1YZPpzN9UVOfzn6IaJhJYLmCl2daCWvk9TQ0kU5utGB6fnoMWiN41of1u6RijYtrlcWWAd/fPwTuPqCW4t4JvQapFJKBihzWRjv/1Pz9f3/H/+uc/Nf3YJ7+YfO+jHpak3W7S6XX5meOyyxdZzPTLtNepHnH/M9LvfMgDYLvAdAMed/ZZ6WMf9sDkPz53gZcScShBB15ExKGCmy77jEQlBSzm0fbefb7cR1TqOWwo5mLfnt3FbTfdUpz+oIdXpz/woWlVLvfGw5V+lg3ns3G2UGT5EpQ1aQGzs9lxlnWh1NPRaNzDLG0OhW+GPN7ZTdNjIClPRKUnQFofU5UFXwY0A4XO6/1gnPE31/2h+dEkKVDnmhCS2QoA01g45D81gBalZcyge+qb9XT9uUsF0cDcIWwybgpSNKFOc2vlwdtQx4FC+mno5jxAW9Sl+sStbldcHs70TGgFMYhhZMET2ht4A7bItnVzwC3U0jNLqGsdqSKW6ZkJOVv+dXEB8LTTckzAqK2x83yWbnE2sbYVEK4EWN0Ixw/jqH3u1/r5BEBYIcJhh6Mty0tsuuA9e0Sw0PEc6lcNLCSpBuB74NoFzicGbkbctYi8HCkuQfxVcO96+bt+d8AsbbzlJc/gJ6hTKP+0PzNbzW9eqG68+ppkZddevfWyy2sVGid2ryped/4fbbhSFjEBTjLuVY9Yag9HRBwquOlyGABUmpCEELG8DEAJhuOcLvyA0dpqtee2m6p05tjkwY98ZGd2JpstiuFSNh5ug3GwA7P4nRDK2yGAt0KJ81n+WS7Twgjgcm0PYfOQ4JtR2DZUuQ1SfDuK3YYp/FJZ5Hy9bwf5+aY+TOr10kDWS6Ft81xt4LP2mNtsALRbaSnw1Qf8ZQAgDQwYag8mJ6jQ3OlwgW1guuAHCzFW3RQQhvqM6A1ukCk3IyV1buqsjZaf9YJqpav6GW9uwmpiMgvQVgk9j7ye2BmhtvBXGygsK2wA5beidN09KF8p5FAeechgaFUhTPvrFvtGJfi4iFoGE2F1Nv1oE5MgLW1BGJ6V3exZ8P0TMBXzHIdZxssDdnNgoddE6yNQyBSqVz0sA7AvD5blKtx7QTci9nLEfhkJLgC/Eo27dXa0tvbi8/5C2V//nKdyeSB57W//QfWeN74ofd7L36nwX//FH+frgjr9fr/X7dozBAimQuPlgeK15/2h0kUIjwV9P4gf6+L3Ok4E7QDtAfELjxeBPg76GOiLoIMS64/ziIh7OfZff1E6GAySHDNvqlzKsePO+I4NhRcEZrcqdm3Os+ExeTY6CbP/kyF8T4DyPxrSeCvcmyiIQbpZD34YAMUspPciRPgCOF/sQ6U/i/R9ULfM9RZBvuwtRxxVOy0SylNdxze1ABiTkeLynAZAo/xt9s8Ipgzp6Ax5a5isDmi53RlCWK6BZVko21fTlD8YAEpX18/y2vUR8CuIvK3wFFmnZ1gojahHw9MHHsLqCgHWX7ctKFwS40K7mMdHORgA5G0DIHBvktA4PU2rXoP563q0bbVhoj1IhATsBdOpP6yTnNnoZjnIw5UWI73KmQYA1wDI0yznGyT5wahCH4FC2aw+NIT3B/BxUtTN1QcYCGU1hH8f4q5ByguR6Cvgl9CPGvdgJIaoPEP9GRT8+Nffdd662eqLnvyj3dnZuR7h4yQDAHUVr3//H3vvD1ucAXoh6IkgGv93Fv8f6LdA/yrfQQTt4YiIwxUQkGkxvukIGABnQsGfBeF7/yLLz4D6Pg5SeCvCeqDEhLIe5etCsfNlPjQC+lDYXS7RIjJFmg7TFPYaYa7/87vspZYkqAKghcChiaiSFMAzkIpd+obinW7xWqHURoA1OMCE83ocKNyhYmyjPxvAWhnGYGtDWNYGUbkotRJ7njasPu+L/HQHCu2xbQserusaSiutbcHinoOj421h3cGN8Tce4tqg0ted96b8ZQD4SgBh7aKDfw9z3sDKbEIn6wjhoT3TNJkfW7ZBjDXB4UmYVn3QQlHBbzzw0KlwLNVvCSwKGoVMxQce6NAxAsMVcRgHjYVI48IXRe1GuqtR+mVw83HBa1HjrSDMTtM9aMNuGAB7Tr3vWYMnPP1XraGOp//od6U7dh7R5SoA0iFLPfvXJYBzn/aEtIsfRpXe6nWHh1HAN3e+E3SOfF8/XgJ6mzkPDnAHR0Tca3Hj5Z/BTEjPy6fj0TjZtWtX9e3f85MbCqXrL/+0xC9kWtqf7SVHnPhwCdPR6rXH5uPRQyBwHwl6GCZi94HyPgLuTbyDHwZACaIBwOu0nTLXq3v9RT5avuVd23rm34yErCohuTmlQ2USnBT/fAqMj4LJxXbY2cetXGgLZLUrEZ8Z0q0CKP7bkGzeAAcIV+5QBrn9nTd+1c06nYuYzreBNUB9/Hu95PVsW0Eerm0LTCc2paBb4XSwdrWhHg9X/FR8E230DjC/lxdm/6INDIB2fQwwHtB0dP1qgLLXqNuwQXtC2XKQeX3aMonI+1PwwX+9ipoGAFeb+Dro0NcCSaGMteTPFYE+0vd47OsSAo9FGArieosgjICyvAWcLxDip4ZvRo03gMMYSK9CO67t9ru7014yfvFbJp8UeMlTfrIzOzerAxXeWvm/5plP1iexUQHDCYaXh7gR8G2gvwKdIt83jleDXmfOex4y4yIi7k1YvunidPe1X05vueLzPH554w0EYcWXqXA23v2HP37fhse1zZL4RtRu0p+bU9hw+ZbeYHVtbjQab87G2ZEQusdD0x8FWgClfGQPAhazMC3vz0DR9+BOy9y+FUDFT5Jfgti+0Q/BG9rWh8DtQ+STh6cRKP8ZTwrC1EBRKqXQeBsPIyyMSiOQB0yEBaKSlKK0NhkhOSV3iMffJLn7QxgpwKuoIT8dk61vUIdbysmfhUj5krQuYiSlTWXtCjv8LK0KVLsPRNjUFIwFkpQoiW4PE8mo8DJVdtsdymmF06HWkxvUTqfQfq4+sA/YTMQHqBR6nRQvlYtcJIN9irrb5bsCql6vW4CT8i44794HT8LXBjWGLMeOs60gXpvmuwIeAXok6nw4mn9WWZWn4jg9cjweLQxXB71ff8pPqGEv/8UniL/1//wlDweuJPBOFnX0rS94GornugrLhtlgxzGoNgYOVbwAdEfKny9p+hyI1/7vCK8F/bQ573kc6jsv4hDDePfX/OU5miHxFap8rE+vUh0OBsn+ffvL5eV9mDiNi+/9iWc0UnoDvONXfjn9qRf+8ub+7MwZkJyPgMJ4HOg7oCiOR5m8O5s3Y6EuvsBnzHf6Y3ZvM37MtqBTXanwLm2uAhR6xI/P+nOhlhrVTzAJdhPOCAi8ffoF5SLibNfdgVNjwGWJQzYrxOBRzmrI32xqsMiasw7zqi4pRXezLnFHqLEOYV/EPIZ+qgn+6vaxD+5EkOdwZdlS+swbVg8E5jPlHXhrzCeUeRsqx8tryp0mpaz95psGylXRTfl8XHEibytXaAd5yOYh2upiTnB6Pnmhbmms+FMBdgzRsNSxpL6zxByqVh/zga+DfcQvRfJpkw7fNQHjlOntyQKVI0NUl5MArkTxC4PXo7BLUdYXkP/zqPMSxN/8mvf94RoTEa97zlPSV/3W5NsAX3vOk9P+TB/nW8GVr57qV8EVVySK173/T9bdS3AI4a9BP2bOGlxR+QPQ34MuA10PCjge9AsgKnkaXxvhC6CHmvOexYYzpYiIgxHl8jWQuTU4X+KdypqJQKD2OEPBjCjt92eSI485BsLvpnTvrou7t13/lf7KTZcx3QQe/WPfvWk0WD1quLZ27HCwdsRoOFwcD0fd8WhUZaNxwsf+stEogRvcXumb6fl+vbGPBoGoyPh1N33alUZBrfwp3St+SFigTDVltY6ocMHtZjC+EtgUAUkz99rtaT19m2pl6GlJXL2gMpAiIc+NcnKFe1rmbeXjHefkoU1gXo/FwWV+dUtb+WswPZllnGyvuw2tPAD2pRPdHhjgZdXUDpPbCYpVQU7NmLX6twFtHB/GpT0+YUycWCVRt90IB6cMIXF388f2qY3YKi836ivT0VhxolHElwgFjlm+PZzX7Xd7/PW41eoAqEJUiaO/Qr4KlbI9LJAFEzz2edPacaCT0PCT0PbjcGzsKPNi/o3nPKnWA2zOS59qKwIBo9FQx4ojNB2k/tOdvPoZT0pJr3nGz6WvOceI4YcA2rP6S0BU7EeDfg3EO/zbyp/gC5reBOKlA/KN8BDQj5vznsWhspMiDnFke6+iOOPNULo2mmV6TIozf85MdBPeaDQqV5aXi9E4L0594MOqbds29bLBymyZjWerXDOXJIfUW11eTleX989ilrQdgvMESFmuANwP8feHcDwNCnEHhH2PipOzftQTbsqCILRn+k0xIwcVIjn9jeKkFgLp9IIoNlncyOMgm+sA5gl5TZGDsBEPSlOSlllUGD0NPDld5g6BYrYSEdYjGDqVXWmUr5VHXFvCXJN9MM8EB9V+bQ1SH2yHx5uC7FB51SsAzWxdSdWGQGHMydukeCvawMz6Wz2B1Bhw1qtY9yteIRtAZap0OgSl5co+NloQl8L2Oog6qbdLTnMrjA2t0wDBDS7DAn0qdF+Jc/bTOqerNJYy4d3/dh9KXtD45EoVmO4d6MChG1O5KoX6iKDgc9RwHeq4AOV/Bsf354u8uDTPRjetLu8b/M5ff5w3/B0Qb3rOL3X4fgLWy0LRFLUJtgmjOwiBgwOh8eW1tvJV7/390MN7K14J+nXQu0GvYsBdxD+CfsCcE+BTAc815z0HP2ojIg5ujPdcqXkN5Q4EF40AzcJBNpuFIBysrVT7d99aLR7/0OqM+53ZKYe7NuWjlS3FeLy9yLKtyLcIOTmbZaOZ8Wg4h9n85rwoqOyPhUA9EYLxBJR/NPybMQvn435S+jACKGBVB+KQxJQ9hSAFNhk2/NNN5Q+BC27nl6kY/VvcEaQji4Cktxm2yjJDAA73e0ICJar0ACbjT0VYegWTT2ZU3g3BfGRUQm2/5w8KLmRv/LfP4RALZdLHOM1wRZzBmjINBkBAqJ9twrjXBoD8jbFlxoUjjLGIPtalMJRWuy3cUhi1wS4zzEcC7sBBzFsbADZTZ5iu+XuZBsuj9jsPfnMYC1C4DAD21Zb+aYCG/dnKRZKByf5DkUPX6/1BYzNW+Zgq71cp+JQA0yA7H4ZFNh60SbULdXwV58wXkO9LSHs5sl6XjUa7xsPBynv/5t/HrOhVz/i5blkV6fyWpfLlb7fPBxOvf9YvpFmRs341qcePCuJohI+rDDCyOToISNMcVMAAOBQuD/CtixqXrwNc6uf9AdP4CuhB5rznMH3sR0QclKgGN6bFOMNMnwrfZkZSziBokGrnCWe5jDRAPvWL0a4t2XDl2GI8OhHCEZQfi/Q7ICwXsmwMQ2A8AwNiDuFLKJMGwjZIUyr/ecysOjAW7I5se6Mflb/LUAlTiFTKVrnJqCdECKcBIIOFbTGlg39QOuQVk1qTrSQ6yKnYyKkIjCuFOOBlILuB1ZMpLxVjKy3RdhOSz5NQCs/H5CH/RDnsBesEiQVlB97217xJKD9LkpfEMBAVaLMCwPKNGMd0qh4b9YnKTuPv7aQ/uJkMRIT6VQCZ/D7WKtci6nQAbQPCSqLfeBhj5uZWJSFfaGswANT+YACoDoJtszJVmnmCT+42NNY6tKyfJFsBYDmIa7WXZYVxQDocmsUYxygNgArHcw/H8wws1j5XAbiSYGOk9Hw6YAUGwLXId1FZ5JfAULgSaa/D8X4r4vZ1et0hXw9Mk4b9Sbsp7z0YDUej0Ts+8lcbrhC8/tl6OgDKP+nDC0NAI5ohP+lQWAX4RnEhiC8MaoOXFnaa855D66iKiDj4sXzjxVzuT3ozM0m335dw27TjtAkBgzAe1zP56Oad2drqaZjpPwDCkc/3n468x0FYbsnycZ9L+6LxuIP4GYTPgXinP5dRofjt062YLTXKn+eMyhd5dWQMVxw1LOsPJGjpmX8J8jpYmZnfOCkYAIGzcEuj9MpqZYVwpajzhzwtBK/nZRsUpLzaiE/nF5fT6pNCCFWrH8bpElmEpbNUcpvDGKF4V5zi8lsepdffM7TaFAyBdvtE8hmCW9WqCHNMhIeyCS+rKaRdGmF+a5a1b+LGxcARHshShqKtfaHN6xDSYF/LhXQ81tpU51XZTVmelgYADlMZAGU+zrowcLkCQAOArxFW2fqZAbAG/03IdiXiSFD+5S0Y171IsAqzdYQ+YPbeKUHgyQit2DfKxrtv3bNrec/+fcXffvzL1R++8dXpz738tWrIG5/zC7wMx0tsfRBXAXjniwwAjEz5qvP+oHrDOT+f6r2c/O4Q+Kt/57B6qdCfg55gzglwZSEz5z2D1pkQEXHwYO91F6RFxjec5rwbPxkOB9XJD378AYXGrq9+Or31qiuTPbfcnDziZ5+DkGxmtHzjMePB4IEQjGdjVvQwlHNfyMpjIS43ZTmXS8f8LC+qGZe8uQ/p+FU2GgO8lkqxCtkKUQlNTAEKAUnlzpk95NrUueOr20hDn7nFGEHFwBC5LFgxICl5Fg0xy1ok9Bnm3OrFn6lRvPKGMlwpysVNKy3qsjBuDFZtyMuknld5oGhUr+f3cIPnZPtFHkKHuPnVN/KQjr9WGjFl1vxSyrNOy3DGM6GSBH9o31TbtIG/9oBZlhoqQmEci6Y8gjm9KJUTymg5WkButpE/cDMAzAhoDBnGWX9YC39WlLdxw3IBBoPUN/7Ip5S/xTlUPjPY5R6kkQkAA6AoaADwxlS+rKrIe1zF4gpAqxwzAKpqd1UUNyIfqLwN8Xux7wcIhzLCgZBSgacFOL86uB/hN8EMvnqUjW68ee+t+//k7z5VXxIgfv0XfiTdtGmxA8VPI4CXAthcXQKQzudg8IyxgSHQoKR69fsOmy8Nvhn0UnPW2Au6K28TvFuwfj0wIuIexO6rvpDuvfYrVKSUHbzhqFuUBT+Q3r36yx/b8Hi94b//Ps0Hg2Rxx/bkhAefhZCVZOXWqzuD/cuz4+FoKRtlfL8/X+yzHTSX63E9f2RPb/bTM/59Ck4XoLqpEAZDinRpVUKOlfZhIQguvpNfhoCLNbUNpDVTwLnNbINywEbJkQ5ZJ5Uzyq1JCp0cyjhc5xZ5nIU7bylsUSgSdXjRNUzuWjiSenrmo3JgHVVSgPPaM+vj2AQe3EZwe1gdN+WvCWk11q2b2dS/UBbT6N6KhvQiJT5uSZLf95NT0w4rz4wW6wM2+DuFn/pad9ri5PYxcbenptOIYSKmh8YK466x4jjxaY0QBmI71C5yJ+UFtct1aqOyQ2ISPE6ccDBNUTiOBB6LfBqGb+7rwSDp4pgD+G6AbniCQMehEw/QPvgS4o9AouNBpyHdfUEPgvtslPMolP+dKPcxoIfDfxYKPX22P3PUsduPmmWlbexb3sOvXaKrJS8RjNFBXi/P1Xn0Dj/dHyCqcK7wPoFgkR0e4DcCpnGb83sUh9NOiLiXYO+1X6aypfKlcu5gapOMR2Pe4V9eefnl5Y/84q9pBlJVfKvptml5mvzfD53XOe0h993Sn505FdLubAjlR0NoPxwK5yQouDkqf76tL+cKgD7ZC2opnSKT0tHUn4v/lNj4oy5JXWhyd9nWTyIIZjLKPMH8jZyGw8oRpBSCgoCykOKlIpMScfJ4lknGwkJ+lee+dQqE6clVua1ACEio+uSh0rTyTYFZnU19gVvR6irIu+wlWll1+XQpmaWr07b9we3hAW13QJ0HUHsC2mmtAbaxv+IV7MmasgNvoFLZT+c1aqc5uGVuFhXaJYXqj+rRyNN9AErFQ4S5DHX97TDnrLI95m3ifmmHC16Wjo1wnPAm2EKPofIDVDKk4ODs324UdOMEZdCCGsG9hmNtFfFryDPgcY6wLuK5hD9DQj00LLgCQEV1JUrg94C/jL5cOtubuWnrwtbR0uKW8uyzH1+e9cMHXpl7zdN/BtYHDBO+PEiDw2sANA6S/NX+hsHDAH8J+glz1vgf0KPMec+BOzki4qACFDUmE4WJUltapTNdWd6fXnPlFemH3/bS7m3XXqAZRVXugsDKKLiCTE12nnT0/HA43LG2unYUaMdgbW3LcDBYGI5Gs6PRkI8LJiDydCyyZ/tzKn4KUJuxdiAyeUNTHw3AzEozLAozzfEp1QHJNMpKuUlSBqYQyLGZjAe1gXYb8RfcbYLwpgCnwA8zToujQEd+FUJC2foBoQ2oK9ycpno1ikyA/NqC6vKcXKnUXPWYgRDCSDYjJy8xyw8zdBpW/uSEk4W1/IHqPEZcKRC10tIoCzSdnqsHVHw2Ht4juvlTm63dDYVeG2ykfLx8fGw/USQ2Y6UxYhoUwLoCsTy5w/4RsT0ktG1d/etJ5dS/pq5K9banyGyPExIgm+DM26o+GHSMoi8++/d3BZAw6e/2Or3uHBxLMFy2gu8EPwbpT0Suk1HSiSjoWPBjQCeATgfdH6U/CMfSt3XT7oNQ2X2G2ejY1eHKls98/uNzf/zOd3CGvw6vPeenbYDtXRiwylADmLVUMYcLOK7T4PsC7nEcTjsh4l6EXVd+jpK4A0HON/2lUODV5RddWP7zRz9aPvHZz+s+8GFnz87OzMxVRTZbFVWXimg0GCb79+7uruxf5mt9jy2q8jTkvy+E7VkgPud/BJU7Z0tQMCnfoJZT8fPrfUGpBCFeUgwbKK3sTHGpJXlm4e6ybQjXtgFTSWhL4JOBS5mzHhLa5IpVStbqr9OJMx8LA+p6nLM9spHsLz/T1vEEAlQOKNQrt+olr19hXBM2ylrL6onyLM62BuUBNC6BLEBZ3W4CmVEygeBtF0gwvZgnqMsw4yb4mYgp61a5X3/G0xfSmk9xvhGsz/x7/51bt7QRV91uYLEvMlLhZ/8QoLLlBtp11qjrtTLrelkXf6FuXdVopREXs7T18SOyY1hvEMQEu+QjgCzDyQrjPia4tpUjLW90KbHtwc8vWnIVwMq2agjO0rnUdi3oCoz5FTAkrup1e9f1er2bup3erk7a3dNN+8vPffu7Jh6Ve83Tn4zOFzRHaEjTSIBTKwAFel+88n1/oBWA1z7jZ+HF+YZKWftr3v+nrerv9fgO0CfNOYGngz5gznsOG1puERH3JG698rMQCBSjQgVhW6bdbvngx/1E8d8XXlm96z3vmJmbm9sCCXckpN7xZZ6fBGV+SjYenYrZ5WmQa6dDwYOyU8BPxAzymDzLto+zbG48HiUgveHPZv5j3vBXQQhSgEI+8hXokj+U9GoGoIaQk4Iia7gi1d6Qpk11R+BgyRSvQdDajDIoYfPbrD8oY0uvjATLE2u4VhtUV6v+WkEZCbJpvG78rG6S1a9+M86JdXpOA8NavJ0+tJe8aftk3PSsfCId6/c21G1qp2G55CLWrs6qHQHeOoDtUtOCD2BaI9lKHJf2T4mmyvO6yD3Ei2AOA2NCLCF3nRz53TmBViLVwV+d1vmGGadgjQ7gOzLQLO1kHGjWxrqf5AgAN4+M6woKP5lBKXycpqv2gqbA7PyOxRyMnSUcV1uRfTtK2I60m7FfYDhw3xSjH37s947/6b8+IaVOfPfDHpp2e2ikWqO6EUfSEwbVxz7zpeS15/wsDlTpIXL+ko9/7sI70/t7C/gSIRoB0/hV0D5z3nPgfomIOChw/UWf0E3DdGOWUR1zn0dtKAiqarCQlIPjEyj9MhufDKV/HGb8O8ej0dJwOJwdrK3NDAZDLvcvjMfZlizPtiPNNij4ed2Uxtf2OvFyA5QMRZ9PH7lOCfDcMCUKWSWBKbmpn3mnTh6GG58GZaqRCVgpMyfO/DX7D6sPpLaiVAEqxkr2jdoCt9qjVWt4XOkrkdIZ7rBuEMPrWSLr02aimBosZ5qLWmEC21g7zW3tnqSNEBbAGa2c/Cu9XXOviasJssAMrdoFlQ/yS0m10UY3o1Qw0Wp/Y2i09gMjqcu8HaEcBuinsKYtqiNwpwm4tx4v+Gs34U6F8e9xxrw9mJybsQSiEg6rWDqWkEb7VJnFtX/duKSx6+eAbnbleaAVBM/j9Xkn5MjRvxHGbQXjvoz+c1XgOoRfBn4hUlyMRNdWVbGvqHaNX/Xbf1sbAsRrnvkkfdiIH8fmPbWvef/vVa95xhORFTuRE1F7wgatS4rXnH9IfVvgFtAR5qzxh6Anm/OeBQc9IuIexQ2XfiK98bL/gfRMuhBanTLP0tGg/j6JUFU3NBK0KmYgKjj7OA4C6z4QXA/FzP2RUJzfCSH3OKR4FOQt37d9JvzHQbhtyfO8n2VjPvNfjsfjHDSG0TDK+Px0waVQiFBMQU2+aku4+MNGAh0/F+TiLfJgoM6rYoLgtRmtKdugeClwJXTJFUYBbEJYpLwt8jKbVrU4ofrIzKGf8rpQR5mhrKA4OOtGgOWxIoR2FW0wr3hIz7yBvHy1nQrJ7wdgH8l5f0CW8dr+5LX+MA6Bwj0FGhctaZM4Xs2YBX8Yq6YNrL+hYOBIISqNuutpm/ZTW4krnGFhzFgO3SCGF02Ywlvk946orhB/IAr9CPWrbP7k19Cuh8I9krP/cPzRK6cdn2bcgNMgdILSrqDAKxgouhIPN396JsCNGepibptyrWhDqrv450Hb0cAT0c4HgB6G8QKVDymr4qyyzM8AHddJFre87cU/xZcC1RgsZygCnUxyKX+GefFk3mBr+KvO4SWBQwIvA00rf+IeX/oPOFQGOuJeiHz/5enaymo6Go07EOZd3rmMGQmVB2QKpuppt+Sz//uv+s+UomPrKdDvnCmU+4+sxsMHFtn44SQokfvnWXYsFPrSmDf4DUfJcDRMhsNhSdKS/zhL7dl/vtY3y1EPVT7kF2URZx/8Vr8ep4JUlCB0UIC6YOXpEqQWBeQUuIQQhLeYJlxBqBu1lQMVQDAK2hTShnKsJmuDmsD2uN/ahTDFNdTkxpbKRXVb2aEeKkcqrnYbsVGe8Da8aVga/kMehjVtZi6loXL1NAFhzMhtRj7ZB8368VeOysIIZVM6KjLmJbdH2zCrFK8Tsz3GBOZV+Z5OxH0aMjhTHrbfx2iSEIZ4awbbAT51TNBNuA5zt9VieYwIlChuYLiYyFIwXyst/2hHzT2mNlrCfiTBKKrcMLI8RnAT2C+WBge/3q/B801Eg0RxZsQgrUwS1oP2WPOhpzVy3hcQZ+o3wHk50vNDOZcj/TVpWt2A3XNrt5vu7XV7y7/2jo9s+Brd1z77ybAJSs7+7RKAjho0A/Ta8+71LwriTZRfBW2Sr8Hvgn7JnPc87CiLiPgWIc9vSvXxEMzy88EwHa6t8S78HpQ4P77ThXamEMqhKLO00823HnFsteXoM6sv/MU702/7yReyiNlqeMtx2Wj4kCLLHomk3w4BdiaU+g4o+S6Id/i3aCjOO8lhJFQwAvioFLLBAAAg5ngOUK5J+VOuaU5EULEgolZWrN2FXwMKVzKTVxSa5mcQhbOEb00Ssi6EZQzoySwT1gp394awxnlbnLcImzqdNUGNsLpVdqsdrF+Km2RtpYNMufH3jVC7lI4MaeVtyiRZmZ5GKoThljV8Stfaa4pS/eHIehq7YZwOY4wKfaPinjYAet1uPSaEqmZeL4ZgXFD+MgQ8rerFX1Uhk9rv42/lkFMnGZSNWeBoUx1Hzl8d1nD++LcA50BdBv/urtM72BZvkMZTYfiF1Yq6zeH40SpF6Iflo0N+T4PjL7VVCBoAthohg1Tx+py13n/JnPhzhHtqIlvWaicwhLF4GxJdi3TXIuh6EIyC9Drsl6thoF0zPz9/6/PefN46I+B1z31qWuVjGABS/iyMg806YaHwy8coEfv8deffK28K/AvQT5qzBh+rPAOEsTo40BxlBw+4hPs9IH5XmVgF8VvWl4I+CloGRdxLkY1vSHtQtZA6ac5H8daGHczauzAA+rUBUJY5BNAYSiLftLi53HHyQyQAlpev7STDwdaqKE6DeHoYDIVHIc9DQSdBiC1ohj/OqvF4TEqNMPvn9/x1tz+XnHXHP2ScyTeAk12eB5RtEHQSxAQcpqSodBTtZ4viHBSqkKpBxprQIg/+ltKlcA0GgAS3wt3v8SEt/iyJGwPqZL23ZwCQCLUB8ShFrgklwXrIvR2siHUpTpm9zsAt1ONI7g/c3U3ZVo9WAOS3cE+JNtr41QaAt9kqUAoOde0XPJ0p8cYA4Oyfj7fRrzwOVUcOCnWE/MG9Dq22GjGIJVhhzKJ8zq0MckXXnMkRWqcTmF5cvjpc5ZjD2hb2rcKNC3VbjOunNjqFfRv2s44543CIEE/Y6oAdc24AwB2Uv98PA+IJAiMc3PJS+fO1tR278qDLCLTVqLgJKrZ9OOL2InYPwm9B/DXgF2M/XwD3FShk13D3nuHr/vBvy+f98Nnpe/7us+rQa5/+ROzMLjpPHzqW8kOHaDufZIBH5rmvR73h3mMI8FWkv2nOCTwTdJ45Dw74EXbQ4MWgt5lzQ1wMmv6oQsS9CNnoWt0MBGmTluMsHQ/1XH63yIouhFAXMofCicvzfJd4MTu3qTzi1LN14l/yyb+bXdy85fhut/cAxD0ckuLhSPdAiKqjMKfv+QzfrjPbG+X4vf76WjOJVxZQD2QMBSGFpgtPiRiXx9pQAE8K5Wkoj+fVD7yZZVt8TS6cGW9C1epl2HQ6cZbPLf6qm39vRyApPkSEFYo2LH+rDaG/TlLUUhCWRnnEFOB+4wyrnYSnq2MRKeKv7r+T+ss+KiXaSR76YO4aStT4KfzNR0db+RtNGAABYRzq9lohqm+Dfck2Bk5XaHeTvyky5K3LUHgrIUAFKc44bRreeCfbYctOdqzp8gT8gQdMttPaOEFh3MPx5BwbkeJFOL/gt2ORyt8fHzQ/zwspfxgGma6R8ZPDZTmDMkC8W5/tQHvpYBc0uNpV/G4AH+/jecsJ23XglNdfBF2Icq+u8nxXno9HBR+7yUZFD83pzy4k3Zm5qux1q1ee17wa+JVP/2l2PhDBuOr17/+zOs1BCk5gP27OCRw0N/61EQb3YABfPvE10Jx8G+Ma0EnmjLi3oqpuTksofsz2U8iDZDwcQ1HzjX983a4EDiEZdOL9v7v61F9/MN1x7HFz3V7vSAjJMyApHwzR8xDIKyj/4mTQFlf6er5fd/pTqOWa1fB6JyY+PtvJ9VpfV0oUeiYsKRQpYyRdIM4oeymAJYQDD6BAFcOWbvmNb2gAIAz9acWRvE66vayQ1twIU0xohxxyU+G1eaA2uJba1AVC/cEdDAErnu5J7tVaenNY+gBVhU1Iz63HK49TMDLCOFu8GNpr3AsDmI4MG/aHQeAIpQPO0Gfrd7j2TwNgov+Bez3y11E+VvhZudbeCe5upiFUnIrwvE4eDYSKADgt2EtXZrLAtRVvl2X7sTFwFOb9JRGhfbbvgp9u5+G4CfvZOefO8ivMjsNwvIvDYVzh9OJUwRnFC2V8SoAfFCrLPuL6iOT1eua0frIftuFSAJpKH9usw28X/FchPY0AGgBfxfFwA/h+VDRA2BAph+jlqJck41lU9Gsf+ah1EnADwCxcIx3SMADID1bwlb+fAp0mX4PLQXwUcI98BxE4sAcLPgj6ZXMeEHx7Et9OFXEvR75yJd+3D8GTJ+PBELN1fbUshRiSMKLyPva+j9bJfu2XPzYHqXIMws8APRBC6izw+0FKnQTDYXs2Hs9wiX+cjTXL5zI7hZrJKgk/FO1CTq9H5bK/+xFPLoEogarmmdSh8A3kYYInsuInSeWIPN4Fs+oKQlr1tGiDshTIGu3fzF5d8dEduNrJNOB1eSS6vY9tCm3ERvkI+eVwJj/TteI80upjXfJOgGmNQr0cZwsjD2VOI9RBrt54nxiKHlo/fQzsXoBAHudUo3aD0ynmYTDw1A7vDxukljlXOvtPlK3yxcWE0G6W4Q7fWoLQJmPtsiyuvjmRfar9tm9JNepquP/ITQ9a/Wi3Bcov8v0+Gebh2h+Mt/weB3CDIxWWMpcAdC7RoOb3MsqS3+VgfiVS5dYF2wNseqt/cI5whOxG065HBVeiiqvQ8hvg3oVaeamAtLuTVLu6VbW/m5TDl33wr2rl/moYAGgeLznw2xscPTB0HcbFQbwK8PegHzJnDfbp0aCNXgZ0j0OH5UGA7wJ9zJy3i+tB4d6AiHsxquomHHtHQFh0NzyZv/aZf0xPe/gPKu6Gi/9rOwyF+5dF+TBMFHjN/355XhyPWf+28Xg8O+LrfIfDZDQec9oCESVNw4Ob0khbVEjhBcUPI4MGAJc2JfyCggJHHgTV4MlhwoyuFjwRylpHQbnib1xlk7uRwQjPG7iIv5AHZDWy4fhRxIpcWTjVwrYFy0+pY+Ww3lDmNAW03RKzZB5mjOmNW3XcGK0fmpCW42p12/gGbmEhbcB0WOhXSBH6GkgzZI4Dkk3EWWKj4BY3pgK9UNbFn9wWIDfzMJsUcmsmTmI5ZAHWXpBnDY71BkCrDB83+VvKPhg23fB9AUtkJXkVarOTgtvcSfGt/V6HKbyJs3z1hmHU/zSg9Y4AXj7DOQYDIEthEPCeAZ5bOdKEt2WxkbyAz7t60BXul9BHmlnVGK79SLgLyW9F2K2o5DZE3YKOUZZfBRMHVN0ETb/y8vf/xcTz/69+2k/TAuLjh7xtmPUxPn/NBw5KA+CPQT9jzgn8POgPzHnwoWVi3qN4nfM2NrrZT0dWxL0Ha7delK7dekG6fNOXOjdc8vHO//zD+zt/8Tsvhow4ugrKvxrdBMW8G7QrrYbXah+vDPi1zCTJbr6Fd+dvhvNoiKhTIUjOBJ0MIbSjKPJZXufnp3xhBJSj4TAfDgZD0BrcAxgEoywbQ35lZUaB5vcBcOXBLhP4pYLw/LbuzG+IKwkiXkZoUztuiur8KFtUBmrFbUguoClX+efIkDgakq6uJCBuuewdKCgPF7rKpzJQHskE/hS5Eia16xVJEaiomrMRLN6UYaAg6I03FOLYLn0ksW5fe2Yb0h8IoT3WiIZCeIF22+WdyXHUfpjYT+TuV5gR97+RvXdAx4XnYbl2LKCu6fEhsW7RVL1y+5jCzbSMa+dtxtu6ZsT0TZrJePd73w8M2xc1cWx9jGvijzzsA+wPGhvdXn08pd1eLwXvgLTB8Qa7hPpdq/FoAnrGywRVlYtw8pQMYj/tfgERkvFNg7NIwzcGnojM9wXx3RzfjnIeCn4f0DHo0VKZpn0QGz4B3XBIm5NPCYDIO8GyOrjAG/s2Uv6vAh20yp84GAyAZ4D46ck2+JgE7yydxsG48yMOgH03fCHN8lEHGljfJ4cw6S1t3tLpz26a2I/pLI2B7aAdVTp3gqTcgx/7s1U1HKX79l21qSqLbRAuR0FIHgNhAl5ug5CZqWxWAuHNa/818R6jIsvIofg1i/EbAs0A0IymVghO08r/9mhCydxZCkaG8k6Whz5JYcgNReCSX0Jf40PxS4LQhkSuaSNlqrIOQHWd6/oa4pCupaAmEepoE9smNoHQntujNuq61tXpYLj3oSFvO/syMc4hnPuUYbavgpIXyfBzhe9hwZhoFHlDYUzsnoYm3Paj1bFR+mYsD0zY2CKxO+WFvzYU5DZq8mlUHGEswTmu0+Mcwvhrh7sx1hiWjUEpHkhGnKWvC4EL7fAVNI7LBBnk0C0InMEvgHaCwseF+CgcjYKdVZrMlSi1gKF4AKg+tgAchgByHFx4F4g6bBq8mf315jx4cU8bADwwXmvOCZwN2uh1kAfbzo+4HUACpBAEvImoB4nAL+p1Z2ZmOt3+TPptWzfel39/wb9KuFTV/nT3dZ+aHY9Xthb5+EgI6CMhbLdC4M+hPJRJhWpEoUyF4LOOPsTQDNx9xOndAhDwJBgiIlP+EPoiuG9P+SvtFE0onAPQ+rKa9pJMMTEcrQ1p4K8NAUjOAElA/Ow6caP0tQxu8hjpXYHAJ04F4kqE5YU2WfuMUynKMGE7CqRrtUfjaaWBKIHbu8vCiFYzBUtm9bb7YDhQuJWjUG7WR1sw8/KnvnkbQUFhh37Vs3yNs/fT93WR0xAIFPa/jY2o7RaF8ujm2Ng7FFSWiHna6ZEG7SRXP0N/nKYP+iaJpTdqyrI+NnEsGw4QSgLZj8dFcNvx0F6p0U4JREUOCseNfjquwGUM8L0KdoyZgcBwpmF2JoJCT5O+eFLxRv4u2thx5Y8m+8oAGsuw0G5sqLz5dsAlEN+OR4NgCTE9zP6rjIv8U6D1wL5SIJCTsE1f+8s/tT7xPQMq+ReYcwLvBb3EnAc37mkDgEv/R5mzxu+D+P5k2sXTOBhWLCLuJExI45SVx0QWl4Fn5xbSp730Fek/f/RPu/tuuKRXDW+YqbLrZ6vi+k0/dL8zl5Lsys2ru766PavKo/IyPx4zdtIRmNIvFkXWgzDnNUoKYFQBgV3p2j6PDV4umAHNwj2LyBkI9C7Sdgp7JLB+LJAzQFN8pkCmZ323R43w35jWGwjMM0lWFpVNk075WvWE8QtjGES23BLggA8vEdK2FX/oo8qG0mM9Nht2v4ep/lCvKx1sjFRJU5G5WAejTdm1qW7HOrL0k/5Q3p2D5QtttPaSbNxsDHP0l2T9w74Gb68ABGOAaUN+Efwa8zoM+cFFiAtjF9xWRpM/jPu6/uHI18R1grxDRJ3OZv4NsdzAzY0uK91GkH7eiHjMTIVBq4ObgdD44XbjICj+tiEA6YsoJYQRoM9kU6HzOl7K3kLh89JARkL/c1CwAcjb8pznJyd/88jaL1HQqLv+XqAsDAkIHCaqrZWgJQcD3gjiY+vT+D3Qs8158OOeHEteB/qcOScQ2sTLANM3/PFGkiPNGXGw49YrP5l2e11MLnj5rkrz4VqyvOeW8pbdg2ThyNPTE445qr+0aWau2082QbjMQ4z0IVF72WjYW1tdnl9bXtkyGoyOzrL8NAjb+0HYngk6DgJ9M8K6XNrX2/7G42QMgl+GQS2UKXXAIYe4EiFJJJESQMEHMKQJbcImYSHaYmMCvk2TCgAbd1taSjD5lZ+e4Lcf/wYXwCC9m1hLs72k2+slPScuzTKe7bey0Vfvc2NcMCwoOOO6bk6/6q8rrOtrU313vbeH4Jtfanh21j8NC0OvwDUu8Ep5TYSTmvyBM34jTMQirVrSbNZhsjTURRc9IcIR+tZw6jfzhzGQcmQ9cPOCtNrt5SlaOS0PZ8/Kq7TmDmXWKzYKY1pLV/vr9CQvz92qPvwUYAjuwMPYspHm5vjDPzX+ltiY5fU4P0ZkMOH80nnF84uX0vKsbfygGOSRdaPMJUoZoz+88a8Cn0FL+yhac3sRuwsODOC7DPw/cUz937KTfiHvpre85b1/PPG2wOdjpr9ok74w8aPyL17/oT9Xy9/wSz/FutEERSWv/MhfyPUtAFeteX1/GnwK4IfNee+A7497BH8H+l/mrMHHAD9szuQq0PQz/7eBNvq4QsRBiqq8Mc327k8G43E62HdTtXrb1clw7j7pUSfdt7t5U7rQ6xTb0yQ/EpOHnVVZbCnzfH48Hs4OB2ubhqurS8PBcAeE0NF5lh8LoXNMmRc7MHvdBOrw2f+g+HWdv9CXzUzJcQZIQeWzQilnEn4UovpDItl0QnLEYafEekliISZDUYoLUXKb5tAAmDQCjEIa4yEPi6vT6BdqNgFPxUCFIQOAN2kFA8CvzVIpMYOK8rptFoy60F8p/CnOuEJpvT6vFFVZnZztUQlRMU0ZAExKBE6HSqkD2A5t1afAjRgXEoZ4S9+4m/iNwFDFrEu/MUIsajMe0k9nUx+t/4QpaQZYWFDKOmosCcBCQnoxTwsKBoBmzSDls/05aRCQM19w09Mqp3Ybr+vw8tphba7usa8g9vlABoClQz5yweN4/OBYCSsm9hZNMwDoJzXHE5cjmE0FFziexihwxDIxLvyE8CyaBQPAWgeSA/81bK9A0KdBH8c5+HmEXdcvqpVXfPjPi/f9/E+nvLiwgkN8gMwjlJ4hIVcEfsOV/1uh/OG3HWNQb1/5u3e7EfAK0EbX9vn8/yPMee9BGLxvNXjHJB+baIO3fW8zp8CXAp1qzhq7QLx2FHEQ4sbL/p0f+076MzPJziOOSToLJ294Mn7tq1V67PFVf7a3vC2txickxfi0Ms9OLYvsOHuuf7RpNBrMDtfWYAgMFsaj0WI2zpYwI1lE/DyU/wwNAAgjKH7e3c+b/3RDYAolqGv8Unxa+rUl4LCcTkCm6Mg3aWRubkLsgUERY/JOZbm7NgCCcmWY1wevuKUP+ZswOMUJbwb+pvzD8qtWAIIhwNk/H7xCvNpOsBwKZPAgmGUAhZl/S2DLQPD6CI4BiQq/XSeNAMV5GrWTGbzNgYe2W2DjN84+TofJ5ZxhgdPRDm/cAUqh4KYNtwdPpbKavBsj9LOZkYex4eSTHiULTLD49aQx9H00GYdwxoPgmQg3v5XZlN3i4Uc/rY46zsInwI6yz+q38drvVKcLcHc4TnjMyADIZWCDoPxBDK8vnyEdy7dKEh7wY17OZzloUQ+9mkHzggEAPc+uqLVDJOFL3b4M+jT8X0LaK3tlsqtfJUO4SybiXQPIUSBjCeVQvXHq8b83/tJPceeQ1ArSKz/85+1LDd9s8Lr+W8w5Aeqq+4HU93sTMMz3CLj8wztB2+ArfvnWqICN0vBNStvNGXGwYP+tF6TZcABFm/GGP93ER+EwGo7KL11wafnjT3rOxIlLIE0fOY9M8sH9qnzMD/uchfynQcgcAQNgfjwadoeDNdCgNxoOe/xeAIyAHgmCCcq/oNLn+8oqzFb4xjIo/lJvE0So6pcB4DOW2gCgFNLGxJJOAIonEtt1e6eEpIzJF1P6CHCFSne4S1zuwJVHG/5bZPFwigjd9ETOH9ojRQzloDv+/fG/FOLUFDRIbSWxQP6tLay7vgwCMkPA20SyHNZ/1kOO8sLb9WgIYGPxSBdaqK23ORgR6psczqbCjTVhKHICIb4ux7HO78QMdRz5dIGAtZDRDadL3LO2oVFkX50YIA5HPQaBCwy3NJPE8Wvtn3VxZgDIr2I8HMQwqjLFeNmWhGmcB7/vG9Wj0A3Ajqrf7LO729RKI3i4jh8eOzQAoOjzIjxFY+cSzjnFhctKVjaz64DO4cphLrJQHLFJD83kJQC2mmHqBfxcJbgJ/q+BXwy6tFMlV3WT5FbkWYF/COLlgAH6udbtpKMXfuBPUfYk3ADglwSRXKda+Yq7zwDgl8jeac4J7AOdAjro3vJ3Z8AB/Fbj1aBpxf7XoLbyJ+JTAPcCjAdXQYZRGkE1dfjAcNqHMJiBYuYLevorK1zIOwDK0UxZjLcg7THQ5CdDsJyC2cXxUNhHQ3kfAb4dxPhFCKH58Xg8M87GXS77gwpQPsbUBCjdIADZjJ+zlaD8AwXFaEvlThR4FGR3QHV6KVIvK5ALTFJTH2dRIbypU2VBVmo5vs5vecINZlp+hfDlrEuXOTK7x8E+cTxKBkPwgT53DCOLXzv0eyD4wSP1m8LaSWWyLcat/ZLYNVEymxDHCcYNPBLXjGuT2u7j1eIi/GQAMZycvxDnpGq8nkDYKrxGEyFM5Cf38DpNCG8RE5m7xdHnenVGYS1CMeoXSfuEvOUP6VReq0xWr0a0UKeZJisjQK4K4qwJmsRG4ZR+LQmolnuYDANXr1KxcIuC33mTrgUUw+rqdlrJDjM0AuklRaRWmBskLJYvDOBTAlT6dt6rYJEvI2kcOEmYh2Mnwk7BsXYWYr4D0Y8CkT8YWvw08KPAF4oq6b3r6T8z0WSHdczpblRmzwVtpPyJB4Hulcqf+FYbAHxH8mvMOYEfd95GNAAOcpTja3BS6xUemMRoGkMDgNSDYOj1+/3e1i2b1+0zCoCyvGmmGK4uQItvK7LxEXmeHQWFvaPIs/k8w0w/0Dijwu+MRyJ+OljKTgrPXv1rz/dzqZ/3AFB5uhFgSs+VNQSPcSqpRnGZwG9oUtm3SMq8cVcol2Sza1PygUK9Rua3cDcE6HcjIqQLBoQpbvQHMy6YNpp9jfmJY/RXxJseh86dxqR6TGgENNdrNRZehz4EgzrhUN9NMjcn1QRnvKJdIfh4takNhfnPAizMC/mGMFHCVL0bQbVisyG5IUAF34TTTYWPfVO7jUKcSD+CI9QQohpCiCjkcRKUxsPMK9CnkBAYIsIOAVRTUN4k/qpWgnVAHNJN00R+pUF10MD6yepzwG1ZmMqUvJQ9/LL3g/JnvIjFUQeL/MmA9V1yMG4exMu5vMz7bSAq/8eBHgN6OPz3BT8WQ7VEA2CsiwIbguFonXj6Zt4Y+M0F70t7jznX4YEgXsq41+KbPVh3BH4R6UnmrMHnKH/DnBP4EojWVRv8ytQWc0bck6hGV/Mk5vv80/F42MlGow5mn10osS6UKJ/H55J8tm/f8vD+D/9ftTH3qT97XXq/x/3gTK87uyOtOvfFCf4IKMXHQHk/DGUdqTuPMcsdDgfJYDBIhmtryQDE2S6VP2fEptAgwvGDkCbCtf8OKK2VMZUtyQU7JK/a0Agtig1KruZECJcAPCnFYnAY8whyGRNBobAO1dUKh7vmyqOs5ofbeIhngCVinMHaorZSANdtrmddTZinI5i/UV6m7OvyAZXHvJq9+UwO/nAJoL68gL/yAdYmK4dO8yuJ+z1GHvPfOVi6Or1zKy/EEiF+ghnksRBuRRh3+UM54Kb0Pdy6p41WPdwTxsYigp9Oc2tkZOuCa5+083HsWvEtCsrSFssQ5v6G2n6rj9Mz+Hwfw+37vCb+rAFyrwf6G/rMv/pufhq64vK720nHsQzSxkBtG5KkOg05y7LyBDp0HRCjDLCFbL63UHZBiS2/HJiDCnSTs4gSnEv/u8GpVPn59y8iPfRAejVK2P+yD/3JxKTwTXYJQI8igrj0Dys3Kc793W/aZQAu7fNmxY3wFRDvSeOlitujO2rL74IuMOe3HrZPvjXgRxL4mEQb3KF8U9RG+DyIr45sg68H5mthI+5hlMOrdI7zenvGb+6Px2mRZR0IDZ6MFFXYdIq5+ZnxpiMeXJ+41375b2fnl7Zs63ZnToJsOAsy4uEQzA9DOWdCyCzBkOCydgnlnw4GUP6rUP5wa6arb/pDAEngUI5QqJncoQGAuusbAGsDgIpZAs4EIA/4IEDpCYIznAgHNgDq+pxMaEr4TXEZAe6vDQDm8bLkFlkcgxlnbvMbvFVtgc92B0Ugbn1QuIPlcHhUXlOYoHwgKX1X9uuUv5SR1a7ccIRmWR/YVkZYGkKhnojc6r4zsHR1eucqg1w+IsRPsAat+uiiN7TD/NwnTbu0lS4CxDjj9XEk+Zg2xGAbK1PIjSIPo6B0Gr+QpyEtkPl+q/NPpG25kc7KDnFWNrwWRjOEgayTgQ7GTEP9dbKu+5j4uaFx0f17DLN0OoZb55EuqWmFbdIAEA+kseXqEguS8peNJZCrNbS7NOhIY93C6JGsf+RJsga6DnQhvP+DkE+CLkWmPed++E8nbrJrGQDkBOVMce6H/3zCUPgGwKX/A83+v1n4F9D3mfNbjzBw3wps9Ma/73a+ETbaid/K9kbcDjpzJ1fj8RjnPDRvmnJf5eBZt9sb97r9Ua/XH/d6vVwCwXHBv/9etzcztwVC5YQ8G98Hyv4B49HwjPFocNR4OJgdQeEPqfTXVtO11ZVkbQW0upqsra1Vg7VBZde7R5WuddfL21r2h+HBmb8LLQqnkoYC/UE4OfkvzNJNCJowFNV5nFzA2VK+lc3wtjCUIHSBKGK7aKi0LkNY+HqqDZW63SC0Q1xtQLjXHe4RsPaQcn01kW6ORbhkIJ5jjHgTF9x1PpSl3RHGwt2B6jHSmHBsQjj3HjdyAEExUYQb6Se3J5lCyN0uxcAMnl9eK49qoQkN1DhD/SIGuRsbTxTQuBUVwE65wrM+00nlB7eIx4cdI2bEMY+1nSS3k4d4/tb+1PFkZWrsnSbSMAz5bMw5WbRCW8Wq3e2m10AgU3pq40zYShy8HKV6aEiUpLIoLC5A/VEx9hOaaI2xxplgYrWdVPdDlwXhYA1M2Cok5UgWIFoKCKgvPiCOpFSbwPioN4k3fC+CZhHdfdOTf9TLqsFMNmioMdT2pl96wnS6rxffCn1zj37c7lulUJ8P4ut92/hX0H+ac0NsZAB8s3ZsxDcB81vuU80unVlt2nr/autRD6m2H/fwcvvxZ+dbdxyZb17anENUFLt3NffHHHvyaYuwAHhd70wotAdCOd0vy8Ynj0ej7aPBoM/lfij+anVlpVxdWS7AcxgBxWB1rRwOh+VoNOa7/as8z/ipUrvhz679u6I2gRqUndwSsHC3hWsg/kxo1ek3JpZnCtfIla67a0Vbk8WvJ1PkRhbG8tlGtV3th7IQ34DQThoHdEuZhHShfK87jIvagnjFKT/KdgpKDgVoTOoyma5NPj42XrcPXpPe6Lr0HeVrMJXXFU0TeoDTXxqylUpeD6OKUR+MCOPsD34chzre4jQWdZgR1Yz4VDgpKHjlwz5p9gvH2spqDIF2Pk8X8no4CRmNs42sVi5Vb+2mLwTeHjgsPhb1L/jbVP8sS8B0WoU5Ee02N0aArgAwkoaAp5SiJlGus3ckhhMcXYTXIfOgJdAWhIFXc6iakwdFToFZWG5dmK0pfFPAJf67G+3h/pbjW2EA0JLbaPb/o84PBO7Uadyjg3W448YrPpFeceE/p1df8k+3vx/mZpK036n27lutLr/0mqoqLusUKxds6nS7RySdzsmQCfeFwLsfFOcpmKkeMc5G85jdp8O11WoA5b+2spyvLS+PofzHg7W1MeKy8XhcIC30Wl5i5qzPlVKxSdlS4bnSg2UwoUApiMJMthYRLpRcSFkUNpbe8zF/UNAoLyhsKlU9E6161yv/2kigux2uOCtjmsIKgxkB9Ae3GQdS3t6mSQXdUiIsA1wrH6G8EKc+UuSGMugHZ5/ZXyflr9sTjBPjZjRYnjBugYxZuOIETskQTqclmKQmdgpt9QK41xRQ4NNueRoKUD1ymFtVepjc/DftZj+DQcD+Wp+dPA2GSRTi6zFukfZXvQ89DcfYDcnp9KSJNqhs5+262V4n3+hfE9F2Axideoxqav8m4sIQur8uoxUGmqhCidA2/tCmetwQ00oXZuiU6QUS8lq9Oug5VYVSGuiexXYB1S2C5jtp0uvO9pTmzb/4v8U9QygbhJBA3xz8Leiz5rzb8FfO7xF8KwwAKv/p6/Z8j/KaOQ+IuAJwEGHfzV9MocA7/f5MN8uSzmf/488OeOyk6VFVOn9qdcL9Hl199/9+SpV0zqiyUTYHpbQDQvF4CMhT8qI4GUrmaMzmF3j/wIiPuA3WqsHqarW2CiNgbTVz5Z8jnl/2k8I3gemc3wJwZRWW+5tlf8oZCnST2BQ1tThqQaEUQ04mtL3MKWqUPF+JCveU8jdCWhLzBM68wd8KU7jn46eD6a8Vh/oZyPsD96RCmk6HeJQRFL0E8TQhrymjhszAMeU/SZNGi8p3avKzzLbf2+j1BUXG3zcGCnYcchPUEvgt4iuLVRu8baAZ3gprj/xTzdLYsL1OtXtdv0BT/eZ+0zhpvGgI2H6jXzSV/oDlrCPW39TdJmzUKXN7Jw4EjEtbka+j+h4Q82PTxIUwK0hbVldTq01t//o2KS8j0CMzAjwQxLzKX1Z2SwCm/OkCat6E2BmEK/PLfvevmQdzCW6QPOX7x2hviBCoZN8M8OV0fCKBlyXuLno56B4Dh/DuxKNBzzTnBPg6xTvCRgbA3d3eiA2w96YvpBBkHQiADtCFjOxhFtz984+8807uj6vSleU1vhdgc5ZlO/MsP0ov/MnyJVDKx9dkAHAVgDQYpqMhH28b25v+GuWTgviEAU57ufXCH1JbUZkQVnoXQpwgTIEihEIKYqgWtMpn+RuFHu43gNKvw4zas/r6csB0mgzxrvjXrxYw3MqZuGwApUFubfK2gcJKwO0S+kTOvsNRkxQI+9pS/jbjr0D+6lcR2qK+eBvbxDaBWDYVW2M0hPKszaEP1g4X6hxrkg28doHB/UFu+46aUDpa0oWbP/jtrYXt+IbXgLOpyaaI/AsbVE8K7RMP46W+gtT+yX7Krf4bhbGz8bOxqqmVp03hGN0ojqT4dlh9PFg7awOlRRvBxooOI96AWL/uGcTxXD+mrRsTJ0hFCqzOyOt2YitaY86tCDFaGQAqBJgzZJMHsN3FymdAVP6LSDuHcZy4YVztSDuQBIFSGA5pee4H/6Qu6h1P+6k0kAd9PRjcjXSP4hsZlDuD/wf6HnPW+AnQR815u+A9Ao83Zw3eBTpjzohvBW65mh/04dJbxUfsMPsfp4PVQbJr955i75695c4dS+VDTjsmue6ya5NycXtyzAMekMzMz6XJaJAms7PVzddenw7371+EFDsOAvVBUECPggD7Dgiy+0HBLGF6r7v+h2tr6drKKsrmCsBaDkNgDGMBVVYdnM088fkFHL5jAG0RSeBMzqDM3QhCkARWoNbshrGeLgjYIPBVLt2M409pjLcFrilTiwttUDovA3/zh7pUqf4tv7ZAcyqG9hn39vKvttud6O07xInQplAaYflCupYwhz4lR0gd3pTfygtQSTBQv/bsEKCUpktdgIP1h/4JlrVOL66/lWGhk2i3P3iC+dbkp6dJq3qdk5p9SE77x8emJt9PlsnLsTh3sjJUwcqsrbyLXwpT48G/WqFtyBe40kvBcl8ZZz5xj7s9rn2s9BZWx2tfoXy2w/eb7R9rj+U1Cu0QF5nbetu0V8e+xqM1ZjyeaWjAcAnGaKBgvJL0zgl3cwWLeVGIakLr1G57ukS1s1LeAGg3BldQ1VWltwWyJ0rPtrPPKZ8E6NwM3yXI93kEfwHZL8GevL6sRisv/eDfTrwV8A1P/1mb/iPhq87/IzTC8Pan/TRCqtB9Nqz6tfPtWwIRBj6ydXfhF0HT30r+DOhF5rxDPBnEFwe1wZ230YcYIu4mvPB5vwg5wnMVitgFBJQgZGhZLS7MVccee2QnT2Y7M1t39jcfeeQMlD8/ADIPAbIw2L+8OBoOtmWj8VGY5Z8EQXGqKMtPyLNsRzYe9/kSG6Tho3563I8rAHzhD9Lxtb5dSIpa+Uuk2akMUHixPSTOribfrKe2gpTWT3nk5ZY59UMCE4AbUpjpTlE92yXn7I6zwOD3MArNkNbTb1SWhK7aEPoBt4/xBAdp9inekMbA3SEtNuxkg+BX3w2W14ZFyhB+kcoAgbMutZNp6Q5pnNhWbCytVnLptjhsjBN1vebn7tNO1I60faL94jTtp0fLTOCKk9MiQzkCudcZ6jbOtsjrTQgepjdfk87jLLDlNqcAt7yIZ3rbhxiBMFaOuiy1eD0m2u5o8njZrfIIhLSKszgmYdBEylY+1eOcDquXToYa/ITaAE07pikcb6I6neVi2apDhkpDrJJxobVwaWmHwQxnGmSp+Pgw3CPQCmg/opZBazjgRmlS5o8/6/ji8ffZWf3bhTck7//FJyL7KClhaLzi/c3Mn/j+sx+A7GgFAfuABtQ/f45PF0YEcG/cHeAs/augE+RrwK/73dk3J/0j6AfMWYOXBQ703oCIuwl7bv5Cmo/H9pIdKLe8sE9993HOL27e3u1vWpjt9HsLsPYXcAIvQCBuysbZHBT73Nrq6ibQltFgcBSU/klQzmcUOT/vmx+bZfmcP/df8QkAGQCDob4+lvNGPxMyPKkpHdiUWlYxNCh9zkykiF0Qm1JjKmRzIaRZFN+jDyGgspgAJOUrJW5Km9UF4aaZkZK5gGNad9usiWkt3L6y1xCCFG55rcHOdCdU8Nf98VPRukmHWm9O7wOlI3/1Uq3COXcCUJ7StNIpvE7LeZZCWuHuFkJ6eUIiS6O0yO/t0I/jaEmMMWHwEMoDUp4QZPmMh35YnA9DjeBHisYVEoMpnl446NY+8f2mfTDh5z6wfaX9ov1qYYHqgswl2Fq11SsKY8i/6mYeL4NJHeqbZr6krnM/BifibAzr8j1u0j+ZXrNpxdn+4BhO58Hf4ifCQKqtBR+HjVYA6A+z/jZxtt9QZq+e9stFPI9YBmYL3i62z9oNr+823gCIPaFBqzqdit8MwMgyPYifwAYfI2wfXNciE2b+ycWYglyWVsXVyH4Lsu/Hvhl2k26G5EUvycpnf+hv27tAeOfTf5pd1rcCgBIjwDTVC86fNBQOZ/hZ/E0Hb/ybVv7ng+7KaxPjTYAHCbYd9RCcqV0979/p9ov+TFGedOb3lMfe53uqmcVTk5nFrbP92fkjO93uGTg5HwIF/ygIi8dhZvx4nOffhRP90eAPgVI/czweHz0aDRcGg0FHz/zruf+1cjCAETAc6d0CEiZloWv8FBLIy+/52zf9KcRdYetaK9La9fVJ4WQ3sHm8hBfK1LV4cgqrScEWqF1GoPq5+qlwktUP4hsK9XQAaaot5Cq7FR7qq8NZvn1zXcTn+fVMf+CtOkI9clMIg7ysYAQZ+Xi5YDfh7nFI2x4DLuGaILd2WLuNGzVhdn+A3ROh8azLoGzn6gsVgZPXafKeZMvE0gUg+7XAM5zKwqntN7d7QgAZy1CZdBq3Ujee224YhkC1RW10kt/6YZd7wtg5BT/S1m4nuz+irUTNXecN/nX5mn1ye2QrTU2+epxF7IyRM5D1pwHcGke6yemYMhjukBojo1H0rXgvz2qw8kFugcujVlR1FEOELtxzoM0I3Ikyjkb+41HfiTARTuik3WPStLsD+ZYglGaKzsyGemyqLZM1RAh3x4Bw9r8btCBfg7ta1/8H2uhRwbgT72Zcd9nHJDmpWLLxKBmuriZnfefPtKVHjbyq+t1k+cikWr1PlY/vX2TZaSDO7reNR6N5KPgZzO57UPL8tO88whYw618Yj0dzmOl3R6NROR6OypG96jdFnXqxDxW+KpDgoqCAF44gnCUsQSY0zU0uYSihTQFA4qnPOQaEFGdQFuhFo6yWQdEuM9QR6tPP65diZVhQsCEPuYeHlYImP/OG9oOrBYYQLljTJsA+1MKVP3L0x7j1yfoJ4nwKHNs6DJvaTa9V0rSAMzYibMmVlt523lZdLEPc/XUbkCaEsQCFyT2ZrlEWVocSE84aeF5x8zctb8Y3jLt+9f6zOETyX+8X26+T+xYObsMgGDygrju0g1u/lc3yyyF/6Av7qeNN5O6gJN0fxuZ2SWlZHvJOfYRHhDRtd8hHPzkK8DA2zePVUG+3xsTGAgNj/ZGxg/Apo0MkY9uNQhqeMg5hCCJO5wE4wTrYZs7omzoJVqYVAFbGZiGJrQDwS0IkuHHyaxVgD/LyrYBXY69fC7oB2W5GvtsQthu0CzUxzQr6O37ueX9SX/8n3vUMXh7wFQBrAbssC/QF5/+p77DDGxqVbzKeDuJsvw3uGB4ZgYK/Hd4OIxF8F/M0uCTE70mT+K5lvmmGn2o80DubI+4kdl/7X+lonGGmTZ1Q8Xv7fMUvZp1ZOVxbLR78uJ+rT5rL//EB6fj7L0jukyaz3Wr5hCTf99AyH58NofBAzExPxKx1K5T9LK/pwwjowAjo0hCAEdAbDUed8YjX+jHjpwEwGvHLfnzDX4oZbheCpIv6eWzinDdBpYrppmCqyRW/kwQQ0piA51IkSzABRCEqQeSCkaVKYfhz2mY8uBBTPc5J/KEsuRXX8oc6kV9uEMND3qCE1Ie6DLaLHSLYRQsjt3ATV5aLXfA+tIQ5N0Hwh3gpaPaTvJWvmalZPi/c4Y5pv9IhD3/S6RLM8FlZinOaHFtQ8LMe5vd0lobc29kKx0Zp+TeYW94QB8gQdNi4tYg/8noful9uCBX5bR+F/aQfOEt21qD2o1a1kW7joRWsZxqhT6bwbT/J3+Lr9p1TO79I+SfztImfiBanX+m9TOcKa5GVL+b98+MVYxPcwTgKhvG0AUA+vSJGxW/nQKFiWQXro0JX3TaQLJeJMGzgemCTlwDQBaRQPxDCNoMKhK0iL5X9TZ2qugnpofyTW8FJNyP8RpR8I7LfhvSrzz3/jyduDnz3M/QFQZ4KOh1AbIT0S7wMYODAfLNxrPM2WA/f2cxXOXFlYAm0FcRXPfJFQUeDmI+XDXifABX/RsqfuC+IX496BOixoB8D/Qgo4hvAePeXMHnspfymL86/Hk68GThmcVLOpt1uf25hceJYOeMHL6we0EkrmNf9KhsswkjYDuV/DITB8ZghHF/k+VFFkW8HbYN7C8KXQPNZnvczfdI3gwFgX7rT8jYES6N8KR4olFwgkUvAME2bGmFueVtupLVLBBRUvozuxMcOWa9xfkaX9xyQXKj5zGZa6K1zg8ISvt0tvYHArInlhTLZrpbb06h/HIeQlmWiLyFeMy9QRjfSqa0T7YQ7UAgT2bI9SXdrk8pA7XGcdNfvFKBgnyjPqNkPlk9pA0mJkIJC2YgY15DJZ5fLFNcibtZjOq9+tZtZXfEof5D9IMST12mDkUC14FULnjw4dGw5sX9hnNpuHbstmjgeN6Dp8RRhLNvuyX1yBzRV/wGJqlfdasK8sy0OYNjCGE5TWM2ojRAQPxVMt4wRN0zM+PTC6u0ErPIQQa4MzJjMwrUFdDTCoBfSM0D3IUcLToVaOQ7uHci+gD6suzfMi2x1yEo3ZwRxdxgAnMV/q8HvSUd8nShXLvX7dqT9uSQHAyDpwz8DIufjd51br/1MOl67uj6BcNJ1suH18+PR/q3j8XAHlOmOcZZtw0x+wZT8mM/4B6qVrVOaZ2OuMnSgVLsQxF2cqiRO3EU8dYOAonCzWT+Jwo7kwpFC2dME5cJwClFdv28rf35UyInfFOAnhZtr7lSobgQg7zojgMrZhW0I03X3EE/hzTjF89n6lpBnvLtDGVT44bLFtKCvVzRqYtppxW5h1s4W0b+OeM0e6eGWkUFC/pp4b5aPnahWjHRbG8SRbl3b1AeUQQr7RDSZnyS/9o+Xz+NIFH4NdKBJZGMTSCnaqZpjJNA0lE2wGuq6SWpjy98m/bw2+pUOba/TsC+Irf1t8n6qr+tp/X40srF0glsrVFql8uO+Raxnoi/0O9GNTd3+dhrFhXyhf/UYEQy3OAIq3+JJPpduVnIaI2CCPFzpWj8vqFXSAWAxVOqcMPKzwScg22nIeSZk0ZlwnwrihPFI0BLazAnmBJ5vs/xAoXL27MD1Hma4OwyAm51/K/Fl5xF3EeUalX+pEwInFkEnTxh+gbsA8Z3+mDOk1XiwDMYrL4Zbr//0wsq+m3cO1paPGQ7WjhoOh9tHw+HCcDTows27+isne8yPH/PhtX4aAP4tfyifDpQCl/zNAAiCQdIHp2oQWhsIQBOCJggDTQtKClUqyGbm7zRyg8QNA6apb3SbEsobEpRdToXXUuxtapSrKfP1Ct2oVo5UFOHnisP6ZH209NY3U6IoW0YBubU5+CcNBboDcSXA84hCuTbTN3cov8Un2sBwq6vuo/yteBoTLBNxStsqQ2U6Nemb/SfCzw6AILMn5bVJ9OanMM9bA1l4LPvxXBfBJHU9rgSpDEWt7A2YphWltKEPDG1RKHeKwv4M/W32TSAL22g8pOBVF+NafsaLh7iQ1+M2IuWlG2lFFo6NtV0/88phm4mxFFGp+6WJdYrfKRgGXE7UPiDZTlARFtAEBljd2MghWTCDBPwg0Dbwo8D58ZyTnWgU0ADgJ+Jn3vecp6qsdz5Nd/8LvtTvHeHEIir/Nu6OwTgGxO/775CvAeviDqWQD4L+9vhxoOkbCYnLQSMQr/+TXw/6ZdB+UMRdRLl8kZ7vx+xQz9+PMz2Dzzfs8Rv7FZRjlY1zLhqWZzzkh3UiXXbBP3V73d7CTL9/VKfbORPn1LdBsJwNRfBAlHMcZtS82c8e7xvwHgD7rj+VPx/706wbs+96NuqKCGVAZ/ANfyYMTXAxblKpN7Mcj5M/MSUbhCrLQLMZZkKvkQPmbgFeCVaGs1wLEuowMv7k9frVLnJra93mwJHW2glSWaFMP/G4YXmSg5bGZGKDaZ+JTROqbTeFcR2OH/0T6ekj56wspFOkUpmbsKAmTOkYwBC20mNDHH6sS+Q3qdV1eDoqC6YNykDxnW6drp4pelrNLOGGR/lYnw+dxjLwmrgfcCwoXFuADpCloYINiteOETNcbD8RqFXc6gM8XMW423xkzj2pocmvFqv9xkX8BXdNHK/JMI0RxkPjqXGwsdHYkpSH1/wZZkvv5rfweh8wH8uT29qmOuRqAX2x0bWxVJDOBT/XpigYLWbYGg9xOm/hVzlOwd2cE9jgpGH5ODvUHhsm9Bzt4+3/cFXof6X7AdQTHQkEC+B1fn4W/kbQxcjLd/V/FvwiZLnlOef96boV6Hc/44nMzhUCVlegBaTqRR+INwJyQA5W8CMJP27OGtz565Z6Ir5+VIPL0goKnzNfzoqh8OEudL4eddpj1p0g+1cv6SzffOsClPcxOBlPx5n8QNCDceLfH4LhRMyit6Ccrr3bf1jyuX7O/qX8texfPz5WQfnrG/42gzEF2ggT55IX5pbgITdBUhOyStG203HGy+vkElAkCRymt37UoHwKvBVpYV5HcOOH4i0MxDohw1Sn/M5J2HgaT8+fCmrDTr/6AiiZnM1p2bgMFk1lQdZSHEGR8OdxnpRb5VO80plSUD6LMD9T2d/jmziGckuuboQwcCkeKiQqG5GF1+R+xeNn6RoDwBSe56O7bh/ktjXQ6gRsfMmbsa7J09RgAMLr44IGIVdCeFxwXzEc8QTbZQ7nXl4om9HhaQmBTk9q3Dxs9zquP/vTJsbZuNX7g+nRfyk+KnaGI97GF+TKnXkahW9GQNsAsPKNM4xcbdF2EgpTvwI1fQ7n4DSF81DnlYdJYAS354dHZdfxXiYITp21rF/dZu9l/GCU0f8yGABdHCiNGajGcRtu/r4UYZ8C/29EfAmC5Prnvf/PGTcBNwB4OQGTHZ2SBbpaRgPAZtv3JvBVwBHfRKTzZ1bp7CzfksWToYLAKfszsxsqfyIfjHhPwFacqCfixL4/FPmDodjvPx6PThqOhlvX1ta6q6sr1fL+5XJ5//5iZf/+8erKyqj+qt+IH/axL/ohv8iWx12okMIsA25T5utp8rl3pm3yU8gExR/SmkHQXg43vz3S1CpLEsKEVkGjxIVWewl3oh4qIkoT5+Fn8xsMKLYiCi6WJaIzuJ34Y4RZDEYhDHyaqBLbNBHP8ti+us3sm1Pov98EaCskk30KJL+XEVZl1E+WL/J8GudArKNVX8gXiHlECOelAi8rjHtdNnpCiR8Ef6MBuEGs3NNojYHAcoIb8Dwsi04pSBB/dUQNuNEOEUtR21tt5E/ck7Sgsp0Iu6GF5cGj/BxP8HpcMBYYMxrBGnsls/LpCe6GvCgWTtQOoI6wwHV5eUw7mZv1hXhLHwrhbyPIoODfjRMzPrgSQUPEjJFAHF+NsYiZRfZDSF0dN1Y5WqX7yEih2XXbmADAJLBaAG1FyBbQIsLnEN3/jV/6cdYwiTq/e0D1FwkOcxzMBsBGeygaAN8g9l77P+nuqz6R3nLZv6VXfPqvdLKkM6dVva0PrBaPPrvaetwjQA/X2O+66l/SW6/6j87VX/g7pRvmV8OCLmcRuR1CnAbAfSDs7wMj4KQsy7aNh8MOZ/trq6v2Tf9lfdM/G6yuSvnDUIDuyaEToFpd+QeiIjLlQQXlSkQ0pVhuh4Ih0CgeD2+VGe6e1yrERL4gjI1M8hifUEx3iihsGr8HYAQnqf5JIWgpwdNz5mRh1obGnCBJ6WOPcHIsAUtBTC4yGavyWb/3h9SMLZQ/+41xDVzX7EVNeuwZd4cxYtqWG3FsW0gXxl2keizNBHla9W0dsb3s4zQsjP3S8/d0cJjCj/3ErwadDHNCydIqGlsOHCisSmimDEWl1YYWVCKSWqmtsgEVb84JqH3mrGH+VqhnDm0Tsd9yo6XBX4cxcZMvIDiN+xZsMk9TRjjGSNgBdqyRQriVIAq/24M0eBhHGQBGehKA3P3tOOXRL4yI6qhVseq0h5BxylVc6OOJ4C0RV8+YCgFcCZ4H8TLxAkLncFb0qk5vnU6z/GLMS/AoiAAOZgNg4plOx0ZhEXcSVP44DbjPuzgBur1+v/PPH3j1hufC/q/9AdLy5X9JOjs/l17+33+eru3Z3ctHowVM4XdAiRwHOgEzaD76t4XX9XXdfzDkm/0SftQHvIBBUCC8zLMMOoOaxk7omniWQwBRsUhpQEEHxRGUiBEVTJnkJPht9t5wppG77Z9QSCwvlGluU2ZUSKbQTAC3CW2tKUiPduvJLL6GorCpyYI9wsMo18zdlO91qj1BSbbb5Pmxt6irIE9BvAmL5IIXZMIWO407zutlflP0Ni7BbeT1cUzAOVYae/IwXvS7u1b+cLfbOkEa28kwtp/Kv+krOJQcZ6Kk9UrPx8d6XfsFZ4ReGeNuhof8oVzN2kO5nswUP0jKywwocYUzxXQ9zSlSt49ube8MmDJQYDi9wDEUE2UyLvgPSEzGdEqvDB4Xxncj8nL5a4f72LAhFsYym/4GYGTqn+5DaBOPOR57oLR1X4IMKztQOeg+7irMioTGRo1wcosfws1nzJqnxikAsDxqJ+bwVcWbhzHzrzYhfh75Z/TC/ykotcpQKaEF1orDHOsG6yDCRo8TxhWAbwA6aZIS+7zi4/4w0jvdI084ofOHr336upNh82lPrnac8v3lzpMeWxx93+8tz3jUT1Wru/f0BysrmzHTPyIbj47CjH5nNs6WxuNxZzzUTX/lcDigEZDymj8UP78h4G/2Q71VxeMNolbHHf0UALT37bO+UjCTiiNQe1ap2Tsp3L0vHu7kp9+NAN0DQGIZBy67PcO3MFMcIWxjcgllDpH8QdwwTAKH5JhyNsrdSLNjUlCyaAvDsRFxJ0npkyBse71u0u/1kn7fSf7mLmwKXCGUz75pPMKYBApjQ2XvxPGr0zI+pAEhb7vduutfd/7DTfL+U7k0dTDOwxAnf8gf4uVvxi/QBOS38RDTz4LqMM8XlH9dv8KZGHCFJOUlRRYUlBFVkxeq5NMI5dS8RRNoBUycZCEfC2i51W5v7wRhbIIBxUpDX0StvHeGbDWJRLeXYc4G1MZTwMhMjNE64ljyuHPS2JJ8fJFIpZDUZhbqnO/9UhvUGE/EGDTY2hygRIqBg+n45lmuBPDb+rOgA+m0diGCfyvgsMbBbABsNNuPBsA3ABfOdnLZHUjdfr/fPebkkzp/8bZfT4vRJenybZ/t7d99eS8zZV3j55BnsH/fwnB5ZedosHY0FPwRo9FwCdSjsufMH7P9dMQb/kb1DX98q18flfZRKe8d4HeFufpAI0DtYHso+NtCzpRgENgeB9JM1JU/FT2f8ZfyB9kz/Kb8zThwTkXWUnBthVMrIlJdjykOk0MmMNtUg84p751CKKcmE8ZWPnlr1s9SmQagAKXi70Hxm6J3pT/TS2Zm+sksaGZmBv6+wmkccHVAMheoywTZWPq4uN+e3wcFxe/uxgAI4xPKCe31MuG3fedjqni2n3WbuyYZAl6e8ng5zBcI6Ww/TBM7o7/gXkFuxoE061cdNEwCNUovKKywCmBKzA5KxbvLyrQ8RCifMdNtEpyHdMobaAIWFuqzitBuH4+a1AejxoCy8WnGv90Wo5AHnprquDoImxYszMjgAxIGhkzj5IYTx8/9EwqfVK8EgBivX0BTb11n47dvf2h1IEQjxLZMoWSWFGlhAICo/ElzqINPkG0E5TFn6E1ENAAOI2hxzM8inLS0BCQRF7dtT77rSU/oYBI92+3OLPQ72bZq5Yqd4+Urdq7e9qXtu674+M63fOnvT4REOSUbDU+Bsj8ein77cG0wN1xbSwera8na2iqX/vXI33iImX+WdaA4upBYMzibaaXzmp3ficsTnDN/fwKgJcQk6II7CEByV0RhZmrKPrzAJxgBzSqAKTHP3yrTlBWJ5Yc6W1T7mS/kmSb0ArKkHUa/r0/K3RAZuP0tJOTzn+2GoJzqVLZMwtk+yWf8M1DuUvizpBnQbDIXaI7+mWSGhDQ9GAkmpFWc6mS/+OXCZmwwTlL+k2H1SgD9GsuWYRLaf2cJ44hKpIClxBRGt1Noj6cN7WjimUfD5u47Q00ZVrbVQ38YX+qAWoFJJazXC20fiq0R3KjJ6yNZeIgL0GUKnm1T4YTyT5RhFMagpgL7jcc+9xf87X2h+OBulTFNdwlKbuNR/+qxWk8TKyg85pwU7m5E+oDaqE60iO3TKYSB8g+AyW1Rip3qAeMoTzjrp/LnvQD8gFD9RsB3+PsArDZVF4pgkAcf3jiYDYCNLgHw7I34OoFZIxW/vuqHWU9e5nm25/rr8xMe+MBqyxE79datTtrZmSbliVU+uG8xXub7/R9ZpZ3vTLvdx+Cc+XYogwfk4/GJ48FwO4yAOSj/zurqSrImWktgFNAASPJxxkf89IY/nHV8yU8HCpXvFqiVuSmWlpADSVjRDYEWBFsd73lyKngnrQAE7qsAJihtxSCUWSt4KSBKE69H8dPchWydvkUTcuTOIKRv8snl5WGjAEkkbEj1tf0elD5n/H0ofsz0pfSl/Geg7OdE83OzTuYnyQhorQRIAKNcq5P9sr4GaisN9lvUvkTAOI4D3EiEljZ56W/60VAobz0hn5dp9bIci7O6jEL5aitJ4ZbH8hkF1C5Wr7Za2SxTab39TX2ePGTkAAFNibZPGjCmIf7YjiaI7uAJfiujDg0OeRpYafghT6Bw3DeGmBOP7fq8sc9hM62Od8/TPmYPNF71wbYOIQyK2znTBeVOhd5W9mHGX6+kgHj81mlc+VucGwEsk7odZHrex4BtRCQJIZjda6LARoAxEdPQp6Zxps+JBZX/IsolzSNr771P+ynGowSx5IXv/zPLtV5/WILDGAfzALwI9A5z1vi/oO83Z8TXg11X/mfah4Lozc0nm7Y/yM+urJNUN27Kh4OdZZYfB0F5POiYosh3Fhmf6x/NQ7HPQMHPDdZWlwZ8499odARo+3A02jQajviBHy79V9loXFERQ4Hg2KK9keLcDyc+6+JJDCHsMxq7kc+NARDjTRG4cPN0QfFr2d+J4UrPMin0WH6oA5zlwGN+BJB7MxwQPvhBNMlNgWWY9muYLL/ivA5QELZMo7AgfJnH05hfSRgkP0bAAgDV5hsKSZv1807qrhkB9XV+KvWg2G2G3+v2tDrAKzosjX3m5ZBsPE6wb+wNjOB866Euj3BMVJUJb9ZjBkLoq7WP/jYFgR6eM0cmj5vyq7wQbn1huLXR6rR8RlwitvqZz5SJnmuH4SI3wlk2Eog0amFMSfRzCzfFu8YW+0ArGzqOTClyvygNwHo59zHu8PIsbzASrPTpfazk2hrQE9+HTb9EIYyulr9GcCraPJZWTssL0jgEwvHAsbH97mMUOCjcfS9ifnBrg5fXKld1aMswd4SQVn/NaWNCD3nbqBBxRMBJdRjH0m/qrb/LwWNQ8oGPobJMHo+m0amv0VrobU1SSvCKre/i4ODRoWYjnQizFDC+/O060IVI/xmEfxaRl/aq6tbnnP9n6yaQ73z6T3PCW78QiPSi9/+ZnRCHKTgQBzP4ikd+HIiz012gq0ERdxK7vvoxLbUPh+Pk5lt2VRdffnXy5HPO5ek8garahRn6ylI+HB4PA+C+ZZ7fDyftGeB8sc8RUCaboEg6g7VBtba6mg7W1vqDwWAeYXPgPX7xbzjkV/3GJWb+POFZL0U/zl1BZy6FQhCwRhQOQcG7oHbhQbeewydHfJjxBwNAYcynclzgsC/WJRNQEkpWbx1ROyYPfbbRXTU1YZaHxVgI66MfPNRNYrrgdqr9yiWvx1k5NjYU8lSuphDDcj+FfA+zfzMA+smMGwA9EZW/pZFShuhkkRwTXgrhS514OWYNpMsyegMj9w3GWClNsdQGAHvGzrF9iodX7aIIBmc74TaFLnFsnMpZea0fLqrVj9A3EvtkEryVTm4rQ+Wy/Aml1jIOkJb1YMJoY8ifj6s32ly+P3Rc8Bih4uJxRfI01lFrRw0WwfI8b3C3iYmMW1oDyuE29CtQHW5xdCiEgQTze1oLDhEtMJxpOB5ONAjtdbvcdxijerzczzQKt/ShPWHsA8dGNU7XqjhBA2L9VFcn+06ylRpzK87JkoNrH+D89XNWxGOQBLfGmYQfdj+bZAYAL5hAwaOtJdx8MRJ7wvcCqXXcoJ2sZg1Ovnr+Yvj5NsBPI+4CRN34vPf92brLxe/YwAD4tcPcAOCAHMzYB+J7/j8Pisr/LuDGi/6ZS/D8rj5kfNrbvLTQu9+ZJ3f+9aPn8eDH+cmvaQZoKY5p53FSHgE6BcLzflDQ94f7TLhPBj8RJ+sJoKPh3o4TeAEKpZ+NRp1sOKpAJdxlno1h3OcV8lRQRk72Ln4pJr2LnzNSm5VypsrwtlLnikB4HLBN4fE+1F9zo7bbSILFlcFdA9MbtYWbLR2H8qfjQAzbKDxQ3SaWw/JN7lCYUflRqPcxq+cS/9wcr+fPJfOb5pJNmzYlmxaM5kXzCAPNzyfzoLn52WSWy/7Iw5sARf0ZMxJgOJiyMMVggl/VAt5Hbtm+0N/wC+1WWy21OByWx/MpXp7az6BmqR2Enwy/Op4U4smbfdbeh9qvNFhafhu/kNfqrRsHsI8aU3EoPHSYXQ7hBmawuqXEWvuNsLTrqTV4LSAft55/ghRucXRYCHM4eToPnoQnUpq6/zzug0FsK2KBdL6Ec6Z9PngdG5JXsx4eE7osWj8eXJ1p3B6u4wxE3iIZKa102KBQ1mJ1WZusVuwRC7d2BoR4cThYAJU5b/xbdOLlgJmySnvvfOZPWgXrwdwE41MYBQdKd1jgYDcAIr5u6PoZ75Llp32hW3q9hYW5zpE7t3l8fa8MVBGExijrFlm+CbN+fsL3GAjbYyFMdkKZ96RsIVyg1DsInwGfgbDpIX0HlOZ5liIPP+xjN/ZVurmPXEI7CCwZATQAMDsd8WM8/kEeu47v1/JdiNljfI2AqwUdw9mellCkcKDQsBlJE1YLjXDKCzrvzUmYMKnTNWT5IX3B2+WBqMxC/XV9IPJpauWzPFRidukChasJNAB4Zz9n+LOzdh1fSp6KnwZAMAIYBrcUf329HwaA7v63JwCk9HVpgMvoYZmYgtkF9JS4Q8umhsPaNA0JbXNxcGqq+xd+8rPfRr4uL3cwAhqlhDT6GVd4GLN6/Hx83R0IAXW5TE+3COWojfjXSmmq00qlvMzDv/3a4xDyNflD5GRZzGb1GkK5+inc4kIKq5NxYjXqfIHq/JaXbh0/fi6F80DnRCAtq/PcCPFh3JpxD4RAURg/q8u4kSVRf6fGwsgVfZuo7MURD5LRScWPY7A2BpAXGyvX4TW3fglkB+uHG+3TeR1igDqnvdOE9wHwM/P2LoAK7goyr+DDRtOwmmoKNyAcxogGwCEKP8R5Euis7EEjQFl0FpdoKPMc3FEf+dWum3r52spiMRptL7JsJ5Q6eL4ZQiXVjXXjDMFZCeVd5WPN5nmXvwiCxlcayi5K4o053dROTJ1cOIFpGJhAykxgacavT/G2ieHNSsE06dphS/A1SoF1OLEv2AQKg3CnoAxyGKkQL58zRM0S6XeBFMIUbkJ1oi1TpFUDCnAnhhE2+7fr/Jy9c/ZPBT8PZU/apBm/K31X/JztU/HrsT/O9nt9GRBS+iLsci0BUwi7IKbQpmCuBfgG8hFQHH+tdJPkCaf6p/4Edz0uNl6T5Gk2Iv+FMWr2sY15bWy1whHo+8rGk+DqsB3kJuDQ+4n2b9xzB+PrtK08LdoI1gTvRyD+NgzzTEAIPyAYxXhPx3HlGPAcqJV/OL/a5IZAPY4hf5u0n/xymcjac0BoLDYmWFvmDsecGwRB+YdLFcEIYBaONVQwgLq59Xa4n58gJUcQ9rRF0mdpQQBqqp8EkBHgnI8cb6TbLKv9gi99x9OeoFYcjogGwCEKnIKUgrJxeVJCwVS8O3x+nudHg+rBSZqt7V8shoNjimx8Qj4eH12Ms81Q0L2MHwfi2/1Gw3TMZ/3Nrbv8OZOXAIKwgYBBLRIBPRCv+/PEtNPbT2ozAkxg2at5m1n9pPLnJQG7LNAof1sdUH6rzxUAzmCVz44YkQkhjJAbLSO1f/CHdCZfXFBKeU2RhGUgE6p1O9SWKQXl+drpjFs4iaAw5DVbXuuf0aN9vvzPmzRBMgawz3RZwJW+FD9n+7oZkGTCVTN9F2XG6DcyI8DJY4nGxbZQoroAV3kNhXICfNi05a8OwRjY/VmcoYdxMK60NQcj4LBSp+MD2dg148zVE3KWj7Qi+D2/yMtguWyy+gXf9G+i9+6t+xmizYKwchQwiaZWa+80FIdN3Z+p/R9Qx7doEioJ4TYO4TwgtZW+ngZAHVpt8fhA7XGcWI1hmwLV9VuNhI1hGBenMC485nTcBUIwNs0xZMe3jqH6OGI+FqziawQv6+ZG7fBgBrlBYO2yRCG+j7Tz6Msm8E2Io0Gw/n0AVmYA3VwlJXmCww/cDRGHII65//dVnV6f0jjHSZd1et0cM8QyxSw6oLz5s/3BR/99e16UJ2KKfwYMAFB2XDYebYHC7+rlPmuDZLjKGwDXSOkAfn/LH2bxYyl0E8zUpjy/IQ4cODulC3jHf1sQTV7HDDQ5+7d7BRrlb4T8XpafwCDrSw2TC3eMjdKFMBZKBcN62kJxQkBuTLVQbYex3yhPKwciC+eAcaZEBa67+6nc+YifGwG2xG/L/Lyu3zwB4DP9tnJWaYR1olaScEvgSvA6tQU2UtiOa9KwzPregTBzk/HAREgc4P0gr92sW/VPEsMbIho3t+1iayDC8ltfgoFlM1uE6zhoDAE/DhvSz6H+hT6626MCbDTkkLtJC75O0U3ntn5M1K82MLzxY2PUCqvjWlCKEG7JGSC/9d2PK6da+Ydza+qcEzGvl6FyareKrsPl9kZs0E3rfz0+02THCjU8/bYS0Ip3N8dYZbW2rNOIPwXqTj8Stmoc22dOMRIfM+6D9DggYhYRNoeIdQYA04fCQSjfZwCKODwRDYBDDFd+9m/tbAKOOO1xRafTzWB5jzFTzEYrq/l1X7pIR3tVDXt5p7O16HRPgeA4Cwr2rDzLz8TM/njM+reMhoPucG2VH/ZJVldWktXllWQNNIR/tLZWjYejKh9nFQwAyGNpRp2tXrmvPVCHuvChQKJwQlIjuhuBRQUfVgW4GkDeEOKV14SchJ+ft+FsNo+TwhzB244i1YGtMHqRSD/yUJ66N6Vc1A5TQKLgB00IXYYhvSl/5POKJN2wsXf5805/u8uf1/PtRT6c7VPx23V9khSyK+P6ZiqWpiY2CoHjafV6nawSkNz1fLZawIB2HAQCws0AcCMAbvpD+pDHesG6fTxCJdPw8CZNQ+0cHBH+zG1b/Tj2IhvbmsK4s9x1cQhrU1OoM++s92cj8qZ4q9yvLJ6m/gWw5FDJVP0ghpGsPVN8A8KmLo4Ohk0r8DAu2tfk3O9h37eW/0WtfOFYYR4EWPleR43aWXfcqIaHOzQWPjaWzsiOdPOG7LzFnwFN2nUIih+RmKGbm60zYgBBkdN8DwCKv9yC2M2gTehkfZPT23/lJ6wSZEQ6ACNgx46vAIRGHn6IBsAhghsv/Pv0hq/8fXemn3av/cLf9L72yT/Rvj3itO+qjjz9u8sdpzy2POGhP1I97EnP5xnQSbLr5jC7PgJK9XQoDDcAstMZBiNgDrN8zvirNX3Vb6VYXV7O4eaX/bLhYFjASCiQVp/1xQzfzykXIuBaYnSlX1NLIAUjoB3GGb6RrQqYYWDclJqXayey1dUCz+I7fSYz62T2BiyXf1FTlwkNCY47JPZnfbiVSUCfSrma8u/pCQBez7fH/cgbpV8vodbCsl0euY8pjSQfKxsvUwJMTzC/KXhT8o1SVyy4Gxeu9KeNgPZMLgw0S2Yb2rB2WfhG8QFercF58Nb5QfXqCcdUhHD0LfjD8TNBPiahDPs1daoLIJ4kJPSKMTVCPyeI/W+NgYhpVbJB/SWFelV3E4bNBE2kIymlQT6F060AnFvMFsIDsb+NW+PifhsDD2uPxxSF4hs/CJ3zqPXg+HnvjRPmDxRKFWe58gdYnpCaYHxoC6D5BLzg+inaojwts1ZJD3m49L8FITuQbBvcMAaq3rt++ckqGrtJePGH/pLFtMtpV39YIhoA93KMbvvvdN/V/6ab/DAr7OFgn8XxPcMT4FN/886N9++eCzuj3XuXoOiPguI/OcvzM6HMScchbGE0GnVGwwFf7cvn/vPVleXh6srKKtxrg7XBaDQcIVkGAwAqnMvyFCxF6R/0oXKXH+5GGRlZmNKRcC6K4A5LlqbEgtvS0s/zlm5yEZVAOJXD6VwjnNN2fgcRpdA6PfLT4eWZM/BAFjdBUj5BqVqbNiKmrfunvJZF7cBOMgXLZXa/az8QDIDgpwKW4nUJFuqvDaFQn8bMxrhtMIVxIxFBabXLDKC3HR9IbQg3FDI+pJ/i6qDXMwEPCu2o22MVWmS7MIapKEtnY0diX1rk+6FWauIcD/Sbhg+PHfqVHvFWg8pXP/HDKMitMEa1yYJrWA4GymNEgDe9tsDaj3oDhf4ojmHOGaY++k9xirc03KIHSkdSiLhBYR7UUHOMhHw2bu1yDHQhRL/GkGni634GTA8MoNTrwlmir0xpP1i9rZIBpndihJOapxXEevZPMNii5OU5qJHhCsA8Qrcj9gj4t8O9iJjZUTGQ/GsLQd73g/QEeU1v/cUfbzf+sEE0AO7FqFa+gAlJN4UigazudDF56+Fc4rOx/RT+TYubO1/8f/bc/96v/Wd9gK+uLveGq2ubx6PR0VmWnQjFfwI4Z/6z/ILfeDisMMvXC2RoBIBKUD4YDPMhZv5Q/nrbH5QMnwAwkiJywTuhhEDtWbxTEN7KhxNQFPw1TQoxO/Xt9D8wTJibYAnbabA8bEnyKaSu55tCaH+tnECqhNAM266v641uVPYyAjzMicrXZuTWA8hQkI2HKfw22djWn0F2HsZR9TuCkp+merxaYe1lf5KS0O2pGRQQxhGV1R5j3v/bQShGWZXWc8ItpU7yvtgxEY4duJEmKPq6v6CJ1aWN6g+daNg6tPteU+vHPwIVvlEp3ou6T7WfkXI71E+nOoUT89YJG4T0cltAHdYQ931zDIbzbDKNl++M8N7ZFNyCNoTSI4H1v4VQNvdF2C/w13V7sklYGYyzNK105nGrWyl8S0CjJ9Uczo1tqOoI0E7k3wya7fCdQsALP/BXdVEv/t2/bLIaWPFUBw4fRAPgXopq7cvcd5yU8a57WAC+fmvnI/R/J+3P8GUyS0p/63XNe5TW1gabhsPB9vFofAyU+bFZNt4O5T+ju/yHrvhBw7VBCkOgMxqNu2O+9AeEWX8vz/MulEwXyqcDQUvlb+/4B5FLIUHpazZKzmv7NYU0OKNBNpMzait7+uGQm6erhaPxTpQ5jeCtRZbCuSG36+Tyhmwqw4tshbXqDRR+rTAmbnO5p6F4E3a1AmK/mElt8Rm2z/756F64qU/h3mYlrotjXVZOUPqa6eqpCI6pKXxT/hbfpGsUwDTagpvOQME/gRBurEadZzqCYJVebXDWVLfJuSgorNBmcM7y6nGcoom0HHPzM05hOp68aKcG3vC6A9NgGI+qqR/SatyUje5JQ21jhIqNc4sW6me+cBEabiVp2j3ZeMtj+QwWxfSWJrilfEV0t8LDeKmMppwJtLuyLonlC8FM2iZCKbyu9fuM4U3+ycyhhFCtlYRw9ACEApWd4YpiUQrgDX+8+Y/L/1uRaAmBcwhsXnayHlZFQFP1YYVoANwLUQ2+Eg5XcAkknB/kOKjTpIAjxyyz6Hb7mqkTZzzuydW+qz7VueWSjy1mo9GRUP4njMejE0FHQ8FvHg5HHb06dm1NH/UhwZ/CKOhS8UORz+IEJvWhiLqgDtx64Q9npJqV4gQPiodKCYaCEW/qE1lY0bqbP5CdyDyx24TegdaD3V9/xmIEJn4bg+JDQkP13VliWwIhZMM0ByLlEEcbucewkbKXIeBc+8/bzDqQngrfxico/jCrd+NKY9wo/+lnwifGlYUCprSautpuot1eOsVb7aebYI5AKIB/kQUiTb3jAm+DYSyzaV+b6hk9f8Htx0kYj6BIyC0efl0fN2qqDZ464C6iGS/7Qdm3w6ZoI6yvHT41shWuhpMHp3nEW3EB9XiFX/CLOK5TY4vxwUDZyrnKwoZU52WprfazL2F/bgSl16ZOh1JUlvZJ2E8T+w2kuli3ZZ3AuromDiJb87dqFDBRRDXxPoA5JOKl0N67n7rhGwFD9jAa5joMEQ2AeyHS+bPsLKvsoxk4wsmh6dMMNAKNUxgAUM7lAx73FB3gg5s+18lGawtFNj62zIszoCzuC8V+Kmb+R2LWPz8YrHVWV1aT5eWVZJl3/a+uahWA9wPkWdaDwu5DiPB5WxKvu+nrfu2TOygpzvSzQHqsz+/sJ2llAFxKqiUYQDwVTTiwyX7eSqhCuMofiLAwE7w2AwsUlCmpTg6wbJZsVZggalNII+5yIXCy2r0BVI3SYGdMlRvKJNgkLa3zmjoUfz17JAFMGhR+uInPFHozvoFsLH08a7LHJsOY2uxPNVs9LdRj1AKTWpsDB6kMI4FZvMkqQ15slZkJyOBw+c14K3C9wjcFTkJ7Ga82M51x9SPkc4XSKDinVvtITUNC/WqB2isuCte8m3QTmAi2HCxAP+4z7jtQiGow4WnKAbFpdRtbZD+mCW6G02vcNnLUjFCoRzGtjjuNnwJE7fqC20jZLPNUkw0WeyD4nGMdUHKz31qkYxbc9q2n8zwBaqdCmxjbS5Z2IlaFiHhRnynGIMg+vuNfzxlARiUUghvoOJVCgcPGIBv/KvWwQzQA7qVIFx9cS05ucTYWnW437/Z6eX9mNl/cvLk489FPqi77xO+l+e4LulDg8zjMjyir4jTQA4sSlBenjMfjbcPhsI+Zf7qyslItLy+XJBgDxWBtUCK+grKmou+gHh4vPO0x80dp7RMcs3pb9m+UEZX+GHwMpSQjIMS1lJgUnZ+A9uPpiSr4p8AVd7dV7T86zW+Y5iyHAgL/UP4BSImm4fnq/O1fK6/SeLgS3yGsfeqDt185Uc6EsOTS/oSxZNQo/UA2zjKwfHx1aQDGg7VP1dWwMQ11O9zpXXHR2LSH1Fay04XWJUnhe3xIyxBxjhB5kLlOLFsv96GxA/JPMW9ItbyeJNUpaliA2oZNOH5avb5LaI/bHZHXesdg20XWbKPgp8+4dZGBgRRhbjrEza/xcD5NSjtFFjwdZuGBDgyLDOXLiPP9RKrPb99/tq+RNtShn5US6qmrM4cP5vpB9XwhjMuc/G7MLoSSD1Eg30WeQmhN5CNe8rt/7dk17yeptrc85X+vS3uoIxoA9yJUu/jBqwbplodU3R3fXm067jvLDg71uU3z5eLWLeXits1w2xv/tuzYwbf59THj34oT8HicmPfByfhA0H1xgh6Xj/OFEZf/VwcJVwBWlldKUAG3bvobj7NSL+DBKWJnTTNvouKun+vnyR4UkhR+Q1r6bykwpqM7XAYwwWCkkkMvxRvBypl9vVRO2gAUKWZQsFznwQ9uwoj+NiGf0zRC0ER6DwsNrf0bNWnDgoOiIBjPWb+NRVDi9fi5P1A9hjIQptK6EcDxrcfWWxfGcBII8x//gtrKXLY/AgXla/GW3MhmgsFvG0tjsPJqhvwqk23jfgCFvktpgJOam0VpEIC8HZLX3pawL6xZwW+cUL/EHXDQXfs3hKVY/0Mo81NitqRmPa5OwbkePgBOwWVowrhR+xVkvC5OflKts4yJPG4aCKvHZh1ZfMivMGUipspSupDWiN4A5W3vy5p8P3rZlqVxh3aY2wLFDew6B5/fNOELf8iVNgBuelfAbgJdC7oBBexG2CBF7T02agPACOCBZMXh99L/89ciiz18sOGhGnFwodzzecgYlyxcPl7C7P8O8PHff1f6XT//QqVbu+5z84PB8inj0fAh4/HokXmWnQ1lcfpoNNq+tqqZf7K8fznxmX82GAxypOG5yccLep1OtwfFq2OFgVQuUvgS0u6mMqJScsWUuTFgyopEYYC8Et4siWdes9V5iIgQ104UgoTg8SOXZ287gdrn5dAdwtr+24enpaKRiKCftdiPNx2rlBDm8qVOB6EX3BSA5ASXi3m9P7zwJ3zxL7z6t/1+fz4ZwLTKg/0tsGovq11+2A+NEeCvTeb4u/BtC+SQNxBhe5ZylgoM1Lr7P8CThE3baWBapfdAT9CUZ5c6Qtk05OBhCqW1rLXDwj3IW6l8RiEfNLGX5ykm0ynQ45UHsMICwxhMcua3rfEA7nUmwQhq3KbHMhiV2OCPOD8uQinexJqHmAlvaDO2ctkf9gYd7IciDXQrzKh9P0n7aRK9w8FvMDU/3PV9JyQvg34Mp5Vn+6qOE1m1BHtmxhh5Mx7hWJymYMzpGJRxaoZsWfK14BwrnmsqVWXKxgr1d/hJ4A4vc4ZwayZygDLsl2XwG8AvR/RFmPVfhGK+Cv8NnaTa16+SUd6bLZd5HnmbX833AUQIHNOIgxiFzfp5NtjZisM/W/4iw24X/NhOwOrKMh/t2wzlwC/8nQDi8/+LoJTKgu/8Hw1HyXAwrKD8C7j5qB9m/nml2WRZ4BxvhB3JpADPW64AcNZmJ3t7aTrM9GuSQjJFRP/tKaca6Glb+BBIoTQyJmhUeP66nlA/3OS2+tB8KU0CeroeRx0k3opnhP4Ms61tGrCdQWDWsECT107cqP3eZ7WfhpS3mysodr+EUT12aLeNs/U1xK9T/p5exgjrI6ba1Qh2ts1/rTTsoRlr7DR9xhmjfmCzvgxGOIn5epEaYXlVVuiz90n7jsRjw48P2092fIR627AQLyuUqXQtqG3uNDbRvg0R4p2YX2UEPxk5DQ8ZH+anfiEpgTNzetvZNm9nGFP5/Rf8dIpCmFwWqHwHgMoNY0V3iyyMiSxt2y2mDgIVOKjeb00n6iyezWG+dl0k239GdbinnihDHmwUb1yJQxQdtNww+8cxJmIAqMB2ALoVbb8C/EK0+EsI/wryXIa2Xw9DYD/842G3W61AaqI03iTYQ+bOG37J3wwYEQ2Agx04UnlGiuFgx3Fdpv2lb7NzYwpV9TXE3wy6uvM9v/jj9b4dDvZtGY+HO/Lx+AjQTigKGAPjPt/nTxqN+ZEf0jhFXIpZvK758yY/nI+83k9uhfmZGU7scKJTgOctahsF9XVA57b862FTJCHg1UxDdfIX6nVFKGXYWn0gby+Rt++OD+0O9WwMxkkE1vWtT40QipEJUUKFoJ1lFNweQL+uk3sb1A9XsuyP2kijyQ0nGkih3WF8zOBpwtm/dco/pPc6CG+CtckbZO4mTOEh4RRCsChsyIkQ0UJIYo7JPtPNtom8X0Zst/WbRpr66+Nj2drcyiHZmFjYemJriNrxdcO64z8fr0kKacLmztbJdNaX2g1YWeZudaRB6GMrz/r+r6eN0TQ+lIbU9W8Swa9OCqHscNyFY0+c8ZbM6/C6PL/iPJ2DU3W7tmRQrhYx6QibPaBrkPAS0AXkMGCuRe493aIY5N2qWO3xykGVdsoKpkDV61RVF8Ks86bD9MU/04gGwEGO1rkiJZxnRes8SZKnPubh6T9/6E3d3Zf8Uz9Z3T+b5LsWcG6AyoVq76e27brsH07ATOrkPB8fl2WjHePxmC8AmsUsPx3ymf+hf9wHRkCRZ3ykj3f78xvbfdRNq9lOFNbqFJwmwI34XL/NTI0oCHhvgMXTbwIhCAlzU6FZ2ibMSb92tfYLaUVtA8CVfVD+Fs4lRlcoSI+CpSxUIMCOidBRUoBFeyKmaKJUhmgKKsPd3Glh+T4sedflMztZ6Gc9Pka6/h2I4+hjSWqnlYHjRs66lRb2mTNopFOfQ3vVRraD7fE2k9ROBJNCmJMnN7jXnUZT6UJ4cNnPvQ61J/RfCt6Og/axoBUPudnnkPZAZGXU+ehWWDuNqqwpoG6698NaTTBRK2GIcRaGq16qrgnRTTIQ1FJdFtxgulcy+J3Ww+KNhXj0wy5CyE2azm/JkYJjpnGj3+LuEth4wvOyTHMfoDDV6WPunPJB4W1ewypgSCCHp0Z2lES/BxuFQTUjYQjPbozAdRj0qxB+PWhvMk7GL/jDfyhf8uG/q177gb/kI0tJpyo7EKBdGQBR79WIA3HwA8e3RIaM6ZltD/UTIkluvvSfe29436s3nf3Yb98yv2XzkcWoOK5cHZ5U7V8+rdiz78y1lcEDoD8ejGxnQSmcilnikdlotMm+9DdIhoFgAGT6sl9BI4NLbfyeNkmf9kVVMj4kjNkIuSFkg6KnIpbw9XART19Li7/OXXObR+6QBulDnOKd+CPM28Q3y8ZQdqQp5WdGSFAgTdltmLA2mhTgoAoiAmRPGIVWHAjMw/ImyzTya6z+q8G2tPvk7TSDysYutF3t93EKfvaNL/wJBk+98hFWDkI+Hyerz3vhbW3aTW6B5rZ4kSU3Cpt1EaApKHgiTdujrht5O9eTGS/1+NTEbjT+MF5WDt3mr42oKUOgqXkKTdPuFLgvm30cqClGpM0GdU1guj3mN6U+hYmkbQ+4+taA3vY4bUQBaqeAcG2dVAaplU86l2CKFpjQobykVtiBMJEC7YBfuVgbtjxweeQrZAoaXZAbAcn+qpPuKh9zn70v+chf5y/+07+ZyEDh5RlCvkCHPaIBcJAj3X42TwbR/5+9PwG4LanqQ/EzfNMdeqCbphFUUMCAQ0DNSzSGGE3igBgcUFGD0cSn0aeiwVkDgopGMeKLcxziPI8oTn+NU2IwMYog8wzdTc99p2844/sNa1XV3ud8t29Lc/v+02ft89s1rVq1qmpXraq99zlnfPUTcwQOluf/auuah1y9d91DH3LNyatOPWI0Gj8WE+EHLGazD5pNph8Cg/5kGIR/jGv/w4APWi7m7zOfzW6cTicnjo6Ohtz1cxFAF4uCwXzqZ+SYfLAhxP6VFMaf40+TLcakbvXTyPJrfzK2QBhh77Yx6Qrk91DuUxuliYIRdMRvZJwEKM7pksmJPib3nOjbvM4fAHmC5otN3JX3MY40T+TdecH5rRvBsHnKwXzFj5Terj9lO7HKhpaxx0Fd5Lou6XpBRX+9s9I+EiiPCgAa/xIP+FY65bpd3A9RCVBVp9XzeODEXMorpwmmv/LTX6JF8ke8NXBbtvD1FTpHvdUuDU/mznObr70L0EImpEnvyrIkknRNhUmhb+UzGFUQPITu9sBT2qxQm5+UcrpGnv42nFRyYzHBo8aQ0iWt1rHFKrVygrriAOalAzcOjzUzFPnJzmhQaYNA+tv6JS+pW28Lxcndz5gGQZyX+D4AwQE2RwdMvvZff6tYXvDMpw5f8Fn/oitWggs65T+YabMA+P8DGl7zQcth89x/eeFlw+WMX/sf721tbV07Ho0eORwu3weD/wNhJD50MZs/GQbjw2GIn4xh9KEYtR+IyfDvLOazd5tNZydnk8mQ3+/HIiH+0hemRtsuvlk7XMowxsDlKOJw5GRK4+LdZt5yD+MDtLeqy8TNNbxVhtsMOXiZ3iEGIz6BUyfsqJiEOLkzrjlI1Jg6S3dMyvmHOp03o1vkQkB1dd5CjT4KrCHxI6/A/JTTB+TLJTdcUcqWkYo2yzakEQ+jXw07d/rZ7ol1xt+yDKwxKF9tli3kM9Uw7LGuVT0R/RlOf5u+hkoyPFn/fka1ZrRrGv1E6de8hnrNzjhG6giDV+sLP9JaeYksT/mtgeS1VDXsa7xKTo8DAYZxuQlKo0uP6Pgy++QsLa/d43K29XLVoo4l7jg4P8k/6hNggrMHyOt2zrxedGVawILwqShzSF7/4eKkcllZ89qNyrt4i4Rrb5SQRE7/8t9wcALuCSTzVwBFWHRDWuXnNIQQN09W29gQaLMAuAJpcff/Gs7v/J/D2R3/czi57aUxLFrCoMFYxXDawsA5jev5Ybik3wuT5/sCH4QJ7+/BgDwJ7t8F3g9xj18u5o+Gjb8Bi4CTMBojGO0lDMYc8VPknaKQGYbNDMZwgd2MFgEalCAOeBojGxxiqu+nE9qFtgYIfDlhcJjlRL6OGJuDW0fDp2EPeLKxP4ETuMXFlpCe/pIEAIPvP9kZx1/sbukvdo0d/dUuv4aneP7jnn6H34uAqG7RpbgJJ2v68cTVIuJ0xKKCMoXkcSqJ8rJuAoyU7qT02jONvdq7fdtfbi4CyOsJOo1hR+9m8k6ivlER+Ws9EuYRMEvIVc4uMU5genhczyatSaffDekpmjqV/m0NdWltuJHXGQNNMk8lH2XI6NNf49m+BAKCHAkwUbyAk4x4RKTO3rG38OSZEF8PSbUc+DBwBcX20dK6dMKEGuhIKvUXm/3ptrAMo8YjKMo+8clp0SdxXdW+sl9hZsWJVU7QBAsxj9SxUMcGx6uvNbhxNFIouKhjX4b0Jz/80zMafsx/g2uh3LUv+LxPO/VNX/yvhoutneXX/PiLlS2IuUJ9kfTfkK/dDV1BNLvzz/Pf9UYYfOif5fDo1v8xnN7x5xwVouGpv6tRAHCu4sqX/351I/CeyAdDv3gUdpGPAB6GXeVDYfivBk4ivAsjsw3/iD+wwpGMAbiE0VxsbW0RS34HnTvjHLgiDZjYjcrow/Dkc2e4aay0a9XtZ0/Avl3YTOqBJEsv1RK1fJ7EWxnhBx9zacpAC1BX7eZl+GnwYeR3/b363d09fc/eQBhgmr5vr//cr3UlUIqOfLzQ6oMTCsXk78J7mjMC3VUmNetm44+4bE98qL9KgTy3VbatkTt7G/npYDKdDCaTyeAIoDuZMI5v/XsRoLYPOdbVqhIk+7MejrO++AjUMaLvK1WBIoqBNNc1QnKSmuhCVtBetQ6J+dh+TXsC9VY7OdLtUvZVtonbZU1fEiivzU9/ylR88awnJ/NoqAlkbdI9nqyLdUqKuIDObTKIsdmvbf360FjqxSU53OZHmzXXfxp6hTmus00bmSa3hBbi6LdEuctGcG5p77zxERzceFSGliNAlFkVcj1x6MPi/AdAe/BcjYjrgRswEK4d7V/YHZOpIfKHqjmlDOYSsqHNAuAKIxnO+Ic9AlcrrJLc4DAhnLe0kL7cxdV9FaKuAa6ioQe2gS3dNiZoVGSsp7zFPMQg19yFQTiE0RxhRzzGzniEXfFwm39Py8FZxiJHDwc8jXwa/HRpvOpEKzRhjb6LDLZmriwUY16u2kP/HGh5jBNBN+72+W963Mlzh7+z0xr8E4O9EycGJ06cHJw8WXECcXsn9rQI2MYigP+9nwseKQO0k5yew7PucZhoeNYD01j4Panlzzcorhgv77QolROr29HGP/8/gQa+AAZfxp+/13DksO8EsA9qP2S7megpAZH1jwUMCJqwukFR+UIZDjBTZhRZls4qhoaUdYOXrOFnTWsuJwYL0sOfshlmu/Ha452cuDNTwX6i8bDrxQD7LcuqKPrpumVfwk8wLIWpl2G/xDSgTOu3lpQhIMe6OJ/j+hQadY4uRaz60f6MrwQ/9efIpxuO/c6nXXm4eR273tEOkZ6wDPjXpPXjJavloz/CIta/6TPOIwU0/A04dtXH6nO1oGVEq5Zq2etwxi2XsPOY9xb661/+BTA3QNeh0ieG89mKXbOqJDYd9R0Mn/NZH39MTz14aLMAuMIIxhmDTDu6+C6+MFxgR0g6//Y/1kU7HI/46zwzTG4zpHM9MAZk9MsufTpdzKaTBZ/1J7irhNHQ4gLDAmN0iLE4hh3cGmNHPOYCAEH+v7AnMxaG0QL+Ahqc1LMYr0Ax/vBz4uWIK6CsHrmM7jgEKwYpZSRcFicaEvNw4vBun4Z/J35RbxcGfk9Gnsb+1KlTDWIBcBILAP7ynhYA282v7kEHtgjrqomScLnyU6kgTvAJZkPuQMRzMpNxqvAiwG1qgguRNk5uUxr/8nilMf7c9U/D8PsOAMLlh4K8AHMbh+igUlQQNNBZvtDLTD3GvwXprrZ6OGSl2CjDZdNby25vE8tY9IwDrkj1D8G/TjaQrsc23kkqb8jBR0jK604LuBXU61J6x50dATEpx7o2EX1SOjNlupjtLXRM3mMJ+oRacQpKneUN2FPqozHn69X1dryvZ7qG4sinaxt8io9wwHEJhlf5SrmBtn/7xt99Gsh+HcUCvCye2JB8G8HPAEoFjeIB+LrCDnAa5T4EbNdDuWsxc+wNlvrBoEIUBp4k5M3fN2FZD27aLACuMNIu24NNu/+AjCBJL+nQvfaDl/PpbAJDP4XxgO2AC4sAWtIwyIBo13g0nBwd8m3/Ib/7j13kEmlL7hw18CEKY28Mg8XFAA94POl5dMTghg56Mx3GpiINZGMo10D5qXfoTspJosyXtUAQy8POuCeXMpBLkz6Ng4z/7o4MOg3/SRj31vCfPnV6cPr06cEp4OTpU4OTWAToDkAsAPIxAA0KDXaUjHJYVyxoANa7GA0cUrPobmT4klAOFaY6sW5sS/WbjLqf8Vc0z/+ZpoUCd/7RxtG0TfOqLDboavkg8MkVVZ/J+S6ZwOqiMk+jRE201Cifrgx+GAYZhzAI7fsa1Z/IxUBdKHAhKEAWZbb1JKQO2waN1Df8RFdfq9vqmfACg/E1jkgq5RXqxWRRLFPlVg5xZXoh84ldQYcdB/CINNfF16gNP5HXhkEeGfIIe0wFr64/x7mdLNN8CAfwUXyFy8ywyWMk20sLNPZT3LkpC7uEFgFeyPHOQdOmujmjD8UjwiXYx/Kg+xZ8J+G/Gn7eCeBiYA+2ffwdn1b/Bvjrf+xX4ksUImRfIg2A/+s/88F9F2CzALjCiGtfGXyDO3W7GGgkGoeko8OD2fTo6Gg2mezDSFyAgTjALh/kX/ij8efX/A4PD+Dyr30Pl0jjP/zNwYs1gG4fDzH4/ciBA16Dvg5qosSH4Q+dArn7j3DwxkDrYi1h/HHQa+BzTEaZkoVFAP0pjxzg0yQCY0ADvhe3/Ouu3wsAGv7TVxFX2c9FQN4FAK/eBUB+GhYaEk4+molVvie2ti6CjoakNk/2O+y4dShGhFAGEASyrv7aH9oxn/9zQZBwPwnlrgj4tTjxrCz9jqVSbtVNyr4zFMW5Hikr/UApo4ZL3WkU0jDQ8IeBZ3/k3ZyCiMtFQC4UtGggIEe3kYly1wVFFsq2sVuNVvaruZhuTVNGRaffYqFYCHFCkH0NT5OWxJjEvRIVlJ5t/7o+BsnpHC+qF8dOIOuZ17LjubiOMabrKdNDBvPFA8a6AGYxDBtaGCDOSD26pPbiAVcLPvY3dvx5B6A8fgNk/CMfiF7+8U+zCHAqSyJCvTGwB11OQYfT0PUE6rQzGwzGR1jUt/Tcn/hVam9pkAsfZUv+g5k2C4ArjPbejV/dt1HIiT6NLIkGPWlydLDA7p4G/zwM/z3AmenkaB+Lgrl+4pff9T/izl/uErxzrBfARkzmwAK8S/4XAPy6xcxdpgxQMTqhB6GJoAvr18ZxjBn0J0x1tOUEqPkxJ0ny4vDk0oBpnEww+Y63sPsP408Dkbf9c/d/8iSNf4KG3/68K8BFwB54+a4AZeQdgNw9hhrSwx8fLSkM1naCS+Bkg5GHbm0mnGaDIhGWzjqyDUt/AzL2AU24blsD+eL1CkoIj/2FKN3goQLl2uF82nJXYmyb4nCWvZqeRME1RTqG2yG0A2/3tsbffcm7MvHuhsA/SDL4bsdxiwAZkdhBCk37Vqq6910rSpCvUvZV9isXF3WBEY0IlGIYl3CE4BDKK4fjHdsSQ0iHLh0wthcnbjhMrXF2y7USqHNIhX9folnMN+PYYcqqY7m4zbjM8uxvKesPiiS2gtuT/V7v+vg9DveZ2rS0nW/RQzhdFYKTxAk4MR0YAzvASehNcDGwPVsuRoejWDG0ZFHMxwAOLSOU9GClzQLgCiQMtOUSW18Y4KVe3uPLXlMvAKbNAmA2nS6n0wl3/Wdg1O+YHh3eCSN/FsYedp4Gn7f8jwZYFCwD2P3zj360QOCf/iz0c8AHB8LhAR8V6D8BYjHAhUDd3WtCWYEGVQl74nGcELqW0buGOFK5FBcLTiUvA0zj5IGJgs+A+W96uVv0AgC7/zD8aeQrmvcAxAPjn48A9urO0gaFu5NYCBCcjNrREdNJ1qjUrJ1m4LdxoGv/xUAZbV0LOImHHydIi7JAlC4gvynldeN0jji5Cps3099pkmqhn1yHddBduQ5cvvqSt4PR7js72zLw7EvemUnUfvIib3fX/UX+lUUAIUPCvmvbQ4UGUY/whdtSZc2Mhg7J66KTo4Qjj3iY4rLWlbcmKsgpJT3aznKa9mRE2aU3iLQci51xmYv0Jr6i5q1wuVSA4Uun2jZJaiN8ZOxjjPndG4815XC5Q9TDYNgq0FMDVEVYjjBO+AL0CQALgCXvAGxjgTOeL45WlGAWOpLrhUAsBh68tFkAXIE0m/M7+vwnvtlyxp354UTP75nGv9NMGi6HWCEs9ufT6d0w/rfD6N+G3f7dwAEWAjT2MOKTfG681LcA4vkydvxLLhIODvkPgPuDg30Abi4C2rsBetO8N2HEIFoJ5+SiiYaH4kPhhnIMi5JHrnLpSA69pIBJnhO+vuIXb/vrhT8adhgL7/7zEcCJYvB5Z0Av/hHg7xoTIw2KXi4jcpcCI+WdCiap5qgUOg793FMpPIUnDYGMUrt7VHol1xIu0kqt2SBqlBDJfAqETKC/K20RuZTF1I0Dl45S4ApwEiIc1EYrTCgu+u4YkJEla4eO9nR/0phzIef3OLSY6y8CdGfAC4R1iwD1k/rIt5G1CCj1xxmOghGmKsWjQMIckctnOG5PTpM1lW5NS177IwgqHhOK4MtosDgOuMjSPjpCpzaOo4hGPuPb9Fwk4lPivAAnnC5oTKZL8K7SHPwcp4xnXvMUOQFILofKiwOJRkOscWIdZbx42FDRZpmgMjs6MDLQo4geIcP2YrnYAz/fBTgJHeGfb2HHtGLbkN4S8utItR6UtFkAXIF0uM/n9UdL/1b//vDw4AIM9Pnha//bjw/f4//6tDIcdrdO8O7dwXQyvRs7ehj/g9tg+++GYd/nDp/Gn+8M+DayBv+Qq2MY9RHShlwg8PHA4ZGBfIIWDs2b5nr2XCaPLjSQgBqXYQ44ahnDDAc/QpCCkb+/K2EciQaOBpkvgHHytyEI43/Cz/NPYPdfjb/f9D9xEgblBHaPhIw+byPXW8lyw5CsQ2eHmXcG6uwOxe1vqlNnOHoaVnrbpD6VKAjL9qD8cnCiRLKMpwBDR2PXQI8YCj9kdsA4SrhU6tRqLUnFcOmjztXgBOB3fcgDCj24W9diDtAPM4WB9yIgDD/9jGsWAHzhM/svXwgk3AZum6znap2jXS9Cqg/AXP32KvL46SS1ZdaweYMRQlM2VejDniauM4ayDZMnmMBDhtbgE0wTD5jbvN75ww3ZAvyrj/Wa9DhEcsLfI9YyanosQVzJTVdyS1msjktiGH6uk7RWYpzYVUjtA0UulyNgC9hFPTAZchGwOIH22AG6LwGAou4sKUqzpK/7tI+7N/X/j6XNAuAKpPNnzw4uEOfPLi+cPze4AOO/v3+OC4Hhy//gB8rFeu37fvRivuRrAIfnsHO/g4D/Hhj/g8l0sqDxt/HWZMIBxQHDrwuOsavHImA61B0CGvuy4483zWn48z2A8qJf7hrSSPcmDg4wHR64GsAxgk0YwOVMcp40GO2fCVEe2Xib0M/8t2EMuFOsX/UjTvJ7/uHXrlGGw7eObfTD4DdGo2/gM64YF7j0Fx7dFcAOMycgEM9ZN9UVEe3zXVHjvTSyQJcjb5HBOBm60KHzPLrntkgB9CoYlNNgaN/DGookZjGcv4BHE14x/tCDi5Ty7D/anG29G3d0jFyoIS4WbOlqsdDZ/bcLIMqPkuRvKtshV8TnrItjmlgg5XTbjV7x0VPik8/lwn5JppJTAMIuJ1ycLgqMBZxk6BnGKdLoxfjgUeLc3kyk35YzoMUBgbQcsxknf8PbplF3a4sku0ml2iD6W/Qp9bP8GrY+4ReaRUCFRUo4b7MpFGQOnPmy4DZkcDfEOwCA7giMv+6TPrqXg3VmSUHoLBElPEhpswC4Aok7/v0LZ7Xrx2Z+NDk6GE8nR+P5bDqaYofe0l1n7pmdO3vu4MKFC2cODrj7PzqLBcAhjDoWAPF3uBrsyyHG28hYjua8GyCjPpNLPj7rry8IVaPvlwC7dwGK0W/BA2OJSMLw4tmQEy5O5NNjTJbXkW1ZzMvJfXt7bEMg4w9gdy+DHy+LGWEkAjIuesHPRp5y6tfO0rXxb2FDYyNTDY3zF0PjCvRoXdy9kRqkAc8hh+X0wTTd4o7dPuLEqnMQA2Rr3XcBsYuzr3EpoN/oeiFH+Jowr3Rn+2W7s63Zvk1/lX6ji7S2D1rwsUH+HkD2xzpi+X06ri1Ul/QE6ZvobQT9uodf270l9U1A9RWPY0XhUXvRlb+2U4ukTIfPYEOH0S4GXA8JnC438igmTxm3FiGnF48TPwLOPEXtKvXDHdKK2PlIlMm7DTLy1J1jPcKCte/fkHcRbEv54lkbSLyEn+PrLgDAxwCnEL8HaVuD4bwrjURRkOM7aXwyB4LnwUqbBcAVSLPpIXbg/HveKYzzdLSYz7YwYIgxZtfO1frW179uec8998wunD8Ps394MJlMDrCTn8ymsyVfHvRLfHNk1UDPHxeCi4HTTNYamD1oYCJf/yXAysNByKMOSI/XCsesoYxMWSHb8jnRecGv2/8yzNtl939Sz/L7u3yjGHMaGt66l8GMOYSQlqlf3UG2i4GuwbGx6Ric1J1uopBbItvIlK0DpHcNVT3hKux4kzUXIb4vQvz2mpS5xXqiihcFedaAJD+Y8tpJlykqFSfdsWC7sf1ouDttXPuNhp+LAr6MqRcy1ebmL/7oB4J9x3plO5fFR6OHdTmOrCcPMFY5mW9NVvdK0pp2bfKw7gb7NHlZGuX7Gs9iarnt2DJwApI/4yOP8sYpoVh6M85R5a4AxlcHiOu0WWa4FypVSuqHGyp6q48wn8Dvr/dGucFXSG1G45xeOb7JRkRZiqB/sOTt/l14T8Hlf6OchLszGOk/AwpBBueDMP4NeHqQ0mYBcAXSSLekOODnNNi6ZY8JYAsXNq7f7rX6Lz7/22A7Z/PFcjbibX3dtkcQRp/QDn6m7/or3jv58r3/ut7OiSonK400DtAYtHVXl2A6mRrDxFHZG0ocrWXEUjY+5o9zKxPl0OWkQKLBpSGnsaCR17NgGv5d7/jbW/wdQx275EIQJ7mlHi6HxPq2i4Dj0DH+LUTF0yOW4XKSslxTU/eGL6U13dNJT39XVpeOTzmemKcF6VLktPyiCHhyjcUV0TP+ZdcfCze1dfSFnukLaPeI052Ptl9REPsy71y1d5HSoCXp2o6jQ2ARWyKobW+T87XndcSUHEe6XoLkVdCSecYVKf2rIWQKjHJBqFVUcU6DTkkIcrhTHwGSGRko1xyBtkpkm+HT8JRsBfdOYIqqFzk4uOOnv/QRy1VaEBupaTtvzxWwvB6KMxxuA6eAa8B+Na6WU8i6M+LuoaFv/tnfCuPPRQC4UACLoP/BSpsFwBVIT/yoZy1xTWLB7EED0FgjZalJsU8PvfEhW7t726dH49HVCPJZ2AjmH8sCv8TnX5KbDf1sX4sC/8JgWBiMAf37Xz5TzTHH8soAli7pV1IhDUSORKF4DBByiJ2A/ZWHMrqyVU+BRDnWiUbDCwAtAvS8eNXwp4FATpeVsjXRlIWQUO5oxISU5WWZLbjgEpRml4iZx3WXBFNUz2d+Uo81MDU5Is7pEc5k+H09dPPD1zkiUoiQFIyoFcr4TOMVkdCPRTOugWtbkfkqIZ5tJaANadQ7xp/9yOf7Yfw7/cj2Rh9G+7JE19Nlsd2z7sXwC/FjSfHOChe5MmpNO60j1UnlwCVvlGcwzmki8InfodAIgE4WgbMjjOAo10uETRRO+Sint7BW/zIu4nESWh7Fpzb0K2xKH3f8MRK6SEdy4vqXP1HbLdPa7A43cUklnJFtIoh5QK4fymj7BygtFO0VYy4CygrGeA8go82HYTrcBa6B5zoEr8Mi8qqt0Xh3PNoaf8u/eVo2umi41FwXf3nOMe6545s++xM7fA8W2iwArlDCtc3h4d/7Xy6nuP6nGDzYxPtrgK/50+8dLud/Nr7jDb98cmtn+0ZMqu+OSfSRuJgfitx8FsZdvn9HABMjX/DTW/1YCGDS1KMAyNRsqzWwDB4HQ7PbDeLQhS4xYOEnSrxGpOBBKd3jVKmTn2Geghwvjohhdhh/6GKj4V1jLgJ825i7SBqVqm8tEhMpJtB8d4FGgXc/hAwHVhcChOvCQPoZjIlIhJgINpFJqqC9HUKckrK+9xFFMJ1LpTXq3VfKku+d3FY0/uw/9ktr/PVsvzH87ksYf/Sj+7Bed6xvXey4j9hXBPuN13SFX1ol+DVX9ytfWI12iwq4z3i4WRJ9EjuzRdakzrXQEiMU5wSeK2/EkcUJCkcpAS56WVjta+sdfqR2KfOtkorItGQDVuXKKXFccKDB4TKujon1AI8KWKWsXZeQh2fmZR82siRMlIvGvH5AueA2A6YaKMX244dAOnjhDPcwg10LPAzG/3rgGlx3JzB/bA3rD6eKnvfTL14i3QsAgnOfjvWa/59OmwXAFUpP+qgvw/iQ8T/CNX6AK/RocjSZvem1b8XYfOnwoQ9/2NabX/bqa267+dZHwdg9ATutJ+CifwzwCK6GMVq2MdYwGWoRsJxO5+07AXwHYISxp7HGnW2dgD0wOPA8nD1IY37QUNYRY5cLAIgJXqNM5C1AHuse+Hm0xKHOA8OxeWHPdwBs8BM2KEz3QGaZlEB5Ib8xFl1wl5iwochFgPNaT8qQJ2gJ+Qq5KqKaCmKgRXqpS4IxbRgoRH8fzAHXB6PasI8OpW7hNqo6AKgeDfrxJWKF2M+Ij2RNzIFkl5dx6rtELOL49n4Y/VwA+Jl/ewfHwllHLeDUh+6jtu9mMPRczHpRW5ELAfJw8cdrINuRFC0qv5UOxQshNdu4l2+F+llBpf4CH4HUOGdAvDiTaqiUWcp2nFzp1TfIPb06gR4xLVC8HVmOlcuwFgJELbPmBIXatVYVbSi4SzZJCHkprfCozWiQOReV+QhNJ4K0YdyQ4m1L8gr8O3PyjTFnXIM546HwAWP6T46Ho+3xmj/8URkCDnjAhxnswWkKNwuAK4he+UffN3zlH35fuWA/5OO/cvmhT/uq+T/4+K+Y/72nPHv+Dz/paxZP/9IXLW955ZuHd91xZu/C+YOHTibTx2GgPhGZnoRB83jgkRgQ12BYbGss67bBgrcOFrMZptL5fMlnpRrTzWAlYlAxASMtXPD5tl0MXA1BjcQ6eEH8ERtkNoJSVhInsdzFVVmWgpLFz4GfRkOGI1wuAjIuv5ZHXk8UVW9STjJaABA9w08jkYbCaV4E9B8NtCgUXsTa0xKjSvoxPEF9+StoD4RxipzHEKufoNNt+vuVWtHqNx7RB+gOoO1HYNt/2byDhdv6H/Gp/ZhVrQuA3PHbuNvwV+PPn7BO42/Xfap+jGs2iW3i66TfOORhS9vnU8SutLvrKRGNGIkNUhIiKpzewhQlZqUV5KnnxuK0gg7jmzDIX1yo4ZbM7vbgeGY2x7Vw+kXBAy5OTck9QpofQUAnx9RCgroyg9Q2MvwCjTTaD8mqGTpUT6VCJtJwwIQvacBh8PkPpldj1w/jP756NBqfAnZ0G7FHsQDg+wBcTHARgeKKpg8q2iwArhCC8WdfCK/8r98HfP+xfXPHbXeOLpzfPzU5nD58Pp0/BpPd+2EYvR/Gw2OBh+H6PgE2/l82n/NzEQCWJf82mG8Lcm7VHT+upZfLkVyEPBhppOlyAo6w44g6jhNJHIwemkCd4QqVwR7gBK1JOg5n44/+wGDk2+Lc6QN1xx8/+sIJgrt+wpOEyqdL2SovD+odZelxAA1Ec8uYsIHJXaaNh3RLfXHw0yenKLX6I09Ewp+INB2mNj4peeALmBRb8tfjfqfSjdGPBXZM0d6KZLzbnmDf8O4Nn/2P2Ifos20C/lzMcQHnN/1t9FOmmwG1imvO/VKNfv4dsn67oqDeASj9Fws5XrOU2TRvlxhf0pLRUJ8E3EeRvELmlwNSbdwsaq/SLivXavAWSjmBDOfLgIrmKaJFihT0ln+HzMg8Gsc6HEtSOOPprgVFr8ZJSKCfLgb6WUhDYm/TG78WC4TaxdeQjL8PZtUKiNxxwCdeGO/mdj4sPq69Pbgn4KW7rQuxR5TpvMNFuJQWqQ8u2iwArgB61R99v+YLATbQWI5e+YdcCHzf8C9/97uGf/E7LypX6GR6tI2J8SoYtBsx0b0n8GgMqHcHHoKRsYPxkcbfhlwrAC0CZPw9kowkG3dOnOT3pOFJNCaQIivGn7OFW9XnzFbSwqO8DSjXuzPLJ2EQahBrV0hjoVv98YyYu38uCpDm3YEGf8B5VXwQy0jX9al3AWhQjO4iIFGMCOtOPSmLn3A7BYmU6DSlm9hKPFYpGQ3K7WDdIfltvh5Rpb5a9zOleE+Uq4Wp/6JP3I8BGnoZfC/q1L/NeyYpSXVE3cr1pz5boE/m+otkIQx97vqJetu/6TcZfrdbIknlteqrOkgvioQrats+CXFk6vA5VgQ5vBwtN9vDbYMqKy2TJbcgwqKM4yMMBnVSiin1iiQzOSAnXTkViEgUIo9gLqfXuD5w6sVZDKmNZ4LcdRTpQoZBbjK3GVorXMeDhQebpIhFKpp2BJtfFgAzhOdwSYzfoue7Pv/T1dxJuv4GowVK0F0ARULYt/3rT+nwPRhoswC4AsgXOq69pX6pD1iMMYmNYCR5eWPyGGCym4h3efsfDLe3sLodDq5F6GHgfTjM+vWY+PhHGPHiGyZPTqD8sZ/4uh/hgaNzDCF7BEy67S/xtchBXQ74tSiQhPXEUpyvKUPxmZ+yxUR2tQHGqgwEjUU+76fxz++Aa+cPPpyUxxJXXZ7TkKgs1IHGob4QGTvKZhfZGpFiSFj3kNGhpfpKYJKQBwLid2SkMy5dR8ofso1cbBCWbeCEOcpF5gHDIKMVQEyHyJtAcC0KDxZs2abAcYeEEuJrg0hNxERMN/28ftV3NPx0GRflUBHpEvXPNnd/ZZ9hYcb+CYOvvor+cn9Gf4G/256UTGpdtl0U2iFWJh3zmRcEXX0zu4lrqHKDyBZo20X1be8AAJUZpMwp2dJ0sB5x8CMn68dgxDm+GzYxMh8f4NwUV+SUTKRgQFjxSo+Y4CsuI8XuOMcn36pbahvhQpnONmHbKASSJ07oAF6l7F/xp1AkKRt9w+EMm4MzcM+ivfeBGa61Jb9+evUOfxag0hYWAODjZa/GgRHEpAtjSGEPMtosAK4Aevw//nxc0vnvfzRMU/35z/kLF4Z/8zevHjzxnz9r+SFP/Upd9Hfcfsfeid29h2BHfCMu2HfD4LgRWa9eLOZb2uF60pQcAjL5wz9eWGgKyKs8vPhwONGg02ByEZCTrybimIxlTDU5V8Na0EwCK7hYWkDaQJdcAPCX/7gISDBORiVU10QPXerf51JOs1ApujZGBEjDn4aEP3/s28ppXEqbKS9laaEDFROoTqUMFwbFipzks6n6Ge96A3CL3nrM6fjOIdnOe6/EJnIziS4x1ztJLlRn9hON/Bro7k0qF3XKfqqoi7AWpQ/5rD/u5PgFQfdTW9HGjCAAfxOkX1GKsw4GgxYSTk3rtGL4W5k9yiS6Losa8WD9fR07rhEjsW05QZ3imwD0KoeiIi10rteUeQ07Pq1S5jEv84o5XPt4ThT+PmXcujQS4xMkd4bborSN2ocptFFjFDdGBi6FVTI+FMBbJDOknwf3LcBbkfftwG2j0fAcNgwTYHEY/6Sa9KU/+NPKDH5+FSpXSKHMg4vK9behB5Ze8QffM4LRH2GCG/PrajBGywv7+/OP+5xvLVfv+Tf++u7+/v71F87vv/fBweETjyaTfwDD9UHgfTSM2cnJhH/wMxkcHU6Wh4eT4eHh0QAu/953ifS5Ddx8iN0Sfw5YjwjSoOuugSZbG/x8eS53WDSq4tNOzQsGjZoyFu3am35Aw5XI+JiwI17EUQ4DwdU63xDXn8Dwd/71Bz/+ox/+AiB//c+/E7892I7nyCOu5mVcfCmrDOiZRoOGHQsq/cXx0RH/6hhtwj9B0l8eA+Wvj2lYpn5HINqBxoULotQXHtWZrsMMBMlfh1PhE2+y8mwfyZMc8uSkx1vFQhhMwWnkMavLsNPkr5GMzlOlNomUvEE97mMp+VKPlMPdE3XmYk13cOJtf/9oE3+1EX1HxJ0dLeqwIKBANpEXoNHm7Dsgv8JZjD/7UX13pH5zH/IfL+Otf8ihXpSd0DUCV2C7Uk/qDEhzuhHnx0tpoNkHdnFSHCl7T9cEP9m/rasxQn18rcuvuqWfC5f4rQLF05UwSpAcliknWjyCoPRkvHWzfl2X1w88rne0QWkbxjXQoi3q7no7f4azLXSNMo7pQOrQIdSjtIeCDrOe7NPs1+JGPNtCbeBMrqHkLBdDgAHEuUeGMN7D4RQanR8Ph3dA97cDr0f8a6Dra5D2JlxhtyH9wu3nzs/+8qbX4LobDX7x9/7Gim1IhLbc0JVA2ztby/Pnzy/uuvPu+R2337W46667F/za3qv+6PvGB2988fb51/3qVZj0Hg7D9F64yPm2/xNwkT8aY+F6DJxdDKShJkhOjF4ILDkxaoDR2LOvMYLxwTihwwmY78f4EvAArbt/Io2/FwSetDRYNWEFkO/eYfl9vwIiTCY8ckIa152/JqeYYJjHO0QtZDDxW0fDRqKABh2g8fczYxgL+ROxAEjjz2fJXiCpzq5n6px6Swkg/VKrup65dNQMJMcblcR5zG18x+CAjESXhVOhofYRHH2lUdYur5e8hlZ2+4hLvw2Fw+Sl6x9xaq5B2gQQ60/YUPl6SeBkNJTNaL2yfRnAyR6nNH6jR/32bli7JZqxf3RILG0ZvfJ6wUKpc0dXU/WBgievpU4aSRE8MS3THXY+OvY7vAqcjJbWxbf9En2j6ssHKtHMI2CSWo4RRXDCosApZJ4FbkHZrwdejvi/wuT28vF46w3AHVjkHKBJ59PFbPi4h7376L2vf+T4q57xUeOv+fSP2ti9oE1DPED09r/88eFb/+LHhm/+8x/Vpf53/tHnL9/6lrcvX/XK1y1e+j/+Yv7yl71yccPDrh9ce83V2zBcV2PyewQmv8di4vu7GG5PwgB5P0xwj8LK+GrsHsbcuWKXv8QiYXl0OFlgEbDAAgBZ5pgnOYj6xh9dHwOQ62qy5KSsxwgwijKkMLYy/NoRe5FQbrfTjzwIsAomjdcAqUlqqbAhLxugTtp1V9Ix/iybOtAINAafxtvPiO2X0S/GfR2wexQczjw2/nX3n3cAVEfWlXXkJ2B/pPFIPxNLfMtPTxvRI1dTD2mIYC6HiGn2icim5iFg/BQoSIZAUHnm/7ekLL9fg5Uw6miwDd1vbM9s3zTmLdS3ugbd7lp0ijcWsgJlBU+0o6oL08AFZL2OHJ9EbwbdBdGqOBU2MWVNnFDaXsRrNWFSloCJOZpcSLAuPNnfMFe+9HXSGZeoDqmwNbIKZWKTPb2FSv8YnVR5cYpoOeQp/Eyv1E1LeavkN/2rei2S3EwUYDTpdPyVJRSAbppAsXPw3gq8CXg1rrVXwOi/6iFXX//W666+/p7J7Gj6hT/wkwveLTy9e2J8cntv69TO3tbJnRPjb/7sT9zYPtCmER4g4jdUsEodjre2hne8+hd1jT/zK35w+aM//EvLF/zof1089/t/Z/HQ665D7HBrMp1dNZ3NHo5J87GYFN8PF/v7IuG9kekGDIQ9TLD6Rz/tiiez2RTbWiwGkIUrAJhsEOVzEvIuyaCxxZlJHFMy7jJ+MvyclDHxxo5YE3Ma/gZJ/XgeSSzBk6AhqsmFqEtO4EmSFEYh3+JPo204zBf60qjzNvEhXd0qtrHX7WKCebjrp/Evu/9q/H0HoF0A2Bh5IcDFTltX+LkJJdbUx3RsQrRH1jnCSoFsHqWcGqZ9UjuJMzJdZmKNrJPdJPraW/nuszT6QLRztne6NvB2F/Kbn4be+SI/40JuKVdth8WiFo6+A+CFYywemW7OhiJvkUHUekQ2R4e/T0prPQBfKBev/ETtqS4FUydFGcJ/6WTpgSUBbyLrSVIcTkD23SpFLMXJq0w23MqbUSGDcRcl5mnyJ4WMDpJScO4ycGpqSMhBElp7OQPOYl56x3wxe+tsPn3bdSf2bvusb33R5DO/5TsXX/qDP69bRFu4Lsa4IAD+YNCWr5S/RWP/H0ibBcADRHp2zUkK1yJf+IvowSvu0vAQ7e3Sti+GmCR3YOiuhnsjJkV+7e89MAAeCpYTGAB8wc8vxPFPgGj1p/OjOYEZFbt3/pywZHoyotFPII4npoKFk7duw2ri7k64iWZcKqPKDr8J7js9tCxTZaJeXIzQWAgy+ETcyg/DX57v670H+wU9M47FQRp/7vb1+KAxQjQygI0OjT7r6zZRXVFvG7eos2581PozrQ2rHTroE+Oa6ZvGIgNBXTGWAem1nNZfIDan4ehTr4hjaVXuvSPbQO3EdlSbZvvGYktwX6g/mAaXPMmbiwHliwVBxtOf1yBrl203EmJqT0S8G7ahe2uAbLaGT+XYa1qJMFGrjBYLZa12Q0N9QQ7XI1L7bKQMh6tq6tQWmv4Il6D7im6FONaQBNubRN6V/H30ciFsKp6GGJfxjZBw3I4legvgf/7v4FoYYtY7nM6n91w4uHD+md/5QzL6HVIe+XRzAYe+FfUt//qTe5V68NFmAfAAEi7gIQw3DfzwTfEooKWHXPOQ5dbW1hwXLGySDPIecDUM4zXAngxyQMayQoRdq+bkevUDmCC8M7HfSRxnQOTXro23XxVuFwFpAFNiJcX14hluKSuYOjDGbkPI43K8CEljL6NBIy6E8Y/wEVGM/2FZBBzyfYjW+KfBSWARYKMDA4OysFyygYn6dtsWqmmnTwVZ0Vo5RRM6MSao9ffIbVDbQgijxXhT9AsgHdAvAvy6I8N+inCCxpF3ai5W9n2ipp6pi++GECwv42pbsQ0FtivaV+2uxVrtM4Lxnb7pY+W3Gngt+npkma5jbT8a+3yPJBcB5rhEIiMbnx/KqsG1pPTiQRvQSsmPEz733gUuo+Rx6NIoM0pPHGsUXZEWfVXcY8g/i9PkplficUKasra4F7KkYNa1SbcB4qMIegkqyH8r48t/ZAqeYBYtdyHrFOpxAmzbvN4ODg+X//c/fdL4h77mC11kEK9LnFRpLU51/fA65RcIHty0WQA8QKRfo8Pkh93PcD6djbB7H77tL/5L58K96vH/YvmwRz5ysr093seovIAL94ArgbglilUBJkVOtGVS1Nf9tgD+DDD8ECLE8IrbogmmaXjhxPGRhpcGRG5j/MUTYKZVPzXuU8vHcK2e5isFPdnwIA/L5mDmhG9DYGOhlxsJ+rWrz1v7afjT+Cdy55+GJGFDEm1Y/Gh/taPmiWLgEqymTp1wi4jsxOnoxbVU+kIGi30D48Uw24KNoTzRD+zn3A030AJGae4rLQzYX8yvQnogqfHpOkgidwH1DDDc73/qJFftBD/LbPT0QoX6+Q4L+1GGPvqs+NtwH+h35YvFgPvN9U99SKqKwHaMRQDC2vmjgrrOg6Bt+FbJre68pV9Chj4r8ceRHlFHQ9ppSdFsu/RnGUkuaAU4A+EyLljtgSTAPK67OR2WDjihi1y29DMcLkGcghlUpYCYHt4VKnlkpA0Iy9v+NTmN/+oiQDqZSUB1wEREnPhcH8p3NI3/8hokXYvwVVj47e5sb4/efMvrkVgJRp/iuSOCV8DZY+bBTpsFwANEBxcucAIcYmfEt/dHxIVzF4av+WP/F8Af/+I3yh1e/+TZ9vbWBVzsd+GCvQMLh3swER5g4aBvCdAAwIDhguakqL/43UK2bQAuLIpnEB2eMQw+WdOY8siA4YCrSRyDMQygbh8kIk7jTucYg4E+Zb6WGJImMUGVybToBR7pQsNsw2ED3xr2Q8WV+AO7BwddmI+GhEaEhojGMgylXC800lip/dgGNGZAp3Ksh9rFXp34CZAUHdAppq8+Kd1VNUX13SZBIcjtTqMeBl9GEMaQBjEMIw1s1ssLmDDOqVhLpa2PJ+WLvK2cYvTTjfZym9mt7Rf6SN9YAATybg2NPP1p8LNPDcRpwXfkdzWirrkA8rVOXayb2i7vnjR3USoiLlu4NA3DCRMfjBX+Tr7KUyjlUA+Mp+SpnNCRR5s1dE5SVnpQjkCvzq0cEtPpVL0UJVhHHY6oILGMKCfbrbZfIqmNc7zWFx2xLAeuUu+FVHAjL8O9eJZhLyJ51BHU/P4/SRnpMrCLIIz/8gZodMPO1s41p0+e3tm/9U6mFaJIGf8F/wZFxPmSCI4HL20WAA8QYdLT1/awwx1iMh8BYxipESc+0rUPeYhc0nQ+OwTvXbPJ5B1YMLwD7j2zCWLjWTYmxSWMGMCxgemG//KHBQAQ3/PzcPUgwllsGGUxeRs2/nY5uZMn+AjkZJgkv72Oy0CHPElUbsOSSNSn3pEgM2XpFh2NHerWGoc0/okD7PCNw8H+/gGMvkG/jT+NjA0N25mGKA1+vufA9mI4jZcQlSz1TvCgK57VdEamX3Vowi1K9XuUuyWmizf0UX9wkRJGlfXI5+Na/OkukOumPFmAu9neaOMycatfklRg1Q/EaZG+zJ9pdRFgqJ7RZnkdSYeiL9qZ+mKBIr15vWefJorRb8H+Oyz9R2T/qQ95faJM1yXrlXdRHFYDdLCeCkfmA/LbJ4aiqoRsmNI44cJTeJJCBhPQKm63dAOZTyBr5HG+1p9pXb7MjFCJK0CSGZJcnsuGTyieAqUHn7KIKBNnwE9WIsA7D7LelZQsYnygI4vkeN8poDd4TPApgI5ORLrnNxP/hnQ5OAXNrkd9bxiPxw/Z3t4+cerENZ3f/4/rFoQrVCdcQTjzzuCDnTYLgAeIYjLn2/t6BwATOb/KN8KkqfGzMzgrPtLr3vzG6YULF84fHR7eOZ0c3Y5FwN3T6WxfL7NpgtV//GtixHXNuwC8/c++JXrj0UMLPDGBNwYxJtYEGMTrARceRVyclLehyGkxPcrJiiQeDFbWhfXic+PWMBTjHzt8GfzG8O/vxx0A8smI0IBwkUVjCePh9inGNfWU608Nt9qWIPNABsGQ8gVaflCJ6UZTgtl7lLLotsjFBPUufUUjKEPY7IbjIHmi5u3w2r56Oz7a2QQ/2RtkmTipzAy3kB50e/ElXcClIz5fU7wzEdd7uXORhr0g+rgfz0dAzJe7f5dD/StlHVeRbRE8wa+6A4xLv4g8iqM3ZGQaqOEUQRMdbkC3n5SjjJSVGTJzT/eWVJrKNGtOzqlLkalIw/yOr3w13Ugds3D3VYHitdmWv9SDUFpS+4gFISJSSCrKXpDz0lqXxS2plZ3xcJSXLqMQn7IAxQRWxetO5+AEPFej7vw3wBOjnZ2t533KPy+8z/uZ3/KoxeBF3ezBdfmCn/89SnlQ02YB8AARLkBehPz531gEwKUhx2RHmpy/Ry7pv//+Hw/2z11YYILEfDi9gAn0LCbSc8DUk+NiCIPAX/jzrpaLgIHhgYITwMNDyEZDuzQZkQoaOHHKZV6eeiSZgSAFVY7D9rAwj0OVXRPbJBA84adhZj24a9QLgPmyn24JT2D485Y/DH+zCNg/NA5g+MsLgDIiXgD4OXksdKItUidOoCukJHD0wHj7q+GFh5+IN8hYDsbFkdTyml+RRlDxRbQReTI1Jn2/Ad8ijH6gGgivCfuTdxZS9Gn8Rq/8FrkIEdKUmFdXE9qqPMbIhQCgvs3FQCwMWpivt9BhAZAp/YWsVz9smJyHxJiMJZmHQBvx6OTryhNfSas8JstPqlyRP2JSE9REZ8YaecCPvuuUu84PvtA44i0oHIPhiCuLALZftKF6KcK1/7ph+gkZ8oIqtw8wC8lXKOQUkYwKmGqMamcRSmDI9VdY8dLPPwN8COi2KZK3wbQz3NraWu7tleKf++lPwRoE2ZwvClouv/bp/6zwPFhpswB4gOiJH/1l8dv//v3/2BkNp0f7Sv+7T/s2X/6gj/uYp+xgZXsK8+jJ+WK5BUOGrIujAALcFfI7/DL+3oVxEbBA//qq54UfXvtzUjWqn5O5GEVFhYjrwyRfyOWR5FCXdx1pFIoN3HBVB+jBHZ9uH/NxANqHhkIvAmoRAGj3Hzt+hH2nIA0/XOYphoSLACyWUFcvAtKghAKcYOyxPkk91V0feezA7bFclLL9W8q4Tqxm2NBHk18a9ObnXAH+fDJ/NVF/nRz/ncB/TvS/J+avKeYvKtaFQPtgmiUXvVKXYyEWQwfdNq6S48v16D4t/co+qe8y6HFW9BPTEyvGvykg63KvaA62pz5Nune1hOWK5M+IzJMxRZLDqij8BMNBRT5NNf08opCSV0JDnrzkAX8s2lI3JopHfI5bBzKYB6eGZJDVdqFsuf6B6BuOCUREOxvyK4/l8uyyfBfALxxmWo+QzWUGSRROBY4LR8CJlpqi82dKG9FRkv/Eh4b/LuDWAHdMh0idU7/tnV0ETZJGtxaDqz/a60FOmxZ4AOl//MoL+Ec9WxiAYww0rFJpyY8mT/6Mb+UFzsE3vPMVv7h75x23PQSG7t2xm308JsgnAu8/nc4fg0nzYYg7BaM39m1xG8bJhMaO97k4gjlgeKX7SR0nYhpC8mhXTWNJwxlGUxNw3C7PyaEQpZQx6UunjCgOaPnDlVMnkEjukSc4y/WA7A9Ka26P3pLX7qgaMlavlkXXlOmtPE1ybGLWjwZGbix8kDl1pyx7q8ysX6UIp24OFSrh8LTh1MsGPfwRR1kkSrdOtWy+MV7zElgEbBk0/B1jH5NelkwZWvSgPyW3V2+5LCfdJKU3OpS0kE995KRuvuNQwP/8D38aNeax1CB4W/mrZZkkn4dktGVKg47bQRNX5Ogaol5ue+nHf95Uu1pP+JTXmeygyaAXPNIT7ccjdQ51GZekNGTqLGrksi84zCVMn1AvyobLJHhSWiQrfdV1/Yq+IOfr86JOqKP+C4CLyHB1HdLP6we86ju4udD0/wiM4j8EsiyT655akiIsJxd/sclg3aM9fMcyFngJy9Jv/0M+hzcJJcqMc3EwR/Q++O6E/LehdV8P91XAq5H4Zuh163hr6+zpqx8y+bLv+fHF8z/vGcPZ/rnB83/yN1sFNxTUeVliQ5eXnvGUD9Eg4UMpDhIMCoyF0fLHfuWPl2dvfunW7a//41Pnz5+5ATsl/vjP+4D58Rgfj4VdfyT4HwL2E/PZYms2nQ/9dSsD8cPFnAsKjqWcATCfYDhpQOpuQey4mIe77Nh5+YUzD0QNxh7FPCJK0X1yLp4T6yjztlMWuMFe4fzWhWHq5XgastxVEmnIEzJ0ARq+rBvvKOgOAMNlx8MJzeVTG3vX1+04EnfTOMUXnr60OiHLKelySxp0wYSbk7B3+tv6Qx3+KdLuLpDurv98hyBPmbiRP8sqpDoHSvsaOCmOOdj6pHS7FDJLBeA2C7MEp26mpQ6U1ZanPooyVX6kd6kr85LRz7dGjgwddNQCLA1bwiWnCitUoqBuqzPzZD7KIamO5EkX9VbG4CSb0QvDT3Ic0how0n66zWIF1PeJX679PGTo6Vea43QkTwLtMmbbxKJACyfyRC55OpQR7tesc0GOzSYOJ8Nk0YaKApg4RXkX4N4OvBmpr0bsK4BXQ8pbGA++89vj8XS4tb388A983+F8cqifD/7wD3jc4I9e/jqwbKilzSOAy0wv/53v4EUt+mf/6pv5Cz9c7c5Ho+X0zNnl7COf+U2LO1/9q1tnb3nlqaODszdOp5PHgOf9wf4kXPwfgMnqsaPh6N0wGK/GQNzhGMG4kY0L2E5qPGkREMjBpngMQLg0joSMZ93dJGLs1jCjMuyQzkkMKSajuX4XIkxKpoKql25YCLUSNvIEjbgWSQZv5eeCha7SM2y/3pZvFzrxOEAvlIE/y+XsUic8zzp0L40gYI3eBE4GePKg8FZ0YaO/AXWhcaIR396ywd/b2x2cPHFicOrkqcHpU6cHV50GrrJ7CmUX+lYAAP/0SURBVGHGn0D6ib3858SdAf95r94d8ASe5LJCr6As331hf5fUOvb2KfgFlCP0eSmXk39cf+rjbLPIXVVkf4SBlqEGdEfB4dpnDMNNNPF9QqyPhkdgPqav5Om2AJMTykBiOAJ0O3IZRzf1h19GNPSEAzd4dDgcJ7lppAsima5PxXG8Amz5hMNdctvrUEcbimsQrModYn1nguM6JFffeoKk8FnOMdRPouo03vH7/3qd5ADxdwA09q8BXg6ul0E+7wDchPAZMB7h0ppf2L8wnB4ejLGz4kuC+qcIuBvq0cX6bUP3M/31b/9Hj15c6ryan/Qxz147Ht72P390b3p0cP3RdP5o7FifAIP2/jBwdB+FxcBDEXcaO/3to6Pp8JB//bt/ND84OFjwLfijo8loMpmOYSBHadBjRmCxMvI0gvmGffxd8IA/vJLPYdOgFiMA1InFk1DKZJjEyQLzOcrQiTHxyeHvczqZL6XIVwKFyfpHWharRoRHekRaliKneOFhGusRi4gyuZkBkxlltOR0+ZI30KUM9+KLOHe1fMVDOF47NtWB/jBgDMPlC33a+esWfzzX396yMaeLBUH6ZdjDuFMYtaGuedeD/an3KOTG4odhpGnBpDbhhRL1jYMfqx3KR/11ttfECoAnrwkZOBq6vPtAP13EizXkqYzGTQppwRZyeSs+8rdukuOSV4nq1+RRWsgqYHsL0BPhchcAwEl+5aW8kNkSm0PtpcUMQD8jg41OqSHiNZ7Y5uoDLlRjjHHQgKcY6lKUBfkZOiMzxi4vW4XFbC3lpp7UhY7Oycz+YN3cnuwX3tZXfw2zv6It4lESb/nrbhIfM9GNeLVPFGVq2kDBDLOOuMZi/OUi3dee/YiHnSaPGhJNIUgM2yUeOvJXe2DgB2+FC4O/pOH/K7ivQr5bIWTy/J//XWX6yn/51OHuMv49kAPNyqGw5fx5P/MSXOwbStqsii4jcaxjUAxxqXPoDF/2u9/ZGUJJk8PD8WQy28NkcS0GyLthcDwKF/mjkfcRGBfXgGWH44LDHgcvegBiB0PskfWCDGy3Nv1KoYdl507aYYwJJCc1U4jOykqehPJKnPOlB0CyvJLQiWPejEOqqx0wiU9oyloJm0l+6FDvFEiw5KT+mhDDCw7Vl5NNB4hTO/Bg86VKAiTlJNpQGoZWvomBJqKoJOkO4lSjee4IECmNolk+epaTLg28/1Ofu/+9wYmTJ7XTP33VVYOrrgbkXi33tO4CnBqcBM/eiRP+/33k4//ya6Gg/8XnxM+FgooUpY5sDbUIAlKxIbVt1rvTDozoErMKKaeB4uJYIYlj29sIeed/PMxrI+bFVMLxfVh3q2wgHoeMvsprEhtK9UXkjXL0rYssj/mB/iIi5R4HnPiRavZEfCirI+LKEWGUjANnjKmcAUqjq+FNkp01cAAk5kBQFaJgX05Nsif70PrIK/n0K5guzjyS7CvCGp/mrVIDR4nSz8fV/IEz0iEKOoO2vgsLlbPP/9nfPkrjT9qBBJYjFXwHQWsI9MfwGz7j46oyG9osAC4X/dVv0djD3Cww1BaDEQzqkD//+5cveaEuyD/7xW8uF6ZvVc/H85l+7/8q4DoY7+uBq7Ci5kuDvK2P6xrDkJYeeRi0g6QyIiOSieYtKATWnKg8oXlSSzI/DOZKfssoklSG3fTIuS/U51c4ZNHtp1NNzThV/zoBI41ZqG+z8Mlw8cfRoUZmIsMWnLg06kiXLLutfMPGTcYfu34a753dHRt/GHXd/oeRP336lNxTYfRl+E+dhPE/AT7e/ue7AX4foP8IgH2NgqRDqX22RbQHyWfoFPW0a3/1pgcImY7vEsQKEmrBK+SScEQ7dNukjTfqQqBNtwFGbBNuZVnPNmyV7WeadWkpFG4ilSfyp/y87izLorp8kd4i0nGSP0nx9oKCr4Gp+u6NxKm2x6l0xhpaIzKvi5rX8dSqap0hhoEip3JUQpzqH0ETpRJaBCTAotIyAsQFwC7it5kdrTrHNcA8In7dj+5WLbdkRdgtvbF4Hdo0x2WiJ33sl2EcaTDBQi+wCFhqEYCdvdI/9Olfpwv17X/1n4ZT3qblywH4YJEwhruD8E69Zcaf/p3zdy2H4OBW31t27wd8+etyZ5yJZfMugHVgBGPBGROpbtkKMWHi8HiPQ4uAxogyexQgeaLisfdiIMGt8uLIcMQVxjg7LuoX5ctHnRXXoxQBokyGS06FyZAIX8ZZcCObrZLRNZ5JTOGxQpmheAzlo+Fie/M2LKC3rGn4YbS98wdgzPdg1HMBQJw4AWMP6Hk/wPS9E+SD4afxzxcCIYeytvWowLdzU+dCqCb71q2NI9skmqCQKsn8vIOgDZU+joeLPArykHwLKG1JP859Ej+OCBh0qGek8Ozb0gQmrTD4ZRHQ3JbWgqBB1rcFTk1YQZepUxMhop/1cMgK1fzWqVcOD6bJ70kWXoSpu13FRzrTCkVzKZ4IT2GJ9BUklf5LMC5kyc9ThOW7BEIej0eL8508k2u7jhjrskjmazkdUjs5jd/1p2S9/W8eSzGp9DFmpVNweRf0KsSchF67L/zcT2ATY/VgbrZZygm4OHk21JIabkOXh8oteO7+w3gzrqU77zzLZ/GL2Ww+hdE/EmYz+hEXL7TxtwPidnbKwUDg5Y3+9JWuQyMhrnqNH09kOZg1WXHijO+N505xSHCmQnry5x2AfHSgeMotRYixJNC5KInn3ph6hBksqyTdA9ThUoht0hJDipEegeJvKAql4wzhKRHpvwiJzfpWY8a2j+eres4PY61d/652/nnrPxcABYqD4YdLHvJqt8+8O2n0vfPf4tcEtbhgv6J8WR/CarE3VWPUO68L194pjjGpCoHWJyptsY5SasiqIgupb8p0zZDbyqD4NtxF2V3TEKN+BSX9+MWAj1Ki/OuIK2yDflOWW8onslykE4UHIcfHAT9JfPd1HPxtieMnvOuoaNFTpxMfAdciyfXRoXr1S+lw6gxGQc4IvU4MhwsCkXR1JZAiB0F7dRK4Doo8FDPq9ZhMTx8eTXe+83P+2fAbf8Zf9RMvO4trggDiSjU2VGmzALiMVF/8EcoiIJJFT/ynX7ecH00X8wmWAdPZAYz9eeAC/Ed+SY8vdOmXA8v32SFjhN35GJM1ph+OIw4AnjzpcUho+sIQyElew0QTIw0EjRCfE28NRu0iQHmhNzLQ8HsRgAjKYYKTO8SSVELwRaEudx2SLVDJelfkGRQe58lcXbntI4vCkqJ41cufEmvbFObGSzKnJziBE30bBoMRHuUgKilEXhp+Gf/2dj92/WH0+fyeBp7Gvuz6T8LgEzT67S6f+Wjsi8HnQgJ9uM27CS6jGsZwpaJOBqhWtVdxEnWWk/yUQfj68n1VxydVX5XFa2Ot/D5JFE6SncioDLNstmOE0434yhdAertTZxl0eOKhMkmhnq8HRxVSBrr2tshFXY1zOfD24Pg+cXeuHXqf1ioCKvGBCJdrvpDTPQOg3DVlk5Ar8mcOHx3KSgSHxDEq45VmarwmMgn00xvtU5ELAP6QD1/4063RYE95bKI9gHcAboAOWAQsr0Z9d/Zneipg0utQ+KDSAGR2Hi1sqKHNAuAyEi7UJYw1v/qnRQBcLgAitdLiCBv+6XSC3f4+cAa4G7gHRv9wOp0t9dO20xn/Q0ALAiwCeCdBdwEwaHnpe1CVoVPHhkYBTuICTxqhXADQgHARoMkS4ChKyhG0bhS5LMu+12GmiSaYkvfe8ohCF5WBU8jhYxS2o25ll0cVzW1tHKyG2gSTNMXI70jLvAQSK8FmUThkOMQIxyHUp6wv2cWDtmW7b2OH7u/183Y/d/pxu/8kn+lXMC6NPxcK2ztcNISx1y7fyMc46r/Y8Zd+LGqGnopWREfn0hWI5HXifMG3Al4ncGX8jKTMemlU8+tI/yVAhrfNk/o0Oq0DTqEkwvKsUrlOQTLSylK518kVeumZy2nVlfRahPwMtlH3G6Xu0qdHFymQeZRZVO8iKD6Ssp5ZL5MTMyQq6TjTH/NM9NcSwAJAv+ZHw10uvyDaqz3gNPTgIgBYXoXxvYf5j2kidxlONvwtNtSj0mgbetcTd6X8gT4YbP/8bxjwPi2wMsDufjKfzS4AMP7z22dT4R49DtD/BtQ7AAkaQT3n98XP1S92+BpzHG4auhwcGh8kDkDtoqoBETAgaUiq4WiGIKjkZzEYojxM6ZLDUHnyhkeBlpp4wVGr5MnSexmyUjagxyps13zb34uBhGRCLYkM9drbwaJUuyXGAVn9Cte35G/j6SkRIaNQDTCZBppt7e/4x4t+gF70g8E/HS/3nTqVz/rD+OsWvxdq+gqXEMaf/cbJNOqnMuW69Oyr1NUIFrOtkOSQT3Kdp+y6FR9x6QcyPQSE65OMaBxKk2P+hGThKLfPWa+mzxxXyzFqvfvAKRVo4iLK0feBIgNFNIAqAj5GlhMkPrmMp99pPLfXM0MxUiMliGkC/Y66dLLETj4pYR1I9AndaFEW2SnWlZDrw8FKkR6UdVIU8wjoV8Swn/2YZrgEFgKKk0ydmMkEGWhmv9UP8E/P+NL/NtquckHR5/7ESzI/58EWG2poswC4jPQhn/i1S2zrl5PpVLt4vu3P7+L36UM+8xthuRaHMGhnYOTvnE/nt2ERcBv8DPO9AKwRbOy4gIj3AfiPgHzBsMwVuPxxjuEZFz6jcx4haSDGRJoGRMZf8Q7TD49Gk/LoDKKnHyBP8N1nSqWOI+oN5Qtg4L3758uRXAAZGS+eyJqkesWhsM73kZgpM8qPUyDbUuGG/EPMcHlwsgOfnv3DmOet/9z50+gn+MKf3uznowE952/e6g90jT/lqyhR+40HNqDLB6hngmEc1I6ks+R0Ua6Pgl4ceXp5CnjAxSlke/KhAUiezJ/Gvcp1vexmHS+COFQThKM6XZ6E+C5Ccc3pQhKqIRNwWlfntcS08JLWcamowP1DKKWnm49LI4+gQLQDQybLEVrZLrKktZRxAk7Bh15FMzZApAX5RGKx/P/eMwD/8J//A8BfBZxSL0yYyTd47k+9RCo+5yf0TkAHEbehoM0C4DIT/6CGP8IDLGcT/iDPbPhr3/fvdPG++Pu+fPjr3/ts+f/Rv/zmyWy+ODubLe6Yzxa3LWaLO2Hgzy7miyN9O4B//JO7Xbg0/t71YrrSKiCMPydMDCkOzjpEMBJic8zJTUCaQT7wx4Tu23PtpMvkkEeiE3BUxBfKsXdpdCncHO6cmKh37vR525+uHgHIZXojz4pb756KfY0vRuQt/FoTZbs0snOtxGBAfsZzpqNxi0cvW3yGr1/5qy/65S3/3PkzLW/75+1+3+avhj/v2EgHUKdtsDhiOEm68qAbMJmncEZaMcpQXj8ME2iNfgXjIq1JL2XpWgwdgMIXbZKPL4oLMI/dJg5lVDC9ylVb65BX8YUi0umREHEZFJULJ1y1Hww/nMKOU9ajwvFQpyMuKUVyEWHXyOu5QyVIYQkHC3Ba1UEJdjMuDn4YVxDEolQcdPDYWaNPUs0GkkB7SZ00UEkODz5qm9TLIPFHe7aRwl833UIs2YjMeQTwVwDfCLwG/jehDW+Bwvdgqjs6bmtPgw8sAsdU6MFLmwXAZSa9yAdgV8/b+EMY9iGmdaXxp6u2eAo6mvAdgPldMO63w7DftZwvz2NHNwFw2Nh5Bwwsy0uFfAzAoYsPZHFgxCTJg3FlgMftcz6acL5m0DNfO+G20KAlC+WRVx9703N/Uw5d6scPdWb9qTMrnPVgXBzOlBnvZ2rrST9BI0SofYwkeg3z8BfVuJPXG/t6ARCLAAJG34sBG3695V9u+/vxjMtAv0BWx7gCIrYP24N3ReazshAofQtK/prfVVBauPTx0DWA8sa4NvN6IMoioEHKPQ6c0b27P0aWFgHNIqdZCFRdXY70C3eFMipc8TV+ocRHwjHkMpJ8TTlbykh/yC2IeHuU22dTRJmiayw9g2RAfvlXqZYREUFtmemvML8Q/C2FGoU0vhqN5MMp+SQjT5QfQYGFNJTxPGX5CtuhLdIUSCAGnZxJw/znP/4E8CuAv4IGrwTePBwssChYHqBHFs955ieOvuGzPmH0/Gc+lRg+75n/QhI2dDxtFgCXmYZTbL2xe8cEPYRBx/XrX6r6ze/+8uFT/u0LYc9zaA0G08mEXwc8h8n7LgzEs8ABBt80LLUNn7xpwLEAiDDTQZqpPPBjcpZkJttY+tk5DQQNhg0FZZA0gJknJ+CA1uZKM4+kRvhYCp1S3wwzS4ukhsXgAQ+8xeC39a8gP1zyZR5HMiLS5XU6CvXDwsC9UZ8vwll9t3WipvPEuNxJ07DpDgAWAXwJcFeLAD4K4MuANPqEf8hnvMU/98GcOMRCUUKDwiunVsp96MdC7TdF1N/oZTMhE/VIPenSEyLlCkq3sfZ1gHBeB4wPmMd8LbRYUfz69AIafLj6+ePwt0gdqs5E1a8bF8pzdkt/UuuPQD0DmVlOT7aj4NJncnw3zSGT4oBsIwY0foiIg89pdAXHRUC84ouw/Q5X/ypcJnlSFi+Q8Keb/mOpMsTlVagfTvGlUJVv1LLswTmzC8oav9oHOdFCyjBDwnm4NwOvBV6B2Jcj7tWYPN8Ku38X2A8Gw/FiNJgNMamOMatsEeAZbRYBF6fNAuAy0xYfVsHixK1EXei80jHviZ76Bd+hsUC6+dZ7FovZ8ghDZJ8AG/0zILa5+NgQ6hsAMOL8SjFE6v5/jrXGY8hW4JTGn+C7BGko6vNzrh9QKlAmY03A7SRs4GSXJTT++5ekuOB3HehaTx7HE9MSpNZ//1M0R4cc53Zhh9v48yXAuAsQ3wQQtuNZf7zhz8VC3fWaVOOsf0Es4KJP57PsX/St3o+INuvoUg1sFU9PBIK3uuYzcDKL/Ouui1X4GvIiiHXL3f5xhr/KxMmFBSnuUilZ0e1oAqHUqU+MijJbMM6gE3HB3/IxuqTrE26bpkFvnnRrP/SBMsADBvOUvJW/22aOwwnZ7Gew6GCvh0CC1HdB4gMpKjNKWFDjZXyWneUznSxCemqpXI2WgUwH0eAA3Ek8YQEwPAe8A4lvhOTXguENMP43jYe33POcn/y9o+f91G8vnv+Tv8E/VQOLbFoDFrGh42izALjMpKuSAySOjAI8NBp6yN71g92t7dEYox15eCXPwMSvDXCux4TuMaJxwp/B0r9nCY2sWGoEcYgQul3OXT8Mg/4gJneMEEqU2+uUDSoDuzP5rJmwlLZSFQoQ+vwrlAomwpO6dKC5w3pW/iDF1QgnR57m4EfoE1UDuJRq0ZKyxsn6WFjqFxxtZ7gNYqLOOwC8vV9/uIc7frjY8adBVDtRF+bHyfLD2BMw8hW87Z99aRQ+INtKItUH2Y8tXF4q7nq5XHv0EZkXcuJI465HRVHPS9n9+72Cugiwbobkq4xKbXpBc6yji6UiewDpWYdWbvoDSSXMqCLDaSK1VbSW0syvdmI9NZ6atihYbYdqzPvo8rXAqYalZEvWS/rFNavLI66RVPuilDxFNKchw0G4qmPqoSjm4uyFaUhQwfpBJHqLUHmwAMAGaDi8G7gVXDcj8rbhcnHha3/ir7vWndyWhRJ0N6FRZEPraLMAuMy0xUHtaxzzsX8TALvvIb8V0KdHvcfpnRO721dvb42vxYRxEp21zXESoyZ3/4YGjy52sGFGwElR/m0ArYMZ1ol54WgRQMAw0FC0/xBXjEVDHLwsoUwoGs0sLsOeiMyLcBz3D1lv6d47HghiqSo927AxyIwrCxPyNW2WE3z+Op+NPnf6+dU+G0H9RDDbMtpTsig3y9TiDeXFDr8YfSD7Me/udHb/0omoRqi61rGlzJN1E1A3RFpMUNZvFaxHDzBuhI2+IWMXdU4cS8elM+qYbNFynTao/iTLbRcrXshUnVRuoiWlRbT8DpQ8SU0ckeW0qOn0N2DaWr6UZdCPU9UjqYQNHtmPbpL0VOK1a3aektiSdlsib3mJmA7i+gBFJpWVncAprVDRg/ACgH8DfBYS7gHOLBejg6//qd8r359+3mc+Zfi8z3wqxTMDoekOIEWxG1pHmwXAZaZ/8nnfupxhiz2ZzhZHR7PF4eGEWO4f1K8Dvvl3vn308l/6xt2trdF1wCO3xqP3GA+HD8fgvRrX9Q6GC1/2W3pCxngBYrCQYqx5pDONfDJIPDS+EsxG4+X/2SdfulpUEGRKaryeD2JsxaB3MPxBnHDWoRL9iCs+FlJhHSuoK10m1w15eCBAMrIMwfEVmdEou/s8wCPE0aeMV/uxbWn4G+Nf4XYt7UedNIFjkk7jL2Nf/b4l7omdJA1DRqIQvNk/LI9Gfxa/LVGe+6sv6UZ/Mn9VR0BpxaAYDtc+svxEXh9EynNbh0waoDBCgmTa2Hde6GsBvnTVRnRRsjWgwqE0KNOSSjmBzJjeQl0x8CMAhCMoT8pSO6zCR092oW6hLU+ro+X32qCA5difPDT+aps8GjntnQqX2KSrZFOGE0nO54bRWW0C8BAjY6ss+sSncYNUjR1lCwHkCY+IOQGW0+gQlKW1lDGKxekIuEBgR3OAvNPxQndDCxXtUKyehRr+fXTK2NCxtFkAPAD0lC964fKuey4szl04mB8cTObnzx8u7r5nf7m8+VeHb/u979w+PFqcni+HN2LQv9d4NHwCjP/7wn0MLvOH4yI/jWt67Lf/cZXH2lkXP2RjMMDRqNb1TyMkYyQgjwxWDDAeSvdknhN7QjwATtJb5xhOjuIpZBERQ+KgrBORj5a6IZJjpLh8LUGq5Kf0pOBWlemk38DcuEbWO0+se6lzr83atpPakYdE/Tih6z/Vaez1fL9CO3/pHhlEUc4xYFna7fP3IPLHpeYEFwHx3/OpExcBqREc9Qp1ArQTpx7l1rMNCy6hbjkBLSpiUSmi3jSQcFvIcBE0Zr1dbGd3m3yWtkJtO94rUUiiIdW+134JkzMUXULXEkYysULMXmQ5qjAzX0SJMg5gGxR0Fkcs223X4VE8sueBuL/tDL5aDShO/SOkiggRBlFnZWwyM0eTCwR/pFtL52uycH2QF5Zu06v9eS05LsqlzCXf/j+DvPcA54HJCEyY/Bpxg8Fzfuo3l8/9qd+AIFzg3v3HxQls6KK0WQBcJvqTH/36zkX7xrffurz77IXF0WS2eN1bbpt/wbf82PKeN948ms3mJzHZ3oBr+b0xVj4Ag+dJGPRwB4/D+H8ERshVuLD5y1e8vmMJAJset700RjHekKqBVQy/Jm7eDg4jxfzht6yKNg4nK0yCYBagaB7iZeGUZ1mFX3pAkURrHCQqwxJb+B0goRxxsiwFS7qd8MdkWRETNv08xE+fRDRE/amu68Ej46NEUeZPcvXM4zkGrtrA4Wy7FJE65M4ujT+NrZHP+mn8PdFneUVegH7LN+inMeYLnNPZ1H8jHZgjzEWA7wIwP/ULvUK3cIqhqfrwp6CtD2vAbFm2gOso/Uokl9opDCaQRivbL4284ktcbReESlvxUG+lrg1wUYPHyUKPQoqPKKMy85qCGMjwoHGb4BNgapdUBGUUOV1yfmZmwHGkviTlpj50Wd+A7wbxuoj2yvjmWui0V+Nfh6TUNtGlVru+prVNlARgMlkhJZV6Zx6P2FImTkUvuXIQrWlqhKxj5BkjI90h+xZ+XnAUdgDcDdwG3I60M8ARAOu/3q4/56df4jehcWGGK0TyhtbQZgFwmQg7+MFLf/K5w5f/4gtw7Q8Gz//Pv7a8cHC03NoeLV7wX16si/T8/uF4MpmdxIT+MFy3j8GF/wSMiCcgw2MxYh6BkXMN3B3EcSGMZFoCfU1mjmG1wCSL0cMDBIma5DBJy0hoAcAdYV0EpFFYC6bDLQS/Jl/FmccyaGBsaGSkEF/yURFAkwAPjf6EPqJItY+8MhbBprBBFjRj+Gu8+T1Z4mQmMtNvX4dcx3B1qEbFV6jJKNmKSASFHAoMx2GwSDfoYtcTum+H507bu+3qRh1CMNtX/Reo/ek+rcbfvypJTOhyMaBHAf4NAPdL9idhPUlVN+oQ7yDAT5dfO2Q6ebNszqfyQw4utlLP1mCVOl8SIk+6UsoycbLbkoK1HtU9niSiEaPcqEMCDQS3WbySeuX2tKiszN7IqjIbN+sCdtc1wHZimyWauwAtn65ngn5O2XTll0DA3kshq+2FEHULTxyOSpL+fcqyxFwcoOWtuguO0dEoywuL0Ff/wg9B6owDeO4Bz61wb0aOdwD3gOGQ35seDOejb3nGR42++nM+UcK+8ZmfUIT++5/5reVoPl+OcLHS+DMcSRtaQ5sFwGWgP/vxf88LlNfkCEbekaD3edSNg0c9/PoIDQb7B5PR0WS6N5vOH4Jd1rthAL4not8DQ+WhEHAS8MfEMcd5mMZ/jsGFGUz/qIULnjxI1oSdxr/Cz4Rz0tPH4GSVUAk6r5IHKj5hlJodYS4cQoKJ6lDznAzSf5yhQLwnwjYeYRqJNq74LY+FyJ9lBqUu0kp6E2y6JlwOU0jDqSLLLalNvOMYZNgTOOtgYwrDCuOqnT9/zIdoJ3vWQ5M+dWTT0tgaxdijXd1/XgDkM38Z/slkMBGOsACgy7sAsdhT39S+gGjJLxT6WlffBZCe1Fs6+S4Aqc2rGjMveLKv5Ga94LbGTZVrUNPoZ17qYeQuV23TuKEGCB6qAV2y/xyR4kMWD0eEKxZT1iXzA7qWGVa65WWaywuvUMvWEf7kQ0CglyS36BU62oeP20L17tW5II82TvGWlZRxK9To1uoklHjrq3oElXqtUMMTbuujDnnlUKcwNFwzmgkysZngSiQQCwD/3O95xN2BzrhFWC5vHS4Xd/LN/xFmm+UQNh6r1d3ZbPycz/oE+ofP/ddPHz3n33yKqv51P/+7S+LrAYY3dDxtFgCXgTB3k+KO1GL033/MjwOe/hXfs7zmNP/e2jSZclJfjOaL5S74rsJk9BAMvmsxAE4hOceQTzEw7cFCAEtjjDMOJRPYmG7DbGPRuSWshbbyRwZL9mB3XGdiaUBS3iIfoKG5iOwuNXI5YSFIO5PGoDUMic4uCJ8iIt0kFKk6hH6dI+MUH8wFPPsQqe4WDg1CzxacoMPYrQWNPF/u89v95W3/MLDkKfWTvNAEumWbtou29qua3PXTwPsnpavxPzqaCL4L4PcB3B+u8ypFHaMufDO/vTORxojQ5Rd+odQToNHPhYPcTCNfk+ciKLICdYFkXXKBQV1XKfsw69irVx4oByezkMBeroemnXzHJOJ0VMktkVccma8HnJKxQPGg0LDUX3qF3+GGiSQ/41n/jAyKYgqRby1VPYQ+MSriU8/jibqEN0jZ7bUOURexYWMCn5smSnERDsVjBqbOgH0gb//fio6Au7gTxv8MprkDsGJ7r1YajZaLMdKQxJ8BQBEbuk+0bjRt6H4mXPVx5csdwlgOX/oTz/HF2gzWOb8esFjOMPnMxbtYbgM78PMZmQQF4I8LnsC4UQFKZIg+soQxgdHI2/S+lRwTnLMYHao61QkpIHLeNFSaMPUoIF2kJxrZrT/lCmkk4HrSdlk6gofE3JDYPSBTuqhORurm+G66+IusKrMEwgkviLrwE7rIECXSWPHrfPGVPvnrj/vwf/r5j391AcC7AawjDFsYM5Yv/aI9ia7xB/hmv4x67PwnM+30jzrG3+4E4J0B5st28N6L7UjYiNS2ZQXDWHaMP+pHRD1ljGngY5HAegvtXY0w3F7EUYbbDB4hy2xhfrjIW2Q2qAsStzv1ujdaV46P9aQ+R1uhwdwHXNDyeolrmNdRXksVyNO4KadDTrRX5y659WMbzCZiuHgUqPoLka7EEE+PEwqStxCZ1imwhrIuxxEkR+n3QqFLPAJJVd2wbEwGGVOg/cscmAIXAD73vwsT4R28AzBazu8ZD+b7s8H4aD4YzykRPGOUMMbOajREn23ovtFmAfAupj/+4a+XbQ7QP8K1PzrEJE3irjwJu3/YzuUEPPtwgcURYuY2pjEhadzkanfBv8PkyzTwx5hksp0YUy5bkxqgXQ3AiQ4J4OEhRguJWUNu+Ol6Qsm4iHcBtYw0sBrf6Y+yGc6yGiriUnYT9tImJl65roMWMZcIL4KQW7pY5eOoTmwuj0fJEXrxNm0aRBqnYvhh5Msv+gW2t/3Lfo6Dy4VAMWgWKJ2oY9yup9HW7X0a/TWQ8eezfhh+Gn8a/cNDGH6Cxh9xTCcf+dUGpdIu030Jg5qHwkhjHP2oW/U7bJ35GAMLmHYxE8g7ANk2zme5OqKMFu0iKtvTdxFa2c1iADpI78jfJcThsK+eSeZPN/ISQXmd5rXqMRIL2SatuRpE8rcRJPAV9MMByqJLDVIVaYPoPlUtQcrQ4F7pGKbUYYWaeh7Dw318+Cx9nZiGIllS4YdIkgMG2yERsf61U06Q+wiexcDHQmB+dnt5uP/lP/37k+f8zG8tjkY7+kE0ShwulkNMqsOt2Xz4jZ/xtEtqmQ2ZNguAdzH5B/x0nSZ4gZaL9O//y+fFGIFNhuUEHcLmn4PvDIHwBWDKiSnAxwjk1WICsvUSjYQUSRxDMZZQpgxogvFtWGwlo6gzucLfTpwe9umuErRSGSq36iwj5/LgtxaS3cwnjgPJFW/KoPHzS23cAfeNon/oxsaulFfy28VnhVwLHNCDulCHOK2lth1a489f8uMf9uhnfPnnPYn8aV8uAuKnfWU4aSA59KATdfXzfBv3hL/Ln4sCQy/8TbHz5wKA0I7fOAS6xp/t4Hq76q6jDahBI0/UegUfoDD0HOhOBQ27jXA+0uAiQEC43jVI+ZE/5fSRiwPmibjuIqC5E1DuLsQio8nTQqQqMky3iz4xquRrKK85XTN0E+Vwe7pNe6TGXpuyNo0hSdQggN7SKinC/EDPPGrBXVnHk2W7rIo+5XhJjgyXhbvCTi1vGTFASpeUTMVvcPxnWmjDCSy0K+QewQkeftdvCh9fmjpA/oMbD/6G7weIvvUnfplTzRwT3xzGfzGeYxEwX4zGfBSwoUsmjPANvSvpyf/6BRg7IlzymlxowGm8Vy7U8d4pzDX6u99zMGh3w70T4Xswme/z4QAfHXhC8oCiDBhUyTLyIVsMOo4zUvGAGq8DhUmjL+fEnFg9+USYR8ThVPw6Mh6Ekn2gXGitSSSR+rXgEknTDHnIT4MfsHGEUYThk8uvt6WR1HPxmR9xEGsWAapfp85QPY/QWbe5WSUcLUEjHaTSBmD0y3I2UvkzvmX3Xwx+Nf4KM11/6pNGDPJZd+hJY0/Drhf6aMBV16gn6x8LhCkXCfHsv94BmMD4c+fPOOZnm0Q7sH1T+6irQWNdd942xAnzGpEWu/92Z553AGSUI5/yZnnhILakGXEXBXn6dwCsV7sYADI9Hi0kiq5Bkq1yE6tEdkEBRXWovSaPRbkiekR5WUCP+jJwsp+SUlhPqMTFsUKSEf6LUBHd8jaBok9DCuEk7aKcoqsD6QOtqauAI8ZfLKBg85ECf+YM0sTFtFLf5XA8AuCO/NYAdlDL0Wy5HM8+49fuVubnP0O/+jd4zk/9xmJrBuNPDsiAMcPVg0wbumTaLAAuA/Eax4RM405XCwD6W3rJC79g+MGf8pW0wpPlfHZhMZvfA4N259KLgHMw/rjUcaVjZ+fBRZeDKhYBfMFQBhaRlM0Bl1gzKYkQ78ODzwRf8l9kKCkf8xOatMMNmRznnAhk+KFP/hxtLgSI+ZL/Ux/1iTRUU0ZdP2YTht6gQfRz7TT8aeiKwdOul22AwkFl4oI6qauMB/VsDIrTHE8/TsqvfK6N4pSfhos7UxhFPe8PY8jdfWchQDcNP2CD6V0tyyTputDOPm/r85k+d/c26F4QMI27/uBJPhj9hIw/07lAYPuwLbRAZBnU3rrbmEf9i5/65KIk+BrYUOdOPOqaxp/5ot3A7PJ4wIPcPhAPh8kBxzk6/UZeOwpHX5R48rOcJr6F2lNtmi7PSfbreiAyTFfMgYYyWOTAZSl6Wa3hVfn2lXMfHaI8yaRbgxEj6uaPA4GMS+rW0VTr2Pg5xuTWMpJafpLlOyQZPCKj+cwrjkaZIoeIMVjGtV1tUuBhmhmRzXXCAR/altUcw7cD7BpYeepi2FKRJOz4wycDRqEEslrctzzjYxvNNnQx2iwALgN9+Od+6xJGiiiGiv6k3/muLxlyciX9w3/1TTPsZg+As+C7G5P5XXDPIt/EA4kDC6NHE7wHmIx/LCpsBDPdA6UMMvmCNGlmuOVwnHwclJHqEW/ypIuLB0ajj3YnCQ3i0KAvyAWA/NCTetNosU2086fbM/z0+9fuIj2gNpEcurWcqqdB3XI36a+4hTHmQqBdDBBNPgInuX7+b1kG81uOFgLpykjWF/+q0bShjRZ1vVGH2XQeCwC+wFef5WsREK52/EfB0yIWCWqfaA98dFeF5agOpV6JscJp+F1v+9v6K6z2iTrGrfhi/MUPXtaHTZ4gpcuqqgkt82KEpWz4giIfToZKshyBDEKSFchrwG2h8SDX10e9XsgOTmclZVH08xqK66hQCfbiU79E6NRei+k3LFpp4U/K3Kt1AyHoImobrCOK65aXhdjtxMmJOOVjVMpljMmp8tTomhzx4Ip5J+e40gf0C+ZpC81HClG9rdFycAKj5CpcXcRJYBsXmooh0ffNn/pxUvKrfu43bPXxQby4wM+kDV0C1Vbd0LuUwmBhc++FAFCuUg06DqAgTFgw9ssLGER8B+AMjOV5GPpDjBcMK44ZXPPM4ME2ZKwHGcHJDUihlAtokHCU5OTBsOLayYTx7YGYyE8KR5R50oC0xoSGkpktE5T5oU8a/kQuBjRhRB2ifbQIyJ1+okwimR955K/FWK+ADT2MltzctRs2ajDOTKdxIw/090KB+TGVSI7rVOsLt7NwQN3JozJ46zrcLJth8gBlcQRl2Ue4JLSoKbf1tavni328tc9n+wg3b/nzhT+99Bc7f34bIBdHugYgN/aq+KAslgkdV4y+9M2w48RHgy7X/MXwawHDdmqexYMXgt32LJf9ILf2BclXUkvKYX4uVpTPSDKH4dq4P3VNtS7SxKX8dOja0OtRUnPtGL6+aITqteOj1TN9NS7q6UClRo+aO7giQ9Yrgk4Nj9NKjwFxVh0zzvF0HcJZ6QD7IfyF1AZduI09e7C8kqZQpdZPSr4uY4TDa+Cki4/t3h3LCy3asUHRI0z9YBhUQQbyB9V6DrZQlT2418K9DoA7PAnEH6ar7rj0an2bvARSNmbtUmnTUpeJNPnQ+AM5YRfi4GkIY2iGMcJvApzDQDmLAXMeg/AQfPyOLMZbHswKl0AGDLwCnBRP0lDhgAHquInh4lT7lA7oQLhVi7JCnih5gdYY2oDUNAKnyGQqOgOcLIww7hnWJI06JJqyWfNWFZLKQvnUwQY4jDvfzodbntWHn1/Py5fydPtevDR0kXeEMIwg/R1DH2V0UIwpJ2PwMNzEKZ+MZhpjta7qwLry2ijP9mHYafwPYOQPDojDwSHcw0O4Ab/4FwsA5JPxx2TrNnF7a6HBsqL8YZavhUCFdW70DLgNbfDZJt79R3tIbvRtoW6HuH+7fW0eQ2F9eOLZcYWXbEmqD4ADJbOGlRAgq5DGh2OtLBy7d5GIYpjiuuIhgqNSsryon+J0qDhhhZoE69MsGOTBSXWj09TzPlHo0eiXC902jpTyubi2P91cDFSkovIfQ+DUwY/gk0kyQh6M+lK7/OyL7I8E9OD85CUAD98BICAKYA20AIBxugG4Djg1Xg58ixREvp7hojJEElk2dAm0WQBcJlrMMBRz4oHL1fCLv+0LdaF+zJf9J2zpKy05ay2WhxgiFzBKLmCg8Hexj+Dqqy+8Nd9c4xg7OEwy/zHAwM5RgYNDqrL7YFREOyniS7g7okSUGFLF1zP2aUzayajwJF8c1C4nYLqeqBrDr3JCK8oOeavG1eCOm7v6Ytz5/L33Jn55IU9uflWvC926T5eLgtzB0xDK+NkAtrBRp2ly3RGhuC5f5FP7MJ01Y3Oi/rgeZoCe9eci4OgQiwDg4GCwv3/ghUDu/gHeLdCtf06qaj/3Cg+3T+paIaOPdkrd3FeRxjxI4y8W+q6FF0S6WxJ150Ig68N6sosMXX9Cl9aFmzhcuTKTecGtENvSibp22usokiQRJ1qT1vinsa/gYqm7CKjXXeoF4MMSK3hepUxn4X77tokreZrcWUTjFZC3tB3dZApKmZSkQ3V3+2dfCAwzLfhJkqux1IyzBMcaywxNXK7zm2rJIqlnvmVlUi6CuvMi1AKAZWqOw1yHtvac5wUXgGTOT2SkQAlWG+r7zMRgsA2cBq4lYKROA3sshoRq8sIpBC9VSiB5MPz2eFFwQxenzQLgMpEu/rkv/vDzpb3hr/2Hf6sLlQM6SaMDO37gAgbVwWAxoPHnd2MxsjzePBHwUlcWLgKYDfkW/BEhksZXJTIGv8pK8FwnDvkbXdYT0pMl9HAeTko4l0k6oLAnrZoR9eQRevb1zbyc3GyMvIPf2oEL453Guhhv+WnYdwe7BIw/sbdH7MFP+Ot5cttFQcqgXCLkejEQ5YZR7C8CXC8Dp4poR9d/zYQN4KS6slN5TXB3ROPERQB3+DT2vAtwKOOfu//J4Kg8949J1VeED+iR8vOxQwstAngXQIYfegWUHosB1rHd8euRiOrNekhl9JWu07JYa7pOPKXuBUpReofEu8qfBk1Qud30Sr5u1H5qw2r0/RJlAnG6W5J3BopBstFShUKkiGVQsfSvJ6cwoxqk+G2jute00gMuL9MQzoPRcRxHrH5ZBCMgw9+2C7OyjOibrGcHseAWcDCnsgMhBW71JUm0DhZBZQ05PEoZtX0bcO4j5CA/EZklQCUBmDEGOwB//vwUcBq6nfqPn/rUbemAiK/62d8AdyH6+doLoXiwbOgSaLMAuEz08V/+vbzwOdnwssf1rm/A8A1+pbeT2nKk91wnGBMH4OFCYKrRRdI470yQJauGkgcVVwLtAPGwAB+Z+8DJiTFsuqHjKDiiFIlHEBI7E5InqXYCN7+o0ZD5dEQeGyEbXxnpYtD3OrBht/9ExJ04sTc4uXdicPLECfiNbp7uIsBv6xs7W1wQ0B+LAi4GyoKgGkUaRBl+7vpxqGKqHMAZKlAO1Z0AvwyagZPqz+6iAfPX/fg4gAsBv+iXX/fLW/6zGY0dJnZ3uPK7eMiPxZbfZ6i6lhcgkaY+KTqEXszHOLiZrryKI5+KEfE6LqABgcvOtA5c1zBvkz/LEBiuOghceITOzkudGTbEozsXrRzegUD9ox2oSxp2ggsALQaaBYHS9DwaiPcDfLsabahhCFdtGv4k1r2pv8kGvvA5qyBWyamROJuziVN8wGEykCeREaSMDHXYzjjVNrSCaBlwVbmdvmoQc5AQYi23nNnGGSaf1YFP/Jm3QDyxoGjL6vOJBy4nqIzACcVIMO8AkAGl6qJC9BacE8DJxXCw++2f/vHDr/6ZjvGXhuQP8MdRFLehe6fNAuAyUo4B7dM5cenNfV/L//xZ31Uv6tGQsRNw87n/IXJimtI1PdaQHA6xRuDghw+jVFBGSs9iGFIAHqaRh1yAJos+1lA/WjNCLxJh7R84ZBWkGzoFtFtpwseBE5luuwP6NT0Y5jT6MuQnadRPDk6eXIdTck+dAlq3pJ+MhYAXA7kI4N0CG/ww+nkXIBcANPxE6NW9C8BFQLcOqrsazlDbkJhW+GwE028+GtYlX/7QbX0ZLRh7/9Nf14hpAlfHMmvIRNuVnXzq1xpR9QHiwti2Rrjq1BgUxdd0nHhplYndeqzqknnZRi2yvSqyLd2e2b5eaMGNhRfvwvjRAwFdYhGQJONPgx5o20kIg89b/gqH/qm3dA9XXsgUokqi5KG3BxE8K7IarpLGUPAQlcdnhvOKqTXsEv/ry93hdijjqvRTMFJalEtkncujjwKnJ0lEDzgrTSTVdSqy5aecABeFMvyQ34P+zI/8Jb9FEqhEFGDjf4DgBbj8ISBGciGwDSErNuvLfTdgCX4tAMK/oUugzQLgMhIu+CT4/d19IpILjQYzrhD4k8CHGO6+/e9ROMaJ41z/+uddG3wcOiEFknlnQWV5XwYiQzD5sBB86OPJo6ZBRBdSngYtKY4nZTRZPiYo7pDDvw7MbMNlo8HJP3f83rF7By/jTiMvw34KBv7U4PRp4vTgqquu6rinrwLoBrQYALwQ6N4F0O5foLFvdv6BNP7lLfg0ZjCkMprQGx7WWMg6EezZ0p7RqHofo5AZOeVzXpQxg0cvTmHC9C3tdqJOMdF+MojQIyDDX+A2FWTIESd+G+m2D9L4XyyOxOuq6CVYX+pNojFiOdlO7s+EDbzfrYi2LX63u+/GxB2ftl/EB5lNHaCU21ZtxnaisW8Mf0DPnqMNPS7oetMZAqQ7SenhF7Vp4RZChEQQDnZJkZZXz+bKfI6OAD7e/ZLjPhD7pgPGOYmU7ZOYh3GWge6BxL7m5kJtHILSp1DoKP5efi0AenE48cIGos0pRr/Zg8tF6x3Nfy6IZB83PXci7Vbwwh2cA6aIQxtxVlslLAI83aFqPP+77iOCDR1DmwXAZaRP+tofxJjI0aGoeuE39E+/6Ls5aqfg4u3/A0QdAVwEIAeyxOzMwRoHh6sAjoRnSBUBDvKK30kmygqviGr56FPXcK0ncSBrKauU2Qs3cTZScOOWMSf6NAY00LqdHwsAGv/Tp9Kw09hfNbjq6qtl+K+G2+Kqq5GeCwEsFrwAwO6/eRxQDE3cAZAxCqPkt98DZaea33+3IUqURQBBgqNWjK7m/AenE9ZsJX/LBwMbrgxrTqghtLYXEAZWCB35O/3e/Te66VLR5WIDDWQf8DJZb/y7YH2gSNVTxiRcxUlB8LrMohfAdyf8zYtq2Nmv6faxF49zdvcQ3jO/+ggytAiI+lkv2g+UTz1g6Gex+9eLkWn4pVwoGIRaxWH/Wgr5SX7Rz1ghxgWyjRRkkjlAwVNiE6ZjtOiQeaAx9JJ6mSv1bIRYcuriHTj7K3biRuqaejT11SyhcgKMlMo4BTJ/ew2vB8tSXnbYGB79gQ9cLzOGQ/653xw4ROAuFPc2LA7egPJeh+Q3AbeCF4sAPgqVJNEL/9UnDr8diODg2TD6z/65jeG/L9RcMhu6HPRL3/S5fNmV32kdw+Utq9nTv/6HtKz9xW/+PASHg6d/3Q8s//hFXzQ8M1k8Atf738MA+8dwPwyT7uOx87qGE9wU4DPhwyP9etzyCBFTfsVwseCfYqEMPUfgPxFgYY4hiAGP3STSOFly0MIfE6V2mUDumPh81IPWAzgpBitPjkgKvjKpKIpxTRqP8CuOSTqDIE7PgNNoxGSvHWJ+VY+Tf/sMngYu+ekyLdPJy3TIpGyX6/qlcZCfz9Lp1zP1MBhETJBp3KRleEq9GiphtAuKBbqGWkYRoIGMRmz0il11tD+fWbc7VpapCZiy6UK2jTbiJROecPNOCqGdPvkyjQd5QVzM2ce4qocKKxT1xIm3dPk8XW01ddtRPxLLyW9f5FctbahDF+nF9nDfVNf9nW75/QSku47WUNet3ovwy3z+JUT/JkILfytiqrsANvom1rQueqiP9WI5vm7qokLXE8un7uBvF0sC5YVryTyTqhGEx+2p/stryGH5M53A4fymWo7djJOrc4SjbxnLIERBdlw/uQhCe+WPaeW1RL4sQ9cl6xttkD9g5TaobcTrR+GId1tFe0m3qAvL0HXBb/H4+ohfLeXkQ54hIsmvxtJiCkHu6CFlhvAhcAbJ74D7Zoh9HfheC/cNyHQTBN0N7C9HgylW+Pxvdf4HCm+aLPiHwF/1w79cO31Dl0y8ijZ0GQlXKcchXZL+KihJkw4GN+kff+l3c3Y4wmg9hwF7J1hvhf82xJ2Fy7sBmEqInEr0h0BcVHBxkbfWSIjSg0PM+yM9OuCII+VkoGFMKSGJWTLcku4CaNA3pDwqxGkhT1AwywjXkeLgoU/yAJxgOBF5x7jtXSF37M1jAN/+x+4/d/7XXAP3msE1gMLxKODUab8XQLTP/vlNgby9XBcWYQhyggtXRjUMh3Wkm4a1AhFw1QhsKDaL5jtOhDJiYeCNnKQ9YevWdT6rRo/KUFAUW4hlUgcCOklPLXboGq5D6J+80qe2K4GTwEN6BpX0Jo7URhU5Mj7hB9Kg+g5O+IHsRy7i+I6Fdvho/3wpswu+wAk3+ijdvCuguwHqN96pyQWG60rideo2RhuGm0bPVaWujW7hlsWR6pH1yiz0RD0ZbkBKV1c+yqFB01goULAJBx/4PQTLMBS5HB+t9LUUcumx2KaMSDePg6SSVD1ClpYl1rBjatgwOW9brtAeCoszyV5WX0uYTpMvcNpHG9wGvBExf4PSXgbQxWJgeQc69gJ3Ol/xC7+zHE6nI3TyFoFdzHg0mVXVNnSfaLMAuMyEcUFwfNDlPFD6QM84aUyCMFFNMELuAW4B3oRB8gYMkDfjar8Zme/CbuI8cAijMQuBOa8AHG81gHHGoYeBVie9Lpnfg9kxJMeaujmC34EeudScRETpdZKgvE0BqRcnZ07yfBFwN24V1zf8uRDwIuCqWAR4IUD3NOL4zB/p4EkDk4Zkmy/8yfjX58qtMSmGVoahGgjrG23WgtNYxDOIAE+uEk5sS99ZiRf7EjT8fMFPwO4W8EIAhou7puwAig+9+EM++jEfIB9HUG/pnsY3w6wDDR7rYDFWWa51tcsY6xlaC3kNpB5k40ztHSCABUi23bb83k3n7n4LPPr9AMAvc7L93X96BMN+waKMfap+zbQA+0pxABcNfhyw539YvMgCoIBh7CyTWM/sV7dTuFzMxILGbYY2UdhtddHJ0Q2ksulVDjWf4yPQhE32sQCWYFJf8GAc/XQYH2ejT1k2r5cK1rvqRC4uRiN/VUNelQkP0aXQQboEGJuueJAp6xbQ9SJXDKCOJyGyHM1PFEsNJ3Cx2RlwEfBWXLqvR+KbwHIbWC9ggTX78t/4r86PMQSM0dlbwHi4WI5e+Jkfb7U2dJ9oswC4zNTu+JN+7hs/Vxfv0776e5ecNJO2RuMpwvdgsnvbeGv0avhfhkn4LzFI/hqj7DXLxeKtmPBuwwLgHNwpJ752mEEoRqP9CPE5mzHSnYAY0M24qSNXg7nJXCaC9RSFajaBNxFUympkSLomCyOJ6TQ0bAfdBWgWATQI3B2WdwJ4R0DP9/lyIHf73vHXHWR9zq8fBpLxAMbxjJ9GhMZAxiF0K/pbT+ksD3RWOvmUZKK/CbMqWScbIt7i9+4+jT/f7OcCoCwCdDcgbrHLiLF1XDYU6y5M2jCNfLpCbeMWK0o2/rYPpLPuKdmYsJcIymA56hcafb2ox7szcHfZvtGuXBSgTbWQJT8XBtt+qbMYdfSLFmZw2/cxmC4DD3nys9/g6lsaQrwLUPpxq9RPunPHHwsAuhxojCdZ/zDyK4AMpUU6edu2jPz9FhRRvpuolKUg9RFqWqYnpe4riHSXtlJiFiDZOBfZ7jcgXSH5A6CUiKIKZUk2yMEIX4kP3TqZUigL6RS0QjWRhl53IiXLcxASALQ+bZEuugNE3I2Y27f3hnd9+S/+xuTLf/Eli2f/6u9W4epffqNAjwH0KMBZN3RfabMAuMz0af/+h3JA8IrVRc3hQJf01K/4T+VCh4GaYXI9u7e7cxPwavj/Arut/44p6r9hDLx0Nl+8DAblDTAct2HnuI/Bz4f3kVsU40snrrLLAMQON9xAsiI7Jw+R/PRIhCnYOpRF0kUGHoWCv5YT2YMvJyuGGa8JmEaExkTGxhM/FwHeEeZuksajGpA9GgsZDhsLGok0+GMZfcvUrX3Ad0IS1AuuNXM1og7ST67jReBPcnrwCjgQp9v4dHlLH8hb0979cxHgXb9/oIaLA6SDRwZMeSnLraUj268UHeEmrRqtGpd+5cg4BBUTOlpPl20wznooHw4ax9z5s11zV84291cpfVfFiyqDC4FcBDAP+yb7KfPa6O8OtmH4dWeGfZdu9GH77QyWn7t/IikXW9K5uNF6rDP1jzwG6+R6EXkdlMUU45CuBZcaLFDIbaP2oz/KXUGPpA8O+lS+ykRMU0S/nwienS8IstVv6KdOv+l6gz/isw9DXVHKrOUxtjIoHAypn3TkoUQnO08A5eXdBN1RIHDm8gzMcpHHsSZEhW+53IKee1D6BPzb2O3zHYHZs37sxeL4js992vCFn/00FwlCMmuFmrLL1Q7KEskbug+0WQA8MMQLmwuAsmz9uef/m5UL+MYbbpxjV3vh1OnTt52+6vSbTp06+Yrd7Z3/jWH4UhiOPzuaTP9iMp29BkblFgz2cxiEMw4PjqwizB7PHTb+S0xwuQjw2ltp4kNOqubJhV4+2/RIDb6WxGp+upGlUoc/J48mknnSGy55OPlykh/HC4A0ADbsRNwKLoa+bxwaI69JPMC6qs4uP11SthZ1UB2I9lA4GNZQv970s/00CTcTdPc9ABp93vK33zwsy2hJ8hI4iYeHXBM7WH2abtY1UPxBISHKs6FIPVtdWIBkqU/SkMfunIAhlwFHXGl/8NqAuh/5iIAvCPJOAfuLi7mUkYs1/zeDoQUbZEleuCXM6yLkJ7kOdQEgtXVyOqstA9YY/GMh4+/2stELGeGKKFeyo4BSLhCxJQysI+qEEuASbf+wzE5pon75FKvdfhp8Iq4n+vUDRyw/+zHypaR+KSoZ6R0wLnQzMqwsIMjmoXo6FIVUecqzzLf8+aw/5ifzRhuNcToF95rlYnEN9D+Neux9y8c92SXxe1CTZofPwkql1QBeDmzoPtNmAfDAkK/+HC2gHKMtvf+nf9Xiuoc/7ui693z0uRse86jbrn/EjW/fO3HijbPZ7NXnLuy//PyF/VccTiZvgCF5BwbPOWSZYsRoKeyBB9DRmPVBYnyd8Jjo+CTpItSFRC4CqhwgnI7qmTfIhRMZ9klHuBTCw5Nv7BxpOIrBiV0gjYUMBoxNGowwCsyryTQmb1HqAZd1gp2D60hPPBGPA1NmEwdXc0qES1qFhdghia/HkxO0J+k6UecCQJN1GN8yUaNcLNMsO2VSu+CpiwRpHH6zqx3ZpgGcOmEdjA9ifp0hgHq1+lqfkIssulbYJ2hz9oEMeBjvzuILfP65YV9fdt2fNOb5Xw0lH5ALPfFAhu7UYNFA8A4CH9N4ERf6A653bdM0/uUuQOjN2ma9tZPVIgBh6Rn66dqp6el3TstIihaLw+S4aCuWHeWnkbM/DsgVWr/Kj/qhfHjs19EtvxDrGf2U15YXmGgLIvsz28NqBIXEiHNylrS2NOsDrJAyV9CJE/jpcj7ixqP+Up9KMb+U07W8WOzR+AM3YFzcsFjMr9niszzQs3/q15Zf/tO+G0BSFmQC5jijqgigrhu677RZADwA9Kn1MYDAgfWM5/5wuYK//jM/YvicZ37k6Ks/42OH7/OUZy4e95GfM3nMkz/34AlPedb5U4982Jkzd95125ve/Pa3njl34c1HR9ObYEzuwGA4j6yTGGxBWYRIswnK0l2AHNAtPPbB78GpTBih5ZxxJsZp/Bb2TnKfsozc9cTkS9eLEe/ai7GAIUhDIUNPNDtD3tInL2VQcRYtfcqEaGNAV7ffI0x9S3oLTELFGJOn8eND4V1SfZ1G1wxdJqVLviY4heVXvoqSr5s9CJH4MJ90LDrHJB96JrX9aYNGA2fDlsZN/ZDdncRiOnoxjHjyRR73ix8DCGHMabD9eAX9mcY6+td9CygvHyOYVwh5LVp++6vOVIe65Z2U8nvzTV+JVD/mqbpnPP0pl65v8zu+hdh1riTpUYZ1sT4d6DADXcroy0EJK+Wpj9hegphWMya5YEHXFYE28V/t8ueNHVevNbNLIYJEs8xDLsMJnADd+UveIKmkdIbM1zkURpk4gildnvh9P/4HOrfykcgVuVblzMvb+KeB64CHYdzcAFz1bU/7yPIvgN/29I+2qupvjAJUkOsAVFT13tB9p80C4AEijACNF9L2Fr+9Z/qqT/sIzAGY/YZjbJZmW1/yKR9VpgFMFMvv/fFfXnzB9/za/Lt/638fTKfTu7FavgsiziD1AtInmD94qw28HLB5NMQA00aYAtD7vi0KHvqZJsXkYGKlgg4zwnIcSN4k8YiigEBOcCL56eiEMjkRA5z8uduj0Q/jUA1+a/h9OzkNRcrVtAMFOOHZ2Ptlutxpt8bCv16XhtSTpBC7JiEMCv10WTkddBN5MB1uizTKhQ9u6icefsjK9ilnt0tpG9Ut6kdmfqAzJ0xN+JQdcikseUiSI+MW7Rv+YuzY51GGy+lT1QGccGmUwi0yed20YQAGvp+2To++v302X3Rk2QhTD5Lqinr7mxR+aZLvU+j3G6JdyZr18jUdMiPOYDjRxrvOpmhIUsQrhu0sJ9x1hxPk5weZeSpl9GHDvyYt8iFgJIVYgXoQqL+uW/6+B6EwXQJ8cM3LPMzYyAtijHUuTEbx0h/Xr+JbmeGPeKbnYYpIYqiFQFh9JTqZweVyDPA9gKtxYV+H4q5Byk5wWQLoq37hd2n3afwNMFu3Dd1X2iwAHiDitYyrdzmfL5ef8NXfr0v7+Z/9McOrTp0Y7u7s0Ppv7QKPuHar9NFzP+kfjh7JbVTQ7vb2IQbuBUwWFzCJHGDSwwKAb/m3E4tYeY6phHFY2yuN7wPIBS8mRLGRNBgLOL7gsb9Jl89Jl07Uwjp4gqbxl+GHkY+dfuf2cLPr9y6zebYPSSzaxtXI26Bp+GkwvCho4iPMibLuJiOsxYPDrKN23XA9ibICrK/r7zaoqPHkaRYBHSDNHRHkgNpDbUIoVjwISXxHBg/Vl4uBbnxSykvDWoC4ccYXIxjtWeB0+jNfxlc9EW6NaCeNQFpZELQyoByhapsfp67bUtSdj0to9Ou/+xmMywUb87Ic3WnQddXcUSBCvsuyeITsEbkNaysGQfZxKG2fccoNqAzKZglZSvgbPQpCv1ZHok/WL8pMl+B10F4LeW1oYeuxUdIAZDVEKEdxLQ+D6Wf71usZgmtZGictnA5PCxZAsDCekFFnrqy0ukI+CuT/n8wAXCFL/v3vSTTC7rd9+kdrzvvKX/odCSB99S/9HnNFQRqhgxc87SNWG2xDFyU17IYuPz3j3//Q8tOf+8PLz3jej5SL+uqrTw1OndwbntjdGe5t7wxh4IcwjPWi3tpaYiIr/DCGSxjFydZ4fIBJDwsA/W7ADIhb/HUeYjAOBzDsPOFw4vFE7nilFapj2B6PU6Y0TBzBkutQS5Et8tGjYlSOvlaGSdq3k2H09fY3DP4On/Hb6Mvw89kyJ3NN6F4AUAifdUikpoFYANCIt0Zd/hrHt+21KMhftsu7BXQjrDyxCNDkiQI0xdBFnOuFgoOkQ0G2kSPkFw/PcHUGQXe3tdvbO9YI82AbOaf8JoeLXHsbmTwhpLyUSYMbxlzl2F/CkabvxAu8E7N6ez7bPtvdCkUhoFp+lMFrKmSXPos0ZorcgHWlDWCrSg4qJLEI0MiwvdVv3PGH0c9/SOSvAuouAPqLebN+ed3wHRK9S6CFiNNY59TT+lQq9WDZ0caKFBQJ2OZkOpMqqTKSb8qy2N4Eo5yGkJB6CNCtr5ey2GtigGrwaIx66lSMPRtULtpG17GhPHSle2jP/OGmvOSBR2iNfMpq4XKYlzzWJ0AbI0B1DljMTlEeyTz8q3P+3v+dyMvHmWcRPUEKG2U8mAHHkHJTnJjp2dB9oc0C4AqiXf7X/bZvc2+NRzT2uKqHw2//ok/WHHD1u90w2D15olzlJ07sjnZ3t5cwllMY00MY9ENMIjNkaZ7xUwS5uQLX9MEgApEgHoKTJCepZANpYMXoAngw7GgO9gDCxxHTbDJTCtGUCQORC4AKGiHv/FuDZEMCV5Np6AhpqUd/UioGni4MiI0+f3CH8K1kpcnAMBy8QOeRAFAmzYBKbsIVUkkoXkXa36FoarcFDWe2yzqQF1McgUxhJpUfpUq2ijFjuHTgpjFmeyPMOIUT6gO/qZ9f2dvSi5e5AEsjinYHklheW6ciF/xaPOTjGuTV7l9lB3No3Wk7tjXctv/UL7Hzz58BTpQ7AOAlsQxeK9Q565L6E0zXQktNVBQRdXTBEZFRyRZOol98dBknZKKJRbSloGSF3Q5rwKN1uyqKrIJOEWb5hhPtz3YsBl9tGn7ywO+w+elywZD5HZfXfR0H5b0LuHrfoCwMavkVri4whtEnthDgBcQqMpWPA/hvf/cA/HGzNwFvAN6Ccm9DIfyhMy4OBi985iettMZX/9LvQ0mm6gdV4W7ovtKaS2xDDyR995d9ymg6m2/BAI296+RNvOFsZ29n+e9e9AvLF3zevxh+7Q/+ui72b/28p1yLsfgYdOMHIvgPwP5EjIT3QuK1GMtb/GMZIcYx0iiLg4WL8BEG7gjGEOVhgp3E5HqEiRV+GkOWTNLSnWsRTv6clXjVWDcJlTJxJdnxmfHiYUy4SZzgOBlrssaO39/t55//5I/8xI/6nDgZ3xfvfs3MRYQOkh2GgwYcLg2/nhejbv5b3bp7pCGZhgEx8pmyFwScGFk/KqzFCvUNnemz67qtc5NW0onI67NJO3HEt/JlMGWsaDjNZ0+kA+0umwZOv3VAcNeLxZLTLEf5cKYq6glO6ggoLFex4nL51kkyqId0qXpKInXMcKTl7XcaYP02gPrWX/cj1IfSz3lZIsuVIpQTOlAfG/7J4ODgYLC/f2Fw7tz5wdkzZwdnzp6B/xzi9vU/AFzIMTtl6noSoi2yHRKxeBRw+G5Frx7UR5qApBxdjwX3JQ2sAvDBw4/iQUoAIWwJIach1THKwokfhxHvfsBBmRy0DGuMRRzDiLABj0VuXOf8nwYtYmMxq0UseZmRZaKevOvG9nc78Zpxf/ibN2iL6D/xxfWkxV9cRz4sj2fJlk52BabIz7qiHZCM8a8IvVgI3VE3DtIjKHkOFbgN9XkLwq/DouLVy/n89cDbl7PFHShtf3z69Gx8cg85524vSHn2j/8aJW3onSRf6xu6Ymg6XyyxAFhM5/MFnKV+IGY2Hx5e4JdhB4M0/v/52Z80wiQ7BOYYrEcwFPwt7QMMjgkmEq6sNVR9gHTSXEPyRpKkyS8mxx5ygl8iE6czZtAExAFMFxGrozBKCFIegNNn+p0HenEy7pTZTNaaeJow9LCf+Zg/dUjDz/kkwAkxJkUZkTD+ibyVvNb4c9JMF7JyB5RlqTyhG1fb5BhI41XyxM8K2VV4Be6jfjwajwIyp2Son5rC5MUpe0WTuODJPSGDIINtyHjzTsBWvOUvvnpNsFwLhCwg+4eGhLLKOx2Rl2nKR4I+bBPfrnYbuw/DmMGgZ//kbv8IC1P98c+k/vEP+4z5KI+GvNYj6sLy27sY2YZ5hD7ZR2oo+hXbUj+GuRHH7G1S44+arhDjpQPL9qeAFJrJULbxKg66EVlOubZkUKtfO3v4dY120uKaVVykZbh/PQf8+KsZC+UOgMNgamC9QmutdaMe+CxH0N2/3GfGGWIvoCFuB94E/6uAlyP+lTD+b5ztH7zjwpvffO7Vv/OnfLEZhc1xXo6xKRnjOhl/+2c8tTTNhv72tFkAXGF0qJ34bDGZLhZTrAams1gEzMvoEm3vYTc13ppjUqPx54uA5zGQuAiYwF1wCuEIiekkphwOSZ9IiAHPcFl2kkIY3mbVj5NycYxr7MKT4z3BkgRKT/So8oLETj7KDkMmcJKOiVrpTIa/MSAoHeXbeMhow213PnpLPAx7NfQ2JtWo0K1p+ViARii/RuUJk6gTocOOuxg0QdIPVxrD7wZoWsHVqcS6ZjuwzukmEPYCyG0kg8YhrHZJuAiU6EPlVRIX87E9o6/TYKfRtOE0fBs/jbiNKDJGfutkPWn8wwiDX0ZXctsFAAunVrUdbVzYhwb7U30y452anvEP8O6N/u1OfU95UT7K4a621b9TPvQVwaEuiULqGkTIZSPKw5TjKfLTaUVlTMYXtAWm6CymDYeTUX3K66yFb/v72ksD7Vv19qvN5W/iAkiUjJAudK/1Lr+AOHgELUxCW9RQVh4uf/inS+SDjuDnVwL3gdvROW9F/70WF9dr0UBvBdcdi/39/Re85qbZj1PWFjpuocXDliD/YvTtn/qUvvQN3UdCP23oSqKv+f5fXx5OZsvJdLak8ecLThrUZXCarrnuJH/Rb4opZh/Bcxh15zD0LsB/BJf3yuDlBOQD/vSI4IFARDA6JnRO8JwsE1oA5CIgsmLYazdvs3Y8KU2yXWiHl7NCoiHyFGjSca70F2Dy8Q693v7sGnsvAPgoozza6IG3lslLPhp/LhoWQC4oigFv4J1/nWDrooDpnBR7aXRRGySzEjypPiJVP9vfYKQOhnk0BrYu0NaA/cf8ktFQFif96DGPZEI289Jo6xGCDP16tGX5OgkX5WrnT1DemryC8rhcq8N2atuK7Rp3btSX6DP0zQS7fRv9w2r8tThgnzEv6sVaQS7LKC+UNvALpKGzrvPaptYn/GwbAdR0k6gfjgjtbultcakUvL6vBlqXF3HeQTMRYCcGynXJNlBbNu1J8DrmQlbjxNdmZ6evuEDIwing4gt10hpAnoBPth6gJRTak39Pyv/r5e3/aKfkR7LBaeQA7X8Xrqd3jLa23jHa2b5r++q9/W946SvrF/vVLdjTLPMugv8K2PEbemdoswC4Akk7fsyKGJoYPZ6pOHZa+sRn/wgWB2Ldxyg6S4DlAobaIUbMDIA3RshxA8WzC8AiMElysqYh6BkDT54a5xh3OYZj0rhE0mQrfVaVSVkEjUHeys9doQw+41BhATt1/6Wud/udW/xp9MPAy+A3t4/zFrLeAwBobPLugRdbAI136FImVE6ehCbQOml6AnWejJefvDzUVtF2rq3OSdks0c0lIsP9uzPetXu3y7h0hSYfhLgAlR3+hsQno81FAGVW2GCnwaSfMhmOPED5KiH56Jb0zBOLiwgzP04sOdrE7SuXbajvsKOPuQDg4i36Lg1/Mf7qM1wXaGMS68xy6vXqHb/fFWF9qINfALTxt56pS+M1sqesZANG8+TkSkoocRpS69ILH9HGk8IfZaUacoPoDy6wBJ8DCucY0e5exj+gOLav21jIa7nkIUI6HZ/cNnQRtk5Mr3D5VU8ak6i/FgEIylX+4Jc8eBHeAnYQ3mY+9OMh+m1/Z2d38hU/w6/4VXJeWHyBTzf1BBOd52tgQ3972iwArkDyyzie2DAwRJ6lujQ51A2CQwwDGP7BOQyJ88AhhssU/BgpOVSQV9klRD6PsHhMgOjcEfZ3cTnJ41Sya2Q3uChRdsJB+UnKj8Gd4GRUjbwNfLmtH7v0jkuDIGNfDX4ajjQe6eciQC84HoURQdycxh9yWJbKjgkxDdM6KB2Tpd0GmJgE+L1QaMADrmvctMdxwLC034aTsDHr9k2L7CdCxtat7fJw5imvhW554JdhNLSIkAyGLSHPjFA805s8l4yQozYJAyQgrDbkAiD7unf3xn3LOzTmV70gk/X1zt+7f9WfBp9tFm3X0SEXAaFN6lXCVDApu0wUAZWdQYaRh/5OxouRMlaH7hqCWlVnBqKAws68NNptO9LgE1oExHWZaYUv255tzvyYPQguqGRPMXvgbOhKFNJ4i+gXwqg3aXnl4UJDrNRFYXT5UTD9/NOfk8PF8hrg6hH848FyvIUAs5P+46f6l/+kKJXHyXqpeeQqfUN/a9osAK5A2oqvAmL3grkWiCOSC33lD/0SH75NMaRo9PcxHvYxNA6ACfx+DNBMInlwiHMtrYGJtTgnfcivRiSNSqAaBA85KaKxTI8pvSVavOIsVGQ4ICf5OVFx8ucEZuNPA8+doHeD2qnTCOTtYaIx7lMa+Njh8zviHeMfKHcG4OY7AipTZWNyxCQo4wTkHYAMC5qHoC/4cwLNxYDSevw4CfKL2CbhZFsIaF8aJrUz/XbZJ3IZBro7XUC3uGtYfac8lM0Fm/0qEMjiavnJa8Mv478C55FfMhIpm+IstMvvlDw7vNpGanO0HxdP5QVO9IsWcuxvQNeC7tC4r0gsi7v89lZ/3slIHV08XYdVx9CTcULRMa9EO6t6qiuVWOLEHPLpk5f+CCvdbhtWAbKPQY23TzVPEHiti3Wo118PqSN5Ag7T0HfTCTBIsM029ce1xAP9zDbTtYGkNPY0/uLPVmC8vcgt8D0k3sZnhy2QpiWBFg3IA0AiFgCD5fXY1d8IPHS4mF81WMyKTeKdpu/69I8ZPvvnfoca0fhbFuSTCXukDb2TtFkAXIFkQ+wJXXZf43H91Y41wgKT8RS5DgEuAIgjYA5glDFfQI6nqYyLYa1owmUDYVCK8YfLbMnHwzIwGnW2m/5C4BVa6oU5AXESIzzZp/G3wc6XwVrotnC4E/l9m9iGf43xT2PSGH4a/XRdPidK67MOOZF2J90MO853AshPOUa3Udx2bke2bQO2dTyvFjj5ys++sHGzsYex6xn/RPJqQaEyAlpgZDjLzHAXx1GXjxGO02WgbE17caEUfreZ27i2md30Gzby9Rqw8bfhx64Wclge24RGv33bn1/9UxtEu0mbpZSCB24ilHWKzx3K/mqRHn4ERR5Pjdg1JRSyJseT23YNB8rPtnNbV5R2dQdU5Fs7bRz4jJbXRgFXh4y+gTZlOOI6GjXyan0UAUX49+QDzE38/l5pQD3PDOwA1yLyRsTfCJ2vW8wX+gMgERRBjuIFFgGuHjYLgPuBjv2FpQ09cPSH//u1g4/4oMdzqOES13/3Mnr5ER/8BKS9WjxJH/MPPmA0Xw5OgBUDafBQ8D8M/uvgnsbg2QG0MBdw0to71+ogjVuPaYxFTyiOtytjFmFBsWCWSsqmgMKOFDk5wnRDngjhNHLFoIQ/472bQ1wsfFg2J7fWQNTdIY1FxAXar/pxAVD5aWRgVMLolHpJvap/JcZlPcCU9aBTvA44GM2pLFm3qF/UrYQ5sRKKq0bebeCwnmWncQ90DH4gZZd3BkqbZnyCckOvaO+6MLDexS+ii3CpC2XSn3yZyrDTrAOgdENtg5P6UbYhjBXbnv26pm+78EKA/CTqzfpvxw9GcTGgOwFb0RbQxbqD3D2gomm4hUNURwVIeTIi3CZYe9th7W4j3EXvQCTbwynpr26fqILqHG62lxdMbrN84Y/+/AXLvAsgASC2Rrkmom8IbCDclmwzYAtjTt/ikB/XGK9BpjEvATnqTcilESe1LtKW4OFuf45wgkafPwTEl/iCL0krlXMI30og4u6nPOG99n/rlW9c/PbLXz/47Ve8Xlx0P/b9H8v2U1N5EbBc/NbL36D0Df3tiNfFhq5M4rDKdXzMMR5oLWnSHY242z/EiLggDIYHGIV+DwBDLQ+OHnt4liOxfhOAyYyuIE8/rsKTPU6GxPZImgeJx67yNdROaprEAN3q5+49X+ADDg8PhaPDutsviDsAvBsgIK/jc/fvRcB87q+P1V2/USZXHlCbmtdwRkjd4rfjdLEIisGhhZbgtkF75aG2S4PcBw06jL6MmeEfa6m3uwVOzj3kYiCR8XomHvDE775bCxwkaY0wTqFzwmlJ2QY8Z1uybct7G3EnZzrJBRj6gO91qC/oEsgjtyKvA73Jzl0qiG3DtuCOnz8qtLuTPzC0izj/fLQWjqhf0dJZg1Qrezt+kPqOYF/yeqjXhHbJJY21RSDyFFwKqbhoT0VcnFR2CNdZQZTOHT7Atsap6kX+4LHLTJ1a2vgWHgAiMk+m5WKhAywU9OInhEleyc/+sR6BoVwr6URfGIxTGSWvb8sgQRps48SfOT25HI92/99n1D9BS8LwKHcBuKKIZeWG3gnaLACuUMLo4byDMY0rncCww+U+fP7nf2JnYHBQIHqKdD7751cBzyL6AsbWBC7T8DEwgfusSJFGoNxIYaIoPOIOqjyIY7T8vIjgxsEPIaHMVAY7iMw98qRVJzDOFTQOedtfRv1wYsNPgw4c8mthEdbLfVwoCFw0ALFoYJx/8Q/QC395ByDnJJbHckMXa7xCjGWadcywTwpzKiqRdFzP2lZ0a7gDdKB2rGH8abDz62zF6PNWt3a620hHPA17pHe+sUHjRxkhh6Dc3N215XJSz50dofg4GEZE4fMdCwLRqllLbhe1o9rTizgbfhv97Ie2n5zm3T5Rw80ioPmqH40668X22IGx341fFqTx1y8M6jv/2178RL14sB4mhcK1v9Ql+86dqfrUAzqofs2CoOGVv6GUy2JVdINse4UZFbqlSyplhOAshifG56Mmf5efsOGVW5hNsbwPOFx1t581zLB5YiEAnXR3iu0uxLVAuQHpGuVjpRauMcRCgEC8QTsP3eVSPgpEOTPIOQPcBXH8USAkDsY4bc3ZiT3i9RfKalZU5IbeKdosAK5Q+oYferHWyxwuHBUcM7jsm3dkTTtj7Y+OwHMW6XeDjTgH1iO4eg8AiEkmgICGMuOQjhClhmTyNNQbZ8qZoEGgYaCcPq2JIilf+HMMq3D4i/EIAyJj0b8DEH49/xciLD6jGBq9PwBjE7vOdtefuyjXOiZdKaIQdFRCUCT0SLH9aEy2XXbWlzXmUFODoQ08scooo/1ksGi805A3ht+/ZOfb3EY17oKMfuSH201zWOlRpu8YucxOXxJp6Bv9Eoxzp9aOzfqr7wS3be7safzZR+zDw947Gr4r4wVC+r0QyLsE0U+QC22hD+vktvAdABp+G/98D0CPS9gOWc+oF07262hrAF/pL1VE5aXfMGeXjos/hqRC1QG1CR0jDuiTi7c+vBuRbXsccJKBtQFnkZZbe41H+Km7C0AeOyVMP0hXK5jT8BN85s44luG8Ljc3+rEI4B2AES6CMbAN7CC8NZhrMeA8ntWmON2BYvjDP2+GsjcDd2MyOpTkGX8nqEtf9JO/zSQWDgGD5Rf99O/Cv6F3hlYaeUNXDn39v/kEjjcBg4NR/GWt+fP+8690LvznfP7TtzAer8UgfQy4/i8k/kPgSRik74n4k5hEhvwhwdw9YLLmzwzMMIY4u4yQzv/hHiFt6Mm7TsT6jnwYZebVQO8TxciBKzURUgT9pvTmZNdOfjQwuUtN45XPdstPuQIyRGwNEMtSXUK/fIZcXMA/7mO/eKP+zNvqJqKBkz4xyXFoMKy0crIbeSmm+O0U1jRAaZjLzlR+1tMub8uXHbvqaX/e4vfCgHyWV8BwlkcXcQ4xnWFFV0/G4cSq2gA5IWUmIST+VbJBCh/8nPQdZ9GUTWOBulE+/YBdxtX0YqCRT4uHfGzAr3hyMZDg+xrsPy7eosGlKk5sgfRTYelU+hicOBlIJgc8Mn6kjKQrg6RAhMPPc/L1iCXata+E0wOqccFDF+KUJxIZV9oULg99WA+Efd3imsaCyt+QIdAuWiR5YWt/pMW1rgWuxFo2i/O7GXENArrTRGyPy08/7+76vxvoanGV4w5yvAhxuSxTj2dki0O+qqWKeYfuSrBivhsA10otD1Ht28H6JlwHr0IjvBIXxmvA9RYUc/tiPj0/v3Awm184XE7PXsBsNR9s7e0OvvbP/tqV2dD9RpuXAK9g+vAPfgLmeUyb+uBkWv7hX7yqMxD+6C9eufig9/87053RaBuDii8A3gg8DP5rMCB3wYyB57HXZCyWHIOR45ULAY3bnHRaaDxr8Paondzs6zgrhHhOEkxmHkHxNZ9ixEB9XW7RC5NO/sOfJr5wbTyqn/F6IQqu68C56Jg6kGrxnXPxpX5sR7kKifoSg1N5ZPRkDMPgySB6AvaLf/BrQZBG34sA+vNZfl1EADSu9FN2uJQreZnGMiI+y20NcUlrDbF4uAii2jVMNyoTrnok+gQhn9QGagfFA2xvtTv7orpcQCoehsM8AFanuXBT/6qP3WeW3NWJGI/4cmTUl/WWntBXzDwlIR8j/FG4UFXaKOF7p5Qi2XJN2Vx0UufjoPYOvnTdrrUN1V6l/fK6dlsZaEe1m9s787IeIVbUlkvo+iHimnCb1usw4YU58lAGpgz3mR89aDPAsnDiqDAPy4YpZxTvBPBne/04gDsQJDPz8h6kvwmMfwMVXo4CXonr9M24QG+He34wOZovD47Yv6PtE3ujndMnhtsn9wYf/T6PGvzO63jDYEP3F/kK3NAVSdglLmUcMAIxQEl0I3UweO6//bThN3zBMzTMX/Rjv8KX/s5iGN6DYXgW4O8C8PcAMPJygqEvB7OCitZJjwIcSGhoA0klDYwFPPoZGZZnVYbnB0xSESSJJyYuTjDFwMcP/vBuRP+rgHmHQm/852QIvww+XIY9cXrS8qTY0aRH0sI8AoONngoTTHO82Sy7A6YqUT5BhCYpTRSHjZcnYBrrnJj7bRuO43vpzEvorkL46+KhiWtRynX+jtxYLNBPgk9lR21Vx3pLmv4AwjLe3JWq76b6zQU9/49HM0dHfk/DLwW2/Reyoq/wUaVdP4DjgHdHdIcEiyQtimr9tPhJ/YmmDpKhGrgWlTq9Uymjgcy1LqeoZQimogPLzXYGMiwXOidvuqx3lus2yDaOazmv87y24/oWuKBSnpBBMWrEHoX8ymO+klftX2Vph18g5vIIAUacbmQYTOHlb5LQwFOhJZ9XDqH7EPpCWT4C4AVyBNyFdcDbMNBfA75XoqVeh4a5Ba1w5lk//uuTIVY4uhu2vTUc726Pga3RztZ4hLC13tD9RZsFwBVMuOb1dRxMFrANXgNwMRDJGDNDjC39JoZosuTzs9EBhh3/OhCIHwTiJCOE0yWwEqRyg1Sk2MibHB0KmYWHLoM6OW59RlJvtwN0bnnmIoAGggalvS1Mw6HnxvGYInjK5JiTItAx/p3arSPzVZ0YBRcyODHqeamjkrUDspQwxSWxDQrYJgbbK0HyGSQZLD/rkPVxXOpHxlYG4R3bGiDNxod+G6E+qID8cZjQT/AucWlk3XQnBbrUdm797Du47Av2G/tG/RV9h/CUf1vb9FtdAAClbibrm4aeO1LDdXJ9Sh14yO/6duqqQwIrFKNY05qoltpkQTIqWSzLTbeFdRGgez89CbVHG9S2rHcA3K45LoTg8SIMbl4bPNiGtRntb8MgNzP5KnR9oTz/kiDHUkXu+svOHx/eMsQWg1/1m+ESmcCd2q+LgorRxUVD6B2AAyh+Fzr9psV09pbFdP4WbPNv/ZIf+40Lz/qJXwcTZWJuw+J1OEYvtg2G4Is++SO6jb6hd4o2C4ArmMqEgYs/pol2rhjsYC0w9gt8ovkSw0XjBKvwof4PANAvZyEYmRVQ2KwpWEe49HCdwUR4RWLqghmLTJAUCb+opDeQfPrNrwmLiIlF80VMgGWig6EoxiTuCrTw88/Y/VOGZEF6aZlKbC21WA+aMDMPQVJ8QtNqBCIsMJh++Zhc0JJaE3VX/RvKvNJ9bd0Deh7OdG+yXBJFekfZga+bgHkqGsNJnSyEpxoGSbqC1k8H3Zzbhdre7aIgDbqNlsOuU+syDX2mfkNc5EURKrboj/qk4S/GX2BdrLcIjmvAA+lLupEaLBLeEEMC0p1iRoqlr9tuRI0zY5+nFw4dXZfjDX9LeT1oPESb5vWQO/9q/BHHa0HtFvkIypGw9JDgQVoL9Vu4lmeZutZ0zcGP8eU7a7ju4JYFgOShvhCAMZXf+Yfxp0KMK3cJYgGgi/s8hN6+nM3fsZhMb50fHt79Rf/ll/mNpULP+pX/ioySzJ8z56KAK10nlo7c0P1BmwXAFUyYIjxJaCh5HGEMlhHwNd/zM4tv+IGf1ar5Bc/61K1rdofXYFFwFRbOe5h3+BsfHDccSIQCzeSDOakSRCQDnDQQuDwUZrI5snRnMSGTD2UnfyQENaz2N2HXKyahQMe4pKGICbAYfuwibfgdb3gC68rLQppiGe4QIviRY4/y8oAeDHthEvGJPJzdksSeIVC0yXFIYh7Oj6pj8+hDt9GFZsEDnlJPlgwxlmcDU4w/LgBBcf2yUWhiDbEGrlvUjyj9QoSxoN7pb6F45A1+1Y82ACf7zVcNT5YFqE7Wsxr71vATTV14ZIXCzTjD1UxeVSZq6NWg86RTMwAiexyFspGu9oQeZSEV46WW2YC6hr5lEcAj0pNU82wD2craTgkvqMIgC5lW25lQ9SSzoU4giLzKx76AHI4jjStcZ7prE3+VDT8frTFdCwDk0S1+5EcN+Mx/jKYcjfxjP8MRxNJVeuqzXJ5DvtuQ/ybIumV+dHTX0ZkzvFsp+o6n/qPRf/jYD1WDPOtX/xDGX+8pNVBnbeh+pM0C4Aqmr/run9Hw1NjGuJ9hjE5x+vh/9rF11gD96Xd+9vZ1O9s3nNwavvvOePCI8XD4UOA05pZtMGLqycmLJF+emGYwtAZlkmr8CktA9cNjHENtXh+IC4iKx2Ockxgr7l2iJz0vAIz02/ADmgRtUGS0C63OGSWGHpTT5qlzlSfSVZin5O2BCSUZSCp1D2NAI5ZxJOYqk7zqFouA1vhnXZuFDkmtiY+NUoO2TLgyXOZ2PI/kkRxWqamLXBsGTvgyMGrj2s5EGh/pn3lowIocagliAT4VkoxSjnk7egluKxtP+4NLhwUxSpmFLLL4sth0Eb3sx6WHDsto21Bo+izcshAovMGjOPq5YGgXDQALiKKS1AZsi4CufbSn+nod2NZMF5+hRRcqxsPuGmKkwAYwsmxfe82POOHam3MBkIsAxHsBkF/nk3FP478N478Lw78D8J/+8lf/eI+S3/e/B+XehExvRL43Lmbzm2ZHkzMHZ89BmGl6dLT8qt/6s6I2tUND8S4AeLDcgKQv/aU/KOkbeudp8y2AK5z+6d9//wFsvsYbJoXFdLZcbmG4ffJHfODoSz7ug8af9uFPPHHLmcXDJvPBe4H98Rgdj8dgewyG3iMQvhZhfgtgzFGjtTo89GMuItHhPQKMUUyHGLAohnO9JoU0MkQlTnIVlCBR9IPEaW+PVJLZ1qaD1iRmyVSBU1oxNHBbQ0NGpps3fBEf0Y5nlBMjnnHmd3xD/TCojVqXRzVgmwA08v4qn11Bt7HrG+y1HZ2fpPbmR3pFAcFXZadcyCFoZGhcEFdlpYfyw19cO225XYp2YTtHm9Pwu+0Nt2eCWVJvZQ9KnW0Eq2GEP9JImb1DTFPe4COr2HlCmTwrjzOmLg47jsR1gUJZAPnkKtQhiZfrwlSuboQxBocMfe03QvUimv5cSSNk/CkWZ+pEffDRLXz41ab6RgQMbSx4y4Kv53cftGMhwAMysx6lJiw/XSD16rpWTVBOgwI5zjgx0M0fI4Fx1xqK7Ggi1n6MSWQcdwFk/K3U8gKE3AT3VQi+DDr/zXw2fdNk//Cu2XQ2+ZPb+U/mg8FT3udRw497wnsPn/q+wOPfa/glv/qHy495X0xrXGJAqS/7pd93wRu630j9u6Erh/7ff/fpHIrwAbjcv/g7f2r5/C94Bn8RaLh/tFjefmYyeP9HnxhcszvexsR2CoP/BiwQ3nO2HDwOc8fjsRN4H7iPQtxD4Z7GLmJnjjEIPs7jdDkoafBHcGN8YtKhIeXkExNN3XUa7URDxepIZBzOYRA0mSmOkUoW6ULLmQUnTsrM2Epiek5QagPyK1qhIMttcjXk2CxbsvlhOVGWkiLMtCSmhXKlPLqMsxo4hauFFKjJLrmkvDVdDP6Wf8eA36fW7xnEL/nln/64DBCdViCLox4A+fhSVH490DLrjwO1f4RDIxOKBrVCg1imWFzrltQu4aov0efq+9h12jjZX9uwcYPYgiqmGEsvULhYUVjG0Aep5gyKKoTTYVC55XpzXxr1GhWPmb1wkWseu8EjPvao+XVd0hVYAXzsONy4xSFDuOJrXNS2hJ2BZWocqn2zTWnY81l7+54L43SnS2AcebkbR16OVbYD6xPtwYMflsjbuyqZ5UuX+GEfXCf1PwCq6+uVf7Q0HmzDvx3XG/8fQHzM67pgEilADIAm5I+SwvjT8Kud1baL5QSVvAV1fQXq+ueYW/4C9Xr19Ghy2/TMuf1veNkb5z/wOU8bTvcPhsvJlLKoJgm1Giy+mO8DbOhdRtnYG7piSPaZgxgn03O+72eXz/2Bn138h//y88sf+ZVfXb7HQ/mHWcPxbLE8DUP/brDbj8NYez9Evh9G0OOQ8RFwrwF2MfAxZjVEubmfwT+TX0NW8YYmCnpjsqDRCfjFKxoYI3efeYsz8+AkORz3nIQEUaRF+mqYBDfydCZnfjhZchIXYuKMybPEFdd5hQjr1ijR8imuJyPzteBBvUhWx3GO6ZCqg3qobRBo2zCh9gtjzTDbUGk0kE1bekcPfvIm2P4lHPkoI/LgpPK71IaTJ2kdP8iVxPRLQ9W2UUW2jxoHbacM4chLF7JLfWjwiYxbV+69UKdf1qLyRAaH6RWaw8wlpSW3CvWES5RwIOrS9tdaRJ6UIFKxLls2Em3HXb/Aa1CGvd/eXnTZ2APJKxkB+iXXxZDoVTDK6+ixhpQfslBYKU/l844DsMQOAeWz83nbfgpJBG/vL7ibCOOvN5boBxi/DyNzK1rqDXBfg9nh9UfT6S0vu+OO8zT+LPfgzruHi+kcA2PI3zHZRtQWtOBdy+OV3dD9QpsFwBVGS76z70U0x+zaATCZYdRhJ495YAfD8hqMyHcDHo0pABg8HLmuxkDbAeLOnqajBc58hZCI5TmJRQQHJ6uAd2wVMlg0Oml4+NUsToBKj/wSRxclwxsFdEmyzStkOIpWLmX0QiIntgIevXhPknRbf0xezY61O7kGP/OHHAmmBgzL5UmfApLU7MRYd9Yj26JtN7edDX9pPxhztR14Cz93WmHgvbOPv7otv3vv37zPf77jTk07auSlQXIDZnsCGN1ChsnSphPNoXoAqlm0iQxNtB/vDGX78WtiNBZl51nAvBJViOVQcLo6ZfN18gaYEOkIGsnO8ogIt8S8SX2ZOEVCoENSykRvAzlte63g4osASwBFuamKgHpk2wps3/DnoqBcswIfD8BFZht+ysk6WmapXwtQo0khhXFKNelq5EK2hFEPDBLY8XagwGgvJ+Cb2B3MYOTnXABwxAY0gQH8VsA9kHvTeDh489Zo9Nad8dadZ86cOfj5V94UmsEIjbdY9hil8w+BtiAAfu2Cht/1CR9O7Tb0LqLNAuDKI27ViRHdF33pZ64MgM987o9gbtB6nI/jdjHWrsbAuQHu9Ug+BWD24amSJiMALpcVAIYmwoI4za2JKwyKDFQYpHQTMmbczWoCrEYoLygpED57XYYPehmfIcUE9cOVOGOgjgBP1U/0jf9ck2WCu5kazkm2zmldlLJ45D3hi1BO9mn005iv83vnCP5wdVs80orhh5GnsedPsu7t7g1O7O0N9oAM72zz3+/iEUDejWkMEU5GtmWGwWe/1G7IETqzumgjLRHhau6H8clHQ8UYof1s/JmJeYBOU9VA+ty+6cqjtMKZgU5kBCPPxZC8CAjreARywe1Tp1nYTGgrgUf6G5gn0aQpu4+WOjqo7egGok2Fpo0T+V5AGycZzBsyVfnoB8XZ65M8ptSNeuOqwcE4GwP5cdJlL9CQM56GXTt9blH4k34w+g5jp89dv3b+ANcCzjdYHoD3DvDdhEXw23e2tu44tbu7/8K/fJO0+e6P+vssTo/DQM4UJE8NbuhdRGr5DV05hCHNA2NuOQpEiulbv9ALgsVyDrum3/THRmC5BWcXvDsyaJGnN3w0rul6ca3hTl9DiItJLI2SjDz/ZEUIww/wFnTehq7GBy4XDiwpipLTUC8oclzwB2kC6wCRaZR68XZjQgXKzj556a7kM3Cy26eIWtXXCWrMaKtue9VdfNnRh5Eud0qUN/NnnlgAYHdfDf+JwYkTQLgnAcbrb3D5DkC8T8D8rS4XRb9/GormUBVbQ1MMEkBDlIantG/kY1aecYEVyU7rtjdBv/uo9lsFpYQ0BTIEr3R3fKYJ6yh4OoikJLSGjk57dNoHiDJJxce2XAHj1yMXkjyXnbvaMcDrF25pZy648tm/Fl6xAGD6ujZrrnGcupASQaEP9dUCNOB3A7hGzDgbB88SzsbZgRijNpiYALp8N9+AYgTK5Df4llNkuRuibkFZb4f827bHo7Mnd7fLd/55Z4uEnNQSS/bBNKDfL2HSs371jxDc0LuK2L8buvIoxlsO10p7pzxoDs6ewZywmGES9k9wYtBgFM0wBWCK8LBPhBRbapoAE6JS/EoxjpHRao1avGwWyHcBEl4IJDwpmkJ+jHQTwkwXD5HU+oNKRezROeRowmvIE2LGe0LMsKIsaJUKj2HVUjfLMrX+nPg5ebbtZHCHPtpCvBZKwcteZS9IPryIt/H3i33+q9vdwW7s+usiwHcAiHwUoD9IUj807U11CzEQYFoh+1nPdIUwIjIwdMMYMSwjxHjelk6eNl80C93wBuJIXqC8e0GXYZUXV20g+Uj0d9JSNv09iL9FPz3Ro9JS0Y5uy/Q7XpRx9DrYdQUfHWKxPNRWrnvqpLZYQRj8MPq+A9PlsSwjKyyv4uw6nifrI/1wkoGHR9dfAuEKf0VMlyt5kQ0uL98Rv+aHtB0Y/x0Y/q2hfvM/jL9X3wco9x3I9kZkeR3KeQuu0du3t7f2d09su1NBn/8bf0rFBl/yC/+/5dEIa8tYACCKCwBWXukbetcR+3dDVxBpvFbk4rvQ6NSu3PNvvXW5wPYAE8kRJtHz8+XiLPwXMOjnHPgcZd7e8+Q3/sKsRVyfHJ8HWT1B0IDBoNG4weB7EZDIRcAY7H6m3V8AeLJsy8vyiWoJK69TsgE8kXWhtEKRg3KCtAMtwfRQPtkcrtwmTJnhqzwkTaLFRasWRSgjWlQzY7RTGH7uzv0GdS6avEDIRybM2OYjH/+RjQuAHf0jG7DHhUA1+sXwb0Mmyqh3YCyHMvOxjhVr0BDrUkAjwjlbhp07fBuXvN2fbjE8NFxyOc8zj10fapYAy0xfjS2Gj4fKtjzGVaMYLmUjDQEjqFubICQrPvhKGWsPsReY3E7lOnTQQhUIN0pPLzjlcSwo4juEQlQW64u6sZ5+LNW0ayDboyy+Aopbg+w/H2w3wsVqwU1HyEhP+r72PMbLAoBAGE4FWPlwHvH8jh9dXKmD7bG+848FwHyxjYqMse0YQkcUvziEYrdDqddBkb+GuL8ZjYdv2toe33HV6ROHT/vhF5cFQEtf8Qu/z+/4L5aj4Rz55l/yK3+4+JJf/5Oq9IbeJcRrYUNXFmm84qRx3B8B87iVeP6vXocxt5hiyF0A7saEdzuG/j3AoaYBToBkzQmpzFQiOgjVxA5FesKTBHepdYcrY8a4cG38uRBI459uU04U061Tk76OCnO/JUw1V8gJZNktzJ1hh0iVR1lL49sYAZxoOXFr0qVRivjIr/ZB28jg0/gTekbv/6jvLJSirUr7RXvy1n959k/w71jzL1mJ2PHzq4D1xb9YSFBpUNtC6/x0S50CNEaqF4yMvooGg68fgiH4NTS4WgSEwRF6MlZQSrPbT2d+y2lkFtmtP/KEJAQExsmvqAhHOYzPOKPhEcRaiC2n1lPfx3XAI/0RJoMON/WxZN6GsnxeN3A7dcXuvn6tstfGHcQijChxllnrGYh2SD88oQgpFqyBauhb4w+gDjQMTNOdgARycTGANP3i32ixHJfdP3RjZTBWzmNiuhngH/28HGX+zXhr9Ja9kztnb3zotdzZD174UR8yfNFTPmz0n57yYePv+ZgP3fqej/6Qre/9mA+VLfrSX/yDJYx/q/SG3oW0WQBcYcTd4GKExTQ27MZg8B++1P/4R5oe+pczv+Md5/jWzRHW3dj5w/gvB7cCd2Ajdx5h3krT0OeJLgUAGvvek+nmApMcKTcmOYcEfR2NaIxWa8AS+Zy7piEv4IWAy5BMufbaLxWCMrElprc8PaLIAE+sQ0bQX/UIN/xgiDjqZ7/jSZ48vbuKCTcn4JiEuSAgn2Sgjro7QgPN3Tnf0m/dWBT4n+wSCAP6zjWMO9/s397xAsAG30af+fXdf/KzjVkedbeaIjnqaOgrRBAHNFUcqhJug6wXXH8X3UY/f4I4v4/e3gUoxqWUUctRWdRFcU43ZZ5EyCkGLMoPSC+WBSS5nIaQTwiyTAOZlUb54iFbi6DsbXQiT0iy2wHTChDVJ8YpPjylDHu69Tay3f1d/mj/cGvdzZcLMLdLImSgrp08bf0YYHny2u8amkEv7MHFcDDk57XMrw7xDaEhLPtgAcNPdwnjzwVA8iivyvDFpDaH0Z8tZws+m7wZeMN8Pnvtcj5/43t9wGNue/oPv/jwDW98G3PxWocYfuVvuLccj04st8a7cLe+96lPltgNXT7aLACuMPrS7/iJ5ZwLAL9uC/8II7H+Deb8qP5vxmI0mmCRcA9w23I4eAeG4R3AOWCCQY+R6UOUsxsHr8C//5XRk8vIdNPvMD4Y8bnj1G1DwYb+uHgbVoJyKo+Icu9nokQBsj1JWZ+sxwgzmfRTWlfH5DOFyzlNc1tMtoQm7DRQnMzJyLaxUe/eAfCOPsPevRsZZ8NvQ7/N2/zY8XMRkIafRr/cNSj6STWd6KqX1dONPwzhqqFg2HE2tjYwNPJp+DvgIkBpNEI2Sroborq3YNkuX1rVCMXZ2/BHfrdvo6f0AlreAE4rcWtRdIxFQIB+N5ypvV4KIraGFcLZvJdCTRGl7DTmvHaKQV9BNfZaHLB/6Gc+5XWddN3BVf+m/KhbKa8Tvx65GOCQJFBdhvkTfpx65pp6UBIWCloABGQw2CbePkAG5UEfAnodYRFw92I2v3k+nb19dnh085033XL3k7/2+7WSu+mm2+hk2/IVgy3ArxogEnPYpTbzhu4n2iwArkDiaNE4p7vAPh/45i/2XYCv+Y8/ixEXtDWeLkfjs1gI3L4Yjm6FJb8Dw+scwL8BrnwmDC8Pc6cFFBUgiw6zM65MhoG8I1ANP8duNagCn03DGAoR57yQQb/kH0fWo09oDh0rBJkJye+g0elYuDzyu1xDkydLhMuJ1oapN+mSE/m0sIj6elcPxO5eO3ga847Rj2f9O7sw+DT8e/Ib3Rf82F5USWXiUPm8OFh+6EBKnQgZVhkLG2u6NCjc0ftX5GBY8pflYpefRr8sBsLw6/8HuOsMQ015KjfQeHFq/NLW+nRRDTNd54m0ws92tpFLY154AkmdeOmX9Q435OBEbmcisb/V5yb1OqPkW0+ZIt44JFLAKVB1oZ91oSF3O7Lt1cZq9/lgqrDj+WcfcgNecBpFXtSt+FVmWz78SDPMixNQv73hMIw/mMudAHDjMp6PoDBA1//uB0ZAexHwcTEwGEGE24DwQgJsM5R5DvrciUXArbPJ7NbDs/tn3/C/Xl9+6//Zf/LXYCRJADNCkSHk8rf+Fd7QZabNAuAKpKX+eQsTwHQ6XEwmo8V0Mlpuc6Hcpa950S/MYSkuLMdbdy/G4zuXo9HdGETnMY74C10YuB6kHG+0VBhoeeauP8GwodEtXoeZG662CEDd0dPohfHn82jsrn0HII1qY/h12zr8kRcnanUvdCk8lZJbVciyozzpW1zqFPo36RWWU0hzGyfymIA1yXoeI6vvNLi8/u39utvnjt6Gnzt+3+a3sS9v9gO89b9FgN8vVloZFtfZxSPCBjL0CrSGn/AuvxoUov7RCxD/0d/Z9QuRDsgQhTwb026ZCZzUVp326oPtR/1lhFQ1x9sb+c2bbsLld+M6kNxady1WIg2nWgaIrVpQ+h3ggchMSyq8DS5KKCwXiqmP2j7bPdu+uLEISLDNafgjb1u3bEPXy2UVUlz2k2HDn8YfYSEMPwEBI/DZ1aKAX+SXv/BkQ2JBgLwzuoijS0zBfgG4A7gF6TeD9VbMX3cdnD86uOHdbxy+9tdf2G0yGH60M39BkPOUfkwIkVgErGxaNvQups0C4AqjF3zhJ/E3sQfCEcbHZDLGjDyCWwbRN33BJw1f8IWfrPDXvvAnJ4vR6DxmrrMAd/+HiObLNmUwlYyc4TTF0aIz1nfdeKSBZHI4wen4mo5LBsaOiVwA2LhXg08DWHb/Agxtc/sdEoRVihSVQTj2GObKR28JOk6T+XGQ6hk+fhFAF+eQb9dUyyh1Vr3hZ32bdvAiII0/jX7Cxj9d+cFTd/6WYR04r8MAFMAQCA7n3KyFQRgJwrf3F9XgyNhghx+woZ/gsiJa48+7ANPG8FM+DYmtjY6m3IwXSV37nWSeNMZF51aGuEGNGCSIJwKVt/DTnwYOMU26dKbLNoJfxjLy9IkxBe50+MIFsv1dMUNxJb6mFIKw1IV9oL6g8Q/osUosvNQXE7hof/3jXtydKQsA7fwTkBlgfVFBuwCNdPpXwsibGKaLtknQ+MvwY6MP8E98jMFijDS+5Mev9xFs3Bl02Qe40z8H+WeR9S64twBvQIGvAd4A/80o+czBcjF5wdtvXbztj/4yGsf0JS/+U/5ywByTzxSNx7lKPyf8//z6HyPbhi4nrW4rN/SA0u//z1cNPvKJjxtiFhgBYwy6LbjDwfn9xR+8/I0YwYPBP/1HTxrOtneGf/hnvqX2T/7xB21joF4P3kcOF8t3xyR0A6JPw7xvxQ/+EDjxo1v/zJaRYqAgTB2Mj2S6nvASzqEEnpjBXk409ES0nXp21k5ipQyvxDcR8Kr8liKcsdaxy1f0pl9CGKdg4/bTI4GBDlFWY9yb2/l6459+7vbDiHPnL+NPd8z0uBMQacoDV/kjjgsILiZ02x8kg4YJWo8eMHEXIJxGJnlk9JQWbgsaFLg2Lvy7Vxgd+Lko8B/M+NEAd6HOQ9eyaycHrTRLv90rg7LLtSfdpJqnIUZRHi5L9QmDLRtEUEzWPVHq2osvMuJEl3FZthZaEWaUlsaFz7ykEnawUCfY6FX0YZtrh0+D3yDC3vE3hh950i3vm3AxwD4vRr/qUwYvIjNOd9fJo/pzV28+vsm/hQpsoZLGSK6/98+rWwbBN8jYNPYrHi5/6W8CcedR1hnocQ/qeQd0egfwZvhfi7hXQ+HXwf8WGPfbbt4eHfyvm25fPuUh1w6f8th3H37ke73b8OPgftzj3nM4xJrii3/zTxcvee1bl7/5OuC1b0UpG7rcxL7d0BVGw+lkOcROYbiYY6Asx8P5YjyYTMfPf9zDOL4Hw6tODOY7/Jdf03ByhHX0dIxZHYt2DD8+dKRdUCrOnAzk1/Sg2Q5GRsAwxwyB+NgN12f88fIZ05iPMx9hGYImTR7g8843b4FXtHcCcoesWcVqAC53BSiBBG9gNd089Geo63MIfuWhG/5SfuVloMgGfMeCuhqsi17yS2MfhpvGPm/5t3cAfFck2qG8/Z+Gvxp9f3uivujHPiO40uPLcP75YhiFgA08OzeMjJ4vw5XR9m7RYaAYnwQNT+z0sfMneAfAdwK886+7f8uzNjBqcejDKHrkOK6Eg4FGkPDG0bp61+54cWYWEtuds1H2ETsmKPO0UHEqKmW3cqs/mAIOKjbTw0GJ5TrIkJTpUSOiQ46v+lEn9lfu/MsioO0DugLjzMMFmQ0/b9tDKvsA7cbf/LZhDxflyTCDRS4gjZnOOLlxKx9XE2/rjwPpR5p+ahTyaNzp8gqMuwD6DhJY/TrykjrN59PFfHpuMZu9A3q+HuG/xuLkz1HX/4G+fSn4/hKFvRozy03j8ejC9730ldqwnEP5h5CNMYAhhV6G/BHmtu//mA9bbeANXVbaLACuRMKErNHP3TqGCiwL3PFgfuONGjBf+40/srzhba8R64ue9qHb2+fOXT06OrpmOJudwuy9hUkDYxcjGiIw/jHUNSdwgtDUCmCMCuGkUaYRCoRB4qxMtxySQEHpj0UDjR6N/BaMJV9+o9FL0DAKaRwpv+bHKaAqiTppkeA4eUWZUtjuhZA7zs6Q8uVEmnzZBtDXBpzGmobft+p5G9+37ePWvRYB4AtjngY96+pHBHWh4EUD+dgOGIJUgP2EzirGA7u+zjN8xDE+d4UZV421oTCgCTvzBB+NTN7mnxAw+n4E4EWAb//bSJG/Y7Cln+EA3YZgPuQoCUcYfaJzG7uzCLAQtbo6oXet4egQZYcSOpy9S724TjDKdNmQrjLtyqtY0yWI7hJ1CmSd2Q/Z7jLwU7iEwmjnuBNAo2+gz2bMF1CfQiZA+TLoKIo6tm4Lv1IfRh4MGGaI427fdwBwSQ+2aOUhEeBLfdg1DPiyH9/450IAebVgQG/AjzCUGOF6WsL4T+az6dnZdHIr8CYsIP8G7l/OptO/gP5/vVguXot2vGlnZ/ueL/3D/12+rjTXABiNMea3IJLgP/2NFisdvKHLTZtHAFcg/cEr3jT4yCc9bjDY3Rssd3aBnfkQOHvVDYs/e9krxfM5p86O/skHv++J6YmTN2AwPQpbwcdiknhvDK5HYsxeB5zElLHFh205teVzzphkecL4F5mH6Qp5ZOocUSUtIjR5pstZRg6lAjTuysuwecxfofSGMiZ5za8EO4qTr6ZHnJF5EqYSSkZRxDqBp8hrNxc/XATkokW/6MdFAL+m1xh//mOfd/VeKPA/E/IRgO8Q8M5B+OXa8OtWfyw0pArKo4FJA6LJv2MIuCAw0rDa4JPHiwEZHhlY+BtDq7wyRjY4hBcCNayFQ5FBTSqVtom2CoUV34HiMy9cfXxAqGLF0yz+WuT1U64jwjkgNsuWWLtRP+mrIpyi8taQJFA+DpeTbpbFZJ3NK1+6lqlkupGS6SKpgYOLn+wXggYfhp9GXm0tQ8/+5UIN7R39XBdKgUhDZ0p2Ni0HLcuXCwUI+gX6BddLt/lxDfNPo7bh6n/+jQXiF0j3N40hRQsEZOMjAXgth2W4kY/g3A293rGYz96GerwVC4C3TA6PgMO3YwF5K2p9z87e9uEX/O6flzf/f/ATP2KIvQjEyPiPIQd+Vgan0Wj5kte9LWq1oQeCNguAK5T+4GWvX374R3zoYHnq1GJ58tRicf31y2950Y9osPyPJw+Hb7/+MXtHu6ceuhiPH70YDB+PIfoE4LHAI8HyELh7MP4jpMVanoMaI5qzhYY2fRrpjGQQWEMR7YlRnnAybD9vmctVPPwRlh9u8sMXblB4SnzwJv8KY+PSJzafGHkJ1PLB35QjiWn8MWHSSOs2fhh3PuOX0Q/kc/w0+LoLsALEkw9+LRLg+tFC1BGfNGI58duYh/EgFIfplYadxkILAqfp9jKQiwUZnzD+nGjzWb54wwBx51m/47/G+BPZLkFsG0iKEJOpu+vQgvURidU6SF6QFz3BjzZIIyzA3PCcRxVmP3enKU4SQ9fUmU4tTqdCVRKOLK8PpsM1n2nFDQ+5M85UdXBbRr/A0OvWPp/zpx/gHRoZeLY5MUde+e1CQEmXUFdKZRqhL1CMfwJKEmNY857RH+zgGgSW8C9xTXIRMIfBX/LOAI0/HF2agEpgj4CmKP8cFpa3Lxfzt6EuNP5vO4ThP3v+/M0333rHnT/22lvO/+rbbp+95A18/6/SRz3uPSBLrQbx+kqzCGFMTcPlS16/WQA8kMTrZUNXCH3L0/+RRlvSc1/4o4vRtdcuJsOtxf49+2Wg3PrQR28d7Z28ej4aPwKR74NZ4v0xUbwfJpXHYqZ5xHI2vwaTx46NBWiO0NJ7iZg5MbYxKPXhBAxDF5OGb0tzBqDLeKNMkgFND0wDjw1lgkYu3S5yR0x0n5dbfrotECPQ7zIJ8+GkOMcz2MYl0XBVBKPiC2VcGGXX2/pYbxr65ta/7gBw92/jTx7pHvpLTqDUr6QHD4jzoI2Fd+jl1rBg424Db540/n67f+5nx9zJx1v8foafz5CdR3cDShltviwHUBlcRARUVvUzjY8iFN/cWRBYD9dGQK3bllV08hQ+e0DR7mzzDmo7GeLsUis0RCbIi1ydI2ONzMBTJaasc02QQkXka6CoLJXelG2/2gjtRrD9+sbdBj94FNddHFge2rUH3+YPg0+geCJe6NPLfdva9RNbMPpbg12A/yK5M94a7ig+XgIkLGepd4RVRtZI//t/FnG3Q8+bUYdbcM3cOplMbt/fP7jr5nvOn/2RW88f3Ma5ZQ198Yv/RI0AWXzb33/0sxRQQbXShh5Aiqt2Qw8kffMnPpmzCzqD4yQ7ZbH8ml/+b2WAfPU//7Dht/6ewz/8jL93+vxg9z1mg/H7zwfDD14MRx+4GIweuxgOH74YjE/OMXkuMPgXw/FiOdqaA4geL2GUYYt4h29IiwVJtfs9oWNMNm5nsuchl8z6mOK+ZOEDmEpXBkOTHBEvs8Ubz96x2qgwjS+1IZPRyGNY/jauIU3AajuTUs1Mn73ydcnJlls4JIddAcONNpTxxkTZLmASGd/ycNEzwuJGPHGXgF/1yzsGZaFAbalwUy/5I8y2KH3A9pF6jmPYiwXuKGm8afBpmDFpg0u6Y0KXsQIow4a/PvPPZ/3Mb/m8T2SVnL8uWvJuhcIlzfX4/9p7D0DLkru8856b3us8WTOanp6kkTSarKxBQgkQSmDsBYOxvV4RhARiQVrW2IDxrhdYlmCx2EYs2YTFi4kSEkIIpVEeaXKUZrp7cuz4ul+69579ft+/6txzu98EzYxQT3d97/3vv6pO5XNOff+qk5r2Z6HMBtEeKh+tmubteyWSkYgmPP+tjVb/SKgz/jh2ok+8OgKRKjyiU2aU2wZl+MhPdZnRKTxqMU2rIIc5nO3aZH9EVEz9Ubb6OV+SoX99mQXjLBloqyvqc/pexle+BJDPgVi9iX2RzxfEubstU+Syo8eivpi32RCwEQCpQ/DaRwNm/Wj5cXNJQCMBM/946ajz0vDADYAklVdhGoyqZRW0V9neq7rsVD1vU7tuX1lZ3rl0cPHevfsPPHDTwwd3fWjfMu8nn6z+L99WDX7xzw/vdOHX3/yKSukrGaA17e/puPrhD39uzbgF/3AolwCOALzm/G0ad3RGcN5Npz6dD990R3OCfMO5p1Ufvf3uzm//i5f09tXzx4063TMmdXW+hu6LpZ+tiM/UOLGBMYPxAh3DJM/b+iUbshV8pkcZDByMHB4+9EuRDovwrPmZ2ZbjJiHAuknrAEvzl5rksCQKDjd/Gm1yuLfNoOkCI+I4qxQ3PHaj8UdEpjMW3I4nSTQZYTjjxzqXj4QBMCW6NvkjJr8simMjAJ1Ije1NurStWSFwmdAGOygG+CCxpC2J6FKcrBHPyBEMgMYISMZUyjcj0mSjIYipmfGnshQhxQbRH9Myk9v/6r1U/2ZlSPuucbvv0I5Cj8Zfjkf/ELfRPhibPOMv16AFquLq+Ecq1cd1jD6JAG81pjlmd843/aZys7geOdyxUng6NtmeZRo//bncVI9kpLE/miX/5J6wn6QxFFjJ8bK/4nOymuxnTt7pfvGsH43op6lfDkvhqmoz+4fkW0v+neEAHSsBvhyliJ4JeDeI/LPETUO19tiKNvM9f57P4xG/G3VM3jySESAj8t6VxYO7Dy4uHti1tLp8+8rc+BnPPKvzrz/4qajwGnjfrXd0/vpLd9YfuO2uzge339P5wPa705aCryU4dgq+xvg/vu3lGk90qsV9OOwTzvhxPd+b/MQffGTmpPq5b//6OcU8XdEu1YaXa6y4XJGfo9N2CxfVxPIi/q6GFx617U0mvd6o7vVHVXcwEUmJn3pDEVRfZKQSPedRzPZhEAOZZyLSzSpAHuASsotwa2+LODhjRk94DHAmNwbHNPjFgDglIcTloS3kQ1gq33mFbpCrTdclp0E+Vq3IydlODiIKxEY20ReISUpkvib5IwpvyB9iR8vP7NY3/qVZP5cM+v1hXPrQ9pw/xUZ7kuT2N2Hhb5DC6Z/8GFnM5llRiZk8nTCtdxAyOdDP3IS2wuN+zESZhTL7VzjlkreiCqn9uNp+SW4nbQyjJvoA7Xan8pwqFN2afyLPTKbkkwyAWaMo/84kFWb7xMLx4eNExw7h+XhxXKWQP6dtg9a5NOqRDZNsjKRwS+NGe3k86pZ+TPqWKNfHcCJ6X2LJs/7l6YuWuFwzZn9hFCDM+tM+OGwFwI1IdU+KelB+UqpDrmfUjzYw84/r/sz2uWeFFQCInxUArvvLOFV7NdAoGasGfte48kE0iqgsZTfS1j1q/x3SNyroBh2Xt66OJncsLa8+fPDAgYWlfbuXV1aWRyvD9ePB5hMmW4/bMNm2aa5e7fQ7e5dpl3eQ24G882NXpVYUHEnguCn4GkMnXGPi6xT0+3m5ce9Q8gerS6PhaDTZrMHjlPG4Pk1W+SmSTfJXkloDicYUuSfImLBKg430SIL2wEO8hnRDyL1dHBVKWkOFB0MG7ORmRmvR4N+QgwfSQ4SrDSaIIIuGSP1iHEhkKjmNSSGVFfWY1iWXPyP6owMbUT1y3CY9bksKSojgHGiP/RhHro8GzFiuzvVKdWv1xTSN3ArH34ih/uU3Ojn77Abu/6SToxU3Q3mx2duYIEpL2Ifan55lenbfSMz4M9HENfyI3xh1qYyop9olHX+ugrc7PmUkaROv6+P0/ASiH9RfzbHA8XGopP70fgqQxbRcHISGznXJ21R9G5V4mvCIPV2eD6/0tE2HCmjiKxO6Ic/ybRBIvJzusKizyVMpIl5OG+mpk88p7Qsbt9oPcfMfS/9JcEu8GmDJ5I8hMGbHRgPdqJBYAUg6yez2IHAe2fO1fOqsumqWnwwBrwbEDX/d7khBY9W9ZrbB4349NYB0Frm7VT1S+G5F2amybpbcoE23qLSdo0n9wMrqeO/CgcUDJx2/eeXCM0+rLz51c/eUjfO9ZZ3Ry5Oq3+9WXoRQmuZjP7/09ZfSVQVHGMolgCMAf3/zHZ3XXnS2RimdNsEsvCqj/vsbtuucC/xfl1/QfeXzzlqnbSfJe45O+edpmHiexpyzJOsZC8YSuStpJPyKjCjIkwQNVYxbXYwM+RNwxkAKMjmENwbP7PKsjcGPAVxuBpvpLC5iRcykVWzEb6VLYRbHQZxYSbIjIdXJ+bKtLS7jcDRJNEM6HCmstck5KT+L65nIi9lSMl4828cPgUm32xCEIT9pnC7SWBTf4c5bcVwew/m0n0G7prnnQcRPSPEhYs82s7CiAvFoGyQfUSNuGAgyBoiXjIE884+yow3RjmhTFJpKnVaFmAqOtsSNnqk/ZORF26d5NW2WHGYYtvoOyXk3UJkulvopOLclZvmh2ZbDcZsUUx4Q8lpgK+U02nWD4IM0XU8Js+jw5+1RX/YeImeUwfHlOgSJx/6Q8eXZ/ihd/0/3XKyuOCyTv3XzzD/7g3boTE1tNKSirhLKRLLf29Rui09s1VUDun4gfc/4Pfv39f9aRgCP/I1kzIwUpfb1fr4nqvQxMKCz6dxZlNwluUlRr5VBcLM23bM86e+950Bv5Veuu3X8hQOT+iN//dv1gzfc3OXzvr3+UJOWnsceG6d+pUBui36U2d/u5IOlBUcS2N8FRwLWr691tk7qXlfSq2Wupw2dzq9dvK3XmRus1xl7ks6jM3Q6nakB4/R6XB+vcXyOE07jCIO/ZvhcI647stRNChrwuxpkehqc+iEj3NOVACXiMQF0LGXGSZtO24QYNptBEjKcmc0p3BIDaCP4TZyQ4exsP99Zz1J5LKlLWBlIxElaE6ZEPxK1XBKkgTN0/ATygBPC+Nkab1Lcadq1RT/W7bbEtsjCo3Ir2zY8eJI2pc/5AZJQr7gUopqpn3M+TTyLAyxRLgERnCqQVPIY0Wb2XUP4IpiQWO73aoC2eYZK5wg5/yD1dnsljpFAVakz6dAEpbpnKJf4a/KhH6SbYwRjCHLFHdtcdvoDOU9K8FK4AqhvSLQvDBf5LZGA1IeLyrAkv8gaceUdFqW247fDXH+5XM9WuMV5SbMPqRMzePW5Z/wieT9hIfL3ZQBkeTkMgZWkl2UMsF1GwRixMZAMgpQnVnuQ/Oxf0x41BHGnJcEIMpErgmyAuBdgKhMZBzIA6tWuShL5j3kmz/moL3N+iPI4KNmtePf3OpN7B/XkobnOeOHHP3rl6L9cNV3Kr170nfWWk06abDzu+PH8xo31cH6+7vf7XsDUZnUKokJ88Oiv4IgDx1PBEYCf+N0P1J116ydVvzcR+U9Gg8HkN15zfvWbLzu3t3zScfMy47dodvoMnaFn6KTaqkHiJJ1X6316mfw9No4QrgJoIEE0djKojHuaZViC/JmFjDVmWeS0cOmABGmgnT1fY8YrycSfZoB2+6GCkIinocrbWnEkMStOlwAS+edr5XY3lwSmRkCWbAx4lolbZejHohFHXRIjTEh2ZcSQmYdQ/6meQVIKm9GUkduQJG0LIb9D86casb1d55xPShR1zJL+MnJ64jofRGXnerkJhyGHx0Zl67zZh9qfyRBIlwKS32TF/nXRrbJSOTOS8nU1LVFfE1PanuM6XHomH+pvSX2R+sPxU9YZUXeEuoVA8tkQiDofLvqRRB7TLCkj/GuK4pvslDZIL8IZDKcGQ9ISYErL5aXzgxNOJ46JO97yB/EHwa9IlpeWOyuIDICQ9NZFk3/6AFAmf++XJJTdKt9tQexXf0pD9FH35vq9RbP1jl/5q8hhBIS2nwuLCIQfwsFCm7TVZ9FEjv2SB5XkPk1BZADUu0T+B17QeYDH+Iyfe/4ZihLYsvWsycaTTpnMr98wHgyHk16/N9b+9U3H7il2kn7f9fGr5S040tDsyKcIL5O8OJzGk9npOyV/Gc6jE//hTS+L/tep91PvjTto/89//o3Vj//Bh+z+tdddUq1W3eFqt7dpVHWfMamqM/24X6fzHJ2+50nOkBwv/xyn81gnHTcBcgePzsCewoc6rQd1t9sXMbNuGwNxEDEv556ImBkVNHBo6A4wvigHVU3iCkpn4rUmnO2GBkL9MRvLhoMH7bQ1H2Iz8bUxDI00gCZy8vIpsyiJddpGvuTPXz6kTAAYPg1BxMAZcYRUHC3gz+5Uh1wTO5QI1bQ3kVU2QizpBr7GKLHxE0ZN+GNbGDEYM9nIiTcDhtHkUijC5bpOlIffNUhtohG0Imnql8lPBpr7hL6BRLipb5lZZSKSfBmgDeepcM/+6WPi5HgqVkcD+97tj/5RfP68L1O8lCXtzm8+RA+Gqb023KLfsoDIM2u3eIpWPXG5GIepXOlHEv00GoH0mgyy20iOJigc1AHJhoqNH9U3ViYkKaypL/VHk0kuw32TjuF0rPp7CiL5ZcmSSB/yxx2Ez8w/LftrH5KOPCK/VB/9+q9dvo1Ubbc74rm9bguasz4Tf8z0udt/Xvtlfk4iPcebK/u++W+iOCPF5z3hshkmfdVBKSac8GRPWQfkuEf+m1XmF+W/UobG9fOd+t7v/NsblhVlTdzwH3+iumfHzs7+ffs7BxYOdg4cWPSNjz/8d5+NBhYcsWC/P1V4l+QXw/mUgJdGzEmOyoMokX8Ws+dPvX/2hPlPb7hMBkBvXuQvkq+2Snjr37kaPtBbFfl4nfomfxkHmoN0R/6+Zt0Zaq63QfG2SDbLCFifWcizMIhMBoCISwZAVyNAVyOBtmElKMAuDzoS4kvHdW8Gyzwwqdr6p8IaDjUe0QQGtzRAN7uN5umX+OHQplZ8D4hB/pn4s2RSI14mwVQaWUR6jcTt7RGHcuLHA2sqO9XAVbCWMHympkRbMxGwYsF3DSB2iBy/SS76pCF/tC9fcM01CDF0XNLAOPCHlXIdctkuNNUNrTDa5Ybhzm2lTal9GAC5byB9yAUjwE8CKCz6P/ok+oJ8SJvCk+Q+okzKpx3s01Q1JYo4jgtRJRCPdvEa5CFGQHohEgZPYxw5r8gJ7ebx12SekOrgVjZ1tS/5H1n0YwnyS7kQlpyBWX8QpyBFGkwU1y/V2QaA/IjD2U58g3Kl6AuYXx76hWPXBpn2BUv7y8tLIn8kGQEyAGLpP67/Z2OWtNQd5HJUelN27kP3Z66LflxniRtBPWYMAM32dXzO6TicG/YPNQBkHHCOuyEeayRdjxrpsT/9LKms+6Rv0TF+Ta+qrpa+qdfp3Nmf1Pu+62+vG737Vc+rupNRZ+Aq8dXyced//tSXoyEFT0uEqf7U4J8k/VRhIHl2OI8uHEL+IZzBh2AUX+ngNK8QnWny1QQt6lx+SMPEzl7VuXHQ635h0Ot9qt/rXaGB+FMa1L6g6DfrVL9bsk8DzmqeaWeJGbellr8ecx9AIotm5ie4ch6EGJyCKDxAeZAK93QGiZ+m4If0WqRgSf5EFpBGzK4hkCDMLJlA0VOZxsUgaUhH5UVFp3XFw6/GqSRyQ95NW9iW/NSXfFJeluT3TW52p7jpr0Ea/nL4DIlk8XYXZ+TwiOdqqXz5cx0ayWXHTXY5XUbkoe3otN0FCTHOxz5u3iYoySSadm8Ad97fduvokm7itCJHOH7aFfXJx0HuqxzG9qZCDUir8rNLeTk/55nrNpW20dIW/bT8StqCS1UYX8rDHcQZf/Q14g1WiYxN7pEXBG2jiX7D4PLy/vRRvnx9PxN/I8utly21JN/8x02Y5Mnd/u3LG+6I+HEds87V9P6VK46taI+X9JuwuJExf+lPku/AcwHhjq/7desx0qs0jPhb/xgS9WRFnbxLwl3/N6nka3XM3SQD787h/Pz+XQ886Hf7z1Xc5tfpKwUy0Lnb+8XLn9N9+7nTSwIFTy88lQbAxqSfSvAWqqMZ+cTROVdV/8e3pEsCCSL9zpibamULaHhYkSxK9ulsfkARd2owuKnXrb446HY/Pez3Pzk3HF4xHA4+pRPzC8ryZsW9W4PZXg2gK75VQDnlpWBJFeIB1tus86CUwWDOoJ7EA7wH+axddUuQ5DRekEF2p+3ZbfKWoDEEErG3CT/PpC3MMuXvoTEEFOYvDyptvM0k6uIezapVt0ZcB7YrjfxIu1253jEjJKyVLufhjkl4pLLIj/RNWBDPTJyWRP+ozGzUZElGVNT78HROO1NOqp3H/CBPJBt1zb5F40SlcIgvLuVM01ny9iRO48TRnujHVO9mf7Mt+uaR0OSZ/1plPJLoZyprgPKyvQfslzDQIdmvnvKfm5HyM/HH+ZDIX5Ju6Mt39GeCtyxD8GEMeHs2DrKhkEg/iJ99kOrtMltiuDYW7c1DJB07eVvT5xD/jHiWr3gwO1/4G6nQVclI5E/DtMXL/5C/ytYIIy1Z1vYHlOQ2jRI3qo63dPuDO897ySv3/NO/+NzqD17d3L2vSuokrbpDia9t6dzsnnn6CVSt4GkIjq0jFXzv9r5wHl34qfd9Op9Qzekvl87B5E545/uuqse+sb9ekRyQ7JHcrzHkDp1xt+pkv66PAdCrvjDoda9eNz+8Zv36dddpdnzzeFLv1MzvgdFksqABbUUCYoBriQwCvzMgLU3GZEFlM05Nh0n+YnAPYpM/kVEMS7HdsgZZwQTTNERPcUzcyQAQoftreyyhJ52NgBlDwPGkk9EQxoPycV6pDIlJ0+WGjgGTqqQwb0/ly91Ik5eEeG5ftDC76Ro3w3lRVuSf/QoIN3Vx2LRc1yvl39TT8VOZCEYAcXJ86mEhI1ehQeQbksGsNpMag/wsgSoCgkra8HY4YlYwGL16kPyeVOYMUrtyvaMN0RdTo4Q4Eb2pu+swLdze/JfqaYNFkmF3lnbF5fYMXv9evTAizCJfljAA4o9jAcFNWrdLebNqEh/wUbt9qYX7LZjdh8R1fpb7wxgI4hfRJ/ErfldtYIt+g/hjdYGyqFOUqd7xL5rfxk8f4qIPHTb9s596u48bI7XuJVEa3uDHjXwq3B/w4T3+y2rbikR2HH0XwmAToh+NLQp7QFF2qM63TVZX79I4se/FP/FLijyFak8FWI4S+Vdxc4uq0q3HnZ9/ZXnO/+mIr7YB8CHJtz5OebPkjZLXS75JcpHkaAbDFdLGYSfRxE/x1csaiPePJvVDct8tI2C7En5JkW/pVZ0vbZofbr/k3DPufNd//PF7Np+w6Z6FA4v3Ly4t7dYAdWC0OloajTQHiaX+dE1dszyvAoj4Q7o6+SUMvEk0eDKuBlSSR/GQIJtZfyN5+2wUX2QMpIBMEIk8gsiD1E3w3Eg3swIgt1cBwh8GQ4pvEWkSlsnTEuRu8mzrGWEEm9ajrTOB66dV9WkY2nVHmjLxR35u3yHSEKR2XMRN8XOcnF8Kn+alU1XbXQni8Wd/BDVI+21KpPKk/dlG5JTiSFj5CZLPx0iSGfJv5eFqUL+oa9ud/VG/Q+qYg7LfmNbjkUQ/IYegnZ3lkHgmXevANC5/0/COeZHzgjbHrN1PT7ACkGb2sQowKzHbT/escE4l0s9PW/hRQf3nMsM4kuiPWbsJPwt9l7c3onSSvApg4kcUtyV1komOl7HSjRV/rL5QZSa+OQT+V8WwA7IRxfV/Gr4s2aPK3qvwuybj1XuXFvbt/R8/8AXf9f+eV5/fdFHdXFRJos7Vrxv4rz9W7vJ/OuKrbQCAv3qc8j7J+yV/I8Fw4CbAoxacOQmcOI948vzkBz4zGcmaX510FlYn9cPLk859q3XnTp3OO3TS3q1B6OG3/sHfLHzTz/7manXiyyY/88u/N9m+/c7O/n0L3eXF5W4MUqN6vDqumdX4kSUP6vGeAA34XY0PWBmVtCYFdV4N8MDrMaI9qCant0XII4ABghEihmCnScExdkAQiWQTaWYCbRsCU4kwz/x9CSBuzuO+gNCsHIRxYAPBeUzzMynla9QWlduSTMIMutRbVZtuT2Gp1q63B2uXQV1yecn4SGna4vhIGrzzoJ/JvYnr/KnH4dsoX44kdCbOvC3QkJj3LcSeCLSFXAb5sMXxLCmNdUhMEGN7ZDOtX9Mmidvk/mrXe1r39l+qQbioBvk2oh/XOTkpF2ETkQ8B4SDyYIYdhA+iJCRiUaJqlOojf9banNNjLEXbg8zzEr5JXsLd/F7mb5F/c32f8ysRv7pN5J/yTmXnfoPAZ46FdJzO9l/EjzRZSJuX+yMfbvzz633j877JEJi+5U8nc1cnfLczkj0gA0UnPct8qo0bLJKv96jR92of3619fb/av29xYdeKNnZ+5UVbK6XFaWjMUsKKh4xWlf1IwhsF1cpmNxQ8zfAPYQAUrIF/995P8/Stz8IImXHPYEX8vTKulxYn1b6Dk2rXwrjz0IHV8e7T+r19/+Z9n86P53RP6XTWba6qkw/sWThtceHgqTIATlhZXtmgQavvpUwGMmY3fuafmQr3AGg8GNfM/tFB/hogYhBLRIDfYTG4BTGEP5CGOA1MFvsPh5JY2mjSaCQJMoFEg+AzuZrUIX+TvcTukMGgfZlgqtuGQyypZ3KeCoZHJniTFWFpm34aYbt+oplpkG7yId9U5yZf8iI+CZx3EqeN9DN5IE4TxRgpDWdoDmvyaYlCY6MQRB37rLnpT/srd7pSxF87HZvYl6Rtpc/7OJIz7kc62jZT70MltT1LlDOtIyA4TR1z1YR0jK0hEfNw5FwVy3+KnEKmpYbkP7lVeCZU/hp38htMkH2cR3/Ql76ZErJPhgDkH1/2C+E9ADYCFF8/NiRytRlkLblvdAzwxr64aVLHeKrD45dkCCiPeMlPtzOQSFcDBQ64Nq/gXq3gST3USd1XAyBz0TXiOnKJYJcqeafky5Ltqu/96oKD//oWTTOEdZs3dX7g47c2nSrDATcrAxgIGAHjnnL6sU/cMO34gqcVOC6/mkhnVMFa8KzDoxbzhU7dujdgBiJvbgLACFhenHQO3rd/aen9n71l9V/9+RU5Pu8H3nBCtzpt8+aNz9YgceF4ZfRszf7PWF1eOX51dXVudXXMpzgnSWq/LcgzRRkBvgdgorGCFYBEAGlJOK4B22hIfgyHFkEkrepHRfyL9nAbnkPgFufRUYiY+mNwg6Qhfgmz/bjWn/2J+AcYAtkN6c8aAc02GxF59SCRtEUDscm/pU3MU2Gg9WAt0U/jDgKUTnk5PeLBPQ/12s6vk0aaJm0q33WAMBshDXFSutRDFmeW8qJuLj/SEwbyvvA+snEX+8pGW84k1YFynKEzTmXoCJwx7izenMr1LNN9mvs2+lftoR7UyfmTe+icFpBXzs+6ceeyiNAqWywckrclyWj8Kay1LbUu6qE/Va01aw5t4qXf7U79r3iuLXmpL7z6QZ8mA2D6mt8Qr65ZFD6Kx/zy0n+uW1MXZe4jQ9p/Lpe6UD+5FdaWiIPRwHaJ4tIOu5UPmrR9xRso04EyGXar3rDb7csYGPSraihynut16rnuZCJDQJN11U2NUB3HI7Vrtyq6Q+28UdXkXf9fVsb3S/i0r/H9H76p/s8vP6f6Ly/cWr3nBadX3ZVllaZOUU6qnN8p8PaPFvJ/OsPH+1OEayWHXrf/O8k3hrNgLfyHN71UdkDd+Xfvm74D4MdefWnrxrwJg0Y9mBt2fuHDXzzsZHvxt39Dte+9H98w7FSnrpufe9bc/PDCwXB4gWa/z+r2+6d3+73jJOur/qDPt+oltQbtWtvERf1K5Cgus3gwzwJRNVoDvt0eKNNg7wGTQQk/B5KGBo4mDXy2ZqRjCJytMmnCEWkYyAzi5zSQEAPvjLGBsD30obPV6SCtAS7nlSRln7QchOd6qXxqQD1Mcm5faifta2lL6hdfjqBfsrGBoZH6atp3pIl+w+98M/GndpN3UydXMmqW6960k/aJZCCaWM2BgOIGtbgxbcnPneOOFwOl2agyC6Mh6hFGCoj8Le5D3NGXua8B9aPuXF6ZGw47c/Pznbm5uc78PDLfGQ7noh9oX2pTU3fnFdoVSXlqa4qT9h3l5Tq4HrQ71YEk0s5Z+aMtOUwRGr/ixvYUT/FNmEnwZwH8UgRwfdzHzORjSd+vUYbok+D253xpF+JjU3XVMUc7Il0YCXwRMBvNxM1w3RL5Z+J3PbUt6hnHBlU04TueNNsdpyVqu2b6LPdXvPFvwDN6EhkDMg7iUUHeDBh9Q0vjgpywV5u2q+gbdGxcpcKuVcQvdXr1A/XG3uIP/vVtjvSey88mC5KQBWF13e9P3nbFl1KvFTzdMX3h/JPH2yTPCGeD2yW/H86CtfCRW++SzH4b+6VnPqO7Oq67IxkBmql3VkaTzq9ecd2aJ93kvgeHJw7mTtg4N3fO/NzwEs2GXyiSuUQkc45O3ZMk63T+aj/LivCp3OGiHlaFRiWf3vqxxIDbQuPz2R8Dcw6zyx6yJOND0jrXVlgqJYoLHDYooxVuv2OssV0DZAygQaTZz/YwRqQh2Eay4QJB5XSRTwyuKX8TszRx8ad8HC+lg7y9oiCya5N/kH0QvtOndFG/lI+kMQKSuFyVk7skqQape6Pf2Tep/+2H2xO5QDoQDjNSjANuXuNST5A6KaI+Tb0k+iH3yDNJc78ASdz3pEkflBkOOkMZoRA+BgCfOY5PHQ+i/cq73YAot6WpC3/OP5cXJN9ebs9+a0kkDh2HbxSj2s1otSqJ/lKfz87wZZSlMIcnifT6c7X0k+phw5M+bL2gynf6ozGu2IaxIO0wx8VoSGHN6gvtyHXXH/tcFXYdk+Yv/NQ/tP5VvxRPaRvyV27hr+v83D+v+IX0Q7gc0MEwsEScdN3f0lmRflDJWfa/Tv7rVdiXdRze//ZP7Dj4/i/t7rznxWdXb952Qk91ZdzQ3MKaHVxX2mnvu2u3alNwNIDj6qlCOlsLnixWTfrjamV10l1anVSLK+Pquy96lk7nTudbLjjHGvTX96oTqu5g/dxg89zc8DSR/zm9Xvc8DWxnKtKJijLUYNrTQNTVgMRz/wxaLP1rjNL8Ohw1g5sHOAavRB7pXoFGHCdrD3jMfqbiwZPBToXm30cDA6FHOSQhBsckGszyIO2ZtEgGommLLxEkEra0LgWsJX6KwISdSLsxDiDFKFc/TZ2aFngbxAGJUHbOI/JxXon8Z/Jwuqk0frUt9BrlIiIBbhA5rAuJa4JQneXO9XYaxWUfsC/YX3nlJBsBmYgyXMwhiKwiv2wwuI9Tv2bSxxhwf7ovI56q1dTh0Fl8Q4Qm1/SRKtftcAmjJtIj+om6IXJa+y/r1p/qHP1J/4RA9n3tM8T7yvsw6pzjKBVFpF8hlR11Ub3oy3Ru+PxgBeaQlYEsYSCkt/4pnS8JOK/oG/KGiNFZmKVb1IGN234N0EpIOEdEdIwr5K95VdzBK79I3kYBhD9QuoG1xgeFMcPrKXk37vqX2V8va8fsUWffq51wh07qnRpw7n/bFdsPuO1CXcl40Z96hB0L+XOlQdYrFkDEKTg68FQaAAVPEZZWxpbFlRG6WlodV4uro+pNz9pWVaPpcuIrjjuhc9r6db31w8H8YNDbLBI6XgPaFu3UdZynMdAwqZkSQ0t8I6DJPJG6Jc14HIc0msmEMTCbngHOmvEoD/RJGKs8fiCJUPSTBJW0kF3tGBYGcojSgzUEmwbw1rXntsRjgmuTvqVlKDSXNBCNcSaOpuRp1aP+1EUnSqqHy6LMnNeMMYFkEgpxYiTh8PAQfl1mhgJcj1a/0q1NfNdb7iYPxyZB8EQTv41pANsiadQn6i2hnbRPxJ4NLL/3fxCv/c3kzyWBaDfplI2Lj7LbhO7LOIf6IVQfQ0mnOA3ZcjwpH+dHRQ9vCD0w+5faMV1hEWNJc4NcJvy49k88af2RjpxUymzdm/rpGBfh290ify4NQPwrklh1aRkD2ubzIqXTScad98rfFkBqSxgBJnzcSQfpQ/gmfd+ZK+JG4jlddRSkLxnJmrd0VUAYAbL0lcd05s/gzupBDPIW5aWyllT2HhkCD3dH4wc7yysP333lXQva3KBWm1DqKK73s1qIm4pGxxccNfhqGwDlYHkCMPkvj2oZAIgNADk9ePzlLTua0fBFp57cOWHd/GTY79Ua2Dz+pR43Ixt24LWwghc3/MUkIsg+i/0SDYIxQ5ObwdADNANaGhzzIIlWvmEAuEjVcWqgrIk8ULuyjDKHorUdYSXAs0yRDYRkcpqVTOyQUpv8s+R3COR4+Tq9yUs6ZuI6FVQe5bsZSFOfRCC5LPJL+WAA8C2AIMIkDL2tNrihjXam4U/aLm9X2Yg3tEHITKWEcNPdQfjSlhxhWn5TDyEdEbj0T9lsi3o3RlZuZ3qqAuHd/37/f247ho/bPM3Xx0MWHyscPxxPSa8pERfyt1A/aTdMIPcoIbv5m4ZPw/SnunhlRGKyR1THHOZ+8J9AF7gYlZnqynL/JC3ze0aPthutuqbzJD8FEN/4n74NMMKn5xPkT1/wOL77PPU7ezhLM/PXNkvyi9ClZQAgYQhgBIjsg/S5W1dxPPvnqz4x2/dlgYnS8x6AkWQVrfby+nD0XpH/Q5IHNQg8LNlbLa8e/Jnojc57Xrat++uXn1m9/ap76x/49HZVoCvrpctjfyP1Mt8Zi0oXHDX4ahsABU8AiyurEP8EQ2CZSwGjScVlgffddufMyfd/ffHGesumdSMNxEsa1g7o1FzQQHNQssI4Kqk0NuiU9eCj895uxhIMgWZCwQCdB8Ds9vvKPTCHzoO0B7Q0U6IALzHbL0lGAJIRA7REPyYLJGF2JImYHqQlzfIsA7jJNwi4IalEwEFUEhFSXgVoi58QaMVzWucX+eT8PXPMdUv1jL9WPdYo148Zkp/zSfXPumku+eTfNRCR1kT0Jzq76ePYB9NVGTT7RglSXfPSvB81S3UxpJVL0/nua8enX+gTtUsSs/4p+Zv4kdSHGGUps+Z4COKnPjqOLHHchORjTMIxleNnt+vPMRTHj48hS6pn+gkOkla4pfWH6TXVaj/t1p8TAvJKEsdy1CeTer6pclbSzN5kjw7Jb/6zm5sFk5j81XbOm2zIRFvYOZn4NfDqB8GfZ//M4BtRmiSZ/EXuMdMX4fN8X6ffrbuDSqIG92UpaOYP4S9K9ivvPcp3t076hyX3K3u+rnqbipTUO6UfkH9/1es271uRMVC/9VM76aEMDrRVVYE3ChJv/LZP3t7eXvA0RzEAjkD89xtvrw8srdQifx7XSzNykXcL5w68yt953eXnr2gUh/h3a7x4WGfnLo2jC/ADA08z2IdoLECYVHglIAZd56+B0P6pQDQmePKRMDgzKGc/A1wMpOSBP8KJY5kB1Y3h+FBE1dpIcTWKmXhnpGUEWIKwPFvNMkNYWSJeTucVgCaPFJaW8LPx0bw4iG0m+yn5291O25ZU12ZFwCP9tOVub+4f+rHVV+46dHinIDzFhSxjdgrpSI9Zdk5EQ7+5TrmecktHXQ7v/bYBQHyMpUz4vvGPJf9h+uof/Zf7JO0j1ycdLzZGTKryWzAGsuTtEY4wQ67H0+PG9bcoa0siTLlDKFV/uF16SyB72pJC+I0+k6Rj0/V038WlLy/b+ymKkPwJX3/HPz1RseJP+aZZPuQPwbvv1RaENskf3/SnXUlD/F5iiJOOyvDOnKhdtMszfYgfyW604rVFhF9Zqro3rDq9oXbpXK/qz2lnzA263WG/15WbpwBW+t1qT69b3aNDjhuwb1J216gOV6pvPyu3pL5Kg/6tEsWpFnrzc1gmhqpcvef5p3ff8+Jt1a+96IzqrZ+4tR4vHZhMlhbGP/DJ2yS3N3ELjg74PHmKcI3k4nA22C75Hcl6yYYkfOVvV5KHJJ+WXCUpaOHyU59RzQ00j+MrK4J21EiD9OSDt99RX37yyR7hPvXAg4wsnTc/a9vxK6vji+R5iYaWF2mcvFAptinOBmaEmt1qVNGQ0OvWsvj5/O+YMBGTeKHbk9aYroIggkSWzJzRXt5OhBJEl4lYwqzcOofHIIzE9AY3NmYKA1k13nA0Om2wkiQVTxXgTlqDmX88tmbI46EWnSTICd0iIQSi0rY2+fgv5UtbMAhMpCI/HoHjBrhMhpn4c3vVg1F3uwlTfyS3CTNtD8Mi0hA3t6FdXxtW+A+pO9eVISA+RJOJanGJx/+WTGAQGm0jLTm7LOogyflH61K/Uh/2H5LioXMY+5/7Lbz8n6/9p7a7TfqL/g1p+lV1dd3T7NdtaspPOm0D3hYOV4660Tf6j/pQUtKuJ1pRwh3tsLTDtSFCpKMY509Zrit9qr70UxMYApB7co8gfPsh/AiPl/6wH5jhRxvZL2EEx3V+G8xuQxTo8lPdOP04pmL1KV7ew0t8uFTRZ7viU28/uodbmUgjEa6OUZK4xq90PPLnl/5o6q9hour3euNE/ncq+p06ru+VIfKQ6rpXhsqC3AeV1aKSHlA99qovH1Z2D2lf7v2XV97pl4n92ou3UQ26DNCQyds+N7vqWHB0Ie/spwJrGQCPF3z1768lvyH5KAHHOl568jOqdfONAaAxpBpJxh/afmf96tNP8377yN33+uR83bbTN2gi9WztzRdo6H+h9GVK8SwlO57RI8jeow+GAAaApJowMMmNAYBowss19iD+bABgEEzJP0gvGwGQWhCldGMYxICnckM3JMRQJqQjjk3WKaDRaQPRnS4Cp/GzA6ShqR0ETChJTJyZnFqSSStIKtI4rYTsol1qr/sizYjRMgDcL4kE3Q/UT9r1TO2mvaGnYfoJP2UkN+VF+UGIrk82SkwuQVjMKj1r1UwU8ue784uLi9b+7rwIinZpwkgxTd0wAkBub+4Xym7ayH5VXBtzSRymferLAe0XL0myYZHzyv1p3SLGZjmfv+Smh61bBoAc7gd+8q6kl1zHltivcPsVB+24bPOfwvA7VHBxlIWmL6NO+RiYEj8a8k8GAEv5KTzP+GOWr3Tux6mRg0Te9H2rTYLrRV0lYQDQx3JnA8DhCkMrPuRvQwC3cqKtDlMm6Ez8vPp3KDH593u1pFJ+q8r/fsW9WRW6Qe27dWVl9Q7JQ3wTZKzGqB5jndfjYb+/ovhLMhwWu3PD5QMnbBkv793frZaWu2oDtgfVZ7bvx4Xf9tmZywIFRxFidPjaY4vkn0k+Ivmg5FzJMY3PPHg/M3RGakYSj2HTqwARlsFr/sUTi5L9GoIWFPegzuFlRZdd4PGvmQTJ48w8LjIWa4qpwRvlQdyDmzUyjUhCJBNVSMvN4JfTeUCM8Cad/w5Fuz0o/4S4rRKFxUAKMXHDHsQbEiSFYKhMCSoTdnY3lwDSEwTNUwQOm8YzyTPT93Pu8bw7L7xBswIwQ/5IIkvcvEdgWh+E8JBMBIhhDYFKpU7JvTQF7mi/NVAQfUofm8BESlnws40yWKZ3m3KbU51cV20PCSMhSD5e9NO035Lc9Etus+LnOjQkmspG2kvgJkofH3Fc6MfiY8USTcoOX5tym9HR4kb0Q7tcb4jUOrdF2n9yE5u8VZ5vwKNu9I9v1OPrfRIZTMhyNp4kSyz9J3espqQXKnnpP679+zr/RPnFt3Wa9rCsH1p19+ka4v5VmAW3BTdh4Xa74FjzbLQf9hX5w8IYARA/S/+doRLNyTMn0p+XQTY/7NfrhoN6vfYTen44GEkOzg0Hu6Tvmhv0vzzodW9SnjftX1r+0gMLi9sXVkd3ab/cp75+SIbG3rmNGxY3XXbBeLBpQ6XjxJ2pVnS1f6hGHKC0teCohQ7BpwyflFwezicNHkv5Pskf23eM4rVnbWVC0E+7iTNx/OEdd/qMfPXW06uP3HW3R89XP/P0OY0cp2kUuVDeF0u/WAPm+Tqhn6GkQ0ZNZqgSLgFolOky6owVh1EHhmouAwRBQh4QogivWQmYkkDM/EMzu/Vg3NIOZ5aY3WhmohrxGMj545+ffAASbp1CGNz1Q5IoI6Vt8kAcP35ymAEJJMGICaKCpCCrIKwweIJwyNNIeUQ7gtBpexa3v90HKX67H3Jbm7pkLeSw9q9rQD1d30SYuLMBpX8bVSYylv+XNfNf6hw8eNBiEhNJ0S6ukTOjHCSDCHJXbZyPl7xN0JE/VfHsU/HCUAhDiDbGfk6zU4yt4IZoW6o3dXK90dQPcb+G223wnxvITwpzQArDOaujBP3RrxJmxyZ61cW6LY5JWmnyJg/6z3WRTqsRuU42TBD6MgkvUPJM3+/yjzDIPs/6kWgXBla0y3VFOH5ymRK73UJOq/SneubZf5wj4Y/l/4q3+PEZX8/8daLXkoncFSe9tnf7ygBu9oxfMtT5OdQ5iYjkte8w8GzI7dP+ul3lfF5JPqXj54uq/PbXv//q/XTRo+EPvu913aU77+2ODiz2JqsrGhk4+DoTVXGszbw9oPO2z91BwwqOMjyVKwAs4XNnKUBfL/mEhC/9/Z7kLyWfkuyQPBY2SkjzfPuOWYigOyLrqad6zVlbE3OEMnhwuFMtSw5IFiVLirsqIVwns0URw6iPQYwvlfI0gAfxOpZumVkyUNqtcXSscURuJA+kik96yNMzrUbwK3wc4sFexUSBLQ1UlRgekye5jEO8U0QKz/gQD6ghcWNaEHNsE4k1YeEOYoPgpmTnJwQ8s9dsl1m+Zvvr1s1L1nXWrV9vmV8nmV/XmZub95vwmCVDmjHrzysSs/VBwiiQW4OnyUyjqVRDbNM2unNmne64jAic/qak0x//ut0mArUzGXF5ZcRh7od2HVPfpDTNKkAW+kkSKxgYbypE9fIxkCURvkkVSeGx7yXpmMh+A52cs6CALKlN1kH0FvVbs//tzuEpVSqT49dkLmLPs3hm9HHfBLN8bu6LFYFVZvpe6tdMn5spZ8hfbt9gGUYABoUcKkf2s6SZ0atwGyqQuoX+lV/E7Yk1buqo0y+LPF420GmJ5UCmq0lGCuYRvnjET/n7pT6IMrERkAQ3BoD2V639tSS9bzgY7Fk3N9y3ZdOGA+edfaa/6vdYmKyO6s5wOKkGA00Kulg6ydrp1D/w+TvrQv5HL3zefA0wL3mBhGV/ZvrcGLgWuK/g0nAee3jtWdsYeXs6D9N+YnjrjD+yY/bGnNecsZWXfW1R3Gdpj75Eg8vLpC+Wf5vIZhMjD0vUGokgJa8zajvfAczDssZSxdAPxGYCGA5qL4sPB5XvpocwIAQNOCa4NOCZ5FoS4dIqL8IgyYhnoS5JAqGzN4fHLDr8LodBXzqXkWejjhMJHG6nJJMOhkq+8zxm/lNDxkREetdNeZsoIcQgTfsdltqsOBl5B7h+TR6pbq5Uro/qERE9SzVS0SAIE1fUNfxBomzI7YiX0ASh+fr/wcXOwcXF5vo/6SjPb73T/st37NM+DLS88oGBR37Epa2s+OQnJ2w0IAqHXKdtcfX8k+vjekoancK0sYnj+CQzwhXhdiWVdSiVaOIPgqceGHi4M7FG3cI4kJCO8lJdfGd+Q+BJaLe0X2iV/I6rPmme7yc94ckfj/S1yJ8zT+XA3d7f/os6uPJpWwPiSKKuqqVm+z7GZDGoPZr50yZm/51ae4lZfz1QF2rmD+F3BzqDpHt85CcRPdf6J3Mi+zkMVlYBhv0u5K99uKD9fo+MuZtkyF05GPa/sHHdupvO23bGAw89vH/1d/70z6v1OvguPPuMzus+9uVWJaf4ve97fbV6/4Od1Yf3VLWOLXbU26++Z824BUcP4vj92mKr5Kcl32vf4fhhya+G89jCa87ijb68yTPGEEE/1fgj23dqpJ3iG7aeXo273fUaZc7SQPMCJXqp9uxlinuu/CfBXCZMDZ4evTQA+eO/HtZkXGASMB4Jng0y2IgQfNf7YKCJQV4eTjNC5WOCTnkyKOfBOQY5uW0AQKKETQl0Sioh/IH4JYhw/okf/hlDw6SAP6cnUcTD7fQJmagaYWXDqxkirRSHVM5b9ez1aQekHwZAbm+UG+WBTHDk4RD9uH3UIcUL7R2Wk8lDVyvE/6GpizcdUld5CbRgEEDcGAB+AsDXq+NGQJb/uTRAGuoY9Y4ZPX2V8w7yF8FBZvJTP+qcb/qMSz1TY8d97IpTkahK1CXVhzom8aoQR5LCc5xDodCpthONI8JDcRD6YE/lU484tiBMGwIIdVecQ8nfRp7Jm9k/Mp3NZ/Jnm5fzFT8bRCb+nEe+VCTyJy46DABm/bEvXb7r510soT9D5+bIr70trXPNNQ0DIJb8m3bYAOAEZ+kfA6Bmtj9UEQOdipIu7/fXzH8k8l/VfloV8Y/mBv2JjIB6OBxwQ9+y9tse9dE92udfktyg8/aGE7dsuv3sV1++q/rHPzZ663yn+vWlXLOCgik4Ro8UQPI/FM4ZbJecE85jC6+SAaAdxCiuaTTOuA/gI9t3zBgA4FVnnDHQqPJMOS+RvEjRL9XufbbkVI00GxixMgFrREq3+GjI5n4jlSG3NplAapGCDACvAlTDwTAMAPlNiCII5wPhQRRJbACY7BnccEMkYQBkEnUalYHoJzVJOh2GEZzdUYYH2lReEFMKc2QiRjocDmIb3oQgpxjcIShfuuDPw2HkHfVVGxJ5hoQR4G2SXK8gQCSRNMGUyx9lJ/HoD5rKpPSMw/ybMA+XTER5xulw+SGrkQjJy9mIl7R5XI0ZLS+eEcfor2mH+inXOeeZDQDANtoVBk9L3N5oQyDq4Dq7Prl+0smvH/69PRwpadN2giKwiWN/imh/7kMOeP7SfmkMgES87K8U18lzXWifCTvIv3mMLxkBM7N/iV9wpXLDKFTtUj5hFMhIaAyAvALAKZcsZdXB/aQquM/N76m5qpM1h0AjjsBTN0H4tEFaotb52r+FZVBkqIhDNZzP/PaVTgbAovbNPpH7Xp2X++eG/cW5ueHy3GCwJIPggAyAvarPg9rndyveHcPBYOdJWzbde9Y/+ob91Tf80Pgfq9Ivv+j0zhknH1/ZgEyPjK6MRvWIvpPR866bd6WdUXAsgXtPjhTwBMBbJbwroI3jJX8iedC+Ywg79uztnH38cYyKDC8aK6zrHXv2+GR91VlnV2cdd3wlf2fHvn2Ts447TuNHtdFSVesUhTfAMEYxenHNEVqJG3tYA4gXjHVlBGiEas5/cZdmKySTmAwo16MaCfnx/zRFAlGiOKdIOvz85zhO1zgypp4g3JSXiYzBllxwe4PT2+10aJC0wwM5PunR2QgK40SEx6zXkmb9aRncs2FEYY5L2pa4/JRX5Kc6ut6pnPyX3DM4tOMAHQsRJWm7g6CYpSaBtGwguCjVLYjcM3nV2bP/Vn0aUTFowrn273aleOQR8agLxafyVU7c70HZIsikZ8k/19cN8f9jookTDtfNQl1EsGmfp5lyU38XgrhOqocJO8g9vychEz/P89sPkSdDAGL30wFKk4k91sJok9xc/k6rAn5REdsl1JNLONQlLd9LwjCJunLcxipFEDz7JAyFpFn6T24RuyL0ZdUyyxfJx1K/3CL/7lA7BBkg2k/9bveg0twv2aF8btMxeYv29c0yBm6UkX6zDPYvKXyHBoi7tS8e0H7Z063rg6dUk9X/7YOfr9/xorO7x29c39OO640l2n9IdzxObwNV0153wlznbx9eoocLjiEcSQbASHKG5CX2zeIWyefCeWzh7OOxfzwsM1kAk2wAnLVFxoGwY+8elPzHa3ru+yvmlSTtW97j3VkVq/MqT7l9w5EGurqnQbyvwZ3HftLA6omrZywq0drEmcbmZqCXx7/Jz8AYcLSobaRr6VARU56cRHC+CQz0yRV/8pt8/efgBtSBlK3kM8h5oXE5DwbrRHr5BjgMAUgzGwHejl9CfKdPktEOO0zYHtFajgTXVfVWpacC8YRbP/w3fpOtJF6wA/kmgwDRH6VR5nQmD+FE+6KtjuE47sem/amd+HMb9efakbeJn3pF+SbIlpgUU+fzh7YYrUa32+/tOd40LlFCgjip59QAkHY8gXQi50zQntFD6qyCsOSfiL49+7eY+CNuk4a+tNAeafaB+zf55Q4DQK3TNo5x6ug6JTGZ252NAOobYdoH3FTjfYGI8CF9ZvQQfszubQR0LLzON838LSz9D5URNxEqnwXJnZJbtelG5XfDoN+/aTg39+W5ubmdmvHfozzvl1Xz8Gg82reyunJgvLq88sCd99YvPW6+UtyeDAlFqfxmYbWxyyUcSeVLIDqgWGF702mbOh94oPkoYMExgCPJAAAsYX9LOGfwRcnfh/PYwlnHH+9xR4IGk7OO3+LVAYj/TBkBOxsD4DjiDcTirChqtDT585avRYWh8ZPPQAPBUNLXCCeqZ1BWaAAjgOVKL1lCGUqiOInn9QNBRPyZdC1QBMnC12jBSZ1HuDMgkaCgSNdoyEnbD5WMdh6g8aZqN3FxN6LB2kQP+eNOhoAJUduTu4mfssggTD/8T+MgbEsCsl4L0QcSyLRlALSlTbjTmb9E2xTB+eQ65LZgCLjPLFEvt4k/2u12Za00KV6ubWSdjAwbAdQlyoQk9ePt7mi7I9HUCEx4hMb7Ojpafyq5qR8yJcvQFsdUfMrK/WBClxa5Q+ZB9NOZf/MSH0Qkngk/yD/60SsA5Jdu8svicMdBkqGjsn0CqCJB+Inkk+RViiZs2gbfWSu3yZ5Zfib/EJ7x5xv+vvEP4u9o5s8d/jVapE3aWsIb/nYo75uU1Q3K5lYZq3fMb9h4//yG9XtkIywovwXtg4MyfpZWRP7rq9H4hnv3dFYn3COoo107XFVRFN/6q2ZNZN/IrPRXQbV3BfbPBx9aRBUcI3iE0/RrhhdKPh/OGfCGwO8P57GFV519NvsIYs/Gmp9D+uj26VcBM151xll9BW4Ra58kfYoSnqJdfLL28snK4RTpZ2oI2Kptpyn6iTrt12koYECQV7GZ9XersYYLXjs87nOHsUaaHn9iGIVrQEvk6dkmRMnMObmzztu8XcM8aawpIwZ9rmh44JTgRyAj4lkgJm8nj2mcLFTXHRBZpnD8s/EYrDOcTglcF7bnfF1O1LNJZ/fUP81lLbgmM8ghM1r97D8RCuRjQoP8cesPrsnbZgTCMvGJoNLs1Ol55JJ91yJfagrJYsWhAfvXoj//2x/bDDz4rRwhyJ0/b4sl8DhO0nYgnVwqNbsS1GdtZB9Jc1yiqOtT/8a+Mrmq7yFS0rgt1AXjJ92c5/a3SLoxjuSHwPMs38aB48rtbWEANJcx6EOEdiQJo4a+zdvy7L/2cZjrh1uknAifcIdxk18YBYgCIg1hcRJPBYOCewrYVttiHyqNiV8JMAxkNJDXivLYoT76rLwfl/6cNt32XZ/a+ZhT9V++bFu1Ydjrz+kUHg76OoEr2jxZHY0nKysrk6Wl5RpZXVn1Ewqcxz92a6wuFhwbONJWAB6W/GQ4Z3C1hPcJHHPgGj+6dVYyHNU798Ssv40zNx7neIqgYcxL/ssauZYkzP411ecG43qT3Fu0faMiD4nMkEwhGlj4YdY/lpvPhzLyM/7xZjDuF9A4yACpUIRU1jiVComcIizB0Z0uJM8mPbCTGf9oIVLm35wPeSenkNMYKVw5hSMj1cfa3vDbuEA868eNoZK0wnO8kJSOHOL/kO3IbNgU0U/tWuX2R7vxRx94lg0hKdBL/ImYgtyS4HZ8rATnrhxVpnOOsjWGRwh1STpt5Sd5I6wVEDrlmQmRCjb1Tf6IhAahySHnCOx3+Xmb6uXf9Mc2sV4m+yxBpMyce2n2nNJxNFKnTORIa5Yf7mm4w1I8DAKnQ7LhhBGQ85K2QZDixJI/OvdzuvNfbVX1pvWU2K0t1FFuLpXV8vN4HzftMWs3gQ/E3n5vv+Jzh39oCD6e7Scv3wCYw5XGgrtXTdQn+9QXd0u+JHPiFpWzfdhbffi/3bE/74hHxOtP2xIrCDq++32/DlyNqrgHSIfSZLK4uFS/8+Zd9Yf3rHT+bvdK50PlHoBjDpyjRxJ4JPDOcM7gFyT/aziPPbzyrFgFaA29k0/s2H7YAPCKk85iFGJcGkjm625nnUaojRpLTpL/DI1Rz5Wb7zU8T4m3aTBfTyYM+9quMjxAs/S/qhkB7xZnUNYY0pPwtsCe/hSWZvpcM+fdALi5Ac3hklgh0NCYZ+9Kw8DPKIryTzPb1wCatjtv8vXKQSJkx4l4Jg9nEHnYyRTKWU+3I07T9qObvNRFqVxmbvpRnMgT+Df9NKsAdkc5s2jvBshSv5AmvkSWU522QejSQe6QE4QTRpHDmdknIsIgiBlrigc5kYcz83/8ZId1gsMjIGqEY1o3ZxE/Lj8ME4gvhSXBHbN2BGTdRpBk6jgjXPRcoOk6aUJ997y87Bv2g4k17TfvVoqmD0TWsaS/4u/ur0qb7FkFyCsBqW/op3hEcRpG/3GtmxWAUTIOvDJgIU1qs8uMOkWbXVXX23XimIHo8Xu2b3+EiVxF0hORbZA/J45PnqqneH6dL22Kdrk/vRaPVljdvOhH+UlzyQBD4oCM1PvkvVlypeRzKuP6LZsH97/2r2+Z/Ok3XNjlpVWbN66r+8rzpX/8icN2zC+df2p1wgmbOvNzgwpDQMXU/8OHrl9rBxYcg+D4PpLwIslaN/v9W8nPhfPYw9efeRb7KSYjaai6YufhjwKCy088UzzHSNXpTroaW/qTOY0/x2lc2aZx6gJF4QVMvGHxOZJNaSQYK2eXIXDzn/ysAnjQ05jT1RimXBmcexroer1aRM87A6pef+B3B8waBckAQDKBKi0lyJl/YrA/RJxHkhwWxA0BkwHJk05hOf/sdly6IPsxNhwu7bpN80bccmCtNPYkUH/+okjnhyfHEUXyk1yZNGMnxTb/tsKlISZpiAeyQjdCeCK0TE6Qct6uCE7rrKPYwGF6GsFlOjABf1sS8WcjgO05XUCElcLCEFgDqX+ajpEjO+ky61DW3i/S3kdo7QcTag4jEW1XX/gGP4h/hbf6xTv68cdMf0rk0a9yu12pPakPEUgfA2D63f41DIAk1ENVYP1B9XGdfENsaPzpFb4RDvnXOmYnA50bAzG3yBbpD2QDcPddX/2GwaN8o5IS9elKt1OvSkbkqWQYDNz9LyOiWlYWuyTc/HeLbInrVc4Ng1739s3zvd2v/JtbRv/vay6sNm3e2HnTX3zmEXZKQcGjg2P9SMK/kfxsOGfwrZJj8hJAxsuTEYBbZ3v9yZ2z9wC88lnbPJJ+7EuHv7bz8jO2bhRBnqrN52vM4j4LnrS4SHKaIscxoF8y0FhFeo30flUpfvGp6BQS1cAkGdkIkAHArQEifPFpTyPXGgaABvVMzIymkV8URhjbMglnyeSPHLoNUk918ggdBkBru8Jt+zg8xNuSAeAl//x8f8o/xwMa7RsiyPD2VF/7I9BhQBSjJEoD6SS3/+AUR0hhjXj91W6I5zADIM1W7W4MANIFoZEBeTTAnf1t7XixsYmfHArxtiD+7I5yGgMjMnF8dBgAtD+HTRF9Yqd1OFMPNf5ZjbBPsm6ktV2Nj6V6zfZXV0adVZ5fxwCQjuV/SDzfxEf/wKuqP3V0m6ItXnGRjBRnagAgSpfbHQnZtVEntdiHm1hb9QrSd1jU0f4wAiwiaJbaa97VH6/n9QpAb6ADTrN7HskZ96p6VWfXspItqbiD6tMDVT05KANghbwgf5E9S24jGQHc+f+Q5C7Jdsntyu9OhT+wYdhdeOUHb+GGXuPPXn1+nH8691iJixd3sSrX67z8jz52+A47dsC3ab5Hwj1PfA75fskfSfhuTYHAsX4k4eOSV4SzATe78G2AYxpft80GgBB38X7qzinRv/JZvDGQlURt7NX1R2+ZfVXwy7Zu1ZjS3aKx6xwJs/8XS3hhEC9Y4jnDGPmsmkOC6R5QUAzOIuyx8lkRebIKUGmw8T2CQldhXgnQfCe9LtjxreWI/FPWLoP8yDeRdxbycD5d9DQ8ZvShZyXFUVzVItUzhPgOc3iOk/LPkuoB+bvTggesAdv8J22/f0FQoclDLvNHInaCHN5yt8WzfCQREzK9Ma1lAEjaJK2fpKP8BjnMFszU77jhSMGH5MVfDmsbF/yEI7UShM7+VulGE8/9mZyhZuK2wxATvhJod3lfcJ3LcWg/xG4DoLUCYCMgLgHk6/zNNXz6K9U9t8N/0u5j4toAiJUD+dVsNVzbgMpVD3LXgbTrlGb4qqTq5xOM1oXORoDiyaETTAZArzPs+4M9lYwAnuHXqVDxUR+Rf7XUresFkf0eVWiXZDciA2C/sl7uVR1WEXR8+v6BZRkDC9KsADzQ7VX3y/2AZPdcv3vg+Pneyov/+qbJr7/43GrjsFupPJkZPh9N/hJu/ec4590Dk8v/8KNp5xwz4LYKVoz/F/tm8V8kPxjOgiPpJsD/TfIvwzmDP01yTGNbeuafwaxN/q86T4bBRGOTb9TTuDTmBsG93vYKGQ1nHnd8NV4d1BoLRvChgnlBEO8KwE2ejH7M+JlRsOzP+JbGuMwowPYAcbk8wH0CoBkLrTUY6t9oc5GSWpto+ENnOcRPZGv7nYP0oUSY80pQWblcRmWcqhsVSoZAaMLCoMDACGMhDJRI3JBbFCyEDcTmiEKODtZ/1MXLzdTNAmkH2eRZZ/ZPJeI6XO1qb2sTf5Z2u10r/XiNhoo01XSFQrteVk5DW1LKyANRnhEvtqH1k8QxG3F7W8j+2fBpPLT7Ha0fh5Nv1hL3L6L22Z80+5kwkzrkDlmL+Hmhz5jr/o07Xubjm/aSNAZAEnVuaB87CHFC1zz2FtcJdJj6GvxEBqJv4GMmD+mb0HHrOBEZWxRe9TmJpEXYXBeD3Llez812PGtv0pf0eJaf8B75dqsVlbFf3vvVJzvl/rL65WaVfav2Je4d2obcoex2Jvftku06Pu/SaXa/3HtU1sHNw/7qyz5w0+Q/XnZGNdevfCVO21QqolYk8SU51V/5dd5ywZmd375+Z+yDox/fLvkLyZvsOxxXSvhwXYHwVBgAZ0tOlzyZN/W9TsKjfmuBJZx7wnns4s69e0L2BblnnHn8ZsZTCLiXxmEMAI+427Zs8Uj8qbu313fs3Ts+6zhu/rd1TDyeEmB1hQz3KeCgBguNmH4bacTxGCnXFPB6vB/A5C9a1eCjkR6dBnzft62olsyphnKLvxh7LQ5Ncaz0E4QUeioavK1TPGPqonyKpGzXxWEOsl8VVG3TakBjFNBtxADKOxQFJ0npCW9htl5JEvFkImoIPG9rxQ3umcYJyYbCVIehEGmj4FCH63D4l3T4c3/lSC6zJYQnN9oiNG1NDW+MIkuQ97Q/Yhs6h037PPwG5RBXdVODoj8kuGX1uA7Rd4j8kH9+rt/X+4P8x9J+6U8mf/IxqWdJYZLohxTuPJORoFm/wlSReP2ljgATPmQpEmcmj0DoQeyiV7t1sEh7iT4xLn7isNQP6Vchmv07XDNyx5NRUVWLkl2SO9Uvt6hrrpe1fqPKlwFQ75T/Lh2SIvrqHsn96j0ZCt37dFY9oGJ2K/sFZbm8sd8bv+rvbql/8ZLTOeF4e2BPZVBFZW1wfHMvQt3v9yeSmi8Ssi9+69rH8xHWpzXOlPya5H+XnEDAI+ALkmIAJDwVBgCzc+7Sf6XkIcmXJI8XLO1zdz/p1xNwCDAKfj2cBWth23FbNHwlAyAwaQwAbWPgvXNvGA1nH785D988FrhPwmOXfLr5YYVyjUyb+RS5Hw/kviVHbiMNNLk8DTzWMC6PGY7lyC8RcnQS4DABJJkSUYTw4+0pPJyEhH9GWnlNKxeDXKs4b6NS+LOY9JEc7pgglW2CCqEswgIpzxRGKNuDnCFrkUsj+LNEPpnEPZtP23J4jucw6+xOQjqJYR11QIKc2e6Njue4SXBT5whzjOl2B7SkBRM9261B0gqa6bOWzuFoda3KlcNCqVLui9QmEXEi4xl/vJQnCN5L/JB/MgLs98y/lU7ifeV+yn4JZbbJP+VvY0PxtTGWzNRIZugi8iD+ROBJQ+zZAJBbfohdbBzEHzLQGWDit1vCUny4Wc6HmZW6s9SF1Dud26RvVP/cKH1bt67v6daTXarL3kmn2tvpze9XrQ6sTnoLd47mF370qtuX//SuPaM/uWP35L/t3F3/1+2crhpoT9qEcSGjIyQd1/HmTp5G6PVE/oN6bm7oFQx2xG9es91pj1L8iIRZ/2X2PTowAN4XzoLp+fzEcbOEO8oz7pZgYdHJHHV3SfJD6xyN50qeJeEGDXbcI13fZ6nmmyS77StYE5eftQ025smkbACMPrHjDp71NV5+5rbqip1xyeDVZ5/RHdf+RsA6BXAZAKNrswbEZ0jzJcHnSp8vOSeF+TFBIa6JasTU1ENursV7KV3TIV/756mAsWTU6/V9g6ACNQ5qo0YkE4J/lJN05MmvN0S+1spXeaPtbu4B4NpoCpPENXx0hOGPsHTfANuUT7gjjGv/OS6XAAgjL8oNUwCiUp38n1otuK3EcbyotUlUmBJ4kI21yQdxlCYuKqflL1864DLAOJF+3BAY5BY650WKlIl1dCUIo4R/4inABEdUyJ8YKdwufvh1hBQeeTsfe5NOcaY64HJbcfLezFA3pTj2Oi51iRWNNOOnbQrLZUYbcEvoQ4RVAK7TJ22/VwjS9pSfJRF8e1+EYRbuaRobBy5I+zNu4NOMmePLx5gObv4C3uUYCR60OIjRDmtptvvk43gjjzAYZFR4ZYHVAvpjj+Jfp+iflvvTSne99D1vv2onRvcTws9ceHr3hHX97oah7zXQqcJHvCD+fj2Ym5u8/q8+H517dAMO4Vr/19v3+PD/SPjmTIGg4/BJ41ADYC0sSJhpPt6v+t0o4bIAxkPBo+BlMgDE/B6H5OWkn7QNgDZeKWNAERm3fLFfAyLueQ2K3Ah4hka18yWXyn+h/OcosxO9nfFOBXhUZEBDT40ASJZlx5ENgEEfrU3cAI0RgJXgxOlo80/ih5SXahHEH/ma6BUeA3P4HYaGzE3smcxDT4U0h4YzOEdYI+QhrRKjbkDcEHQoOJityg9NHIQ4jgfXBnE3RJM0FJNycdxwRNhhaZOePg2QDQDySWVJDGv8VlQxhUW+3KHRjjtjAKRgJyIg+9lulQJyZMdpuYGUy3RY6Mq3hbRAN6HYrnS5/iZv2qQZvokYId+UjwLpFAVJYyRA6Czbp6X7PHvPQvowkKLPDzUA3I9NmRFGXNctkb+Pix7X6Dk2vKzv/WwTAFdqC4evRT7COGmyztu8FMbxmnRflhH5sE3/9+rni9Ifl3yyV3dunqs7u95yzU63/t2XnFF163GnW486P3TdAw774xc9U5n53PIx/E8+cZvD2/jZS8+oTlvfq3h7IAaIDAAZ4v3Ot/3dDYfFPQrBqvFaN/llMLl8dzhncMy+VXYt6Hh80vgzybeF8ynBeyXsoPvsK3hUfJ1InTFGYmIXGB7rPOvPePnZp2uQqTof33HXTPgrT3tGNR7055QFRsCzpC/TUXGZssCo4+NMhK9TCYxncsZqgEWjZpBtr+72u2MNVBgAaAYung+0AQDRamRM00XnQZVDO59EstJTQ4CwTNhswwBQmMrLBgCDI9tniN7SCk/xpwZA5IWbslKbAtmZahd1iLpkgbToQBM37hnSgZDYzh7wvwHPhU7bvW1qABz6KGCTp+NKH5IZ6d2V/ONxcPi99yMgNJDbTWsF5aYCB+cf5xPlRh45jO14c5g9InrFy8j9Fj7HNfGm9sQyfxg4kLIcifTJL4njhwFgGYXf7WIb5foIj3R5JSD6i7ipHPy5rLQdUDfImuMgCDOODa8wNfuZk4ljI04qawVLon3WysNujpE4vGMloJooH99XoE18aOOAgu+QXCX5pOSz3cnktrdde2cz+3/3JVt1btIfo84PJwOg4FHxP0l+O5yHgfsA3iFhErRWX/6m5PvCWaDj8UmDWf0vSp6sEcBNhP9ZwtMABV8BXiEjQMr7kqGxTf6vOPMMwj22SXvIvWLHnfXXbdtaffKOqTEg/1xV13yM6QKNahcrNpcCuMHzVAlGwAaFDz3kKacYKBkVE7H2upNun8cDZQDwGKBYVwTMD6YDRoOmXxZlxdhph+rlkZV/EzOhoRlYY1AmfzZwQ1OUFaSeDYDsZxAP8k9+4hDmAZ63/+F3ecouGwBUR5Aj3KFdH0k2RrKAIOZsAKCnJKOgANvsyIvkpCFY8Zp0SZQuGwHTfCJf5yNxYmcT+fjH/7EtwiLctcw6oe12G5ML5Pi5XRwlTZlIKmPW70T2z+Y9bTHb2gTcGACWCEccj3wzyROWZvDqGIe5XMoi6xS/ERsEUWf3nfM2+au7XbY2+c17HGc6DLhC5Wv+6ZiRJGMwJHpIIXab+LNWSSHc5+JZPnqkQ3yko3SsQ3SidAr3PTGLisL9Ndzod4OEVYBr+5PxXd9/7V0rv3TZmdW7ropVgEfD775wKydIqg863hr4HZ8+/Hsgxwh+RfLD4WzA5+TfKeG18Rlr9Q+GAzeWFwg6Hp8yPE/CIxhct+c5c24meyzw6amPSv4wScETxCvO5F0AoO58IhkAIn/GCi4N5Dv/sYpXP7HzTo2os7j8zK3dajKB6M/WKHOeNPdpnCXBKDhVQ89JCj9eA9AG+T0QKUfuB2Dt1KQrI6BGTML9frwXQLMsReHRwZHS2ACQpk6MuEyaNCAzLCtcg7E3Q9QMdHlQdniQsaVF/F4JYBC3P8jeuhXusGQARH6uQ0gaVOmdHEbZHnCTvx1fPzTfJNUQjoko+725GXpCaTu/jgexEy+5ISiMApGW3fZP80P0E5LywB3aQeGGBA3VU/5US7cv/u1qYeonfpQVZdKImXIoKLslJniCU7iv4bcQBkBsc77p1cY2AJolfZURJB350h9yN1p1oR4VBgDb9U++rrOzTvUhfrss8qNzCZdlILe6Vx75SKujQIeGILvUxK99C/nnfU0B7quktVkO+zWz74zUVt7ax7G8og3LcovkO0vSK8kIoJyx/Z0Oz/g/KD+vN98ufWu/7tx+XF0//E+vuaN5kc8j4Tefz93+VMtnmUXAALCBIam/49OPbUAchfgPkvzNGJ4Q+3HJ79s3i7X65nckbwlnAYf3VwsYARAJN5OdkmS/hJv6kKskvPin4ClANgA+sXM6IMgAyOTPo31sZ9BZkQGAIdB5+batGs8mnU/eeY/TfN3W0zbI8QwNMlsVe6uGMh7v5C1az1TiZ2oo0rbuCdo275EIEu9WAxErS/0m2IagvQrQh4R5edBI8VaUBAOAccz1kva4JkgpnUc7uWPUM4FbS6T9xTKvCmjgdlkavYnTljAE0pJuO0xCGkvkp2boL5VF7+SyXF5Oo/ColyOEABFNELWJJmlE20w1jD7y+D/94U7xuPGPdDYEnFcifwwB3BHZcdGR4dQfQbhDhTvK5XdGaA+S/IHkavKjDZBn1CeHocMdIs+U8NO2IHzl2ITnH/KK/NzGQwwA35znMoPsTdrZTV7S5Bmz/lRjflK5qk+uFIGuhvILCyttE9woJeORP+7K1+Fg0e5t7W9F0C95xWOuiq8AzeL9RIsIH4LvLCk8pPJjswvS+5XvAcmi3KvSissb/+pFufd1O/VDis/9TzwFcP+g6jysE+ngG7+4Y/yTF2+tuAt33l2nNlOk2znxh4J4wiCuoaUThYt4KkT5evVBUSbf+Zlj0gBgovmrkv8qwRCQMbYm1uqb35VwCaFA0DFUcLTi5bECgAHgV5FLQ/wrV9wRBsDXnXG6Jlijzmfuvt8nystOP5WPCB2v0fAkeU/W4HeS0p2swwSj4FTJKRIMgE2Kw9i1Qf5NGpnWazgdyK0xSqkgT2bgnqn3xvKPFJ4NAA1rfAbdWsJITEoIV2lj1u87s9H4sztpQXFsBJCapEHWSDYAZvwOkzhv52/RT+N2vZNbeab0EY4/x/cZM+UXnOoiNAO4NzW6iePt4ceBhqOaVQC7gwyzAdCOi86Z2p/coUOFVj3TL1Vlh7tNbZ0EtMuwUIcswZvansg4xZEjaeWT/Jn4syYubJzzd9sy4aelfZ7Lpxxvk0D2iMtslUueQYomZ+cbRdB5xBAR8ivtf0ExsQa8XWEsxXsZjF0paQyA3E8C7wSwcYyor9Cr2raqGNLVsqItKoFIv3NAsiC/yL/aJ7cMgIqZPtuW1OfL3apeVp141S/hvGNjL/FV3MG5TrVyosq7fTTiRRw6GqmWpOaGXKrLiVrzcaCaZf54lwDHsY9/tUtaorJobP1dx6YB8HixVt/8nuRfhbNAx17B0QoZAOxfxj5eEgQfwFKrMgDQxivPOaf62O23+0R56dbTBhozRep+NHOzBpvNSoc+TiMly//Hyb1Feov8CpORUFXP0PCFPk6yTmLS1IgFidaetXS7MgL4wmBXo7lcUyNAUTLRQtDSMcuZKJZ1s93bAMlR0gr3L9rx2oQfRkDjRxL568dlobM/5WU/OtJEOGFZgJkFfjHHMGb7l7HbaLZJguQjTfzzE6Q/E4e/TIgpnHhZZ9gfDqugRaD68UdzrNUGhbpNbM2aqCltLicIP+lGRNDEk9vxU1w5rKf5JJJu/NRJcfRnfztPGwDawj0AyZ8NACTHDQMg8hExMtOVX8YjeTtT550cxPMGtkloO8ZPzOLV7jqRvw46divHnrQTejesKvmi8jsg2a8cIPcD2qZZvoxWEbbSMuvPM36Rvoif5f2q5u1+GAIHVIeDClvuVf7AD+/7X1Z+GAJLasPy26++gxdvNfgZzf6HOkuUBoHzpWy3iOAnEwXWA4X207GLAaBjGWPGLy9SmW78PysGwKNhrb5h1eB/DGeBjqeCoxlfd+ZWDSOMf97XGt+q8RU7p98KeN35F3THo1G1MlrujsarvfFkzCqAJiqSurNOA9u8hhuW/Oc0GKIheWb9Jyiv0zQOnaUR6lyFnSX3iQpjJSBGXBE+butufF2wIfAgbpSJlkFOHp7LZsmVuGgZAn5OWyoiSzAekjOU/sOA8EAZ2jP+7EYopzEAghjlSX6Fuw7hj/ySbol7EFHHxGXlGGHcmcyYUWIUxLN4yA4hrInn3yYujkij+NZT0U9Igl3ZL+2qGKqf/2hSqrc4JeoPu0R4k0aaXDLxujxp11mkHES8hgEQqeyGnK3JT2FV6g/YeKbuzOTpg0z+ucx8/d/h021NeVIqwxmE1lHYroD+o2waRvPkV3PVZkm0XQdK8yge1/rZvfLjJS0FLelnr6yAh1XEgyHVLm3mJVkHFXdVwjV/GQLTJX9ls08ZiPzrAwrzPQCKv6yjaCQDYCJrGyZXoyTjevL2q7dT7xn8vAwAGSY2AORVEW6WG6YsZADUkzmF+nimLToPkH/xudmnewoeFWv1FfcKrPXK+WMSnAsFRzG+btvpGj/91lP56s6n77xfY17gWy56vol/dXWluzpa6Yr8u+N6LLZmlbEzUPS+hrCeBneNdQzIjKZd3oo61+1VmzQynabh9FkaVi/QGHWBYpypdKwEzGkbY6+Jx0OuBmO5JSbbgMLxM8BB9ArJBkAif/tN4MRWPFImlX6dR6RPhgRp5KWc0JaGEAlPB37jT2Hkpb+2IRBx0O4y6ximY2xB2c9fCofMGgMgh0mMKNhO8tYGO5s4SezXH/8z8HY7Ui7UOH6taSt1bhkAsT0LeSs1pEsZXJd3XUOYkYcBAD8qIm60C1WZTpx0rgN+tRXtOqcwS8on8kePU/4prG0AqB4YC8TXfJ8APMkAIBMy9z8E61bqJ/aa/nHEQSJDEOF40M6z1v6lPziSyEs/mvnXe5XrveO63iEjALlTxd+vrPcqy0XFH/Ur39A3UtYrShorAZ3qoPJbUhHLir/6Y1+49TFv6PvVy870jS9vT3f9/6IMACllbQPAlaJemJbaH/WPXRfn6W9ddiqmjSJ2O2/54t1OW/C4sVZ//YHkX4SzgIOw4BjAC047vuJRs6vvj9cEg2+96PndpZXFSjN/zf5H1Wgy6ogOmGoxlvY0HHU9e9OIpI2azXQmVdzgx0fLhyJWZvxn6SiKRwc71bM1kj1T/nhaoKqGjL+ZQKU1lkG2yh0/xGtk8qfgWUMhkTlC3ByfH+fDoK5A0kwUjUsGiqv64SCm47TJ33n4wEfDDBEefsRlOR29ZMrE0YBh2n/oNGw3fvWXl/chtWwERCr/uuRUjstHnJ4ozszxyCs5ZjXAKX9UL7VFf6p1tE/1d3ubvxQXrbRRT+oG4aeZeJbWNpdJOYQ5LRLhacYa+UorQdLZH2JSR6sffCzVswZAHF9RbiZ/tC1WV4YAZsXWsZ1Wi8KjCzkaErkj+tH+Nun77n5rdrOOLdIpTspkWfoBFfVlZX29anWDDIHbR5POfQpbUNYrIn8MgFFfZ4GyVWV9cozqTnfUk1m8br5fv+2T17tCTwQYAaoNFUJH+1S3d14bN+UWPGms1Y/FAGiBg6/gGMBFJ2+uGOxvePhAc1J8y4WXdZdlAHAjIJ9KXa2Z/7P6bhrhvgHACD2uV1Ynn7r7AQbBBl//vLPnlIinO87WocSLg85Tum06qrg04McGJZuV3zqFaQyN4Q49Q8Y2AGRcaJCWjzAFGSgP4iZxiJm/Jp1FbOHVgpG2x+wf2veDXiRPxEB5xDfhS6uyaG2QbtclS9oumHvQ/MltadyxfcafCA0hwBpQnOtPHVKZrknk7cQJTZpDNAROCrY7JXWVcr657qmfaLfjkLadj4Q6Hkb+ud7SOV6e6Wc3BoB1DmvyzGmmZSCNAYDfBB/lZOK3bsVHXKb+JbGRMuWg7Qp00bRU3ef2xv5N4pm+j4AZA8B95PjkYSwp47uU19XK7rOqyVXjurpNgbsWJprpT+rxOh3z/+FLj32N/RcuO1clUqOYzvdUUa67vf3KuLem4GuGtfqfx83/eTgLpqdDwTGHN55/EZcAPLli4fHvb7+t/rrztmnKzvxJ4xgDaK87GQ4Hk7+5+kaNkYfjVRc+a26yMj5BeZyuw4l1zdM1EPLIICsB2zRAn6HwZyhsk0dtRkkPlpCgtEqSHulHloc3abw2ecPeJn2TeHI7HX+RzjN/ObhkMNIgzA2HvIBdDej14QGFN+QAMcZAHYc96WEFaeBwJLYxeoTbTAQPJRF1emixm7AcS279xLaIEGEJyj3KcDuiTdMS4jfS2WMdBJw8QpBggLRZ+HWeVJwy/Je3KVGLaIPoW6SfpKmv3EHCUVisIAQxI11vi/j6sXa9Wv6pkPchfulYEUh5yO16pjiRl4UKNeUToG20MPpRmgM17VNWj7wRYy+W/9nf8ju++4JkCTXvILld2X9Gmlf0XqltO/f3hwd/6vM3U9jjxi9c9iwbHJTD43vvuPJLM+n/70u3cZDa/SNXl5v2/gGxVl//keS7w1nQnA4FBRmvee55MJOX7vms6Lr1Gyd/8ZnP1S8+7VQvhDKzYvj95H1xTfLrLzqvP1lc5dODWxTM8j9PBZyhEfHZ0rwg6jxp3ifAEwYMwyJsPxHA0wG8VEUGAM9cd7iBcF5584QARJmv62fy598Du7cjog9pXjTEN939eKDi5msA+nd6DIV8eQFQbaeHISKIvCLDDPjIOpGPyb4hMGlCcTtWTghZtZAzce5rC3AuOa+cRDqIL3mEbACQqi2BlGcKadK6vlFnE7CNAXRIbA/tNGipnB6diT8bAflSgH6a+G0/mnh2Oy7O7J+WZ8EAkJKHmsdMX1GkU/NwpPL9p22xUc2FeFO7FRBGAPs8wu0nvX78T2bxPow9ct4qzQd6Pq6j8cofvmbHvfJ3fvnCM3lmle9lyNeVuSc3ZeiPG/OGikyF3/mFWaJv4+cvjmv+PrxczwiXX7m4DkJdv+OqclPfVxFr9e3/K/ln4SxIh2VBwRTf+LznanirNRM3eU4+eP3hs/+Xbz2juuKu6dMEL9t2up/t7/b4CFB3s6j3mfI/R1lcrIPsIg2BvFnwBOIoDAOAWf+K4i3j1zZNnqqNistjhsM0asoA8JsENXCa2JUMTmdUbcTPeePWD3EwHOB/BWm76k8b5BtLbADQrEgSnqycQYLaH1oKt/8gLhsAmUQJBZHUiVMumZRShGa7w3Anf3AckSI/4FvUwhFpHCuFpRT48zYnbyFiEk6eOKPeMePOxK+wZAg4ksuSOIHy8MWYKIvlbGviWHKatFLg+ITLYT/x2T7VES3cED5pQ3sDGgekHyKPNL2lfaXdJr95Vxl6m36ifuw9fgmzL5G+dzIJia/jjZsPuIZfQ/68n/9+bcYA+ILcn5Fc88PX7PRXS9998bauCL9+17U765+55NyKBxExAn762lnC/9lLz67+bbrD/2cu9Ou4ozZyqWwdsRJVBE0YEdACdSKdOqEjI6CsCnyVsFa//rHku8JZEIdjQUELGABSGrc6fI518ve3frk5kb7xkudWY64dw1IQyOqkXnp4f+czux5q4rz2wvO7k/Hq8Tr/zpT3AsmFGvl4K+QpGg+HOuog4lWN1Lx0BUOAsnjF8AkqmNWDTRooZVBA+gzqzQqAL0lou2f9kjTWMuZro3wifKkwBCRcEoD8uTywIiGdDBBPzjBEnDvxhcQ3nBM0RW1Lv8FZcAduJJGoY4Coo8tV6mm9Jf6LOPEfOsNlBPcljV9RTHPhp1Y5nyC9qd+RU/r03/KnPF3frLNMt5MnbuctJx3q/FWAO9fbcLNdEbJWfpn4rUnncLnlyXHxA/cX7rhLkiUVb45NNnt4XMXPupNcwuX7ft4xrhcbXLdISLh82q8+plQhDELtb17oEy/zGUnD5xD/SOXwyN4eRb9H4bfJfZP09dJflgGwIN35lUvOqsaqwTuv3R6FHIJ/f8FZ3rWUDaTtdBXQ2ob1HAdmxONH/ogQ7cvkjy746mCt/fffJN8ZzoI4HAsKDsE3yQhgnP67m26ZOYlee+F5fjqA8VrCID6ZLI8mH98xXQ0A3/7aF3R33bf3xMmk5oNC50q2aRTkDYNzGj0ZFvOz/kyW1yn8OAlvHDxNIiOgIyOASwEzhM7LhHg+m5e0sOwPkZPWlw2kNfUna0ZfxYeIe11m/itK6zSOxyOOvschrdKSQOdCUBhgfKZxibLcTLVXxBncJQKFTGN8oTT9UF7l57ZdtjWz0Ki/I/p3Oiq5BAt3FaAd6v/Eb05EOjqJfMgKP2WSIBMu4tm8QJ7hR1NXYSJexN2Qv1qi7VFO5EPWMcum3u4YazpJiVO5KW6SJq2c2VAgDmjiOpYjR5385iN3YAToLypn8scIIA22FC/CwwCAOxWWDSy3nsQ02G/ukx+9rI28tY+X8jDL5zo/22QE2ADgzn++wrdb+j5lc6eMmjuU/11yP/CDV9/RfKHv5553TrViG0VCAJ0gKC8Xz66V2/7YYmiTbysJUSHux7RBYW4xbm0uM/+vPtbq3/9P8k/DWdA+eAsKHhWvPO8sCFZEW/U1bnPsMGgzsI6rfq/2a2w1dbritu0eM7/5+c8ZLi+NTlQcvgcB+W+SDGMIZQTtctmAJwR4qyDbT1Omp2sbhgCXC9ZLxKX+nsCSZL/8e0UKvJRF2fJhovpEneUnKEPeXghnKbln/pCwlB8PFDl0IQjqxVDuyxWKCjtrfCaVQFr9YdoEa0rLaxIQgcoho4jH0u1W+R5flJXbYtJvXkRkA0AaA8aZT+HcSR3kXPlteFFk5Cid01Afaud8XI4LNOE6ngQdeal5ducwfhRurkd7u5xokzD5uPG0OjqCDqEcGTMKz0aAZ/+UTVyny9fkw51IO+IpdwpKca1dIf96k8ue6iBEuX05B0jTg7ECEFUM44BjjVf01p0lRYLgD0rzbD7v55dfx0bHr+rlbX3M6HlRz4qy5/W+mv3XB6T3VlW9S/EfUn139+vOXoUvrtSd1QeUs5eIolB3T+otGsWPuz+RPHHaUDtsrVD5TP5ot0+R3d4fubZc9/8Hwlr9/CeS7whnwSHHb0HB2njp6c+oBsMhN9cNNOzljwuJVTS4ssza7U4+duvt9cvPPUsGQHym9Fte9pxq/97VecVheZ8PDaXPCftufeh5XoPiFoVD/jxOeKr8pykKBgAvFOLNg6wSQP77JLvllgFgMp/TaEq6bUrPVwtPVYUwTiiBNBSBcA+Br/8qiGVi85qEBphRW+M42+OS75RRPftP0mUmLfEKCIO5fikpiFKjfnyOGANAWmHaaCFvxSY7JdVPIn0MCvLGL+1KEDNXiNrlfPJb4cgu59hImlTrR3DeFBJeLAAYTDNvEOTvuDCccjWhQfx8M1FuyD/KTUQXpKYEFE3ZJn3ClF/yq3McRz4TIQ5m8172hvsclCWi5GzkjTjZkCAJVXJSXguk2bsckDtv4eNaPcJLLfY7PF7Xu6x+QjP7521+fHwMwl9SQZr92wDAYFAYb/HrLPY69dJcp14dap/fraNq/9hWBx+26FEB1YgqRY/RncpE4czmm34RCCaa+wLCd6cmd09b3nldme1/DbBWn/93CR8TKhA4RgsKHhMvO+O0bq/f64lS+xoBIVqOHQZm3nE++vhtOyBZ45XPfVY1WuX68KgzGGiQhxU73b4Hew2kyqPu9fnOWXdO0TeLO05QMAbAM5TpyYrF7J8PDrFMD9lrxlbtUvxdvW7vgIhJJ3Ylg6LeqjTPleZJg2cpzgkc0tJT0Sgt7YFA+rDjHbJuoNopCu1gVSMYmgprXDf5Z8EAkJmgLSRytiqHdxCEEeDPD8eMXZIHIaIrmbJNZB35xsqC/HCoc9QGn5gh5B3EH6sLhORtUTmYiTTkiZ8CUNLe7O3B/d5GXBVKemrHzL8L6akMWUfpZfmIYtDXalomO89qXTZ52M9KQLC5Lx/IT4vxK4swDhTPynUK4pfD2lGdht7SDzEjjYRfa+2PSmRe81W9u5TuLkXjbTkPyQ/J86GeVcXmwz3ofAnA5C9ZVgGEeyWAeMpj9Yeu3tkcs+Ad522r1vU6vaF24RD7Uc2nldTaXzTGRqOygrZxl6w60G0kmM7t/Lvry+z+CMJa++JPJf9DOAt07BYUPDZeesapVR/Sho2Y8jL0cYLxhJTo5eNf3jF57UXPhsw8KTQHST526+0YCZ1XXHiW5lgaLTWSXnHLjvqbLz2/GnTXdTWqDkeT1c0iwhM1SJ+oqFwO4OVB/kqq3Azku1XcQyLAvbJBVnjKT7lvUsZnqgoXKt4lSne+asR9BjxFwP0AcgathHPtQ53wZpvHer/21W0yk5nPIOhsACTyZ52A2BCAadQGgB9bDMK2AeAByEQG7YoikgEA4RNAfuSN35EhEWqDx9r1C+JPKwAQjnNscoX41deZ8Kckr3yx0SKIwpVyohxY7nc51BJil8mCDYPFJfajvIrHKjHWvN2EZx1lu3xWBCD/tDLAaoB70l0ileJZu7ruDXRTdbeTMPcRdbKfdJE60kLclci+3q4oNyrdzWrODjXnfuWCAcA7+yfqHm74xL2senJJYEVFjNXntMXt6amSb/38Dh+Th+It55xRbepX3fXqgHl1A9eJVAF6c4IBMEq3gCgfGsVWG0U/fUOseBUccVhrv/yZ5J+EsyCdXwUFj42Xn71V3Oaro83IzACpHz5UwqgIP/Q0RqbB3sbB+KM33/aoA+QbL75kbnWyskl0tVkj6gZlxNI/JM5d2wdEcPvGk9He8eri4nGbu5Ph3PHV8mpvnQZl3i3wHFWGpwwwAM6V5jIC9xpws+EQLREnuMKuB8QjOMBNiW2ADdwoyPQ4s5FcELRqZt0IGbGZuGLVrtOIqDEIyJXMnWPOnei+l8DpQyswT6AV1eU5poomH9fNJCzWsValFNYwqDJJ9UBnA8DkjyiaDQDKojkQv3Lx9X6TOXma/FWS3Yn8exWPTYo0VXsIL8VXDDT1Qvt6t1cB6CprqSiDKKGpmqJlHdXFE44UQXmmDlCapKmme5Ll+7u1+Xpt+bwY+Wqx+m0ro/GDq+PJEvZgv9ftSPiE7nh+bjD6/k/fPDO7Xwu/cum2SvZA5x3XTG9g/Vdnn1GdMtftblRH9Gk0dVE/oP/ttYXon2ZYa38VA6AFnVsFBV85Xvnss6uP3brdJ9grn3uOBnrG+rjBTqJx1aM7g/Dqx26JVYBHwpvPv6S7VC0NxSRzYqGBGIcbv9jEu2qXx+PR8sKeXaufvWvXTD6vf+HFXCY4XXHPEWnxRUK/hljC5YST5D9ZmlUFnhQA1AkxIQLF8eCeyuMnzonGlYkLpzkXURhshcNWwlhcxcuM5BfcGe4P0kZ+csckPRkP04mzxH7iaFNmbdcJshfUofoxESs5CQhzxSKZZ/Us6zuZ8netXDhRHc9kpzzMqs5LW1jGbq7360/ED+n7AzgYAnCgdKSRkCyMBfw2ADLxU47qYD/xon6ujxQ/Sbv5hsP8o+zsjV9rfikGB0v52yVfkHxSMa4cj+vb33H1l/ay8efO38blqU5PBsC7rn50Y/Px4F8/98xqI++SVNF07L+5rhD/0xRr7bdiALQQ51lBwZPEq557LlwA+fsmO4hM2s9eZwPgVTIUoIm4Pi6a0Nx3pbfSGR0YdYbjQdUfDrrdAbcZmHFgl0mv3x1/4DPxwZXveO2rq8UDBzrv/czn7H/1pRd2h73uZkU/UXKKUvEOgVN0VD9Tm8+WPkeaGwS5WXBdcGsD6sSd4ZpdVjwrTv3zigGPCgambOXhJJplh369TUaOH0nE2KEAOIu8IHrIj5ykI7aU3RGVbc5DcCB5sDTg/nIE4N+oIAkgWRYBnLn+IyPI12EO59/bLSZvpTeRdzRZhtRrrvXbAFCH+7q/ciNc5dkAkGHg5W7SKdh7Da+Sk08YEdLTMlyfXGZqEnXBEf9Jq6q4M3J8Z5ZAN+ov4j0suVUbP6vNV+gAuWpuMLjzX15xrb+x/wevvLj65x+7dibHX7jgzKqvCsooiDxVIBHcsS0QZtHPu67ZPpNHwdMea+3PYgC0wHhQUPBUgfEVYRndjwfqFJyehBqJTSU67mpWl+u62xfxD+bnOh+/bfvk72+6dSTKXxWVrNTDzurfXnnjKJM/GI/JcoqPXH39ZDyeLNTj+l7NrG8Wz3xB8mlLp/6c9HUSvvZUmcmKAAAe8UlEQVT2gIRHxgy5wQHJQ5K7xbd3aXZ+n2SP/Mts5F6FeqwQ65B4XG+S7gZTmGoWIk6eTHqqQx+ZjCc9i8Is40k3ZNytx2Picg9Bh5vzQsbKViXwqbx6MqI0CnI9XKa6c0I6CXlMRr16POrWo5HylltanSNzSbytuIookpaof5Ge6ifp8AIHWWc85lYPRK4D7Q+ZXEhtLdsrpOoOpQYhQxHpcFB1B/2q6ku4Nu7nN2U0dCV+bzPvwG8MCvUxA4v4t5aW2LhIqwxB7BgPEDPicESBymoqHD9Vh2/w8/THg9rMfSD7+r3usirVHBeKdxh+7Iad9Y9q5v7DV99ev+MqXvkfmU2Us8yNdAzmakbR77707O6vXnb2WtkVFByVKAd7wVOCVz33XI4lJIxKsZjG1MlHbom3CL76/GY7ozvjvVz6YQm+V9V/f/Uth07OHhVvfullJO689zNfbIjgolNPqE7fdvp8r+qdKMLYpiCeDrg4aZ4Y2CIOpGSWlJlVygDo7JOo7HqTNpyqsNMlJ6j+rATkGWiyYvTL3JU/t5C2eAOIUCdxGQSIAhUY4dKNQ0L12eYwHF5FUJeI7QnxTL65AT8Xk2b5oZWKzmabv0BHlmyjh1N4w3KIQsXvzPhF9lWnL9JP1/wdnog4EXaTTl1JM2OWTn7WLksS+dNQaeqkABCLGLQjtLZHV/hHbm9gxYPVF9oc7Y4s9e+7+Zfk4nn+u1SLm1WPa1TP6wbd3nYx9p7v/vh1XgH4tRc9uxqrvOWRDMTc5ZGJQe3pEJpBEwmivt4UwGMhmX7qshpwVGCtfVhWAFrAWC8oeNLY8dDuzlknnZB8vnZdN+T/vGcx0E45JUZktEdgyWT7/fDx48ObXvZ88ZTTV7fedW9zkj+wsNj58t0PjJ699VQ/D64gZtMUARsd1HDwoGSnwm6R/0YlvFl+poe8Fx6jAF6Yk6yXez5VD5gUpCCleJ689otlyLe57CGBvGAg0gUZBtFNYQL3xshcP4mYktMiavYN60yobQQooZLwGMVEJpNn94rnu/llTTmCJOsZURw0M2wMBVVYP9y0ORXfxDmWQTDWbJ63JKU3JflqjMnemjzsZwdinaSGu/xoj8Tl0ZFAUS3hphPF1JXfzreo8AXpPZKHVNyDkgfQioi+X3K3Stou/WXFvU16R6/XvXeu39u7ftBf+ePb73Mhrzv1+Go0XZWh2xFXw0Bh5+RmoOkSqjkV4B2H74P3+bMABU9v/Puk27hJwtsAC4R84BcUfNUgA0D84LE1D7r6ZVzmwUC/x33y4etnP7TyDZf4ewQpmhKKqLoa/YECNZBrQxDw6L2f/uLkzS97Pl8i6vzFJz/vfL71pS8cjDoj3kDINwjOEvNwMyD3JiyIJnbJvVvufQofqWoblNnpcp8vfZH0c7Sdmwk3qhTyW1FciN/Plyt8Re2B+3jaAKsn32QYfI9kyJ19VLjZFlNlWNzBiTD9g1ubw4Cwm1A/vuf0+M1iWZSDrSFr+iykFcfX9hVvIrKf9HvdSb/bk3RH6tFVEf1Ibu78xzaY73WqOSUfpGyoYDBrVA2dSF/uCJ/RQlzb8P7hYgfcPGF6vipPMqBkkPESn7qzV+n2aXf6mX25VxWf+yowEjDaMBBkFHQe0J6/b9DrPbB+ONin7atfemA3azfVULWmVFUydRHvV1CAEH1B35j57XQ4DQlE0qlMfjR94KfgaY+19mNZAWjBJ0NBwVcTreV/cwZhGophDJ2g1eQjNxxC/hf7a4RO46mb2MvM3+U7/7yrxpeeicoS8LIMAJaSOxgBhP/Vp77g/N7wkkt4AyGPCp6ikpjVE3+PaALy5x6AJZ7Lrya9TeKFrSr0ecqVSwZ8wIhLCMeL0SB67h/YLcFw2Kd4yqeel2BgEI+bDP3ugUTw/EQ7EzAMUgBEmMSR0kTas3003SKn6hVshvBjv5fgnVcQWiZ/tP7X0mPF4wU5yyL7ZfXfssj+oIwASe+g3PLLGIjr+5v6VedExT9eaXm1MnWiaMhc5ZJdtCNrWVThp4qqtDQrI5JJXilZ1hbpyaL26UFFoy8PKDmEz9v6wgDoVFzrl1FQkU4GVqwSyM97IBZUwD7VfWE46B6Y6w9W79p1oD64ssqNfjooaC3Vo1qqrAryDRQEaov7Qg4bSQoDjXU1FWBdDICjBmvtx2IAtJDPh4KCrypm7gEwPF7XH7npcPKX0sZsAJj8GwNA3r5fRoABEYS+mA2AN7zoEj8j94HPXeM8v+mFF8hg6G7WsB9kJvKre/W+D3z6WsinwWsuPb837AxOEUfw1ADk/1zJGZLjNIbAGrxshrfQPaAhhTfSKajeIj9PGJwv4auHrAYMTNhTQJy+zq1wCD9I0ZrLCb4cMJTIOKk3yI9RIdJVmVxDJy9J5ip0XIOP2Xea9XPNnhm+35Uvssuaa+or0rxCd1HbD6r/DqgT/EplEeduGQC8WGl5oO4cdrsbRf6nyIo5U3lj1PBWRt8HkRF7zEs5IxXLtfuR/DwqyJ2Kbp/86X37vqQioq95H/+CkrHygmbmnw0ALgHsVxukTfRK64/5LGs7+1bCvQDxsR/Vb3XjXH/8bR+9rv6pZ2/tzsuKGfSqntqkLqAr6aXanxryW4/lJZAt3W7cjMgf0fJyyo9eXR7xO4qx1r4tBkALPhsKCv6hkAyBzkduOvx57Uz+yNQA4AcDQCM9PzyxxpJAGAB8Snj5vZ/6gmeoh+K1Fz23GgwHPNoXj/VVndF4frzyoU9w+X8Wr7/40nWd7uRUbThb4wbEzrsE+FARxOZlaNXoYQ0pi+KOgQjwZMXjUgErBhgMrDRslrASYJKUhuwhOgwIBDKEHJkZa3vNzfMQ/0nKU4Rbn6AwjIBu8BNU5mv9ctvoaGbckL40XzpcFQEzs+eVyUuJ8FlKX1I419kXe2EAHNB2ltp3SR6UEfBQr9fdM+z3V+Z7/cF8t3vcQMQv6+M5SstKCF9w5LJJA4X5c7rSIut6QXvgoOoDOYuwaxsa0t6mCtNWjKX9qjLkz4oLBgEGAMJKgIV0meRVtxW1jHJkVKgfuxg23bo7qep/+dkbmv32E886vVo/7Pf6OiZ6vo1BOcj44VpDeoAjTAB3JgZAxUuC5JMI9OWPlhv9jnastX+LAdBCnA0FBV9jfMOFIv9mgmYDQCpG67gMwFQP7mc5gMHeBgDEzz0A9RtfcqmCnNwaNoCCeX/reDyWc1SP63FnXn/dAQ/JiVGcBSsG107efN6Luqvrljep5GcoE14gxKoBPAFJ8QGa/arNAW1fFekNRdDE4f4CXkN8oYTPHnMpgFkzFYf8WeLmsgHvrEe4jEAYRMkdfXPirBOlz1B+sozqM9XuE+Xu0XxtkxfCz88CatatmbGIfSQDgBk4hMl78PlE8gHpAwpnVs1sGlF452BjALgd1a5JVT2kjtvd6VUL6weD0eb+oL+h29syqKpt6rYLFe9S1ZEnJ3ifAvc30B5ugDyoerBkv1t12UV+qutB1QmjiPsjtH0SM/9YAcAQQB9UcxZFyIuiZVY/4jJBfn9/Ha9frrSrvuezt65pzB2KHz/7mdWmdQOW/yV8y0BmgnYrPTaaTCZ+glOWwE/eVN7Nf5TiGyVcgsPgzjfiHor3JN3GVZJflbDC5JXDQ/B+iV8wdSxA519Bwdcer72QN/rC2zB3gEkgpgAGQK/b5yZADfKisqkBUHMKx5txYlVcidlKRiItsfykGv/FZ+PFQRlvfOGlJv+WAWDH6y64cKhhREZAZ71yYFDhBkHNXP1e+bFoeczT/oPxpC/C26w4XCbgEsAFqiWXD1g10Azey+/MgLmV/EHJA6rQAyqERx32qmQIcyK+Wt+tJ8z8z5OIeOsL1GhWH9ZD/BCl4mHGsGLgmbWMD0heM3vPmDXLF/GLcEV+C9J8Lpmv4zlMGsNgKRkAIuiKmfh+ddl+ZXpQGazMD/uTM+fmq+P7gzn19jMlrGawqkG7eCSS+yjYKVy+kPFSPyz3QzYAeESv9kpANgA0k+d9C0n4ZK8NoXpZ+XIjJR/hYXbPI/le0lAavwv5ez41eyno8eDfP2dbNRTz93VM8FgjTzNgKf3IVbd/xXkVPK1wmeSL4XzK8RnJy8J59EPnX0HB1x42AAT4H7b50LU3P+5B/E0vuUw8aAOAm9bQykbk3+mOZDuM85MBj4VvfN75XGLg/TjcL8DJsfKBa29gpnAY3nTZ+VzvP1EZi7Crc8RmGAM8EcCnkpnZZgPAKwDa/rBkj4hQs+F6WcTfGdbj+V5ncpJ48Dzx4KUKv1S0+GzFP0F5K+uaz9iKTCcQrWbck92Qrhq4oPot2hDIBkAlA0CicjEQmPmztL4svaJGrapBPBq5rMkxsnpyrzf66UOuf//uay7bslTXZ8pAYGVDbfJ7Ebh5Mq9oaPbvmb/EKwEif68ALFWa2VOeZFW214raIuMJwtfsflKNZDqN3/LZx96nv3X5czENYmCiB0K5O/wnj/i+832fuYXggmMTb5f853A+5WDFj2P+mIDPs4KCpyve8KLLKh4MTAaAhYMaA0DBY/kmj2YAvPFFL1DaiTisruqReGpZnDWedLr9fv3B628SXz8y3nTJc5kdywioTlEBJ6pQ/IDZuWbEXv7eL97aN/Gn5ntLY81+V3z9ftI5ubPc69fjDSLcMyd15yLlwaUEVhJOFNP1RXtcW9ese/KwiFYz74lm3TUvxkkkH0aAGs338D0Dl59r/74XQNbQWKQ/kQHAc/68+ncyHo8n775m7W/T/9FrLxvIOjlBU/RT1fDTFOk4BWPQ0A8YABgY+9UuX/+XloHiG/9YqWApn3sSeKxTPM2reeq6Gvfqt1wxfZvjV4r/5yXPUdbYH2EICHZThnZc/f2fLYbAMYjvlfxGOJ9ycImOG3yPCfhkKih4OuONL7lMPOdjGQPAxzREJDKc/MWn45FA8KaX8fZAA1KBUUQjpEmp63oyWVkZf+DquEnwm59/iSazXqWGfGL6KfU3V8fNaG+68Dm9uqq4UXCDAqSrvgSyXO3GXf4ixslKb7Ky9OfX7eCmwMPway9c3/348sknr3a65yoPRLPu+jiVJeK1AbBXGuLfLR7eK83S/mJPs261kbv8V9SAFdEhotl3Z/R7N9295qrFofhJzbY39Pudf/PxIOjff80LsRfmlzr1Rk3ft6gh67zBd1PwaF+Hz+zKuOFGPRO+ZvcyMib98fdecWWK+sj49cufTX+qOfSnWpH3BkFJHwJonlg5ZtaAfq5/4HOP756BgqMK3Gtzm4Sbbp9q/IrkR8J59KN9QhUUPC2BAWD2wAwQ8IgcO3/16elrgt98+fNtHIj4pxryjyfqRDMmbj+u977PXe10r3/hpb7/Lgir0/mbq647jKLe+LzndJVTTxaH7A3+ulgMXN+vu/W4HoyXJv/9+unnZtfCd1105rqRVxEq7iE4TqWlDxfZAFiQeNbdqScx65Zx0RX58tIAzfI9456MupNlMfef3DF9M+ITwR9+4wu7S/V4MK47Q83geeqQHpDX9zVgVPmxQ83zJ12ZOI+H+B8J73nped5fykAtcBA70GEJCle/TtEui/2FYAQ84ToUPK0x85jqUwTudTlm0D7ZCgqOSoj8Oc6Rbib+xgCIcJGov+Y3Qre/L3Ao3vB8bpJP502vW7//87NfoXskvP6yCz37hbEG9UgWw6TzF9fEjW//6KJzuoPOhLcRrlfAvAyAnp9hi5vm4hE7L7N3Vv/7LfdQz0fF91+0TVlF47gposdTFKJWM6YKYFI96Pv7+Z1Bt9dZLxkowq7RpL5mcalz/ob5znPXzVVber3Od33wSpI9Jn7rFReofXJEz6j0+Iv/rCmfCwO4FNPKKXA7pX5SDgYGQPZH7NDOCl1WAAoKnjjaJ1tBwVGHN79Us3gmkbHIL44S8fslezYA4GQoRoSiGW2Xa+bd+q9alw0yvvn5FxMNgVc1CfapM6n7/fEHPnvVYfEPxRtkAEB8H0iXD771kmdXf3nNdOb6HRedaa6mIgTyacCa9wDIEqjGk0m1Utd/uiPeff9E8IOXbKtWRZVwb7/freb6vc6w1614CdDAT1Z2q4Pj8eQLuxcmH7r5zidMqhgCVDI43i53lBpDuPqA9xSp072dDbFfHNWO7HJ4k9zu0Egm/xxeUFDwBBAnWUHBUYo35+v+QdgYANBHJW416cQ/zO4P3nfe+5kg89ddJsJXmsRMShzEnwwAbXB+zMbHntZO0sQ8wn1ikfZ9V9/kDNp48yXxquMcR1L/ZVoNeCx8+/mnOh0PPfuag+sI0FEtwnE43LFpNW/pJaBTDUX66/o9jIBq2OvxGJ3m/1VnZVxPdiwsjv7wuu3NKsPvfNMLqv2rIxrOoxGdt3346vo9r+HSCHliQSmSJPUTDB/FhpY4go2fCPYDmBgEBORkEY2I2ZURz2rOxpIu5F9Q8OThk7Wg4FjBmy6XQcBMGAIThSAfuDKu+YPXPf8inROZSvkxkYn0GwMgzpl8z0BcOqjff+XspYA3XHaB473/qpjxv/6SC5yhlx8g4+Bwx5F7slL1xx9KqwNfCb77/GdW2ZRQBTWPD+KH0Z25f+BpFhMou6oGijUv8l/X73cxAniXPulW63p838Hl1d+46rZHvczwX159CcQd2YvQaUzql7jJL4XbkTg9ET46DAD3PAH+C4SrSZjC9ZtChEL8BQVPHaZnVkFBQTIAYg4tr2gxLfknQwDmE0R/Jv5xp9udvP/z8e2BjDdcypt0I4vYACszW4YsPePPBgXcSRTe8jd+3zVxPfufXHSWogUzmlDNlZHTn914dziEbxf5cy0iKsrrkhriz4ZAbBTIz9ff5R50u531/T4GgFcBeJGOUI/rznjX8sroV6/8UnMJ4D2vvaxa0YaUT8rN3tyWMABom8PlCX+Kap34HxXhfLzXDiKEK9F/8mnz2z4fn5MuKCj46iCf0AUFBQmv4/E/nxoxt0ZL+AIubs4aM5/obvL+K6dPBkyJfyqz1FlXXS49ON+Y6CoxZCtjoh79dbon4B9fdLbSyZlzTtfNkSBdMramniZ+GFwa5ZWApIlgcFMhr8dHhwEw6GwY9FkJ8M2A3arrRZEDo9Hk5z8TL+z5z6+5lM/qkoOzSgKcrYS1fWnXK8Ig+KiqHcTRv3xQv4O4XoLyH5bR257AWwALCgqePPIJXVBQ8Ch446WsDIitxGTvv/rwF9scQv4NYQZ/4sJ8mCQDgCf3DOgSA4DvArAC4Hz/0cXnyOuUaCkJMUPrR+nlZbvvA9AWZvwt4hcbH2YATMaTiWb5E14K1Nk4GHQ2DmUE9PuduV6v5kmBftXrvPNjcQ8EM/9V19XZNO1J4kpZu56qU9TXHysyEsNHxbnpAkfV+b5PHv4hpoKCgq8NOGcLCgqeJGQAZJJskyVzXBhQirf/1bXm2XKJ8zMNKlCeuidi79VjGDPSBpGaW7W9G35HlZ6IaHMhs4Qvg4Cv35FN6MjPM//ReMInkTp/fPNjP03wnzT7V1GRZS4q4Pz04wopUjYCWKYIAyByZ8rfeeuTeAtgQUHBVxf5pC4oKHiCWGvpX2Jo7ssquv55XxDP+a10ujwxwHV10ehf3hjL39920blB1enegJYB0PKzSI8O0o0NvJinMQDkll+x/utNj/7yocfC//3qS1k8iCJC2sgGgFpHnQip6x/8xOEvSiooKDhyceiJXVBQ8ATwhkvOFxfnBfcpxIh1frXwY+HbLpYRMDUAyEuac5RcYH4bANogt/4j8nQFgAQ9/f7BjU+O/MGvvor3JzjLQ+G8vQFXPen80Mce38uQCgoKjiysdYIXFBQ8AWAEvP+aw5/7/0rwbRefc6gBAET4In8ZAFxLZ8OfPgUk/2iwASC846PTRyQLCgqOLhQDoKDgCIOMgGwAmPpDTzp/fsPaX/ErKCgoKCgoKCgoKCgoKCgoKCgoKCgoKCgoKCgoKCgoKCgoKCgoKCgoKCgoKCgoKCgoKCgoKCgoKCgoKCgoKCgoKCgoKCgoKCgoKCgoKCgoKCgoKCgoKCgoKCgoKCgoKCgoKCgoKCgoKCgoKCgoKCgoKCgoKCgoKCgoKCgoKCgoKCgoKHhqUCVdUFDwNMbGjRufK/WaqqpeK/1syXF1XR8v/7z0gvQB6S9If1HbPrh///5PSxcUFBzDKAZAQcHTGJs3b/5nIvbvk/NVEfK4cZPS/eTCwsKfJX9BQcExhmIAFBQ8DbF+/frLut3ur2lG/5IU9BWDFQEZAC9M3oKCgmMM3aQLCgqeJti0adNber3eF58M+SeclHRBQcExiLICUFDwNMKGDRtepZn/R5L3MDCrl/p76Z2Kd4f0QP4Tk1wuebUMh43SxN2xsLBwNu6CgoJjD8UAKCh4muD444/fNhqNPinn1giZwZ9Ifnn//v2fCe8jY/Pmza8T+b9GziXF/+kILSgoONZQDICCgqcJNm3a9HGpV4RvBj8qIn93chcUFBQ8LpR7AAoKngbYuHHjL0sdRv6ayX9vIf+CgoIngrICUFBw5KMrA+DhqqqOS35D5P8TCwsLP5u8BQUFBV8RigFQUHCEQ+T/PSL/30xeo9zAV1BQ8GRRLgEUFBzhEPn/q+RsIAPgl5KzoKCg4AmhrAAUFBzB2LRp00ulDnttb7/fP2737t17k7egoKDgK0ZZASgoOIKhmT7v9p+Bwv6qkH9BQcGTRTEACgqOYFRVdUlytvE3SRcUFBQ8YRQDoKDgCIZm+2sZAPclXVBQUPCEUQyAgoIjFCeeeOKmqqr4tO8MZBR8OTkLCgoKnjDKTYAFBUcoNm7c+HIZAJ9I3gb79++fOW83b958royCr5fzRZL83v+hZJfCd0lvl3x8YWGBNwnWkoKCgoJiABQUHKnYtGnTv5D6r+GbAgNg3bp1W3u93nfLQPhuBV0UWx4TK5JfGA6HP//www/vj6CCgoJjFeUSQEHBEQqR+5bkbKAZ/YGNGzf+Ub/fv1Pb/08FPV7yB6wK/MTy8vIdmzdv/uYIKigoOFZRDICCgiMUk8lk5tW/QKS/QfJdyfuEoPTHyZD4wKZNm/55CiooKDgGUS4BFBQcodBM/xdF1u9K3keFCP1TUrdJ7pcsSDYr7TnSr5OskxwGpdk9Ho8vXFxcvCcFFRQUHEMoBkBBwREKzdB/Q+p7w7cm/lzyW/v37/+w9JJDDsc6GRL/ScbAW5L/UJD+0cooKCg4SlEuARQUHKHQDH19cs5A4R/qdrsvEHH/Y8lfK+iRyB8sLiwsfI80chiUF5cTBuErKCg4llAMgIKCIxSatR9MzjZuFqF/0969e7+Y/I8LMhR+W+r/C98UKmP9pk2buExQUFBwjKEYAAUFRyg0Oz/MAFBYLzm/YnS73Z9PzkNxbtIFBQXHEIoBUFBwhOIRVgCesAGQVg2uDd8UMiq4WbCgoOAYQzEACgqOUKy1AiD0k35CUJ73JmcbZQWgoOAYRDEACgqOUKy1AqCwZybnE8VhBoDyLCsABQXHIIoBUFBwhEKz9bU++tPfsmXLkyFsvg0wA5VTngIoKDgGUQyAgoIjFL1e77rknIEI+wkv2Wu2f3ZytvFA0gUFBccQigFQUHCEYu/evbeL7Pclb4PJZPLi5HwiOMwAkFFQDICCgmMQxQAoKDiycX3SDUTYr07OrxgyKNa6fMBnggsKCo4xFAOgoOAIhsh+rcsAr964ceNJyf24sWHDhh9UfpuTt0G32y0GQEHBMYhiABQUHMHQjP0PkrMNztu3hvNxoyei/7fJ3UD537J3794vJG9BQcExhGIAFBQcwVhYWLhCJH1V8jbQTP6H5ufnz0jex8SmTZt+WmqtRwh/J+mCgoJjDMUAKCg4wiGy//3kbOPUfr//m6eddtqaHwxqY+PGjb8l9VPhm0KGxS7J7yZvQUHBMYZiABQUHOEQSf++5PbkbSDD4Jv2799/3YYNG75T3rkInUKz/jeL/D+geI/0KeC3Hjhw4P7kLigoOMZQJV1QUHAEY8uWLS8Yj8cfE5lvSEGHYjUZCXskJyveVukhGx4BPyvj4SeSu6Cg4BhEMQAKCp4m0Iz+9VLvD9+Two+K/N+d3AUFBcconvCXxQoKCv5hsbKy8uXBYPAJOZ+pGf4TeRvgx5Xu+0X+f5j8BQUFxzDKCkBBwdMQGzdu/EdSPy5Cf0mErI26rhcUh/sA/nLfvn2F+AsKChoUA6Cg4GmMzZs3nyCSP0/OZ0vOk3uL9L0ifOQekf6HiFdQUFBQUFBQUFBQUFBQUFBQUFBQUFBQUFBQUFBQUFBQUFBQUFBQUFBQUFBQUFBQUFBQUFBQUFBQUFBQUFBQUFBQUFBQUFBQUFBQUFBQUFBQUFBQUFBQUFBQUFBQUFBQUFBQUFBQUFBQUFBQUFBQUFBQUFBQUFBQUFBQUFBQUFBQUFBQUFBQUFBQUFBQUFBQUFBQUFBQUFBQUFBQUFBQUFBQUFBQUFBQUFBQUFBQUFBQUFBQUFBQUFBQUFBQUFBQUFBQUFBQUFBQUFBQUFBQUFBQUFBQUFBQUFBQUFBQUFBQUFBQUFBQUFBQUFBQUFBQUFBQUFBQUFBQUFDwpNHp/P9LnMDEzPtXwQAAAABJRU5ErkJggg==;" vertex="1" parent="tR3VETBykpzzzQw2HGaD-22">
          <mxGeometry x="30" y="54" width="146" height="146" as="geometry" />
        </mxCell>
        <mxCell id="tR3VETBykpzzzQw2HGaD-24" value="" style="group" vertex="1" connectable="0" parent="1">
          <mxGeometry x="1940" y="162" width="281.25" height="165" as="geometry" />
        </mxCell>
        <mxCell id="tR3VETBykpzzzQw2HGaD-25" value="" style="group;perimeterSpacing=0;strokeWidth=1;movable=1;resizable=1;rotatable=1;deletable=1;editable=1;locked=0;connectable=1;" vertex="1" connectable="0" parent="tR3VETBykpzzzQw2HGaD-24">
          <mxGeometry x="75" width="130" height="130" as="geometry" />
        </mxCell>
        <mxCell id="tR3VETBykpzzzQw2HGaD-26" value="" style="ellipse;whiteSpace=wrap;html=1;aspect=fixed;fillColor=none;strokeWidth=2;fontColor=#733a00;" vertex="1" parent="tR3VETBykpzzzQw2HGaD-25">
          <mxGeometry width="127.5" height="127.5" as="geometry" />
        </mxCell>
        <mxCell id="tR3VETBykpzzzQw2HGaD-27" value="" style="ellipse;whiteSpace=wrap;html=1;aspect=fixed;" vertex="1" parent="tR3VETBykpzzzQw2HGaD-25">
          <mxGeometry x="60" y="10" width="10" height="10" as="geometry" />
        </mxCell>
        <mxCell id="tR3VETBykpzzzQw2HGaD-28" value="" style="ellipse;whiteSpace=wrap;html=1;aspect=fixed;" vertex="1" parent="tR3VETBykpzzzQw2HGaD-25">
          <mxGeometry x="20" y="40" width="10" height="10" as="geometry" />
        </mxCell>
        <mxCell id="tR3VETBykpzzzQw2HGaD-29" value="" style="ellipse;whiteSpace=wrap;html=1;aspect=fixed;" vertex="1" parent="tR3VETBykpzzzQw2HGaD-25">
          <mxGeometry x="100" y="40" width="10" height="10" as="geometry" />
        </mxCell>
        <mxCell id="tR3VETBykpzzzQw2HGaD-30" value="" style="ellipse;whiteSpace=wrap;html=1;aspect=fixed;" vertex="1" parent="tR3VETBykpzzzQw2HGaD-25">
          <mxGeometry x="20" y="80" width="10" height="10" as="geometry" />
        </mxCell>
        <mxCell id="tR3VETBykpzzzQw2HGaD-31" value="" style="ellipse;whiteSpace=wrap;html=1;aspect=fixed;" vertex="1" parent="tR3VETBykpzzzQw2HGaD-25">
          <mxGeometry x="100" y="80" width="10" height="10" as="geometry" />
        </mxCell>
        <mxCell id="tR3VETBykpzzzQw2HGaD-32" value="" style="ellipse;whiteSpace=wrap;html=1;aspect=fixed;" vertex="1" parent="tR3VETBykpzzzQw2HGaD-25">
          <mxGeometry x="60" y="58.75" width="10" height="10" as="geometry" />
        </mxCell>
        <mxCell id="tR3VETBykpzzzQw2HGaD-33" value="" style="verticalLabelPosition=bottom;verticalAlign=top;html=1;shape=mxgraph.basic.half_circle;rotation=-180;strokeWidth=2;fillColor=none;" vertex="1" parent="tR3VETBykpzzzQw2HGaD-25">
          <mxGeometry x="51.25" y="107.5" width="25" height="20" as="geometry" />
        </mxCell>
        <mxCell id="tR3VETBykpzzzQw2HGaD-34" value="&lt;font style=&quot;font-size: 11px;&quot;&gt;3 - TXD&lt;/font&gt;" style="text;html=1;strokeColor=none;fillColor=none;align=center;verticalAlign=middle;whiteSpace=wrap;rounded=0;fontSize=9;fontColor=#CCCC00;" vertex="1" parent="tR3VETBykpzzzQw2HGaD-25">
          <mxGeometry x="25" y="30" width="75" height="10" as="geometry" />
        </mxCell>
        <mxCell id="tR3VETBykpzzzQw2HGaD-35" value="&lt;span style=&quot;font-size: 11px;&quot;&gt;&lt;font color=&quot;#007fff&quot;&gt;6 - VBAT&lt;/font&gt;&lt;/span&gt;" style="text;html=1;strokeColor=none;fillColor=none;align=center;verticalAlign=middle;whiteSpace=wrap;rounded=0;fontSize=9;fontColor=#CCCC00;" vertex="1" parent="tR3VETBykpzzzQw2HGaD-25">
          <mxGeometry x="27.5" y="90" width="75" height="10" as="geometry" />
        </mxCell>
        <mxCell id="tR3VETBykpzzzQw2HGaD-36" value="6-Pin-Julet male" style="text;html=1;strokeColor=none;fillColor=none;align=center;verticalAlign=middle;whiteSpace=wrap;rounded=0;" vertex="1" parent="tR3VETBykpzzzQw2HGaD-24">
          <mxGeometry x="-170" y="132" width="440" height="30" as="geometry" />
        </mxCell>
        <mxCell id="tR3VETBykpzzzQw2HGaD-37" value="&lt;font style=&quot;font-size: 11px;&quot;&gt;1 - RXD&lt;/font&gt;" style="text;html=1;strokeColor=none;fillColor=none;align=center;verticalAlign=middle;whiteSpace=wrap;rounded=0;fontSize=9;fontColor=#FF0000;" vertex="1" parent="tR3VETBykpzzzQw2HGaD-24">
          <mxGeometry x="205" y="77.5" width="75" height="10" as="geometry" />
        </mxCell>
        <mxCell id="tR3VETBykpzzzQw2HGaD-38" value="&lt;font style=&quot;font-size: 11px;&quot;&gt;2 - GND&lt;/font&gt;" style="text;html=1;strokeColor=none;fillColor=none;align=center;verticalAlign=middle;whiteSpace=wrap;rounded=0;fontSize=9;fontColor=default;" vertex="1" parent="tR3VETBykpzzzQw2HGaD-24">
          <mxGeometry x="205" y="40" width="75" height="10" as="geometry" />
        </mxCell>
        <mxCell id="tR3VETBykpzzzQw2HGaD-39" value="&lt;font color=&quot;#00ad00&quot; style=&quot;font-size: 11px;&quot;&gt;5 - VCC&lt;/font&gt;" style="text;html=1;strokeColor=none;fillColor=none;align=center;verticalAlign=middle;whiteSpace=wrap;rounded=0;fontSize=9;fontColor=default;" vertex="1" parent="tR3VETBykpzzzQw2HGaD-24">
          <mxGeometry x="-1.25" y="77.5" width="75" height="10" as="geometry" />
        </mxCell>
        <mxCell id="tR3VETBykpzzzQw2HGaD-40" value="&lt;font color=&quot;#787878&quot; style=&quot;font-size: 11px;&quot;&gt;4 - SD&lt;/font&gt;" style="text;html=1;strokeColor=none;fillColor=none;align=center;verticalAlign=middle;whiteSpace=wrap;rounded=0;fontSize=9;fontColor=default;" vertex="1" parent="tR3VETBykpzzzQw2HGaD-24">
          <mxGeometry x="-1.25" y="40" width="75" height="10" as="geometry" />
        </mxCell>
      </root>
    </mxGraphModel>
  </diagram>
</mxfile>
